<?xml version="1.0" encoding="utf-8"?>
<!-- Generator: Adobe Illustrator 24.0.3, SVG Export Plug-In . SVG Version: 6.00 Build 0)  -->
<svg version="1.1" id="Layer_1" xmlns="http://www.w3.org/2000/svg" xmlns:xlink="http://www.w3.org/1999/xlink" x="0px" y="0px"
	 viewBox="0 0 339 390.6" style="enable-background:new 0 0 339 390.6;" xml:space="preserve">
<style type="text/css">
	.st0{fill:#C49A6C;}
	.st1{fill:#FFFFFF;}
	.st2{fill:#E9C4A9;}
	.st3{font-family:'SukhumvitSet-Light';}
	.st4{font-size:11.6096px;}
	.st5{fill:none;stroke:#D38D30;stroke-width:0.64;stroke-miterlimit:10;}
	.st6{fill:#D2A267;}
</style>
<g id="left_stick">
	<path class="st0" d="M256.4,121.9c-2.4-2.1-4.4-4.6-6-7.4c-6-10.2-4.2-20.9-3.4-24.5s2.2-6.1,3.7-6.1s2.8,2.5,3.5,4.1
		c1.8,4.1,2.7,8.5,2.5,13C256.5,106.4,256.4,112.9,256.4,121.9z"/>
	<path class="st0" d="M247,111.6c-1.8-4.7-3.4-8.5-4.7-11.2c-3.9-8.4-6.6-11.9-9-14.5c-1.9-2-5.6-6-7.6-5c-1.5,0.7-1.4,3.8-1.3,5.4
		c0.4,2.5,1.1,5,2.2,7.3c2.3,5.3,5.7,8.5,7.6,10.5C237.5,108,242,110.6,247,111.6L247,111.6z"/>
	<path class="st0" d="M251.8,123.2l-18-14c-6.4-3.9-12.2-5-14.2-2.8c-0.7,0.8-1,1.9-1,3c0.2,3.1,3.6,5.1,5.5,6.3
		C232.3,120.4,247.6,122.6,251.8,123.2z"/>
	<path class="st1" d="M228,86.9c-0.6,0.5,0,2.8,1.4,3.6c0.2,0.1,0.7,0.4,1.1,0.2c0.6-0.3,0.6-1.5,0.2-2.3
		C230.1,87.2,228.5,86.5,228,86.9z"/>
	<path class="st1" d="M232.4,93.9c-0.6,0.5,0,2.8,1.4,3.6c0.2,0.1,0.7,0.4,1.1,0.2c0.6-0.3,0.6-1.5,0.2-2.3
		C234.6,94.2,233,93.5,232.4,93.9z"/>
	<path class="st1" d="M236.7,99.9c-0.6,0.5,0,2.8,1.4,3.6c0.2,0.1,0.7,0.4,1.1,0.2c0.6-0.3,0.6-1.5,0.2-2.3
		C238.9,100.2,237.2,99.5,236.7,99.9z"/>
	<path class="st1" d="M222.2,109.2c-0.3,0.7,1.3,2.4,3,2.5c0.2,0,0.8,0,1-0.3c0.4-0.5-0.2-1.6-0.9-2.2
		C224.2,108.4,222.4,108.6,222.2,109.2z"/>
	<path class="st1" d="M228,112.8c-0.3,0.7,1.3,2.4,3,2.5c0.2,0,0.8,0,1-0.3c0.4-0.5-0.2-1.6-0.9-2.2
		C230,112.1,228.3,112.2,228,112.8z"/>
	<path class="st1" d="M234.7,115.5c-0.3,0.7,1.3,2.4,2.9,2.5c0.2,0,0.8,0,1.1-0.3c0.4-0.5-0.2-1.6-0.9-2.2
		C236.7,114.8,235,114.9,234.7,115.5z"/>
	<path class="st0" d="M251,195.7c-0.2-5.8-0.5-11.5-0.8-17.3c-0.9-5.6-3.1-9.5-5.4-9.6c-0.8,0-1.6,0.4-2.2,0.9
		c-1.7,1.6-1.2,4.6-0.9,6.3C243,183.1,249.3,193.1,251,195.7z"/>
	<path class="st1" d="M244.6,171.7c-0.6,0.2-0.8,2,0,2.9c0.1,0.1,0.4,0.5,0.7,0.5c0.5,0,0.9-0.9,0.8-1.6
		C246,172.5,245.1,171.5,244.6,171.7z"/>
	<path class="st1" d="M245.3,176.9c-0.6,0.2-0.8,2,0,3c0.1,0.1,0.4,0.5,0.7,0.5s0.9-0.9,0.8-1.6
		C246.8,177.7,245.8,176.7,245.3,176.9z"/>
	<path class="st1" d="M247.1,182.1c-0.6,0.2-0.8,1.9,0,2.9c0.1,0.1,0.4,0.5,0.7,0.5c0.5,0,0.9-0.9,0.8-1.6
		C248.5,182.9,247.5,181.9,247.1,182.1z"/>
	<path class="st0" d="M299.6,158.1l17.8-4.4c5.6-2.1,9.2-5.2,8.8-7.6c-0.2-0.8-0.7-1.6-1.4-2.1c-2-1.4-5-0.3-6.7,0.4
		C311.1,147.2,302,155.8,299.6,158.1z"/>
	<path class="st1" d="M323.2,146.4c-0.3-0.6-2.2-0.4-3.1,0.6c-0.1,0.1-0.4,0.5-0.3,0.8c0.1,0.5,1.1,0.7,1.8,0.5
		C322.7,148,323.5,146.8,323.2,146.4z"/>
	<path class="st1" d="M318,148.3c-0.3-0.6-2.2-0.4-3.1,0.6c-0.1,0.1-0.4,0.5-0.3,0.8c0.1,0.5,1.1,0.7,1.8,0.5
		C317.5,149.9,318.3,148.7,318,148.3z"/>
	<path class="st1" d="M313,151.1c-0.3-0.5-2.2-0.4-3.1,0.6c-0.1,0.1-0.4,0.5-0.3,0.8s1.1,0.7,1.8,0.5
		C312.5,152.8,313.2,151.6,313,151.1z"/>
	<path class="st0" d="M315.2,112.3l16.5-7.7c5.1-3.2,8-6.8,7.2-9.1c-0.4-0.8-1-1.4-1.8-1.8c-2.2-1-5,0.7-6.5,1.6
		C324.3,99.4,317.1,109.6,315.2,112.3z"/>
	<path class="st1" d="M336,96.4c-0.4-0.5-2.2,0-2.9,1.2c-0.1,0.2-0.3,0.6-0.2,0.9s1.2,0.5,1.9,0.1C335.8,98.1,336.3,96.8,336,96.4z"
		/>
	<path class="st1" d="M331.2,99.2c-0.4-0.5-2.2,0-2.9,1.2c-0.1,0.2-0.3,0.6-0.2,0.9s1.2,0.5,1.9,0.1
		C331,100.9,331.6,99.6,331.2,99.2z"/>
	<path class="st1" d="M326.9,103c-0.4-0.5-2.2,0-2.9,1.2c-0.1,0.2-0.3,0.6-0.2,0.9s1.2,0.5,1.9,0.1
		C326.7,104.7,327.2,103.4,326.9,103z"/>
	<path class="st0" d="M297.2,106.4l10.9-13.6c3-4.8,4-9.2,2.3-10.8c-0.6-0.5-1.4-0.8-2.3-0.8c-2.3,0.1-4,2.7-4.9,4.1
		C299.5,91.6,297.6,103.3,297.2,106.4z"/>
	<path class="st1" d="M308.3,84c-0.5-0.2-1.9,1-2,2.2c0,0.2,0,0.6,0.2,0.8s1.2-0.1,1.7-0.7C308.8,85.6,308.7,84.2,308.3,84z"/>
	<path class="st1" d="M305.4,88.4c-0.5-0.2-1.9,1-2,2.2c0,0.2,0,0.6,0.2,0.8s1.2-0.1,1.7-0.7C306,90,305.9,88.6,305.4,88.4z"/>
	<path class="st1" d="M303.2,93.5c-0.5-0.2-1.9,1-2,2.2c0,0.2,0,0.6,0.2,0.8s1.2-0.1,1.7-0.7C303.8,95,303.7,93.7,303.2,93.5z"/>
	<path class="st0" d="M303.1,149.1c1.3-3.9,2.9-7.6,4.8-11.2c1.5-2.9,3.1-5.6,4.9-8.3c3-3.8,6.6-5,8.3-3.9c0.2,0.2,1.2,0.9,1.3,3.3
		C322.4,129,321.4,141.3,303.1,149.1z"/>
	<path class="st0" d="M256.7,194c0.5-3,1.4-6,2.5-8.9c1.7-4.3,4-8.4,6.9-12c1.2-1.9,3.4-2.3,4.5-1.4c0.7,0.7,1,1.7,0.9,2.7
		c-0.7,3.6-2.3,6.9-4.7,9.6L256.7,194z"/>
	<path class="st0" d="M256.6,199.4c0,0,8.6,5.3,21.9,2.2c0,0,9.7-1.6,1-4.8C279.4,196.9,264.1,193.2,256.6,199.4z"/>
	<path class="st0" d="M289.3,113.9c-4.8-8-6.9-17.3-6.2-26.6c0,0,0.8-4,4.1,0.1c1,1.4,1.8,2.8,2.6,4.3c1.5,3.1,2.4,6.3,2.8,9.7
		c0.2,1.7,0.1,3.5-0.1,5.2c-0.2,1.4-0.4,2.7-0.8,4C290.8,111.8,290,112.8,289.3,113.9z"/>
	<path class="st0" d="M294.7,156.4c-0.3-8.5,0.6-17,2.7-25.3c0.4-2.4,2.5-3.8,4.1-3.4c1.1,0.4,2,1.4,2.2,2.6
		c0.5,3.1,0.4,6.2-0.1,9.3C302.5,145.9,299.4,151.8,294.7,156.4z"/>
	<path class="st0" d="M292.8,114.4c0,0,12.9-14.7,20.8-15c0,0,6.6-1.2,2.4,3.2C316,102.7,307.3,113.4,292.8,114.4z"/>
	<path class="st0" d="M209.5,213c0,0-8.3,3.9-1.8,4.9c0,0,20.7-1.9,31.3-8.4c4.3-2.7,8.6-5.5,13.1-8.5c5.4-3.7,10.4-7.3,15-10.9
		c4.3-3.5,8.8-7.5,13.4-12c4.9-4.8,9.2-9.5,13-13.9c0,0,9.3-12.4,10-13.9c0,0-0.9-1.2-2.2,0.5l-11.6,13.6l-14.3,14.4l-19.4,16.1
		c-10,7.5-21.3,13.1-33.3,16.5L209.5,213z"/>
	<path class="st0" d="M253.8,192.7c5.9-22.5,15-44.1,26.9-64.1c1.7-2.9,3.6-6,5.8-9.1c2.7-4,5.5-7.7,8.1-11.1c0,0,1.8-1.5,0.5,0.8
		l-15.5,25.1c-3.2,5.9-6.4,12.2-9.5,18.9c-4.7,10.3-8.9,20.8-12.5,31.6l-3,8.6C254.6,193.4,253.4,195.6,253.8,192.7z"/>
</g>
<g id="right_stick">
	<path class="st0" d="M76.4,234.2c2.2-2,4.1-4.3,5.6-6.8c5.5-9.4,3.8-19.3,3.1-22.6s-2-5.6-3.4-5.7s-2.6,2.3-3.2,3.8
		c-1.7,3.8-2.5,7.9-2.3,12C76.3,219.8,76.4,225.9,76.4,234.2z"/>
	<path class="st0" d="M85.1,224.7c1.6-4.3,3.2-7.8,4.3-10.3c3.7-7.7,6.1-11,8.3-13.4c1.7-1.9,5.2-5.6,7.1-4.7c1.4,0.7,1.3,3.5,1.2,5
		c-0.4,2.3-1.1,4.6-2,6.8c-1.7,3.6-4.1,6.9-7,9.7C93.8,221.3,89.6,223.7,85.1,224.7L85.1,224.7z"/>
	<path class="st0" d="M80.6,235.3l16.7-12.9c6-3.6,11.3-4.6,13.2-2.6c0.6,0.8,0.9,1.8,0.9,2.8c-0.2,2.8-3.3,4.7-5.1,5.8
		C98.7,232.8,84.4,234.8,80.6,235.3z"/>
	<path class="st1" d="M102.6,201.8c0.6,0.4,0,2.6-1.2,3.4c-0.2,0.1-0.6,0.4-1,0.2c-0.5-0.2-0.6-1.4-0.2-2.2
		C100.6,202.1,102.1,201.4,102.6,201.8z"/>
	<path class="st1" d="M98.5,208.3c0.6,0.4,0,2.6-1.2,3.4c-0.2,0.1-0.6,0.4-1,0.2c-0.5-0.2-0.6-1.4-0.2-2.2
		C96.5,208.6,98,207.9,98.5,208.3z"/>
	<path class="st1" d="M94.5,213.9c0.6,0.4,0,2.6-1.3,3.4c-0.2,0.1-0.6,0.4-1,0.2c-0.5-0.2-0.6-1.4-0.2-2.2
		C92.6,214.2,94,213.5,94.5,213.9z"/>
	<path class="st1" d="M108,222.4c0.3,0.7-1.2,2.2-2.7,2.3c-0.2,0-0.8,0-1-0.3c-0.3-0.5,0.2-1.5,0.8-2
		C106.1,221.7,107.8,221.9,108,222.4z"/>
	<path class="st1" d="M102.6,225.8c0.3,0.7-1.2,2.2-2.7,2.3c-0.2,0-0.8,0-1-0.3c-0.3-0.5,0.2-1.5,0.9-2
		C100.7,225.1,102.3,225.2,102.6,225.8z"/>
	<path class="st1" d="M96.4,228.3c0.3,0.7-1.2,2.2-2.7,2.3c-0.2,0-0.8,0-1-0.3c-0.3-0.5,0.2-1.5,0.9-2
		C94.6,227.6,96.2,227.7,96.4,228.3z"/>
	<path class="st0" d="M81.3,302.4c0.2-5.3,0.5-10.7,0.7-16c0.8-5.2,2.9-8.8,5-8.9c0.7,0,1.5,0.3,2,0.8c1.6,1.5,1.1,4.3,0.8,5.8
		C88.7,290.7,82.9,300,81.3,302.4z"/>
	<path class="st1" d="M87.3,280.2c0.5,0.2,0.7,1.8,0,2.7c-0.1,0.1-0.3,0.5-0.6,0.4s-0.8-0.8-0.8-1.5C86,280.9,86.8,280,87.3,280.2z"
		/>
	<path class="st1" d="M86.6,285c0.5,0.2,0.7,1.8,0,2.7c-0.1,0.1-0.3,0.5-0.6,0.4s-0.8-0.8-0.7-1.5C85.3,285.7,86.1,284.8,86.6,285z"
		/>
	<path class="st1" d="M85,289.8c0.5,0.2,0.7,1.8,0,2.7c-0.1,0.1-0.3,0.5-0.6,0.4s-0.8-0.8-0.8-1.5C83.7,290.5,84.6,289.6,85,289.8z"
		/>
	<path class="st0" d="M36.4,267.7l-16.5-4.1c-5.2-2-8.5-4.8-8.2-7.1c0.2-0.8,0.6-1.5,1.3-1.9c1.9-1.3,4.7-0.2,6.2,0.4
		C25.8,257.5,34.2,265.5,36.4,267.7z"/>
	<path class="st1" d="M14.6,256.8c0.3-0.5,2-0.4,2.8,0.6c0.1,0.1,0.4,0.5,0.3,0.8s-1,0.6-1.7,0.5C15.1,258.3,14.4,257.2,14.6,256.8z
		"/>
	<path class="st1" d="M19.4,258.5c0.3-0.5,2-0.4,2.8,0.6c0.1,0.1,0.4,0.5,0.3,0.8s-1,0.6-1.7,0.5C19.9,260.1,19.2,259,19.4,258.5z"
		/>
	<path class="st1" d="M24.1,261.2c0.3-0.5,2-0.4,2.8,0.6c0.1,0.1,0.4,0.5,0.3,0.8c-0.1,0.5-1,0.6-1.7,0.5
		C24.5,262.7,23.8,261.6,24.1,261.2z"/>
	<path class="st0" d="M22,225.3l-15.2-7.1c-4.7-2.9-7.4-6.3-6.6-8.4c0.3-0.7,0.9-1.3,1.6-1.6c2.1-0.9,4.6,0.6,6,1.5
		C13.6,213.4,20.3,222.8,22,225.3z"/>
	<path class="st1" d="M2.8,210.6c0.4-0.4,2,0,2.6,1.1c0.1,0.1,0.3,0.5,0.2,0.8s-1.1,0.4-1.7,0.1C3,212.2,2.5,211,2.8,210.6z"/>
	<path class="st1" d="M7.2,213.2c0.4-0.4,2,0,2.6,1.1c0.1,0.1,0.3,0.5,0.2,0.8s-1.1,0.4-1.7,0.1C7.4,214.8,6.9,213.6,7.2,213.2z"/>
	<path class="st1" d="M11.2,216.7c0.4-0.4,2,0,2.6,1.1c0.1,0.1,0.3,0.5,0.2,0.8s-1.1,0.4-1.7,0.1C11.4,218.2,10.9,217.1,11.2,216.7z
		"/>
	<path class="st0" d="M38.7,219.9l-10.1-12.5c-2.8-4.5-3.7-8.5-2.1-10c0.6-0.5,1.3-0.7,2.1-0.7c2.1,0.1,3.7,2.5,4.5,3.8
		C36.5,206.1,38.2,217,38.7,219.9z"/>
	<path class="st1" d="M28.4,199.2c0.5-0.2,1.7,0.9,1.8,2.1c0,0.2,0,0.6-0.2,0.8s-1.1-0.1-1.5-0.6C27.9,200.6,28,199.4,28.4,199.2z"
		/>
	<path class="st1" d="M31.1,203.2c0.5-0.2,1.7,0.9,1.8,2.1c0,0.2,0,0.6-0.2,0.8s-1.1-0.1-1.5-0.6C30.6,204.7,30.6,203.4,31.1,203.2z
		"/>
	<path class="st1" d="M33.1,207.9c0.5-0.2,1.7,0.9,1.8,2c0,0.2,0,0.6-0.2,0.8s-1.2-0.1-1.5-0.6C32.6,209.4,32.7,208.1,33.1,207.9z"
		/>
	<path class="st0" d="M33.2,259.3c-1.2-3.5-2.7-7-4.4-10.3c-1.4-2.6-2.9-5.2-4.5-7.7c-2.7-3.5-6.1-4.6-7.7-3.6
		c-0.2,0.1-1.1,0.8-1.2,3.1C15.4,240.7,16.3,252.1,33.2,259.3z"/>
	<path class="st0" d="M76.1,300.8c-1.3-7.1-4.3-13.7-8.7-19.3c-1.1-1.7-3.1-2.1-4.1-1.3c-0.6,0.7-0.9,1.6-0.8,2.5
		c0.3,1.4,0.7,2.7,1.2,4c0.8,1.8,1.8,3.4,3.1,4.9L76.1,300.8z"/>
	<path class="st0" d="M76.2,305.8c0,0-7.9,4.9-20.2,2c0,0-9-1.5-0.9-4.4C55.1,303.5,69.2,300,76.2,305.8z"/>
	<path class="st0" d="M46,226.8c1.8-3,3.2-6.2,4.2-9.5c1.4-4.9,2-10,1.6-15.1c0,0-0.7-3.7-3.8,0.1c-0.9,1.3-1.7,2.6-2.4,4
		c-1.4,2.8-2.2,5.9-2.5,9c-0.1,1.6-0.1,3.2,0.1,4.8c0.2,1.3,0.4,2.5,0.8,3.7C44.5,224.8,45.2,225.8,46,226.8z"/>
	<path class="st0" d="M41,266.1c0.1-3.6,0-7.3-0.3-10.9c-0.4-4.2-1.1-8.4-2.1-12.5c-0.4-2.2-2.3-3.5-3.8-3.1c-1,0.4-1.8,1.3-2,2.4
		c-0.4,2.8-0.4,5.7,0.1,8.6C33.9,256.4,36.7,261.8,41,266.1z"/>
	<path class="st0" d="M42.7,227.2c0,0-12-13.6-19.2-13.8c0,0-6.1-1.1-2.2,3C21.3,216.4,29.4,226.4,42.7,227.2z"/>
	<path class="st0" d="M119.7,318.4c0,0,7.7,3.6,1.7,4.6c0,0-19.1-1.8-28.9-7.8c-3.9-2.4-8-5.1-12.1-7.9c-4.9-3.4-9.6-6.8-13.9-10.1
		c-4-3.3-8.1-6.9-12.4-11.1c-4.5-4.4-8.5-8.8-12-12.9c0,0-8.6-11.5-9.2-12.8c0,0,0.8-1.1,2,0.4l10.7,12.6L59,286.6l17.9,14.8
		c9.2,6.9,19.7,12.1,30.8,15.2L119.7,318.4z"/>
	<path class="st0" d="M78.7,299.6c-2.2-8.3-4.8-16.4-7.9-24.4c-4.7-12.1-10.4-23.7-17-34.9c-1.6-2.7-3.4-5.5-5.3-8.4
		c-2.5-3.7-5-7.1-7.5-10.2c0,0-1.7-1.4-0.5,0.7l14.3,23.2c3,5.4,5.9,11.2,8.8,17.4c4.4,9.5,8.3,19.2,11.6,29.2l2.8,8
		C78,300.2,79.1,302.3,78.7,299.6z"/>
</g>
<g id="Card">
	<path class="st2" d="M42.8,48.9c-0.3-1.4-0.4-2.8-0.3-4.2c0.2-2.5,1.2-4.9,2.7-7c1.9-2.5,4.6-4.4,7.7-5.2L223.2,0.2
		c3.4-0.5,6.9,0.2,9.8,2.1c2.6,1.7,4.5,4.2,5.5,7.2l63.3,332.2c1.5,7.3-3,14.6-10.3,16.4l-171.4,32.6c0,0-8.5,1-13.5-7.9l-0.7-1.7
		L42.8,48.9z"/>
	<text transform="matrix(0.1903 0.9817 -0.9817 0.1903 55.47 42.2301)" class="st1 st3 st4">02</text>
	<path class="st5" d="M69.5,46l68.8-13.1l3.6-3.4l5,1.9l79.6-15.1l29.1,153.1l4.9,2.8c-1.1,1.4-2.2,2.8-3.3,4.1
		c10,52.2,20,104.4,30,156.7"/>
	
		<rect x="280.4" y="346.8" transform="matrix(0.9825 -0.1864 0.1864 0.9825 -59.7167 58.3926)" class="st1" width="0.6" height="0.1"/>
	
		<rect x="279.4" y="341.5" transform="matrix(0.9825 -0.1864 0.1864 0.9825 -58.746 58.1078)" class="st1" width="0.6" height="0.1"/>
	
		<rect x="285.1" y="340.4" transform="matrix(0.9825 -0.1864 0.1864 0.9825 -58.4403 59.1457)" class="st1" width="0.6" height="0.1"/>
	
		<rect x="286.1" y="345.7" transform="matrix(0.9825 -0.1864 0.1864 0.9825 -59.4164 59.4305)" class="st1" width="0.6" height="0.1"/>
	
		<rect x="290.6" y="339.3" transform="matrix(0.9825 -0.1864 0.1864 0.9825 -58.1469 60.1591)" class="st1" width="0.6" height="0.1"/>
	
		<rect x="291.6" y="344.6" transform="matrix(0.9825 -0.1864 0.1864 0.9825 -59.1229 60.4455)" class="st1" width="0.6" height="0.1"/>
	
		<rect x="290.9" y="344.8" transform="matrix(0.9825 -0.1864 0.1864 0.9825 -59.1591 60.3166)" class="st1" width="0.6" height="0.1"/>
	
		<rect x="286.8" y="345.6" transform="matrix(0.9825 -0.1864 0.1864 0.9825 -59.3805 59.552)" class="st1" width="0.6" height="0.1"/>
	<path class="st1" d="M284.4,343.4c0.1,0.4,0.1,0.8,0,1.2c-0.1,0.3-0.2,0.7-0.4,1c-0.2,0.3-0.4,0.5-0.7,0.7c-0.3,0.2-0.6,0.3-1,0.4
		l-1.5,0.3l-1-5.5l1.5-0.3c0.4-0.1,0.7-0.1,1.1,0c0.3,0.1,0.6,0.2,0.9,0.4c0.3,0.2,0.5,0.5,0.7,0.8
		C284.2,342.6,284.3,343,284.4,343.4z M283.7,343.5c-0.1-0.4-0.2-0.7-0.3-1c-0.1-0.2-0.3-0.5-0.5-0.6c-0.2-0.2-0.4-0.3-0.7-0.3
		c-0.3,0-0.5,0-0.8,0l-0.8,0.2l0.9,4.5l0.8-0.2c0.3,0,0.5-0.1,0.7-0.3c0.2-0.1,0.4-0.3,0.5-0.5c0.1-0.2,0.2-0.5,0.3-0.8
		C283.7,344.2,283.7,343.8,283.7,343.5L283.7,343.5z"/>
	<path class="st1" d="M291.3,344.9l-0.9-4.8l0,0l-0.8,5.1l-0.6,0.1l-2.6-4.4l0,0l0.9,4.8l-0.7,0.1l-1-5.5l1-0.2l2.6,4.3l0,0l0.8-5
		l1.1-0.2l1,5.5L291.3,344.9z"/>
	<polyline class="st5" points="60.2,60.2 87.5,203.8 84.6,207.8 89.1,210.8 120.1,374 199.2,359 204.6,360.7 208.4,357 275.5,344.2 
			"/>
	<path class="st1" d="M164.7,340c-1.1,0-1.6-0.1-2.8-0.1c-0.1,0.3-0.1,0.5-0.2,0.7l-0.1,0.5c0,0.1,0,0.3,0,0.4c0,0.1,0,0.2,0,0.2
		c0,0.2,0.1,0.3,0.3,0.4c0.2,0.1,0.4,0.1,0.6,0.1c0,0.1,0.1,0.2,0.1,0.4c-1-0.1-1.5-0.1-2.5-0.2c0-0.1,0-0.2-0.1-0.4
		c0.1,0,0.3,0,0.4,0c0.1,0,0.2-0.1,0.3-0.1c0.1-0.1,0.1-0.1,0.2-0.2c0.1-0.1,0.1-0.2,0.1-0.3c0.6-2.5,0.9-3.7,1.5-6.2h0.4
		c1.4,2.3,2,3.4,3.4,5.6c0.2,0.4,0.4,0.7,0.6,0.9c0.1,0.2,0.3,0.3,0.4,0.5c0.1,0.1,0.3,0.2,0.4,0.2c0.2,0,0.3,0,0.5,0l0.1,0.4
		c-1.3,0-2,0-3.3,0c0-0.2,0-0.2-0.1-0.4c0.2,0,0.5,0,0.7-0.1c0.1-0.1,0.2-0.2,0.1-0.3c0-0.1,0-0.1,0-0.2s0-0.1-0.1-0.2
		s-0.1-0.1-0.1-0.2s-0.1-0.2-0.2-0.3C165.1,340.7,165,340.5,164.7,340z M162.1,339.4c0.9,0.1,1.4,0.1,2.4,0.1c-0.7-1.2-1-1.8-1.7-3
		C162.4,337.7,162.3,338.3,162.1,339.4L162.1,339.4z"/>
	<path class="st1" d="M173,337.8c0-0.1-0.1-0.2-0.1-0.4c0.3-0.2,0.5-0.4,0.7-0.7c0.2-0.2,0.3-0.5,0.4-0.8h0.3
		c0.1,0.5,0.1,0.7,0.2,1.2l1.3-0.2c0,0.2,0.1,0.3,0.1,0.5l-1.3,0.2c0.2,1.2,0.3,1.8,0.6,3c0,0.2,0.1,0.4,0.1,0.6
		c0,0.1,0.1,0.3,0.2,0.4c0.1,0.1,0.1,0.1,0.2,0.2c0.1,0,0.2,0,0.3,0c0.1,0,0.3-0.1,0.4-0.2c0.1-0.1,0.2-0.2,0.3-0.4l0.3,0.1
		c0,0.2-0.2,0.5-0.4,0.6c-0.2,0.2-0.5,0.3-0.8,0.3c-0.4,0.1-0.7,0-1.1-0.2c-0.3-0.2-0.5-0.5-0.5-0.9c-0.3-1.4-0.4-2.1-0.7-3.5
		L173,337.8z"/>
	<path class="st1" d="M179.5,336.1c0.4-0.1,0.7-0.1,1.1,0c0.4,0.1,0.7,0.2,1,0.4c0.3,0.2,0.6,0.4,0.8,0.7c0.2,0.3,0.4,0.6,0.4,1
		c0.1,0.4,0.1,0.8,0,1.1c-0.1,0.4-0.2,0.7-0.4,1c-0.2,0.3-0.5,0.5-0.8,0.8c-0.3,0.2-0.6,0.3-1,0.4c-0.4,0.1-0.7,0.1-1.1,0
		c-0.4-0.1-0.7-0.2-1-0.4c-0.3-0.2-0.6-0.5-0.8-0.8c-0.2-0.3-0.4-0.7-0.4-1.1c-0.1-0.4-0.1-0.7,0-1.1c0.1-0.3,0.2-0.7,0.4-1
		c0.2-0.3,0.5-0.5,0.8-0.7C178.8,336.3,179.1,336.2,179.5,336.1z M179.6,336.6c-0.2,0-0.4,0.1-0.6,0.3c-0.2,0.1-0.3,0.3-0.4,0.5
		c-0.1,0.2-0.2,0.5-0.2,0.8c0,0.3,0,0.6,0.1,0.9c0.1,0.3,0.2,0.6,0.3,0.9c0.1,0.2,0.3,0.5,0.5,0.6c0.2,0.2,0.4,0.3,0.6,0.4
		c0.2,0.1,0.5,0.1,0.7,0c0.2,0,0.5-0.1,0.6-0.3c0.2-0.1,0.3-0.3,0.4-0.5c0.1-0.2,0.2-0.5,0.2-0.8c0-0.6-0.1-1.2-0.3-1.8
		c-0.1-0.2-0.3-0.5-0.5-0.6c-0.2-0.2-0.4-0.3-0.6-0.4C180,336.5,179.8,336.5,179.6,336.6L179.6,336.6z"/>
	<path class="st1" d="M185.9,334.7c0.4-0.1,0.7-0.1,1.1-0.1c0.4,0,0.7,0.1,1,0.3c0.3,0.2,0.6,0.4,0.8,0.7c0.2,0.3,0.4,0.6,0.4,1
		c0.1,0.4,0.1,0.8,0,1.2c-0.1,0.4-0.2,0.7-0.4,1c-0.2,0.3-0.5,0.6-0.8,0.8c-0.3,0.2-0.6,0.4-1,0.5c-0.4,0.1-0.7,0.1-1.1,0
		c-0.4,0-0.7-0.2-1-0.4c-0.3-0.2-0.6-0.4-0.8-0.7c-0.4-0.6-0.6-1.4-0.4-2.2c0.1-0.4,0.2-0.7,0.4-1c0.2-0.3,0.5-0.6,0.8-0.8
		C185.2,334.9,185.5,334.8,185.9,334.7z M186,335.2c-0.2,0.1-0.4,0.2-0.6,0.3c-0.2,0.2-0.3,0.4-0.4,0.6c-0.1,0.2-0.2,0.5-0.2,0.8
		c0,0.3,0,0.6,0.1,0.9c0.1,0.3,0.1,0.6,0.3,0.9c0.1,0.2,0.3,0.5,0.5,0.6c0.2,0.2,0.4,0.3,0.6,0.3c0.2,0.1,0.5,0.1,0.7,0
		c0.2-0.1,0.5-0.2,0.6-0.3c0.2-0.2,0.3-0.4,0.4-0.6c0.1-0.3,0.2-0.5,0.2-0.8c0-0.3,0-0.7-0.1-1c-0.1-0.3-0.2-0.6-0.3-0.9
		c-0.1-0.2-0.3-0.4-0.5-0.6c-0.2-0.2-0.4-0.3-0.6-0.3C186.4,335.1,186.2,335.1,186,335.2L186,335.2z"/>
	<path class="st1" d="M191.8,337c0,0.2,0.1,0.4,0.1,0.6c0,0.1,0.1,0.2,0.2,0.3c0.1,0.1,0.2,0.1,0.3,0.1c0.2,0,0.3,0,0.5-0.1l0.1,0.3
		c-1.1,0.3-1.6,0.5-2.7,0.8l-0.1-0.4c0.2,0,0.3-0.1,0.4-0.2c0.2-0.1,0.3-0.3,0.3-0.6c0-0.2,0-0.4-0.1-0.6c-0.3-1.7-0.5-2.5-0.8-4.2
		c-0.1-0.4-0.1-0.6-0.2-0.9c0-0.2-0.1-0.3-0.1-0.5c0-0.1-0.1-0.2-0.3-0.2c-0.2,0-0.4,0-0.7,0.1l-0.1-0.3l1.8-0.9
		C191.1,333.1,191.3,334.4,191.8,337z"/>
	<path class="st1" d="M198,331.3l1.1-0.4c-0.1-0.3-0.1-0.4-0.1-0.7c-0.2-0.7-0.1-1.4,0.2-2c0.3-0.6,0.9-1,1.5-1.2
		c0.3-0.1,0.7-0.2,1-0.1c0.3,0,0.4,0.1,0.5,0.4c0,0.1,0,0.3-0.1,0.4c-0.1,0.1-0.2,0.2-0.3,0.2c-0.1,0-0.2,0-0.3,0
		c-0.1,0-0.3-0.1-0.4-0.1c-0.1-0.1-0.3-0.1-0.4-0.1c-0.1,0-0.2,0-0.3,0c-0.4,0.1-0.7,0.5-0.7,0.9c0,0.2,0,0.4,0,0.5
		c0,0.3,0.1,0.5,0.1,0.8c0.1,0.3,0.1,0.5,0.1,0.8l1.6-0.5c0,0.2,0.1,0.3,0.1,0.5l-1.5,0.5c0.2,1.2,0.4,1.8,0.6,3
		c0,0.2,0.1,0.4,0.2,0.6c0,0.1,0.1,0.2,0.2,0.3c0.1,0.1,0.2,0.1,0.3,0.1c0.2,0,0.4-0.1,0.5-0.1c0,0.1,0,0.2,0.1,0.4l-2.7,0.9
		c0-0.1,0-0.2-0.1-0.4c0.1-0.1,0.3-0.1,0.4-0.2c0.1-0.1,0.2-0.1,0.2-0.2c0-0.1,0.1-0.3,0.1-0.4c0-0.2,0-0.4-0.1-0.6
		c-0.2-1.2-0.4-1.9-0.6-3.1l-1.1,0.4L198,331.3z"/>
	<path class="st1" d="M204.7,328.8c0.3-0.1,0.7-0.2,1.1-0.2c0.3,0,0.7,0.1,1,0.2c0.3,0.2,0.5,0.4,0.7,0.6c0.2,0.3,0.4,0.6,0.4,1
		c0.1,0.4,0.1,0.8,0,1.2c-0.1,0.4-0.2,0.7-0.4,1.1c-0.2,0.3-0.5,0.6-0.7,0.9c-0.3,0.2-0.6,0.4-1,0.6c-0.3,0.1-0.7,0.2-1.1,0.1
		c-0.3,0-0.7-0.1-1-0.3c-0.3-0.2-0.5-0.4-0.7-0.7c-0.2-0.3-0.4-0.6-0.4-1c-0.1-0.8,0-1.5,0.4-2.2c0.2-0.3,0.4-0.6,0.7-0.9
		C204,329.1,204.3,328.9,204.7,328.8z M204.8,329.2c-0.2,0.1-0.4,0.2-0.6,0.4c-0.2,0.2-0.3,0.4-0.4,0.6c-0.1,0.3-0.2,0.5-0.2,0.8
		c0,0.3,0,0.6,0.1,0.9c0.1,0.3,0.2,0.6,0.3,0.9c0.1,0.2,0.3,0.4,0.4,0.6c0.2,0.1,0.4,0.2,0.6,0.3c0.2,0,0.5,0,0.7-0.1
		c0.2-0.1,0.5-0.2,0.6-0.4c0.2-0.2,0.3-0.4,0.4-0.6c0.1-0.3,0.2-0.5,0.2-0.8c0-0.3,0-0.7-0.1-1c-0.1-0.3-0.1-0.6-0.3-0.9
		c-0.1-0.2-0.3-0.4-0.5-0.6c-0.2-0.1-0.4-0.2-0.6-0.3C205.2,329.1,205,329.1,204.8,329.2L204.8,329.2z"/>
	<path class="st1" d="M210.7,330.7c0.1,0.3,0.1,0.5,0.1,0.6c0,0.1,0.1,0.2,0.2,0.3c0.1,0.1,0.2,0.1,0.3,0.1c0.2,0,0.3,0,0.4-0.1
		c0,0.1,0,0.2,0.1,0.3l-2.6,0.9c0-0.1,0-0.2-0.1-0.3c0.2-0.1,0.3-0.1,0.4-0.2c0.1-0.1,0.2-0.1,0.2-0.2c0-0.1,0-0.3,0-0.4
		c0-0.2,0-0.4-0.1-0.6c-0.1-0.5-0.1-0.7-0.2-1.2s-0.2-0.8-0.2-1c0-0.2-0.1-0.4-0.2-0.5c-0.1-0.1-0.2-0.1-0.3-0.1
		c-0.2,0-0.3,0.1-0.5,0.1l-0.1-0.4l1.6-1l0.4,1.2l0,0c0-0.2,0.1-0.4,0.2-0.6c0.1-0.2,0.2-0.4,0.3-0.6c0.1-0.2,0.3-0.3,0.4-0.4
		c0.1-0.1,0.3-0.2,0.5-0.3c0.2-0.1,0.3-0.1,0.5,0c0.1,0.1,0.2,0.2,0.3,0.4c0,0.1,0,0.3-0.1,0.4c-0.1,0.1-0.2,0.2-0.4,0.3
		c-0.1,0-0.2,0.1-0.3,0h-0.2h-0.2c-0.1,0-0.1,0-0.2,0c-0.2,0.1-0.4,0.3-0.4,0.5c-0.1,0.3-0.2,0.7-0.2,1c0,0.5,0,1,0.1,1.5
		L210.7,330.7z"/>
	<path class="st1" d="M219.5,329.4l-0.2,0.1c-0.1-0.7-0.2-1-0.3-1.7l0.2-0.1c0.4,0.9,1,1.2,1.6,1c0.2-0.1,0.4-0.2,0.6-0.4
		c0.1-0.2,0.2-0.4,0.1-0.7c0-0.1,0-0.2-0.1-0.2c-0.1-0.1-0.1-0.1-0.2-0.2c-0.1-0.1-0.3-0.1-0.4-0.2c-0.2,0-0.4-0.1-0.6-0.2
		s-0.5-0.1-0.6-0.2c-0.2-0.1-0.3-0.1-0.5-0.2c-0.1-0.1-0.2-0.2-0.3-0.3c-0.1-0.1-0.1-0.3-0.2-0.5c0-0.2,0-0.4,0-0.6
		c0.1-0.4,0.3-0.7,0.6-1c0.2-0.1,0.3-0.2,0.6-0.3c0.2-0.1,0.4-0.1,0.6-0.1c0.2,0,0.4,0,0.5,0.1l0.1-0.3l0.2,0
		c0.1,0.6,0.2,0.9,0.3,1.4l-0.3,0.1c-0.1-0.3-0.4-0.5-0.6-0.7c-0.2-0.1-0.4-0.1-0.7-0.1c-0.2,0.1-0.4,0.2-0.5,0.3
		c-0.1,0.2-0.1,0.4-0.1,0.6c0,0.1,0,0.2,0.1,0.3c0.1,0.1,0.1,0.1,0.2,0.2c0.1,0.1,0.2,0.1,0.3,0.1l0.5,0.1c0.3,0.1,0.6,0.2,0.8,0.2
		c0.2,0.1,0.4,0.2,0.6,0.3c0.1,0.1,0.3,0.2,0.4,0.3c0.1,0.1,0.1,0.3,0.2,0.5c0.1,0.4,0,0.9-0.2,1.2c-0.6,0.8-1.6,1-2.5,0.7
		L219.5,329.4z"/>
	<path class="st1" d="M226.8,323.4c0-0.2-0.1-0.4-0.1-0.6c0-0.1-0.1-0.2-0.2-0.3c-0.1-0.1-0.2-0.1-0.3-0.1c-0.2,0-0.3,0-0.5,0
		c0-0.1,0-0.2-0.1-0.3l1.8-0.5c0.2,1.2,0.3,1.8,0.6,3c0.1,0.4,0.1,0.7,0.2,0.9s0.1,0.4,0.1,0.5c0,0.1,0.1,0.1,0.1,0.2
		c0,0,0.1,0.1,0.1,0.1c0.1,0,0.2,0,0.2,0l0.4-0.1c0,0.1,0,0.2,0.1,0.4c-0.6,0.2-1,0.3-1.6,0.5c-0.1-0.5-0.2-0.7-0.3-1.2l0,0
		c-0.1,0.4-0.4,0.8-0.7,1.1c-0.5,0.5-1.1,0.7-1.8,0.6c-0.2,0-0.5-0.1-0.7-0.3c-0.2-0.1-0.3-0.3-0.4-0.5c-0.1-0.3-0.2-0.7-0.3-1
		l-0.3-1.6c-0.1-0.3-0.1-0.5-0.1-0.6c0-0.1-0.1-0.2-0.2-0.3c-0.1-0.1-0.2-0.1-0.3-0.1c-0.2,0-0.3,0-0.5,0.1c0-0.1,0-0.2-0.1-0.4
		l1.8-0.5c0.2,1.1,0.3,1.6,0.5,2.7c0.1,0.5,0.3,1,0.5,1.5c0.2,0.3,0.6,0.4,0.9,0.3c0.6-0.2,1.1-0.8,1.1-1.5c0-0.1,0-0.2,0-0.2
		c0-0.1,0-0.2,0-0.2c0-0.1,0-0.2,0-0.3s0-0.2-0.1-0.4C227,324,226.9,323.8,226.8,323.4z"/>
	<path class="st1" d="M234.4,324.6c-0.2,0.3-0.5,0.6-0.8,0.9c-0.4,0.2-0.7,0.4-1.2,0.5c-0.3,0.1-0.7,0.1-1,0
		c-0.3-0.1-0.6-0.2-0.9-0.4c-0.3-0.2-0.5-0.4-0.6-0.7c-0.2-0.3-0.3-0.7-0.4-1c-0.1-0.4-0.1-0.8,0-1.2c0.1-0.4,0.2-0.7,0.4-1
		c0.2-0.3,0.5-0.5,0.8-0.7c0.3-0.2,0.7-0.4,1.1-0.4c0.2,0,0.5-0.1,0.7-0.1c0.2,0,0.4,0,0.6,0.1c0.2,0,0.3,0.1,0.4,0.2
		c0.1,0.1,0.2,0.2,0.2,0.3c0,0.1,0,0.2-0.1,0.3c-0.1,0.1-0.2,0.2-0.3,0.2c-0.1,0-0.2,0-0.3,0c-0.1-0.1-0.3-0.2-0.4-0.3
		c-0.1-0.1-0.3-0.2-0.4-0.2c-0.2,0-0.3,0-0.5,0c-0.4,0.1-0.8,0.4-0.9,0.8c-0.3,1.1-0.1,2.4,0.7,3.3c0.3,0.3,0.8,0.5,1.3,0.3
		c0.3-0.1,0.5-0.2,0.7-0.3c0.2-0.2,0.5-0.4,0.6-0.7L234.4,324.6z"/>
	<path class="st1" d="M239.7,323.8c-0.2,0.3-0.5,0.6-0.8,0.8c-0.4,0.2-0.8,0.4-1.2,0.4c-0.3,0.1-0.7,0.1-1,0
		c-0.3-0.1-0.6-0.2-0.9-0.4c-0.3-0.2-0.5-0.5-0.6-0.8c-0.2-0.3-0.3-0.7-0.4-1.1c-0.1-0.4-0.1-0.8,0-1.2c0.1-0.4,0.2-0.7,0.4-1
		c0.2-0.3,0.5-0.5,0.8-0.7c0.3-0.2,0.7-0.3,1.1-0.4c0.2,0,0.5,0,0.7,0c0.2,0,0.4,0,0.6,0.1c0.2,0,0.3,0.1,0.4,0.2
		c0.1,0.1,0.2,0.2,0.2,0.3c0,0.1,0,0.2-0.1,0.3c-0.1,0.1-0.2,0.1-0.3,0.1c-0.1,0-0.2,0-0.3,0c-0.1-0.1-0.3-0.2-0.4-0.3
		c-0.1-0.1-0.3-0.2-0.4-0.3c-0.2,0-0.3,0-0.5,0c-0.4,0-0.8,0.3-1,0.7c-0.2,0.5-0.2,1.1-0.1,1.6c0.1,0.6,0.3,1.2,0.7,1.6
		c0.3,0.3,0.8,0.5,1.3,0.4c0.3,0,0.5-0.1,0.8-0.3c0.2-0.2,0.5-0.4,0.6-0.6L239.7,323.8z"/>
	<path class="st1" d="M245.2,323.3c-0.4,0.7-1.1,1.1-1.9,1.1c-0.4,0-0.7,0-1.1-0.1c-0.3-0.1-0.7-0.3-0.9-0.5
		c-0.3-0.2-0.5-0.5-0.7-0.8c-0.2-0.3-0.3-0.7-0.4-1.1c-0.1-0.4-0.1-0.8,0-1.1c0.1-0.3,0.2-0.7,0.4-0.9c0.2-0.3,0.5-0.5,0.8-0.6
		c0.3-0.2,0.7-0.3,1.1-0.3c1.2-0.2,2.3,0.7,2.4,1.8c0,0,0,0,0,0c0,0.1,0,0.1,0,0.2c-0.1,0-0.2,0-0.2,0c-1.3,0.1-2,0.1-3.3,0.2
		c0,0.1,0,0.1,0,0.2c0,0.1,0,0.2,0,0.2c0.1,0.3,0.2,0.6,0.3,0.9c0.1,0.3,0.3,0.5,0.5,0.7c0.2,0.2,0.4,0.3,0.6,0.4
		c0.2,0.1,0.5,0.1,0.8,0.1c0.3,0,0.5-0.1,0.8-0.2c0.3-0.2,0.5-0.4,0.6-0.6L245.2,323.3z M243,320.7h0.3c0.1,0,0.1,0,0.2,0
		c0,0,0.1-0.1,0.1-0.1c0,0,0-0.1,0-0.1c0-0.3-0.2-0.5-0.4-0.7c-0.3-0.2-0.6-0.3-0.9-0.2c-0.7,0-1.1,0.5-1.1,1.4L243,320.7z"/>
	<path class="st1" d="M246.8,324.1h-0.2c-0.1-0.7-0.2-1-0.3-1.7h0.2c0.4,0.9,1,1.4,1.7,1.4c0.2,0,0.4-0.1,0.6-0.2
		c0.1-0.2,0.2-0.4,0.1-0.6c0-0.1,0-0.2-0.1-0.3c-0.1-0.1-0.1-0.2-0.2-0.2c-0.1-0.1-0.3-0.2-0.4-0.3l-0.7-0.4
		c-0.2-0.1-0.5-0.2-0.7-0.4c-0.2-0.1-0.3-0.2-0.5-0.4c-0.1-0.1-0.2-0.2-0.3-0.4c-0.1-0.1-0.2-0.3-0.2-0.5c0-0.2,0-0.4,0-0.6
		c0-0.2,0.1-0.3,0.2-0.5c0.1-0.1,0.3-0.2,0.4-0.3c0.2-0.1,0.4-0.1,0.6-0.1c0.2,0,0.4,0,0.6,0.1c0.2,0,0.4,0.1,0.6,0.2l0.2-0.2h0.2
		l0.3,1.4h-0.3c-0.2-0.3-0.4-0.6-0.6-0.9c-0.2-0.2-0.4-0.3-0.7-0.3c-0.2,0-0.4,0.1-0.5,0.2c-0.1,0.1-0.2,0.3-0.1,0.5
		c0,0.1,0.1,0.2,0.1,0.3c0.1,0.1,0.1,0.2,0.2,0.2c0.1,0.1,0.2,0.2,0.4,0.2l0.5,0.3l0.8,0.5c0.2,0.1,0.4,0.3,0.6,0.4
		c0.1,0.1,0.3,0.3,0.4,0.4c0.1,0.2,0.2,0.3,0.2,0.5c0.1,0.4,0,0.8-0.3,1.1c-0.3,0.3-0.7,0.4-1.2,0.4c-0.5,0-1-0.1-1.4-0.4
		L246.8,324.1z"/>
	<path class="st1" d="M251.4,324.2h-0.2c-0.1-0.7-0.2-1-0.3-1.7h0.3c0.2,0.8,0.9,1.4,1.7,1.5c0.2,0,0.4,0,0.6-0.1
		c0.2-0.1,0.2-0.4,0.1-0.6c0-0.1,0-0.2-0.1-0.2c-0.1-0.1-0.1-0.2-0.2-0.2c-0.1-0.1-0.3-0.2-0.4-0.3l-0.7-0.4l-0.7-0.4
		c-0.2-0.1-0.3-0.2-0.5-0.4c-0.1-0.1-0.2-0.3-0.3-0.4c-0.1-0.2-0.1-0.3-0.2-0.5c0-0.2,0-0.4,0-0.6c0-0.2,0.1-0.3,0.2-0.5
		c0.1-0.1,0.3-0.2,0.4-0.3c0.2-0.1,0.4-0.1,0.6-0.1c0.2,0,0.4,0.1,0.6,0.1c0.2,0.1,0.4,0.2,0.6,0.3l0.2-0.2h0.2l0.3,1.4h-0.3
		c-0.2-0.3-0.4-0.6-0.7-0.9c-0.2-0.2-0.5-0.3-0.7-0.3c-0.2,0-0.4,0-0.5,0.1c-0.1,0.1-0.2,0.3-0.1,0.5c0,0.1,0.1,0.2,0.1,0.3
		c0.1,0.1,0.1,0.2,0.2,0.2c0.1,0.1,0.2,0.2,0.4,0.3l0.5,0.3l0.9,0.5c0.2,0.1,0.4,0.3,0.6,0.5c0.1,0.1,0.3,0.3,0.4,0.5
		c0.1,0.2,0.2,0.3,0.2,0.5c0.1,0.4,0,0.8-0.3,1c-0.3,0.3-0.8,0.4-1.2,0.3c-0.5,0-1-0.2-1.5-0.5C251.5,324,251.5,324.1,251.4,324.2z"
		/>
	<path class="st1" d="M105.8,97l-0.4-0.5c0.3-0.2,0.5-0.5,0.8-0.8c0.2-0.2,0.3-0.4,0.3-0.7c0-0.2,0-0.4-0.1-0.6
		c-0.2-0.3-0.3-0.5-0.6-0.8l-5-6c-0.2-0.2-0.4-0.5-0.7-0.7c-0.2-0.1-0.4-0.2-0.6-0.2c-0.2,0-0.5,0.1-0.7,0.2
		c-0.3,0.2-0.6,0.4-0.9,0.6L97.6,87c2.2-1.9,3.3-2.8,5.5-4.5c0.9-0.7,1.9-1.2,3-1.6c0.9-0.3,1.9-0.4,2.9-0.4
		c0.9,0.1,1.8,0.4,2.6,0.8c0.8,0.5,1.5,1.1,1.9,1.9c0.5,0.7,0.8,1.5,0.9,2.4c0.1,0.8,0.1,1.7-0.1,2.4c-0.2,0.8-0.6,1.6-1.1,2.3
		c-0.6,0.8-1.2,1.5-2,2.1C109,94.2,107.9,95.1,105.8,97z M101.6,84.8c-0.2,0.1-0.2,0.3-0.1,0.4l5.7,7c0.8,1,1.9,0.9,3.3-0.2
		c1.2-0.8,2-2,2.2-3.3c0.1-1.4-0.3-2.9-1.2-4c-0.5-0.7-1-1.3-1.7-1.8c-1.2-0.9-2.7-1.2-4.1-0.8c-0.8,0.2-1.5,0.6-2.2,1.1
		C102.8,83.9,102.4,84.2,101.6,84.8L101.6,84.8z"/>
	<path class="st1" d="M119,72.3c1-0.5,2-0.9,3.1-1c1-0.1,2-0.1,3,0.2c0.9,0.2,1.7,0.7,2.4,1.2c0.7,0.6,1.2,1.3,1.6,2.2
		c0.3,0.8,0.5,1.7,0.4,2.6c0,0.9-0.3,1.7-0.6,2.5c-0.4,0.8-0.9,1.6-1.5,2.2c-0.7,0.7-1.5,1.3-2.4,1.7c-0.9,0.5-1.8,0.8-2.8,0.9
		c-0.9,0.2-1.8,0.2-2.7,0c-0.9-0.2-1.7-0.5-2.4-1c-0.7-0.5-1.4-1.1-1.8-1.8c-0.5-0.8-0.8-1.7-0.9-2.6c-0.1-0.9,0.1-1.8,0.4-2.7
		c0.3-0.9,0.9-1.8,1.6-2.5C117.1,73.5,118,72.8,119,72.3z M124.6,83.2c0.6-0.3,1.2-0.7,1.7-1.3c0.4-0.5,0.8-1.1,1-1.7
		c0.2-0.6,0.3-1.3,0.2-2c-0.1-0.8-0.3-1.5-0.6-2.2c-0.3-0.7-0.8-1.4-1.3-2c-0.5-0.5-1.1-0.9-1.8-1.2c-0.7-0.3-1.4-0.4-2.1-0.3
		c-0.8,0.1-1.6,0.3-2.3,0.7c-0.7,0.4-1.4,0.9-1.9,1.5c-0.5,0.5-0.8,1.2-1,1.9c-0.2,0.7-0.2,1.4,0,2.1c0.2,0.8,0.5,1.6,0.9,2.3
		c0.4,0.7,0.9,1.3,1.5,1.8c0.5,0.4,1.1,0.8,1.8,1c0.6,0.2,1.3,0.3,1.9,0.2C123.3,83.8,124,83.6,124.6,83.2L124.6,83.2z"/>
	<path class="st1" d="M150.5,71.9c0.9-3.6,1.9-7.1,3.2-10.5c1.7-0.2,2.6-0.4,4.4-0.5c0,0.2,0,0.4,0.1,0.6c-0.3,0-0.7,0.1-1,0.2
		c-0.2,0.1-0.4,0.3-0.5,0.5c-0.1,0.2-0.2,0.5-0.2,0.8c0,0.4,0,0.8,0.1,1.2c0.3,2.6,0.5,3.9,0.8,6.5c0,0.4,0.1,0.9,0.2,1.3
		c0.1,0.3,0.2,0.5,0.4,0.7c0.2,0.2,0.4,0.3,0.6,0.3c0.3,0,0.7,0,1,0c0,0.3,0,0.4,0.1,0.6c-2.2,0.2-3.4,0.4-5.6,0.7l-0.1-0.6
		c0.3,0,0.7-0.1,1-0.3c0.2-0.1,0.4-0.2,0.5-0.4c0.1-0.2,0.2-0.5,0.2-0.7c0-0.4,0-0.8-0.1-1.2c-0.4-3.1-0.6-4.6-1.1-7.7h-0.2
		c-1.4,3.8-2.5,7.7-3.5,11.7l-0.4,0.1c-2.3-3.3-4.8-6.5-7.5-9.5h-0.1c0.8,3,1.1,4.4,1.9,7.4c0.1,0.4,0.2,0.8,0.4,1.3
		c0.1,0.3,0.3,0.5,0.4,0.7c0.2,0.1,0.4,0.2,0.6,0.2c0.3,0,0.7-0.1,1-0.1l0.1,0.6c-1.9,0.4-2.8,0.7-4.7,1.2c-0.1-0.2-0.1-0.4-0.2-0.6
		c0.3-0.1,0.6-0.2,0.9-0.4c0.2-0.1,0.4-0.3,0.5-0.5c0.1-0.2,0.1-0.5,0.1-0.8c-0.1-0.4-0.1-0.8-0.2-1.2c-0.7-2.6-1-3.9-1.7-6.5
		c-0.1-0.4-0.2-0.8-0.4-1.1c-0.1-0.2-0.2-0.5-0.4-0.6c-0.2-0.1-0.4-0.2-0.7-0.2c-0.3,0-0.7,0.1-1,0.1c-0.1-0.2-0.1-0.4-0.2-0.6
		c1.8-0.5,2.7-0.8,4.6-1.2C146.7,66.6,148,68.3,150.5,71.9L150.5,71.9z"/>
	<path class="st1" d="M168.2,60.1c1.1,0,2.2,0.2,3.2,0.5c0.9,0.3,1.8,0.8,2.6,1.5c0.7,0.6,1.2,1.4,1.6,2.2c0.4,0.8,0.5,1.7,0.4,2.7
		c-0.1,0.9-0.3,1.7-0.8,2.5c-0.4,0.8-1,1.4-1.7,2c-0.7,0.6-1.5,1-2.4,1.3c-1.8,0.6-3.8,0.6-5.7,0c-0.9-0.3-1.7-0.7-2.4-1.3
		c-0.7-0.5-1.3-1.2-1.7-1.9c-0.5-0.8-0.7-1.6-0.8-2.5c-0.1-0.9,0-1.8,0.4-2.7c0.3-0.8,0.9-1.6,1.5-2.2c0.7-0.7,1.6-1.2,2.5-1.5
		C166,60.3,167.1,60.1,168.2,60.1z M168.3,72.4c0.7,0,1.4-0.1,2.1-0.4c0.6-0.2,1.2-0.6,1.6-1.1c0.5-0.5,0.9-1.1,1.1-1.7
		c0.6-1.5,0.6-3.2,0.2-4.7c-0.2-0.7-0.5-1.3-1-1.9c-0.5-0.5-1.1-0.9-1.7-1.2c-0.7-0.3-1.5-0.4-2.3-0.4c-0.8,0-1.6,0.1-2.3,0.5
		c-0.7,0.3-1.2,0.7-1.7,1.2c-0.5,0.5-0.8,1.2-1,1.9c-0.2,0.8-0.3,1.6-0.2,2.4c0,0.8,0.2,1.5,0.5,2.3c0.2,0.6,0.6,1.2,1.1,1.7
		c0.5,0.4,1,0.8,1.6,1C166.9,72.3,167.6,72.4,168.3,72.4L168.3,72.4z"/>
	<path class="st1" d="M189.6,65.5c-0.1,0.8-0.6,1.5-1.3,2c-0.9,0.5-2,0.7-3,0.7c1.4,2,2,3,3.2,5.1c0.2,0.4,0.5,0.7,0.9,1
		c0.4,0.3,0.8,0.5,1.3,0.7l-0.1,0.6c-1.3-0.3-2-0.4-3.3-0.7c-1.3-2.4-2-3.6-3.5-5.9c-0.1-0.2-0.2-0.4-0.4-0.5
		c-0.1-0.1-0.3-0.2-0.4-0.3c-0.2-0.1-0.3-0.1-0.5-0.2l-0.7-0.1c-0.2,1.4-0.2,2.1-0.4,3.4c0,0.3,0,0.7,0,1c0,0.2,0.1,0.5,0.3,0.7
		c0.2,0.2,0.4,0.3,0.7,0.4c0.4,0.1,0.8,0.2,1.3,0.3l-0.1,0.6c-2.4-0.4-3.7-0.5-6.1-0.7v-0.6c0.3,0,0.7,0,1,0c0.2,0,0.4-0.1,0.6-0.2
		c0.2-0.1,0.3-0.3,0.3-0.5c0.1-0.3,0.1-0.6,0.2-0.9c0.3-3.1,0.5-4.6,0.8-7.7c0-0.3,0-0.6,0-0.9c0-0.2-0.1-0.4-0.2-0.6
		c-0.1-0.2-0.3-0.3-0.6-0.3c-0.3-0.1-0.7-0.2-1-0.2c0-0.3,0-0.4,0.1-0.6c2.5,0.2,3.7,0.3,6.2,0.7c1.5,0.1,2.9,0.7,4.1,1.5
		C189.4,63.5,189.8,64.5,189.6,65.5z M181.7,67l1.3,0.2c1,0.2,1.9,0.1,2.9-0.2c1.3-0.8,1.7-2.5,0.9-3.8c0,0,0-0.1-0.1-0.1
		c-0.6-0.6-1.4-0.9-2.3-1l-1.8-0.2c-0.2,0-0.4,0-0.4,0.2C182,64.1,181.9,65,181.7,67z"/>
	<path class="st1" d="M196.3,69.7c0.6,0.2,1.1,0.3,1.7,0.4c0.4,0.1,0.8,0.1,1.2,0c0.3-0.1,0.5-0.2,0.8-0.4c0.2-0.2,0.4-0.5,0.4-0.8
		l0.7,0.2c-0.6,1.7-0.8,2.6-1.4,4.3l-0.6-0.2c0.1-0.3,0.1-0.6,0.1-0.9c0-0.3-0.2-0.5-0.4-0.8c-0.3-0.3-0.6-0.5-1-0.7
		c-0.5-0.3-1.1-0.5-1.6-0.6l-1,3.6c-0.1,0.3-0.1,0.6-0.1,0.9c0,0.3,0.1,0.5,0.3,0.7c0.2,0.2,0.5,0.4,0.8,0.6
		c0.4,0.2,0.9,0.4,1.3,0.5c0.5,0.2,1.1,0.3,1.6,0.4c0.4,0.1,0.8,0.1,1.2,0c0.4-0.1,0.7-0.3,0.9-0.5c0.3-0.3,0.6-0.6,0.8-1l0.7,0.2
		c-0.6,1.2-0.8,1.8-1.4,3c-3.5-1.3-7-2.3-10.6-3.1c0.1-0.2,0.1-0.4,0.1-0.6c0.3,0.1,0.7,0.1,1,0.1c0.2,0,0.4,0,0.6-0.1
		c0.2-0.1,0.3-0.3,0.4-0.5c0.1-0.3,0.2-0.6,0.3-0.9c0.8-3,1.1-4.5,1.9-7.5c0.1-0.3,0.1-0.6,0.2-0.9c0-0.2,0-0.4-0.1-0.6
		c-0.1-0.2-0.3-0.3-0.5-0.4c-0.3-0.1-0.7-0.3-1-0.3c0-0.2,0.1-0.4,0.1-0.6c3.8,0.8,7.5,1.9,11.2,3.3l-0.8,2.8l-0.6-0.3
		c0.1-0.4,0.1-0.8,0-1.2c-0.1-0.3-0.2-0.6-0.5-0.9c-0.3-0.3-0.6-0.5-1-0.7c-0.5-0.2-1.1-0.5-1.6-0.6c-1-0.3-1.5-0.4-2.4-0.7
		c-0.2-0.1-0.4,0-0.4,0.2L196.3,69.7z"/>
	<path class="st1" d="M216,180.5C216,180.5,216,180.5,216,180.5c0,0.3,0.1,0.5,0.4,0.6c2.2,0.3,4.2,1.4,5.6,3.1
		c0.7,0.9,1.4,1.9,1.9,3l1.7,3.2c0.4,0.7,0.7,1.3,1,2.1c0.1,0.5,0.3,1.1,0.3,1.7l1.1,7.4c0,0.2,0.3,0.4,0.5,0.4
		c0.2,0,0.4-0.3,0.4-0.5l-1.2-7.3c-0.1-0.6-0.2-1.2-0.4-1.8c-0.3-0.8-0.6-1.5-1-2.2l-1.7-3.2c-0.6-1.1-1.2-2.2-2-3.1
		c-1.6-1.9-3.8-3.1-6.2-3.4C216.3,180.2,216.1,180.3,216,180.5z"/>
	<path class="st1" d="M215.8,180.6L215.8,180.6c-0.4,2.6,0.7,5.1,2.9,6.6l0.3,0.2c0.3,0.2,0.6,0.4,0.9,0.6c0.3,0.5,0.5,1,0.6,1.6
		c0.7,4.6,0,8.1-1.9,10.4c-0.9,1-1.9,1.9-3,2.6c-0.4,0.3-0.9,0.6-1.3,1c-3.5,2.7-6,6.5-7.3,10.7c-0.1,0.2,0.1,0.5,0.3,0.5
		c0,0,0,0,0,0c0.2,0.1,0.5-0.1,0.5-0.3c0,0,0,0,0,0c0,0,0,0,0-0.1c1.3-4,3.7-7.6,7-10.2c0.4-0.3,0.9-0.6,1.3-1
		c1.2-0.8,2.3-1.7,3.2-2.8c2.1-2.6,2.8-6.3,2.1-11.1c-0.1-0.7-0.3-1.4-0.7-2c-0.3-0.3-0.7-0.6-1.1-0.8l-0.3-0.2
		c-1.9-1.3-2.8-3.5-2.5-5.7c0-0.2-0.1-0.5-0.3-0.5c0,0,0,0,0,0C216.1,180.2,215.9,180.4,215.8,180.6
		C215.8,180.6,215.8,180.6,215.8,180.6z"/>
	<path class="st1" d="M219.2,174.2c-0.5,1.7-0.4,3.5,0.2,5.2c0.6,1.6,1.4,3,2.5,4.3c0.3,0.4,0.6,0.8,0.8,1.2
		c0.1,0.2,0.4,0.3,0.6,0.1c0.2-0.1,0.2-0.4,0.1-0.6c-0.3-0.4-0.6-0.8-0.8-1.2c-1-1.3-1.8-2.6-2.4-4.1c-0.7-1.8-0.6-3.8,0.2-5.6
		c0.1-0.2,0.2-0.3,0.2-0.3s0.1,0,0.4,0.4c3.5,4.7,6.3,10,8.3,15.5c0.2,0.5,0.4,1.1,0.4,1.7c0,0.4-0.1,0.9-0.2,1.3l-1.7,6
		c-0.1,0.2,0.1,0.5,0.3,0.5c0,0,0,0,0,0c0.2,0.1,0.4,0,0.5-0.2c0,0,0,0,0-0.1l1.7-6c0.1-0.5,0.2-1,0.3-1.5c0-0.7-0.2-1.4-0.4-2
		c-2-5.6-4.8-10.9-8.4-15.7c-0.2-0.2-0.6-0.9-1.3-0.7c-0.4,0.1-0.7,0.4-0.8,0.7C219.5,173.5,219.4,173.8,219.2,174.2z"/>
	<path class="st1" d="M225.2,171.3c-0.2,0.5-0.3,1-0.3,1.5c0,1.6,0.2,3.2,0.6,4.7c0.1,0.4,0.2,0.7,0.3,1c0.3,1,0.5,2,0.4,3
		c0,0.2,0.1,0.5,0.4,0.5c0.2,0,0.5-0.1,0.5-0.4l0,0c0.1-1.1-0.1-2.3-0.4-3.3c-0.1-0.3-0.2-0.6-0.2-0.9c-0.4-1.5-0.7-3-0.6-4.5
		c0-1.3,0.6-2.5,1.5-3.4l2.8,6.7c0.4,0.8,0.7,1.8,0.8,2.7c0,0.9,0,1.8-0.3,2.6c-0.2,0.8-0.4,1.6-0.7,2.4c-0.4,1.1-0.7,2.3-0.9,3.5
		c0,0.2,0.1,0.5,0.4,0.5c0.2,0,0.4-0.1,0.5-0.4c0.2-1.1,0.5-2.2,0.9-3.3c0.3-0.8,0.6-1.7,0.8-2.5c0.2-0.9,0.3-1.9,0.3-2.9
		c-0.1-1-0.4-2-0.9-2.9l-3-7.2c0-0.1-0.1-0.2-0.3-0.2c-0.1-0.1-0.2-0.1-0.4,0C226.2,169.1,225.5,170.1,225.2,171.3z"/>
	<path class="st1" d="M228.5,171.3l-0.1,0.2c0,0.2,0.1,0.5,0.3,0.5c0.2,0,0.5-0.1,0.5-0.3c0,0,0,0,0,0c0.1-0.8,1.1-1.3,1.8-1.7
		c1.7-0.8,2.9-1,3.9-0.5c0.2,0.1,0.2,0.1,0.2,0.1c0,0.1,0,0.2-0.1,0.3c-0.5,1.3-1.1,2.5-1.9,3.6c-1.1,1.5-1.9,3.2-2.3,5
		c0,0.2,0.1,0.5,0.3,0.5c0,0,0,0,0,0c0.2,0,0.5-0.1,0.5-0.4c0.4-1.7,1.2-3.3,2.2-4.7c0.8-1.2,1.5-2.5,2-3.8c0.1-0.3,0.1-0.6,0-0.9
		c-0.1-0.3-0.3-0.5-0.6-0.6c-1.6-0.8-3.4-0.1-4.6,0.5C229.8,169.6,229,170.4,228.5,171.3z"/>
	<path class="st1" d="M204.3,203.4c0,0.1,0,0.3,0.1,0.4c0.1,0.2,0.4,0.3,0.6,0.1c0,0,0,0,0,0c1.8-1.3,3.4-2.9,4.6-4.8
		c1.1-1.7,2.5-3.2,4-4.4c0.9-0.7,1.6-1.4,2.4-2.1l0.2-0.2c1.4-1.3,2.6-2.8,3.4-4.5c0.1-0.2,0.1-0.5-0.1-0.6
		c-0.2-0.1-0.5-0.1-0.6,0.1c0,0,0,0,0,0c-0.8,1.6-1.9,3-3.3,4.3l-0.2,0.2c-0.8,0.7-1.5,1.4-2.4,2.1c-1.6,1.3-3,2.9-4.1,4.6
		c-1.1,1.8-2.6,3.4-4.4,4.6C204.4,203.2,204.4,203.3,204.3,203.4z"/>
	<path class="st1" d="M198.8,197.6c-0.5,1.9-1,3.9-1.2,5.9l-0.8,5.1c-0.3,1.3-0.3,2.6-0.1,3.9c0.5,1.7,1.5,3.3,2.8,4.6l3.5,4.1
		c0.2,0.2,0.4,0.2,0.6,0.1s0.2-0.4,0.1-0.6l0,0l-3.5-4.1c-1.2-1.2-2.1-2.6-2.6-4.2c-0.2-1.2-0.1-2.4,0.1-3.5l0.8-5.1
		c0.3-2.1,0.7-4.1,1.3-6.2c0.5-1.3,1-2.5,1.6-3.8l4.8-10.3c0.1-0.3,0.4-0.5,0.4-0.5s0.1,0.1,0.1,0.2c1.5,2.2,2,5,1.3,7.6
		c-0.2,0.8-0.5,1.5-0.9,2.3c-0.2,0.6-0.5,1.1-0.7,1.7c-0.3,0.7-0.4,1.4-0.2,2.1c0.2,0.6,0.6,1.1,1,1.6c0.4,0.3,0.6,0.8,0.8,1.3
		c0,0.2,0.3,0.4,0.5,0.3c0.2,0,0.4-0.3,0.3-0.5c0,0,0,0,0,0c-0.2-0.6-0.5-1.2-1-1.7c-0.3-0.3-0.6-0.7-0.8-1.2
		c-0.1-0.5,0-1.1,0.2-1.6c0.2-0.6,0.4-1.1,0.7-1.6c0.4-0.8,0.7-1.6,0.9-2.4c0.8-2.8,0.3-5.9-1.4-8.3c-0.1-0.2-0.3-0.3-0.5-0.4
		c-0.6-0.3-1.2,0.1-1.6,0.9l-4.8,10.2c-0.6,1.3-1.2,2.5-1.6,3.9L198.8,197.6z"/>
	<path class="st1" d="M209.6,224.5c0,0,0,0.1,0,0.1c0,0.2,0.2,0.4,0.4,0.4c3.1-0.1,6.3-0.4,8.4-2.6c0.6-0.7,1.2-1.5,1.6-2.4
		l5.5-10.3c1.6-2.7,2.8-5.5,3.6-8.5c0.1-0.2-0.1-0.5-0.3-0.5c0,0,0,0,0,0c-0.2-0.1-0.4,0.1-0.5,0.3c0,0,0,0,0,0
		c-0.8,2.9-2,5.7-3.5,8.3l-5.5,10.3c-0.4,0.8-0.9,1.5-1.4,2.2c-1.8,2-4.8,2.2-7.8,2.4C209.8,224.2,209.6,224.3,209.6,224.5z"/>
	<path class="st1" d="M217.8,222.3c-0.2,0.6-0.3,1.2-0.3,1.8c0.8,6.9,3.7,12.7,6.8,18.8l0.7,1.4c0.1,0.2,0.4,0.3,0.6,0.2
		s0.3-0.4,0.2-0.6l0,0l-0.7-1.4c-3.1-6.1-5.9-11.8-6.7-18.5c0.1-0.9,0.3-1.7,0.8-2.5c0.1-0.2,0.1-0.5-0.1-0.6
		c-0.2-0.1-0.5-0.1-0.6,0.1C218.1,221.5,217.9,221.9,217.8,222.3z"/>
	<path class="st1" d="M197.7,214.7c0,0,0,0.1,0,0.1c0.2,3,0.6,6,1.2,9c0.5,2.1,1.1,4.1,1.7,6.1l7.7,25c0.1,0.2,0.3,0.4,0.5,0.3
		c0.2-0.1,0.4-0.3,0.3-0.5l-7.7-25c-0.6-2-1.2-4-1.7-6c-0.7-2.9-1.1-5.9-1.2-8.8c0-0.2-0.2-0.4-0.4-0.4c0,0,0,0,0,0
		C197.9,214.5,197.8,214.6,197.7,214.7z"/>
	<path class="st1" d="M136.7,201.6L136.7,201.6c0.1,0.2,0.1,0.4-0.1,0.6c-1.7,1.1-2.9,2.8-3.5,4.8c-0.2,1.1-0.4,2.1-0.4,3.2
		l-0.2,3.3c-0.1,0.7-0.1,1.4,0,2.1c0.1,0.5,0.2,1,0.4,1.5l1.9,6.6c0.1,0.2-0.1,0.4-0.3,0.5c0,0,0,0,0,0c-0.2,0-0.3,0-0.4-0.2
		l-1.9-6.6c-0.2-0.5-0.3-1.1-0.4-1.6c-0.1-0.7-0.1-1.5,0-2.2l0.2-3.3c0-1.1,0.2-2.3,0.4-3.4c0.6-2.2,1.9-4,3.8-5.3
		C136.3,201.5,136.5,201.5,136.7,201.6z"/>
	<path class="st1" d="M136.9,201.7L136.9,201.7c1.3,2,1.4,4.5,0.2,6.6l-0.2,0.3c-0.2,0.3-0.4,0.6-0.5,0.9c-0.1,0.5,0,1,0.2,1.5
		c1.2,4.1,3.1,6.7,5.6,7.9c1.1,0.5,2.3,0.8,3.5,1c0.5,0.1,1,0.2,1.5,0.3c3.9,0.9,7.5,3,10.2,6c0.1,0.2,0.1,0.4,0,0.6
		c-0.1,0.2-0.4,0.2-0.6,0c0,0,0,0,0,0l0,0c-2.6-2.8-6.1-4.8-9.9-5.7c-0.5-0.1-0.9-0.2-1.4-0.3c-1.3-0.2-2.5-0.6-3.7-1.1
		c-2.8-1.3-4.8-4.1-6.1-8.4c-0.3-0.6-0.3-1.3-0.2-2c0.1-0.4,0.3-0.8,0.6-1.1c0.1-0.1,0.1-0.2,0.2-0.3c1.1-1.8,1-4-0.1-5.7
		c-0.1-0.2,0-0.4,0.2-0.5C136.5,201.5,136.7,201.5,136.9,201.7L136.9,201.7z"/>
	<path class="st1" d="M131.6,197.7c1.1,1.2,1.7,2.8,1.9,4.4c0.1,1.5,0,3.1-0.4,4.6c-0.1,0.4-0.1,0.9-0.2,1.3c0,0.2-0.2,0.4-0.4,0.3
		c0,0,0,0,0,0c-0.2,0-0.4-0.2-0.3-0.4c0.1-0.4,0.1-0.9,0.2-1.3c0.3-1.4,0.4-2.9,0.4-4.3c-0.1-1.8-1-3.4-2.3-4.6
		c-0.2-0.1-0.3-0.2-0.3-0.1s-0.1,0-0.2,0.5c-1.1,5.3-1.3,10.7-0.8,16.1c0,0.5,0.1,1.1,0.3,1.6c0.2,0.3,0.4,0.7,0.7,0.9l3.7,4.3
		c0.2,0.2,0.2,0.4,0,0.6c-0.1,0.2-0.4,0.2-0.5,0c0,0,0,0,0,0l-3.8-4.4c-0.3-0.3-0.6-0.7-0.8-1.1c-0.3-0.6-0.4-1.2-0.4-1.9
		c-0.5-5.4-0.2-10.9,0.8-16.3c0.1-0.2,0.2-1,0.8-1.1c0.4-0.1,0.7,0,1,0.3C131.1,197.2,131.3,197.4,131.6,197.7z"/>
	<path class="st1" d="M125.5,197.5c0.3,0.4,0.6,0.8,0.8,1.2c0.6,1.3,1.1,2.7,1.3,4.1c0.1,0.4,0.1,0.7,0.2,1c0.1,0.9,0.4,1.8,0.8,2.6
		c0.1,0.2,0.1,0.4-0.1,0.5c0,0,0,0,0,0c-0.2,0.1-0.4,0.1-0.5-0.1c0,0,0,0,0,0c-0.5-0.9-0.8-1.9-0.9-2.9c-0.1-0.3-0.1-0.6-0.2-0.9
		c-0.2-1.4-0.6-2.7-1.2-4c-0.5-1-1.4-1.8-2.6-2.2l0.3,6.7c0,0.9,0.1,1.7,0.4,2.5c0.3,0.7,0.7,1.4,1.2,2.1c0.5,0.6,1,1.2,1.5,1.7
		c0.8,0.8,1.5,1.6,2.1,2.5c0.1,0.2,0.1,0.4-0.1,0.5c0,0,0,0,0,0c-0.2,0.1-0.4,0.1-0.5-0.1c0,0,0,0,0,0c-0.6-0.9-1.3-1.7-2-2.4
		c-0.6-0.6-1.1-1.2-1.6-1.8c-0.6-0.7-1-1.4-1.3-2.3c-0.3-0.9-0.4-1.8-0.4-2.8l-0.3-7.2c0-0.1,0-0.2,0.1-0.3c0.1-0.1,0.2-0.1,0.3-0.1
		C123.8,196.2,124.8,196.7,125.5,197.5z"/>
	<path class="st1" d="M122.7,198.9l0.1,0.1c0.1,0.2,0.1,0.4-0.1,0.6c-0.2,0.1-0.4,0.1-0.6-0.1c-0.6-0.5-1.4-0.8-2.2-0.7
		c-1.7,0-2.8,0.3-3.4,1.1c-0.1,0.1-0.1,0.2-0.1,0.2s0,0.1,0.2,0.2c0.9,0.9,1.9,1.6,3,2.2c1.5,0.8,2.8,1.9,3.8,3.2
		c0.2,0.2,0.1,0.4,0,0.6s-0.4,0.1-0.6,0c0,0-0.1-0.1-0.1-0.1c-1-1.2-2.2-2.2-3.6-3c-1.1-0.7-2.2-1.5-3.1-2.4c-0.4-0.4-0.5-1-0.1-1.4
		c0,0,0,0,0,0c1-1.3,2.8-1.4,4-1.4C121,197.9,122,198.3,122.7,198.9z"/>
	<path class="st1" d="M155.2,216.1c0.1,0.1,0.1,0.2,0.1,0.3c0,0.2-0.2,0.4-0.4,0.3c0,0,0,0,0,0c-2-0.4-3.9-1.1-5.7-2.2
		c-1.6-1-3.2-1.7-5-2.1c-1-0.2-1.9-0.5-2.8-0.8l-0.2-0.1c-1.7-0.5-3.2-1.3-4.6-2.4c-0.2-0.1-0.2-0.4-0.1-0.6
		c0.1-0.2,0.4-0.2,0.6-0.1c1.3,1,2.8,1.8,4.4,2.3l0.2,0.1c0.9,0.3,1.8,0.6,2.8,0.8c1.8,0.5,3.6,1.2,5.2,2.2c1.6,1.1,3.5,1.8,5.4,2.2
		C155.1,216,155.2,216,155.2,216.1z"/>
	<path class="st1" d="M157.6,209.2c1.2,1.4,2.3,2.9,3.3,4.4l2.6,3.9c1.9,2.2,2.3,5.4,1.1,8.1l-1.4,4.8c-0.1,0.2-0.3,0.3-0.5,0.3
		c-0.2-0.1-0.3-0.3-0.3-0.5l1.4-4.8c1.2-2.4,0.8-5.4-1-7.4l-2.6-4c-1.6-2.7-3.7-5.2-6.2-7.1l-7.9-6.6c-0.1-0.1-0.3-0.2-0.5-0.3
		c0,0.1-0.1,0.1-0.1,0.2c-0.4,2.4,0.3,4.9,1.9,6.8c0.5,0.6,1,1.1,1.6,1.6c0.4,0.4,0.8,0.8,1.2,1.1c0.5,0.4,0.8,1,1,1.7
		c0.1,0.6,0,1.1-0.2,1.6c-0.2,0.4-0.2,0.9-0.2,1.4c0.1,0.2-0.1,0.4-0.3,0.5c0,0,0,0,0,0c-0.2,0-0.4-0.1-0.5-0.3c0,0,0,0,0,0
		c-0.1-0.6,0-1.2,0.2-1.8c0.2-0.4,0.2-0.9,0.2-1.3c-0.1-0.5-0.4-0.9-0.8-1.3c-0.4-0.4-0.8-0.7-1.2-1.1c-0.6-0.5-1.2-1.1-1.7-1.6
		c-1.8-2.1-2.5-4.8-2.1-7.5c0-0.2,0.1-0.4,0.2-0.6c0.4-0.4,1-0.4,1.7,0.2l7.9,6.7c1,0.8,1.9,1.7,2.9,2.6L157.6,209.2z"/>
	<path class="st1" d="M159.1,235.6c0,0,0.1,0.1,0.1,0.1c0.1,0.2,0,0.4-0.2,0.5c0,0,0,0,0,0c-2.6,1.1-5.4,2.1-8,1.1
		c-0.8-0.4-1.5-0.8-2.2-1.4l-8.5-6.4c-2.3-1.6-4.4-3.5-6.3-5.7c-0.1-0.2-0.1-0.4,0.1-0.6c0.2-0.1,0.4-0.1,0.5,0.1c0,0,0,0,0,0
		c1.8,2.1,3.8,3.9,6.1,5.5l8.5,6.4c0.6,0.5,1.3,0.9,2,1.3c2.3,0.9,4.9,0,7.4-1.1C158.7,235.4,158.9,235.5,159.1,235.6z"/>
	<path class="st1" d="M151.4,237.1c0.4,0.4,0.7,0.9,1,1.4c2,6,1.8,11.9,1.6,18.2v1.4c0,0.2-0.2,0.4-0.4,0.4c0,0,0,0,0,0
		c-0.2,0-0.4-0.2-0.4-0.4v-1.4c0.2-6.2,0.4-12.1-1.6-17.9c-0.4-0.7-1-1.3-1.6-1.8c-0.2-0.1-0.2-0.4-0.1-0.5c0.1-0.2,0.4-0.2,0.5-0.1
		c0,0,0,0,0,0C150.8,236.4,151.1,236.7,151.4,237.1z"/>
	<path class="st1" d="M165.1,223l0.1,0.1c1,2.6,1.8,5.3,2.4,8c0.4,1.9,0.7,3.8,0.9,5.7l3.3,23.7c0,0.2-0.1,0.4-0.3,0.4
		c-0.2,0-0.4-0.1-0.4-0.3l-3.3-23.7c-0.3-1.9-0.5-3.8-0.9-5.6c-0.6-2.7-1.4-5.3-2.4-7.8c-0.1-0.2,0-0.4,0.2-0.5
		C164.9,222.9,165,222.9,165.1,223L165.1,223z"/>
	<path class="st6" d="M173.6,172.5c0,0-0.5-9.3-10-10.3c-0.2,1-0.3,2-0.5,2.9l-1.7-0.1c0.2-1.1,0.4-2.3,0.6-3.4l-2.4-0.6
		c0,0-2.3,8,0.4,11.7l2.5,0.9c0,0-1.8-4.4-1.2-7.2l1.4,0.1c0,0,0.6,6.4,2.1,7.5l1.8,0.1l-1.4-5.7c-0.1-0.4,0.1-0.8,0.5-1
		c0.4,0,0.8,0.4,0.8,0.8l1.9,5.8l2.4-0.3c-0.5-1.3-1.1-2.6-1.6-3.8c-0.1-0.4,0.1-0.9,0.3-0.9s0.8,0.2,1,0.8l1.5,3.2
		C171.9,172.8,173,173.9,173.6,172.5z"/>
	<path class="st6" d="M158.3,160.2c-0.8,3.7-0.9,7.6-0.2,11.3c0,0-5.8-2.3-7.5-5.6c0,0-3.1-2.6-1.3-5.9c0.6-1,0.8-2.3,0.6-3.4
		c0,0-2-3.4,0.7-5.6c0.8-0.8,1.7-1.4,2.7-2c1.7-1.1,3.3-2.4,4.8-3.7c0.8-0.4,1.7-0.8,2.6-0.9c0.6,0.1,0.8,1.1,0.1,2.1
		c-0.9,0.7-1.9,1.4-2.8,2.1c-0.7,0.9-1.2,2-1.2,3.2c0,0,0.1,1.2-1.6,2.4C155.1,154.2,153.8,159.4,158.3,160.2z"/>
	<path class="st6" d="M157.5,153.7c0,0,3.4,2.7,5.3,3.1c0,0,6.7,2.3,8,7.1c0,0-4.7-3.7-10-4.3c-0.7-0.1-1.3-0.3-1.9-0.6
		c-1-0.5-1.9-1.4-2.4-2.4c-0.2-0.4-0.2-0.8-0.2-1.2C156.4,154.8,156.8,154.1,157.5,153.7z"/>
	<path class="st6" d="M171.4,161.4c0,0,3.6,7.2,3.6,10.3c0,0,1.3,0.7,1.2-2.8c-0.2-1.1-0.4-2.3-0.8-3.4c0,0,0.7-2.2,1.6-0.8l0.6,5.8
		l2.2-1.6c0,0,0.6-4.2-1.4-6.8l-2.3-4.3l-1.8,1.2c0,0,1.8,2.4,1.7,3s-1.1,2.4-1.9,0.5l-1.2-2.9L171.4,161.4z"/>
	<path class="st6" d="M168.5,157.9l2.2,2.2l6.3-4.8c0,0,1.8-2.9-1-4.7L168.5,157.9z"/>
	<path class="st6" d="M170,154.2l-2.7,3c0,0-3.4-2.7-5.4-2.7c0,0,2.8-5.2,8.5-2.8l1,0.7c0,0,0.8,1.4-0.7,0.7c0,0-2-1.1-3-0.6
		c0,0-1.1,1.1,0.4,1.3L170,154.2z"/>
	<path class="st6" d="M167.3,142.7c0,0,2.2,1.6,2.6,2.6c0,0,2.5-0.3,3.2,0.3c1.3,0.6,2.3,1.6,2.8,2.9c1.9,1,3.1,3.1,3,5.3
		c-0.4,1-0.9,2-1.7,2.7c0.9,1.6,1.8,3.2,2.7,4.9c0.8,1.9,1.2,3.9,1.4,5.9l2.9-3.8c0.1-0.4,0.3-0.9,0.4-1.4s0.2-1.1,0.3-1.6
		c0.5-0.6,0.9-1.3,1.2-2c0.4-1.3,0.5-2.6,0.1-3.9c-0.3-0.6-0.7-1.2-1.2-1.8c-0.5-0.7-1.1-1.2-1.8-1.7c0,0,1.1-4.9-3.4-6.8
		c0,0-3.7-1.2-4.5-0.3C175.4,144.1,173.2,141,167.3,142.7z"/>
	<path class="st6" d="M160.4,154l0.9-1.4l-0.7-1.6c0,0,0.1-1.3,1.1-0.6l1.1,1l2.5-1.6l-0.5-2.5c0,0,0.5-2.1,1.5-0.4l0.4,2.7l3.4,0.3
		c0,0,0.3-2.1,1.1-1.7s0.8,0.9,0.4,2.2l1.8,1.3c0,0,2.8-2.2,0.1-4.4c0,0-1-1.3-3.2-0.3c0,0-2.7-3.2-4-3.2s-0.3,0-0.3,0
		s-3.2-0.4-3.4,3.6c-0.3,0.4-0.6,0.8-1,1.1c-0.4,0.1-0.9,0.3-1.3,0.5c-0.5,0.2-0.9,0.5-1.2,0.8c-0.3,0.4-0.5,0.9-0.6,1.4
		c0,0.4,0,0.9,0,1.4L160.4,154z"/>
	<path class="st6" d="M177,216.6c0,0-0.8-6.6-0.4-8.8c0,0,2.5-11,2.1-13c0,0-1.2-7.6-2.8-9.4l-3.5-4.4c-3.1,1-6.5,0-8.5-2.6
		c0,0-2.7-0.4-3.9,0.3c0,0-13.1,1.1-7.9-9.4c0,0,2.8,3.9,6.4,4.6c0,0-0.9,2.4-0.4,3.2c0,0,1.1,1.5,2.3-2.6c3.1,0.8,6.3,1.1,9.4,0.8
		c0,0,0.2,3.4,1.6,3.4c0,0,1.5,0.7,0.2-3.7c0,0,7.7-3.1,8.6-4.4c0,0,1.6,1.9,2.5,1.9c0,0,1.9-0.6-1.2-3c0,0,4.6-4.9,4.6-7.2
		c0,0,3.4,1.1,3,6.3c0,0-2,5.4-6.3,5.7c-1.2,0.2-2.4,0.3-3.6,0.4c0,0-2.2,1.3-2.1,2.1c0,0-1.5,3.1-2.9,3.7c2.2,2.8,4,5.9,5.1,9.2
		c0,0,1.5,9.1,0.1,11.9c-0.5,1.2-0.8,2.4-1.1,3.7c-0.6,3.6-0.6,7.3-0.1,11C178.4,216.3,178.7,217.2,177,216.6z"/>
</g>
<title>answer2</title>
</svg>
