<svg xmlns="http://www.w3.org/2000/svg" viewBox="0 0 234.08 426.51"><defs><style>.cls-1{fill:#e9c4a9;}.cls-2{font-size:13.62px;font-family:SukhumvitSet-Light, Sukhumvit Set;font-weight:300;letter-spacing:0em;}.cls-2,.cls-4{fill:#fff;}.cls-3{fill:none;stroke:#d38d30;stroke-miterlimit:10;stroke-width:0.75px;}.cls-5{fill:#d2a267;}</style></defs><title>front1</title><g id="Layer_2" data-name="Layer 2"><g id="Layer_1-2" data-name="Layer 1"><path class="cls-1" d="M0,16.67a15.7,15.7,0,0,1,.58-4.85A16.12,16.12,0,0,1,5.18,4.41a16.79,16.79,0,0,1,10-4.29l203-.12A16.64,16.64,0,0,1,229,4.54,16.5,16.5,0,0,1,233.77,14q.15,197.94.31,395.89a16.24,16.24,0,0,1-15.4,16.52l-204.29.07s-10-.65-13.79-12.08l-.46-2.09Z"/><text class="cls-2" transform="translate(16.08 11.81) rotate(90)">01</text><path class="cls-3" d="M31.43,19.14h81.93L118.18,16l5.34,3.23h94.82V201.65l5,4.3-4.73,4,.27,186.74"/><rect class="cls-4" x="208.35" y="411.17" width="0.73" height="0.17"/><rect class="cls-4" x="208.32" y="404.85" width="0.73" height="0.17"/><rect class="cls-4" x="215.08" y="404.82" width="0.73" height="0.17"/><rect class="cls-4" x="215.1" y="411.17" width="0.73" height="0.17"/><rect class="cls-4" x="221.69" y="404.81" width="0.73" height="0.17"/><rect class="cls-4" x="221.7" y="411.16" width="0.73" height="0.17"/><rect class="cls-4" x="220.86" y="411.16" width="0.73" height="0.17"/><rect class="cls-4" x="215.88" y="411.17" width="0.73" height="0.17"/><path class="cls-4" d="M213.59,408.09a4.05,4.05,0,0,1-.22,1.41,2.65,2.65,0,0,1-.62,1,2.53,2.53,0,0,1-1,.62,3.62,3.62,0,0,1-1.26.21H208.7v-6.49h1.83a3.62,3.62,0,0,1,1.26.21,2.41,2.41,0,0,1,1,.62,2.74,2.74,0,0,1,.62,1A4.24,4.24,0,0,1,213.59,408.09Zm-.83,0a3.9,3.9,0,0,0-.17-1.2,2.4,2.4,0,0,0-.48-.85,2.05,2.05,0,0,0-.72-.49,2.39,2.39,0,0,0-.89-.17h-1v5.39h1a2.39,2.39,0,0,0,.89-.17,2,2,0,0,0,.71-.5,2.16,2.16,0,0,0,.48-.84A3.5,3.5,0,0,0,212.76,408.1Z"/><path class="cls-4" d="M221.23,411.34v-5.68h0l-2.07,5.68h-.77l-2.07-5.67h0v5.67h-.79v-6.52h1.24l2,5.51h.05l2-5.51h1.29v6.52Z"/><polyline class="cls-3" points="17.62 33.43 17.62 204.64 13.41 208.51 17.95 212.99 17.95 407.46 112.28 407.46 118.11 410.65 123.29 407.14 203.28 407.14"/><path class="cls-4" d="M76.7,378.13c-1.25-.27-1.88-.42-3.13-.75-.14.29-.25.54-.35.76s-.17.42-.22.58-.1.31-.13.43a1.78,1.78,0,0,0,0,.29.64.64,0,0,0,.21.51,1.7,1.7,0,0,0,.7.31v.45c-1.14-.3-1.71-.46-2.85-.81v-.44a2.77,2.77,0,0,0,.46,0,.86.86,0,0,0,.34-.06.63.63,0,0,0,.26-.2,1.49,1.49,0,0,0,.22-.36c1.22-2.71,1.83-4.08,3-6.85l.51.12c1.06,2.9,1.6,4.33,2.66,7.18.18.48.34.86.47,1.14a3.5,3.5,0,0,0,.39.67,1.32,1.32,0,0,0,.4.33,2.26,2.26,0,0,0,.53.14v.46c-1.53-.25-2.3-.4-3.83-.74v-.45a2,2,0,0,0,.86.06.31.31,0,0,0,.23-.34,1.55,1.55,0,0,0,0-.22c0-.06,0-.14,0-.22l-.08-.28c0-.11-.08-.23-.14-.38Zm-2.9-1.27c1.07.28,1.61.4,2.68.64-.52-1.5-.78-2.26-1.31-3.77Z"/><path class="cls-4" d="M86.76,377.41V377a4.26,4.26,0,0,0,1-.65,2.39,2.39,0,0,0,.54-.83l.34,0V377c.63,0,.94.06,1.57.08v.56l-1.57-.09v3.57a4.72,4.72,0,0,0,0,.7,1.39,1.39,0,0,0,.13.46.6.6,0,0,0,.25.25,1,1,0,0,0,.39.09.94.94,0,0,0,.49-.09,1.28,1.28,0,0,0,.41-.4l.29.23a1.16,1.16,0,0,1-.57.64,1.93,1.93,0,0,1-1,.18,1.74,1.74,0,0,1-1.18-.45,1.45,1.45,0,0,1-.4-1.09v-4.17Z"/><path class="cls-4" d="M94.55,376.87a3.56,3.56,0,0,1,1.26.23,3.5,3.5,0,0,1,1,.65,3.08,3.08,0,0,1,.72,1,3,3,0,0,1,.26,1.27,3.21,3.21,0,0,1-.26,1.32,3.5,3.5,0,0,1-.72,1.05,3.45,3.45,0,0,1-1,.7,3.3,3.3,0,0,1-2.52,0,3.19,3.19,0,0,1-1-.7,3.14,3.14,0,0,1-.71-1.06,3.39,3.39,0,0,1-.26-1.33,3.13,3.13,0,0,1,.26-1.27,3,3,0,0,1,.71-1,3.31,3.31,0,0,1,1-.64A3.46,3.46,0,0,1,94.55,376.87Zm0,.56a1.66,1.66,0,0,0-.8.19,1.79,1.79,0,0,0-.61.52,2.54,2.54,0,0,0-.38.83,4,4,0,0,0-.14,1.07,4.7,4.7,0,0,0,.13,1.11,2.51,2.51,0,0,0,.39.84,1.77,1.77,0,0,0,.61.55,1.71,1.71,0,0,0,.79.19,1.74,1.74,0,0,0,.82-.19A1.9,1.9,0,0,0,96,382a2.79,2.79,0,0,0,.4-.85,4.11,4.11,0,0,0,.14-1.09,4,4,0,0,0-.14-1.07,2.73,2.73,0,0,0-.4-.82,1.83,1.83,0,0,0-.62-.53A1.73,1.73,0,0,0,94.55,377.43Z"/><path class="cls-4" d="M102.22,376.63a3.34,3.34,0,0,1,1.27.15,3.18,3.18,0,0,1,1.05.59,2.91,2.91,0,0,1,.72.94,3,3,0,0,1,.26,1.26,3.47,3.47,0,0,1-.26,1.33,3.57,3.57,0,0,1-.72,1.09,3.45,3.45,0,0,1-1.05.76,3.11,3.11,0,0,1-1.27.33,3.26,3.26,0,0,1-1.25-.16,3,3,0,0,1-1-.63,3,3,0,0,1-.7-1,3.38,3.38,0,0,1,0-2.6,3.4,3.4,0,0,1,.7-1,3.76,3.76,0,0,1,1-.71A3.58,3.58,0,0,1,102.22,376.63Zm0,.56a1.78,1.78,0,0,0-.79.24,1.8,1.8,0,0,0-.61.56,2.72,2.72,0,0,0-.39.86,4,4,0,0,0-.13,1.08,4.07,4.07,0,0,0,.13,1.09,2.32,2.32,0,0,0,.39.82,1.71,1.71,0,0,0,.6.51,1.73,1.73,0,0,0,.8.14,1.82,1.82,0,0,0,.81-.24,2,2,0,0,0,.62-.59,2.67,2.67,0,0,0,.4-.87,3.92,3.92,0,0,0,.15-1.11,3.76,3.76,0,0,0-.14-1.05,2.5,2.5,0,0,0-.4-.8,1.69,1.69,0,0,0-.63-.5A1.65,1.65,0,0,0,102.22,377.19Z"/><path class="cls-4" d="M108.54,380.61a6.49,6.49,0,0,0,0,.71.93.93,0,0,0,.15.41.45.45,0,0,0,.32.18,1.86,1.86,0,0,0,.54,0v.41c-1.29.14-1.94.21-3.24.32v-.41a2.19,2.19,0,0,0,.57-.13.73.73,0,0,0,.33-.23.91.91,0,0,0,.17-.41,5.58,5.58,0,0,0,0-.67v-5.06c0-.42,0-.77,0-1.06a4.21,4.21,0,0,0-.05-.58.42.42,0,0,0-.28-.33,2.18,2.18,0,0,0-.78,0v-.39l2.22-.65Z"/><path class="cls-4" d="M116.9,375.4l1.32-.19v-.84a3.37,3.37,0,0,1,.71-2.21,3.13,3.13,0,0,1,2-1.05,2.62,2.62,0,0,1,1.18.05c.31.1.46.27.46.51a.68.68,0,0,1-.14.41.59.59,0,0,1-.37.21.52.52,0,0,1-.3,0,1.93,1.93,0,0,1-.42-.24,2,2,0,0,0-.46-.25.83.83,0,0,0-.39,0,1.26,1.26,0,0,0-1,.86,2.41,2.41,0,0,0-.14.6,7.8,7.8,0,0,0,0,.94v.92l1.89-.28v.55l-1.89.28v3.59a3.51,3.51,0,0,0,0,.71.82.82,0,0,0,.19.42.63.63,0,0,0,.37.19,2.63,2.63,0,0,0,.61,0v.41l-3.34.48V381a3,3,0,0,0,.53-.14.69.69,0,0,0,.31-.24,1.14,1.14,0,0,0,.14-.43,6.83,6.83,0,0,0,0-.72v-3.68l-1.32.18Z"/><path class="cls-4" d="M125.15,373.89a3.16,3.16,0,0,1,1.27.05,2.69,2.69,0,0,1,1,.5,2.62,2.62,0,0,1,.72.89,2.89,2.89,0,0,1,.26,1.24,3.6,3.6,0,0,1-.26,1.35,3.94,3.94,0,0,1-.72,1.14,4.13,4.13,0,0,1-1,.85,3.61,3.61,0,0,1-1.27.43,3.07,3.07,0,0,1-1.25,0,2.55,2.55,0,0,1-1-.52,2.44,2.44,0,0,1-.7-.93,2.93,2.93,0,0,1-.26-1.28,3.31,3.31,0,0,1,.26-1.32,3.55,3.55,0,0,1,.7-1.11,4.14,4.14,0,0,1,1-.82A3.77,3.77,0,0,1,125.15,373.89Zm0,.56a2,2,0,0,0-.79.31,2.16,2.16,0,0,0-.61.63,2.89,2.89,0,0,0-.39.89,4.23,4.23,0,0,0-.13,1.09,3.9,3.9,0,0,0,.13,1.08,2.16,2.16,0,0,0,.39.79,1.51,1.51,0,0,0,.6.44,1.62,1.62,0,0,0,.8.07,2,2,0,0,0,.81-.31,2.37,2.37,0,0,0,.62-.64,3,3,0,0,0,.4-.91,3.93,3.93,0,0,0,.14-1.11,3.42,3.42,0,0,0-.14-1,2,2,0,0,0-.4-.76,1.44,1.44,0,0,0-.62-.45A1.66,1.66,0,0,0,125.15,374.45Z"/><path class="cls-4" d="M131.62,377.38c0,.32,0,.57,0,.76a.83.83,0,0,0,.13.41.36.36,0,0,0,.28.15,3.27,3.27,0,0,0,.53,0v.41l-3.12.47v-.41A2.25,2.25,0,0,0,130,379a.64.64,0,0,0,.3-.23,1,1,0,0,0,.14-.43,6.75,6.75,0,0,0,0-.71v-1.38c0-.53,0-.94,0-1.24a1.53,1.53,0,0,0-.12-.64.35.35,0,0,0-.31-.21,3.64,3.64,0,0,0-.58.05v-.41l2.05-.75c.07.57.1.85.16,1.43h0a3.64,3.64,0,0,1,.38-.7,4.1,4.1,0,0,1,.5-.58,3.09,3.09,0,0,1,.57-.4,1.67,1.67,0,0,1,.59-.21.87.87,0,0,1,.6.1.52.52,0,0,1,.21.45.63.63,0,0,1-.17.47.87.87,0,0,1-.51.23.8.8,0,0,1-.31,0,1,1,0,0,1-.23-.07l-.19-.07a.4.4,0,0,0-.19,0,1.06,1.06,0,0,0-.64.5,3.59,3.59,0,0,0-.49,1.1,7.43,7.43,0,0,0-.15.79,9.08,9.08,0,0,0,0,.91Z"/><path class="cls-4" d="M142.06,377.81l-.26,0v-2l.29,0c.31,1.07.86,1.55,1.67,1.46a1.23,1.23,0,0,0,.74-.31.92.92,0,0,0,.28-.73.84.84,0,0,0-.05-.29.71.71,0,0,0-.2-.24,2.68,2.68,0,0,0-.41-.26l-.7-.37a6.9,6.9,0,0,1-.69-.38,2.5,2.5,0,0,1-.5-.37,1.48,1.48,0,0,1-.3-.42,1.61,1.61,0,0,1-.1-.57,2.12,2.12,0,0,1,.14-.75,1.88,1.88,0,0,1,.37-.61,2.13,2.13,0,0,1,.55-.44,2,2,0,0,1,.69-.21,2.11,2.11,0,0,1,.66,0,2.35,2.35,0,0,1,.6.2l.23-.27.23,0v1.69l-.31,0a2.44,2.44,0,0,0-.56-1,1,1,0,0,0-.75-.22,1,1,0,0,0-.64.28.84.84,0,0,0-.24.62.86.86,0,0,0,.06.34.71.71,0,0,0,.21.26,2.12,2.12,0,0,0,.35.25l.53.27.86.47a2.82,2.82,0,0,1,.58.43,1.41,1.41,0,0,1,.33.46,1.5,1.5,0,0,1,.11.58,1.83,1.83,0,0,1-.55,1.36,2.55,2.55,0,0,1-3,.29Z"/><path class="cls-4" d="M151.81,372.53c0-.32,0-.57,0-.76a1,1,0,0,0-.12-.41.51.51,0,0,0-.3-.18,3.17,3.17,0,0,0-.53-.05v-.41l2.12-.14v3.6c0,.45,0,.81,0,1.09a6.16,6.16,0,0,0,.05.64.76.76,0,0,0,.08.23.34.34,0,0,0,.16.13.67.67,0,0,0,.27.06H154v.42c-.77.09-1.16.14-1.93.25-.05-.56-.08-.84-.13-1.4h0a3.35,3.35,0,0,1-1,1.13,2.53,2.53,0,0,1-1.21.43,2.39,2.39,0,0,1-1-.11,1.48,1.48,0,0,1-.7-.44,1.47,1.47,0,0,1-.28-.69,6.21,6.21,0,0,1-.09-1.18v-1.86a7.42,7.42,0,0,0,0-.76.74.74,0,0,0-.12-.41.43.43,0,0,0-.29-.17,3.51,3.51,0,0,0-.54,0v-.41l2.13-.2v3.21a4.09,4.09,0,0,0,.3,1.83.92.92,0,0,0,.95.5c.69-.06,1.23-.54,1.61-1.47l.1-.27c0-.07,0-.16.06-.26s0-.2,0-.32,0-.26,0-.42Z"/><path class="cls-4" d="M160.18,375.62a2.81,2.81,0,0,1-1.09.81,4.08,4.08,0,0,1-1.44.31,3.05,3.05,0,0,1-1.15-.2,2.59,2.59,0,0,1-.9-.62,2.9,2.9,0,0,1-.58-1,4.08,4.08,0,0,1-.2-1.3,3.92,3.92,0,0,1,.23-1.36,3.14,3.14,0,0,1,.67-1.06,2.83,2.83,0,0,1,1-.69,3.79,3.79,0,0,1,1.33-.26,4.39,4.39,0,0,1,.84.07,2.76,2.76,0,0,1,.65.21,1.31,1.31,0,0,1,.43.32.68.68,0,0,1,.15.42.47.47,0,0,1-.15.37.71.71,0,0,1-.43.12.63.63,0,0,1-.35-.08,2.44,2.44,0,0,1-.36-.39,1.4,1.4,0,0,0-.46-.38,1.13,1.13,0,0,0-.55-.1,1.45,1.45,0,0,0-1.27.67,3.6,3.6,0,0,0-.42,1.92,3.54,3.54,0,0,0,.47,2,1.55,1.55,0,0,0,1.39.67,2.26,2.26,0,0,0,.93-.21,3.15,3.15,0,0,0,.88-.63Z"/><path class="cls-4" d="M166.48,375.84a2.68,2.68,0,0,1-1.1.74,3.76,3.76,0,0,1-1.44.22,3,3,0,0,1-1.14-.27,2.81,2.81,0,0,1-1.48-1.68,3.91,3.91,0,0,1-.21-1.31,3.61,3.61,0,0,1,.24-1.35,2.73,2.73,0,0,1,1.69-1.65,4,4,0,0,1,2.17-.06,2.26,2.26,0,0,1,.65.25,1.4,1.4,0,0,1,.43.35.72.72,0,0,1,.15.43.43.43,0,0,1-.15.35.55.55,0,0,1-.42.1.69.69,0,0,1-.36-.1,2.53,2.53,0,0,1-.36-.42,1.62,1.62,0,0,0-.45-.4,1.28,1.28,0,0,0-.56-.14,1.35,1.35,0,0,0-1.26.6,3.34,3.34,0,0,0-.43,1.89,3.76,3.76,0,0,0,.47,2.06,1.68,1.68,0,0,0,1.4.75,2,2,0,0,0,.92-.15,2.74,2.74,0,0,0,.88-.57Z"/><path class="cls-4" d="M173,376.42a2.76,2.76,0,0,1-2.48.88,3.68,3.68,0,0,1-1.26-.36,3.33,3.33,0,0,1-1-.74,3.27,3.27,0,0,1-.63-1.05,3.72,3.72,0,0,1-.23-1.31,3.42,3.42,0,0,1,.24-1.3,2.56,2.56,0,0,1,1.68-1.57,3.09,3.09,0,0,1,1.3-.11,2.5,2.5,0,0,1,2.38,2.7c0,.11,0,.17-.06.19a.6.6,0,0,1-.3,0c-1.54-.22-2.32-.31-3.86-.46a1.2,1.2,0,0,0,0,.23c0,.09,0,.19,0,.3a3.94,3.94,0,0,0,.15,1.12,2.93,2.93,0,0,0,.42.89,2.16,2.16,0,0,0,.66.62,2,2,0,0,0,.85.29,1.84,1.84,0,0,0,.91-.1,2.63,2.63,0,0,0,.87-.59ZM171,373l.38,0a.44.44,0,0,0,.21,0,.12.12,0,0,0,.09-.08.42.42,0,0,0,0-.17,1.29,1.29,0,0,0-.34-.91,1.54,1.54,0,0,0-.95-.44c-.84-.09-1.37.36-1.57,1.35C169.72,372.83,170.16,372.88,171,373Z"/><path class="cls-4" d="M174.57,377.77l-.26,0v-2l.29.05c.31,1.16.86,1.8,1.67,2a1,1,0,0,0,.74-.08.69.69,0,0,0,.28-.64,1,1,0,0,0,0-.31,1.41,1.41,0,0,0-.2-.3c-.1-.11-.24-.24-.41-.4l-.7-.58c-.27-.21-.5-.41-.7-.58a4.62,4.62,0,0,1-.49-.52,2.06,2.06,0,0,1-.3-.51,1.59,1.59,0,0,1-.1-.59,1.73,1.73,0,0,1,.14-.71,1.29,1.29,0,0,1,.92-.78,1.45,1.45,0,0,1,.69,0,2.74,2.74,0,0,1,.66.23,2.93,2.93,0,0,1,.6.38l.23-.19.23,0v1.7l-.31-.07a3.76,3.76,0,0,0-.56-1.14,1.34,1.34,0,0,0-.75-.45.83.83,0,0,0-.64.09.59.59,0,0,0-.25.54,1,1,0,0,0,.07.36,1,1,0,0,0,.21.33,2.88,2.88,0,0,0,.35.35l.52.44c.34.27.63.52.87.73a5.28,5.28,0,0,1,.58.61,2.3,2.3,0,0,1,.33.58,1.7,1.7,0,0,1,.1.61,1.33,1.33,0,0,1-.54,1.19,1.87,1.87,0,0,1-1.42.18,3,3,0,0,1-1.57-.82Z"/><path class="cls-4" d="M179.89,378.87l-.25-.07v-2l.29.07a2.55,2.55,0,0,0,1.67,2.08,1,1,0,0,0,.74,0,.63.63,0,0,0,.28-.62,1,1,0,0,0-.05-.31,1.78,1.78,0,0,0-.2-.32,5.14,5.14,0,0,0-.41-.42l-.7-.64c-.27-.23-.5-.45-.7-.64a4.74,4.74,0,0,1-.49-.55,2.43,2.43,0,0,1-.3-.54,1.64,1.64,0,0,1-.1-.6,1.71,1.71,0,0,1,.14-.7,1.19,1.19,0,0,1,.37-.48,1.24,1.24,0,0,1,.55-.23,1.66,1.66,0,0,1,.69.05,3,3,0,0,1,.66.28,3.55,3.55,0,0,1,.6.43l.23-.17.23.06v1.69l-.31-.09a4.06,4.06,0,0,0-.56-1.18,1.45,1.45,0,0,0-.75-.51.76.76,0,0,0-.64,0,.55.55,0,0,0-.25.52,1.06,1.06,0,0,0,.07.37,1.57,1.57,0,0,0,.2.34c.1.12.22.24.36.38l.52.48c.34.3.63.57.87.8a6.22,6.22,0,0,1,.58.66,2.24,2.24,0,0,1,.33.6,1.79,1.79,0,0,1,.1.62,1.21,1.21,0,0,1-.54,1.14,1.82,1.82,0,0,1-1.42.07,3.23,3.23,0,0,1-1.57-.94C180,378.66,180,378.73,179.89,378.87Z"/><path class="cls-4" d="M62,85.75l-.37-.64a12.9,12.9,0,0,0,1.07-.75,1.65,1.65,0,0,0,.5-.67,1.23,1.23,0,0,0,0-.76,5.12,5.12,0,0,0-.47-1L58.25,74a7.68,7.68,0,0,0-.61-.92,1.28,1.28,0,0,0-.62-.41,1.3,1.3,0,0,0-.79.06,9.76,9.76,0,0,0-1.12.51l-.38-.64c2.89-1.69,4.35-2.49,7.32-4a11.53,11.53,0,0,1,3.78-1.17,9,9,0,0,1,3.46.22,7.12,7.12,0,0,1,2.78,1.49,6.84,6.84,0,0,1,1.82,2.61,6.92,6.92,0,0,1,.54,3,7.09,7.09,0,0,1-.7,2.79,8.56,8.56,0,0,1-1.79,2.44,11.14,11.14,0,0,1-2.78,1.92C66.24,83.29,64.8,84.07,62,85.75ZM59.78,70.83c-.23.13-.3.29-.19.48,2,3.73,3,5.59,5,9.31.7,1.31,2,1.46,3.84.52a6.18,6.18,0,0,0,3.31-3.34,6.56,6.56,0,0,0-.46-4.92,8.32,8.32,0,0,0-1.57-2.46,5.4,5.4,0,0,0-4.54-1.77,7.43,7.43,0,0,0-2.73.81C61.37,70,60.84,70.27,59.78,70.83Z"/><path class="cls-4" d="M82.58,60.23a10.58,10.58,0,0,1,3.82-.45,9,9,0,0,1,3.35.86,7.19,7.19,0,0,1,2.49,2,6.65,6.65,0,0,1,1.35,2.86,6.55,6.55,0,0,1,0,3,8.18,8.18,0,0,1-1.26,2.77,9.72,9.72,0,0,1-2.24,2.24A10.22,10.22,0,0,1,87,75a10.06,10.06,0,0,1-3.37.44,9.69,9.69,0,0,1-3.12-.64,8.17,8.17,0,0,1-2.59-1.61,6.63,6.63,0,0,1-1.72-2.53,6.76,6.76,0,0,1-.43-3.13,7.28,7.28,0,0,1,1-3A9.26,9.26,0,0,1,79.12,62,10.79,10.79,0,0,1,82.58,60.23ZM86.69,74a6.76,6.76,0,0,0,2.23-1.11,5.3,5.3,0,0,0,1.47-1.73,5.74,5.74,0,0,0,.68-2.27,8,8,0,0,0-.22-2.71,8.29,8.29,0,0,0-1.1-2.64A6,6,0,0,0,88,61.75,5.43,5.43,0,0,0,85.65,61a7.67,7.67,0,0,0-5.25,1.57,5.39,5.39,0,0,0-1.52,2,6,6,0,0,0-.52,2.45,8.38,8.38,0,0,0,.53,2.81,7.88,7.88,0,0,0,1.31,2.38A5.92,5.92,0,0,0,82,73.65a5.29,5.29,0,0,0,2.19.63A6.85,6.85,0,0,0,86.69,74Z"/><path class="cls-4" d="M118.93,66.63a126.68,126.68,0,0,1,6-11.41c2.06.1,3.09.17,5.15.34l-.07.74a4.31,4.31,0,0,0-1.19.06,1.29,1.29,0,0,0-.71.41,1.85,1.85,0,0,0-.38.86,10.57,10.57,0,0,0-.18,1.44c-.21,3-.31,4.58-.52,7.64a10.41,10.41,0,0,0,0,1.54,2,2,0,0,0,.26.9,1.14,1.14,0,0,0,.64.46,6.13,6.13,0,0,0,1.15.21c0,.3,0,.45-.07.74-2.62-.23-3.94-.31-6.56-.38l0-.75a6.24,6.24,0,0,0,1.16-.08,1.32,1.32,0,0,0,.7-.37,1.79,1.79,0,0,0,.37-.82,10.48,10.48,0,0,0,.15-1.45l.45-9H125a126.52,126.52,0,0,0-6.52,12.67H118a125,125,0,0,0-6.59-12.59h-.09l.55,8.91a10.74,10.74,0,0,0,.18,1.53,2,2,0,0,0,.37.86,1.12,1.12,0,0,0,.7.37,6.43,6.43,0,0,0,1.16.06l0,.75c-2.26.09-3.4.17-5.65.38l-.07-.74a6,6,0,0,0,1.14-.23,1.31,1.31,0,0,0,.65-.45,1.68,1.68,0,0,0,.27-.86,10.37,10.37,0,0,0,0-1.45c-.23-3.17-.35-4.75-.58-7.91a9.26,9.26,0,0,0-.18-1.35,1.65,1.65,0,0,0-.38-.82,1.21,1.21,0,0,0-.72-.39,5.44,5.44,0,0,0-1.2-.06c0-.29,0-.44-.07-.74,2.19-.2,3.29-.27,5.49-.38,2.54,4.5,3.7,6.79,5.82,11.4Z"/><path class="cls-4" d="M141.83,56.94a10.56,10.56,0,0,1,3.6,1.33A9.09,9.09,0,0,1,148,60.55a7.36,7.36,0,0,1,1.34,2.88,6.68,6.68,0,0,1-.09,3.17,6.51,6.51,0,0,1-1.42,2.7,8.28,8.28,0,0,1-2.38,1.9,9.59,9.59,0,0,1-3,1,10.12,10.12,0,0,1-3.38-.06A10,10,0,0,1,135.89,71a9.43,9.43,0,0,1-2.46-2,8.24,8.24,0,0,1-1.56-2.61,6.91,6.91,0,0,1,.66-6,7.26,7.26,0,0,1,2.25-2.23A8.89,8.89,0,0,1,138,56.92,10.5,10.5,0,0,1,141.83,56.94Zm-2.57,14.12a6.48,6.48,0,0,0,2.48,0,5.27,5.27,0,0,0,2.1-.87,5.85,5.85,0,0,0,1.63-1.72,8.08,8.08,0,0,0,1-2.52,8.29,8.29,0,0,0,.21-2.85,5.67,5.67,0,0,0-.77-2.37A5.47,5.47,0,0,0,144.22,59a7,7,0,0,0-2.58-1,7,7,0,0,0-2.77,0,5.31,5.31,0,0,0-2.22,1.05A5.8,5.8,0,0,0,135.09,61a8.43,8.43,0,0,0-.8,2.75,7.84,7.84,0,0,0,.08,2.71,5.9,5.9,0,0,0,.91,2.19,5.32,5.32,0,0,0,1.65,1.55A6.66,6.66,0,0,0,139.26,71.06Z"/><path class="cls-4" d="M165.27,67.83a3.5,3.5,0,0,1-2,2,6.33,6.33,0,0,1-3.65.11c1.11,2.61,1.63,3.92,2.56,6.55a3.58,3.58,0,0,0,.8,1.33,7.87,7.87,0,0,0,1.32,1c-.12.27-.18.41-.29.68-1.47-.64-2.21-1-3.69-1.54-1-3-1.52-4.53-2.73-7.55a4.65,4.65,0,0,0-.33-.67,2.18,2.18,0,0,0-.4-.45,2,2,0,0,0-.56-.33c-.22-.09-.49-.19-.81-.29-.5,1.54-.75,2.32-1.24,3.86a5.65,5.65,0,0,0-.27,1.16,1.19,1.19,0,0,0,.15.8,1.76,1.76,0,0,0,.72.59,10.25,10.25,0,0,0,1.39.57l-.24.7c-2.74-1-4.13-1.39-6.91-2.16l.2-.72a6.63,6.63,0,0,0,1.15.21,1.39,1.39,0,0,0,.76-.13,1.22,1.22,0,0,0,.51-.54,6.34,6.34,0,0,0,.4-1c1-3.49,1.57-5.23,2.61-8.72a6,6,0,0,0,.24-1.08,1.14,1.14,0,0,0-.7-1.24,9.18,9.18,0,0,0-1.12-.45l.2-.72c2.81.79,4.21,1.23,7,2.18a9.38,9.38,0,0,1,4.32,2.63A3,3,0,0,1,165.27,67.83Zm-9.44,0,1.48.48a6.34,6.34,0,0,0,3.34.42,3.21,3.21,0,0,0,1.8-4.26,4.41,4.41,0,0,0-2.39-1.58l-2-.67c-.25-.08-.41,0-.47.2C156.87,64.53,156.52,65.61,155.83,67.78Z"/><path class="cls-4" d="M172.05,74.15a14.85,14.85,0,0,0,1.87.79,3.84,3.84,0,0,0,1.34.24,1.67,1.67,0,0,0,1-.29,2.22,2.22,0,0,0,.66-.8l.71.38L175,79.16l-.68-.36a2.59,2.59,0,0,0,.32-1,1.62,1.62,0,0,0-.26-.94,3.83,3.83,0,0,0-.94-1,11,11,0,0,0-1.77-1.05l-2,4a2.82,2.82,0,0,0-.31,1,1.52,1.52,0,0,0,.21.87,3,3,0,0,0,.81.82,11.43,11.43,0,0,0,1.42.86,12.19,12.19,0,0,0,1.74.78,3.74,3.74,0,0,0,1.39.2,2.77,2.77,0,0,0,1.2-.38,6.43,6.43,0,0,0,1.19-1l.71.41c-.9,1.26-1.34,1.89-2.23,3.16a92.78,92.78,0,0,0-11.52-5.91l.3-.68a7,7,0,0,0,1.12.38,1.56,1.56,0,0,0,.78,0,1.19,1.19,0,0,0,.58-.46,5.9,5.9,0,0,0,.55-1l3.84-8.24a5.75,5.75,0,0,0,.4-1,1.23,1.23,0,0,0,0-.74,1.29,1.29,0,0,0-.51-.6,8.71,8.71,0,0,0-1-.61l.3-.68a106.36,106.36,0,0,1,12.17,6.2l-1.54,3.08-.71-.4a3.46,3.46,0,0,0,.24-1.34,2.28,2.28,0,0,0-.36-1.11,4.2,4.2,0,0,0-1-1,14.48,14.48,0,0,0-1.75-1.07c-1.06-.55-1.59-.82-2.66-1.35q-.36-.18-.51.12C173.53,71.13,173,72.13,172.05,74.15Z"/><path class="cls-4" d="M170.56,205.85a.21.21,0,0,0,0,.07.5.5,0,0,0,.31.64,10.65,10.65,0,0,1,5.82,4.86,21.74,21.74,0,0,1,1.53,3.88l1.3,4a13.93,13.93,0,0,1,.65,2.58,14.66,14.66,0,0,1,0,2l-.28,8.72a.51.51,0,1,0,1,0l.28-8.72a11,11,0,0,0-.73-4.9l-1.29-4a22.86,22.86,0,0,0-1.62-4.07,11.63,11.63,0,0,0-6.37-5.31A.5.5,0,0,0,170.56,205.85Z"/><path class="cls-4" d="M170.29,205.92l0,.07a7.79,7.79,0,0,0,1.89,8.18c.1.11.22.21.33.31a4.08,4.08,0,0,1,.85.93,3.83,3.83,0,0,1,.28,2c-.21,5.4-1.72,9.3-4.49,11.59a18.72,18.72,0,0,1-4.07,2.37c-.58.28-1.15.55-1.72.85a25.6,25.6,0,0,0-10.77,10.72.51.51,0,1,0,.89.48.06.06,0,0,1,0,0,24.89,24.89,0,0,1,10.32-10.26c.55-.29,1.12-.56,1.69-.83a19.63,19.63,0,0,0,4.28-2.5c3-2.49,4.63-6.64,4.85-12.33a4.61,4.61,0,0,0-.41-2.5,5,5,0,0,0-1.05-1.18l-.32-.29a6.77,6.77,0,0,1-1.63-7.1.52.52,0,0,0-.3-.65A.5.5,0,0,0,170.29,205.92Z"/><path class="cls-4" d="M175.62,199.31a10.08,10.08,0,0,0-.93,6,20.72,20.72,0,0,0,1.88,5.52c.24.53.47,1,.68,1.55a.5.5,0,0,0,.66.27.51.51,0,0,0,.28-.66c-.22-.51-.46-1-.7-1.57a19.6,19.6,0,0,1-1.79-5.24,8.63,8.63,0,0,1,1.45-6.4c.2-.25.3-.28.33-.29s.17,0,.42.52A69.15,69.15,0,0,1,184,218.69a5.77,5.77,0,0,1,.06,2.06,6.28,6.28,0,0,1-.55,1.39l-3.24,6.55a.51.51,0,0,0,.23.68.48.48,0,0,0,.67-.23l3.24-6.55a7.19,7.19,0,0,0,.64-1.63,6.85,6.85,0,0,0-.05-2.43,70.16,70.16,0,0,0-6.2-19.93c-.14-.27-.54-1.12-1.36-1.09a1.53,1.53,0,0,0-1.1.67A7.8,7.8,0,0,0,175.62,199.31Z"/><path class="cls-4" d="M183.07,197.21a7.78,7.78,0,0,0-.66,1.71,18.25,18.25,0,0,0-.28,5.51c0,.52.06.9.09,1.26a8.67,8.67,0,0,1-.19,3.54.5.5,0,0,0,.34.62.5.5,0,0,0,.63-.34,9.67,9.67,0,0,0,.23-3.9c0-.36-.06-.73-.08-1.12a17.6,17.6,0,0,1,.24-5.31,5.55,5.55,0,0,1,2.45-3.52l1.78,8.35a10.74,10.74,0,0,1,.36,3.27,10.17,10.17,0,0,1-.88,2.92,25.85,25.85,0,0,1-1.36,2.61,20.2,20.2,0,0,0-1.82,3.79.51.51,0,0,0,.33.64.51.51,0,0,0,.64-.32,19.09,19.09,0,0,1,1.73-3.61,26.67,26.67,0,0,0,1.41-2.72,11.16,11.16,0,0,0,1-3.22,11.48,11.48,0,0,0-.38-3.57l-1.91-9a.49.49,0,0,0-.25-.34.48.48,0,0,0-.42,0A5.71,5.71,0,0,0,183.07,197.21Z"/><path class="cls-4" d="M186.93,198a1.63,1.63,0,0,0-.11.23.5.5,0,0,0,.27.66.51.51,0,0,0,.66-.27c.36-.91,1.51-1.31,2.46-1.56,2.13-.58,3.58-.5,4.57.25.17.13.2.2.2.21s0,.12-.12.32a20.76,20.76,0,0,1-3,3.72,17.05,17.05,0,0,0-3.73,5.19.5.5,0,1,0,.94.35,16.39,16.39,0,0,1,3.54-4.85,22.48,22.48,0,0,0,3.11-3.92,1.51,1.51,0,0,0,.23-1,1.4,1.4,0,0,0-.58-.83c-1.65-1.25-3.9-.84-5.44-.42A4.55,4.55,0,0,0,186.93,198Z"/><path class="cls-4" d="M152.09,229.61a.5.5,0,0,0,0,.43.51.51,0,0,0,.66.28,21.29,21.29,0,0,0,6.33-4.56,24.17,24.17,0,0,1,5.54-4.25c1.12-.58,2.19-1.25,3.23-1.91l.26-.16A19.48,19.48,0,0,0,173,215a.5.5,0,0,0-.08-.71.52.52,0,0,0-.71.08,18.42,18.42,0,0,1-4.68,4.21l-.26.16c-1,.64-2.08,1.3-3.16,1.86a25.1,25.1,0,0,0-5.77,4.41,19.6,19.6,0,0,1-6,4.36A.51.51,0,0,0,152.09,229.61Z"/><path class="cls-4" d="M147.06,221.76a46.72,46.72,0,0,0-2.68,6.51l-2,5.71a12.68,12.68,0,0,0-1,4.41c0,2.22,1.23,4.27,2.18,5.92l3.18,5.49a.51.51,0,0,0,.69.18.5.5,0,0,0,.19-.69l-3.18-5.49c-.94-1.63-2-3.47-2-5.43a12,12,0,0,1,.92-4.05l2-5.71a32.17,32.17,0,0,1,5.5-10.79l7.73-10.75c.25-.34.51-.5.59-.49a1.16,1.16,0,0,1,.13.22,10.72,10.72,0,0,1-.19,9,21,21,0,0,1-1.49,2.44c-.4.59-.8,1.19-1.16,1.81a4.14,4.14,0,0,0-.72,2.39,4.74,4.74,0,0,0,.77,2,3.54,3.54,0,0,1,.65,1.63.51.51,0,0,0,1,0,4.4,4.4,0,0,0-.78-2.13,3.83,3.83,0,0,1-.64-1.56,3.37,3.37,0,0,1,.58-1.81c.35-.59.74-1.17,1.12-1.74a23.68,23.68,0,0,0,1.57-2.56,11.74,11.74,0,0,0,.2-9.9,1.45,1.45,0,0,0-.46-.62c-.59-.43-1.38-.14-2,.72L150,217.23a45.1,45.1,0,0,0-2.71,4.08Z"/><path class="cls-4" d="M153.55,255a.49.49,0,0,0-.06.17.51.51,0,0,0,.43.57c3.62.55,7.39.92,10.21-1.2a12.89,12.89,0,0,0,2.31-2.42L175,241.5a39.78,39.78,0,0,0,6-9,.5.5,0,0,0-.27-.66.49.49,0,0,0-.66.26,39.49,39.49,0,0,1-5.83,8.75l-8.54,10.64a12.58,12.58,0,0,1-2.13,2.24c-2.51,1.88-6,1.53-9.45,1A.5.5,0,0,0,153.55,255Z"/><path class="cls-4" d="M163.44,254.36a7.56,7.56,0,0,0-.78,2c-.59,8.08,1.51,15.37,3.74,23.09l.48,1.7a.51.51,0,0,0,.63.34.5.5,0,0,0,.35-.62l-.49-1.7c-2.2-7.63-4.27-14.84-3.71-22.73a8,8,0,0,1,1.45-2.75.51.51,0,0,0-.73-.7A6.15,6.15,0,0,0,163.44,254.36Z"/><path class="cls-4" d="M142,241.23a.84.84,0,0,0-.05.17,66.77,66.77,0,0,0-.51,10.61c.1,2.47.37,4.95.64,7.36l3.39,30.39a.51.51,0,0,0,1-.12l-3.39-30.38c-.27-2.39-.55-4.86-.64-7.29a65.69,65.69,0,0,1,.5-10.43.5.5,0,0,0-.43-.57A.51.51,0,0,0,142,241.23Z"/><path class="cls-4" d="M74.65,212.86l0,.06a.46.46,0,0,1-.25.61,9.75,9.75,0,0,0-5,4.76,20.63,20.63,0,0,0-1.18,3.64l-.95,3.73a11.83,11.83,0,0,0-.45,2.39,11.09,11.09,0,0,0,.08,1.82l.75,8a.45.45,0,0,1-.41.5.46.46,0,0,1-.51-.41L66,230a13.93,13.93,0,0,1-.09-2,13.42,13.42,0,0,1,.48-2.57l1-3.74a21.22,21.22,0,0,1,1.25-3.81,10.65,10.65,0,0,1,5.52-5.22A.46.46,0,0,1,74.65,212.86Z"/><path class="cls-4" d="M74.9,212.91l0,.06a7.14,7.14,0,0,1-1.26,7.59l-.29.3a3.61,3.61,0,0,0-.71.89,3.31,3.31,0,0,0-.15,1.81c.5,4.92,2.1,8.4,4.76,10.34a17.2,17.2,0,0,0,3.86,1.93c.54.22,1.08.44,1.61.68a23.44,23.44,0,0,1,10.46,9.19.47.47,0,0,1-.15.64.48.48,0,0,1-.64-.15.06.06,0,0,0,0-.05,22.74,22.74,0,0,0-10-8.78c-.53-.24-1.06-.45-1.59-.67a18.18,18.18,0,0,1-4.06-2c-2.88-2.1-4.61-5.8-5.13-11a4.16,4.16,0,0,1,.23-2.31,4.64,4.64,0,0,1,.89-1.14,3.5,3.5,0,0,0,.27-.28,6.22,6.22,0,0,0,1.1-6.59.46.46,0,0,1,.23-.61A.47.47,0,0,1,74.9,212.91Z"/><path class="cls-4" d="M69.65,207.17a9.2,9.2,0,0,1,1.19,5.46,18.53,18.53,0,0,1-1.4,5.15c-.19.5-.37,1-.53,1.46a.46.46,0,0,1-.88-.3c.17-.49.35-1,.54-1.48a18.14,18.14,0,0,0,1.35-4.9,7.92,7.92,0,0,0-1.69-5.76c-.2-.22-.29-.24-.32-.24s-.16,0-.36.5a63.43,63.43,0,0,0-4.46,18.3,5.3,5.3,0,0,0,.06,1.88,5.58,5.58,0,0,0,.58,1.24l3.34,5.81a.46.46,0,0,1-.17.63.45.45,0,0,1-.64-.17L62.93,229a6.33,6.33,0,0,1-.68-1.46,6.11,6.11,0,0,1-.08-2.22,63.94,63.94,0,0,1,4.53-18.56c.1-.26.43-1.06,1.18-1.08a1.42,1.42,0,0,1,1,.55A7.23,7.23,0,0,1,69.65,207.17Z"/><path class="cls-4" d="M62.72,205.67a7.13,7.13,0,0,1,.71,1.53,16.77,16.77,0,0,1,.56,5c0,.47,0,.82,0,1.16a8.08,8.08,0,0,0,.38,3.22.46.46,0,0,1-.87.32,8.94,8.94,0,0,1-.44-3.56c0-.33,0-.67,0-1a16.21,16.21,0,0,0-.51-4.84,5.15,5.15,0,0,0-2.45-3.08L59,212.15a9.81,9.81,0,0,0-.14,3,9.26,9.26,0,0,0,1,2.62,21.42,21.42,0,0,0,1.39,2.31,18.59,18.59,0,0,1,1.88,3.37.48.48,0,0,1-.26.6.47.47,0,0,1-.61-.26,17.34,17.34,0,0,0-1.78-3.2,23.12,23.12,0,0,1-1.45-2.4,10.27,10.27,0,0,1-1.06-2.89A10.87,10.87,0,0,1,58,212l1.24-8.32a.47.47,0,0,1,.21-.32.46.46,0,0,1,.38,0A5.23,5.23,0,0,1,62.72,205.67Z"/><path class="cls-4" d="M59.24,206.65l.12.2a.47.47,0,0,1-.22.62.46.46,0,0,1-.62-.21c-.37-.8-1.45-1.1-2.33-1.28-2-.41-3.3-.26-4.16.49-.15.13-.17.19-.17.2s0,.11.13.29a19.55,19.55,0,0,0,2.93,3.23,15.61,15.61,0,0,1,3.71,4.53.47.47,0,0,1-.85.38,14.9,14.9,0,0,0-3.5-4.24,20.22,20.22,0,0,1-3.07-3.4,1.16,1.16,0,0,1,.21-1.7c1.44-1.24,3.52-1,5-.69A4.17,4.17,0,0,1,59.24,206.65Z"/><path class="cls-4" d="M92.88,233.53a.46.46,0,0,1-.54.68,19.22,19.22,0,0,1-6-3.81A22.33,22.33,0,0,0,81,226.83c-1.06-.46-2.08-1-3.06-1.56l-.25-.13a17.74,17.74,0,0,1-4.76-3.77.46.46,0,0,1,0-.65.47.47,0,0,1,.66,0,16.87,16.87,0,0,0,4.52,3.57l.24.13c1,.53,2,1.08,3,1.52a23.3,23.3,0,0,1,5.53,3.7,18.07,18.07,0,0,0,5.75,3.65A.44.44,0,0,1,92.88,233.53Z"/><path class="cls-4" d="M97,226.06a42.44,42.44,0,0,1,2.82,5.8L102,237a8.82,8.82,0,0,1-.52,9.51l-2.59,5.2a.46.46,0,0,1-.62.21.47.47,0,0,1-.21-.62l2.59-5.2a10.79,10.79,0,0,0,1.56-5.08,10.55,10.55,0,0,0-1.06-3.65L99,232.23a39.19,39.19,0,0,0-3-6.06,39.52,39.52,0,0,0-2.65-3.49l-7.67-9.39a1.06,1.06,0,0,0-.57-.42.67.67,0,0,0-.1.21,9.79,9.79,0,0,0,.68,8.25,18.53,18.53,0,0,0,1.51,2.14c.39.52.79,1,1.16,1.59a3.85,3.85,0,0,1,.79,2.15,4.3,4.3,0,0,1-.6,1.86,3.34,3.34,0,0,0-.49,1.53.46.46,0,0,1-.92,0,3.92,3.92,0,0,1,.59-2,3.46,3.46,0,0,0,.49-1.46,3.11,3.11,0,0,0-.63-1.62c-.35-.53-.74-1-1.13-1.53a21.52,21.52,0,0,1-1.58-2.25,10.75,10.75,0,0,1-.74-9,1.34,1.34,0,0,1,.38-.6c.52-.42,1.26-.21,1.87.55l7.68,9.38a39.05,39.05,0,0,1,2.71,3.58Z"/><path class="cls-4" d="M93,256.84l.06.14a.47.47,0,0,1-.36.55c-3.28.71-6.7,1.26-9.4-.51a12.4,12.4,0,0,1-2.25-2.08l-8.41-9.24a36.7,36.7,0,0,1-6-7.87.46.46,0,0,1,.21-.62.45.45,0,0,1,.62.2,36.2,36.2,0,0,0,5.82,7.66l8.42,9.24a11.11,11.11,0,0,0,2.07,1.93c2.4,1.58,5.61,1.05,8.7.39A.44.44,0,0,1,93,256.84Z"/><path class="cls-4" d="M83.91,256.79a6.94,6.94,0,0,1,.84,1.8c1,7.35-.51,14.13-2.1,21.31l-.35,1.58a.47.47,0,0,1-.91-.2l.35-1.58c1.57-7.1,3.06-13.8,2.09-21a7.23,7.23,0,0,0-1.47-2.42.46.46,0,0,1,.62-.69A5.17,5.17,0,0,1,83.91,256.79Z"/><path class="cls-4" d="M102.76,243.57a.47.47,0,0,1,.06.15,61.81,61.81,0,0,1,1.08,9.67c0,2.26-.07,4.55-.18,6.76l-1.37,28a.46.46,0,1,1-.92-.05l1.37-28c.11-2.2.22-4.47.17-6.7a59.66,59.66,0,0,0-1.06-9.5.47.47,0,0,1,.37-.55A.46.46,0,0,1,102.76,243.57Z"/><path class="cls-5" d="M123.48,187.34s1.44-10.76-9.21-14L113,176.61l-1.88-.51c.5-1.26,1-2.51,1.49-3.77l-2.6-1.25s-4.35,8.72-2.06,13.55l2.64,1.57s-1.14-5.42.18-8.58l1.56.47s-.68,7.49.81,9.09l2.09.47-.42-6.87a.93.93,0,0,1,.77-1.09.91.91,0,0,1,.69,1.06q.48,3.52,1,7l2.77.2-1-4.76c0-.53.26-1,.55-1s.88.36.94,1.12c.33,1.33.66,2.67,1,4C121.45,187.34,122.5,188.85,123.48,187.34Z"/><path class="cls-5" d="M108.53,169.94a34.37,34.37,0,0,0-2.74,12.95s-6.14-3.9-7.43-8c0,0-3-3.66-.17-7.09a6.13,6.13,0,0,0,1.5-3.82s-1.6-4.3,2-6.24a17.58,17.58,0,0,1,3.54-1.73,55.49,55.49,0,0,0,6.33-3.23,10.61,10.61,0,0,1,3.2-.49c.69.23.67,1.41-.37,2.46a39.32,39.32,0,0,1-3.72,1.79,7,7,0,0,0-2.13,3.37s-.18,1.36-2.35,2.36C106.17,162.25,103.55,167.93,108.53,169.94Z"/><path class="cls-5" d="M109.06,162.29s3.27,3.89,5.38,4.7c0,0,7.24,4.08,7.68,9.89,0,0-4.65-5.33-10.62-7.15a6.35,6.35,0,0,1-2.06-1,6.84,6.84,0,0,1-2.29-3.25,2.65,2.65,0,0,1,.07-1.4A3,3,0,0,1,109.06,162.29Z"/><path class="cls-5" d="M123.41,174.16s2.54,9,1.89,12.68c0,0,1.36,1.06,2-3a29.45,29.45,0,0,0-.15-4s1.31-2.35,2-.59l-.58,6.82,2.85-1.38s1.65-4.65-.18-8.18L129.53,171l-2.29,1s1.5,3.08,1.36,3.76-1.74,2.47-2.23.13l-.69-3.55Z"/><path class="cls-5" d="M120.78,169.45l2,3,8.3-4.2s2.67-3-.18-5.58Z"/><path class="cls-5" d="M123.3,165.6l-3.79,2.88s-3.36-3.83-5.61-4.28c0,0,4.41-5.42,10.39-1.39l1,1.08s.62,1.76-1,.62c0,0-2-1.67-3.32-1.33,0,0-1.56,1,.23,1.57Z"/><path class="cls-5" d="M122.77,151.79s2.19,2.35,2.37,3.58c0,0,2.9.21,3.65,1.07a6.47,6.47,0,0,1,2.56,4,6.6,6.6,0,0,1,2.34,6.73,8,8,0,0,1-2.56,2.74l2.07,6.18a25.34,25.34,0,0,1,.41,3.11,24.57,24.57,0,0,1-.05,4l4.11-3.68c.25-.45.5-.94.74-1.48s.5-1.22.68-1.77a7.52,7.52,0,0,0,1.85-2.1,7.7,7.7,0,0,0,1-4.5,11.1,11.1,0,0,0-2.7-4.68s2.3-5.46-2.45-8.59c0,0-4-2.23-5.07-1.3C131.73,155.07,129.92,151.12,122.77,151.79Z"/><path class="cls-5" d="M112.36,163.23l1.32-1.43-.48-1.94s.35-1.52,1.43-.48l1,1.33,3.18-1.26-.07-3s1.08-2.3,1.79-.21l-.13,3.16,3.84,1.08s.82-2.3,1.64-1.77.74,1.17-.08,2.65l1.73,1.89s3.66-1.88,1.06-5c0,0-.82-1.76-3.63-1.09,0,0-2.42-4.24-4-4.55s-.4-.07-.4-.07-3.61-1.15-4.74,3.45a4,4,0,0,1-1.44,1,9.9,9.9,0,0,0-1.6.34,4,4,0,0,0-1.57.67,3,3,0,0,0-1,1.5l-.36,1.56Z"/><path class="cls-5" d="M117.8,238.9s.54-7.77,1.43-10.23c0,0,5.31-12,5.25-14.52,0,0,.22-9-1.13-11.41l-3.14-5.83A9.07,9.07,0,0,1,111,192.1s-3-1-4.61-.53c0,0-15.27-1.57-7-12.52,0,0,2.34,5,6.41,6.65,0,0-1.5,2.55-1.1,3.57,0,0,1,2,3.21-2.55a35.13,35.13,0,0,0,10.68,3s-.52,3.92,1.06,4.29c0,0,1.59,1.09,1-4.2,0,0,9.53-1.93,10.88-3.15,0,0,1.47,2.56,2.48,2.71,0,0,2.36-.24-.74-3.68,0,0,6.34-4.66,6.91-7.25,0,0,3.61,2.05,2.1,7.92,0,0-3.53,5.73-8.48,5.17a37.43,37.43,0,0,1-4.24-.31s-2.79,1-2.86,1.9c0,0-2.36,3.22-4.2,3.62a37.43,37.43,0,0,1,3.92,11.69s-.24,10.75-2.45,13.77a22.41,22.41,0,0,0-2,4,43.25,43.25,0,0,0-2.5,12.66S119.62,240,117.8,238.9Z"/></g></g></svg>