<svg xmlns="http://www.w3.org/2000/svg" viewBox="0 0 234.08 423.38"><defs><style>.cls-1{fill:#e9c4a9;}.cls-2{font-size:13.62px;font-family:SukhumvitSet-Light, Sukhumvit Set;font-weight:300;letter-spacing:0em;}.cls-2,.cls-4{fill:#fff;}.cls-3{fill:none;stroke:#d38d30;stroke-miterlimit:10;stroke-width:0.75px;}.cls-5{fill:#d2a267;}</style></defs><title>front2</title><g id="Layer_2" data-name="Layer 2"><g id="Layer_1-2" data-name="Layer 1"><path class="cls-1" d="M0,16.55a15.44,15.44,0,0,1,.58-4.81A16,16,0,0,1,5.18,4.38a16.82,16.82,0,0,1,10-4.26l203-.12A16.66,16.66,0,0,1,229,4.51a16.32,16.32,0,0,1,4.79,9.41q.15,196.5.31,393a16.44,16.44,0,0,1-4.55,11.5,16.69,16.69,0,0,1-10.85,4.91l-204.29.06s-10-.64-13.79-12l-.46-2.08Z"/><text class="cls-2" transform="translate(16.08 11.73) rotate(90) scale(0.99 1)">02</text><path class="cls-3" d="M31.43,19h81.93l4.82-3.11,5.34,3.2h94.82V200.18l5,4.26-4.73,4,.27,185.38"/><rect class="cls-4" x="208.35" y="408.16" width="0.73" height="0.17"/><rect class="cls-4" x="208.32" y="401.88" width="0.73" height="0.17"/><rect class="cls-4" x="215.08" y="401.85" width="0.73" height="0.17"/><rect class="cls-4" x="215.1" y="408.16" width="0.73" height="0.17"/><rect class="cls-4" x="221.69" y="401.84" width="0.73" height="0.17"/><rect class="cls-4" x="221.7" y="408.15" width="0.73" height="0.17"/><rect class="cls-4" x="220.86" y="408.15" width="0.73" height="0.17"/><rect class="cls-4" x="215.88" y="408.16" width="0.73" height="0.17"/><path class="cls-4" d="M213.59,405.1a4,4,0,0,1-.22,1.4,2.61,2.61,0,0,1-.62,1,2.53,2.53,0,0,1-1,.62,3.87,3.87,0,0,1-1.26.2H208.7v-6.45h1.83a3.62,3.62,0,0,1,1.26.2,2.63,2.63,0,0,1,1,.61,2.82,2.82,0,0,1,.62,1A4.22,4.22,0,0,1,213.59,405.1Zm-.83,0a3.9,3.9,0,0,0-.17-1.2,2.48,2.48,0,0,0-.48-.83,2.05,2.05,0,0,0-.72-.49,2.39,2.39,0,0,0-.89-.17h-1v5.35h1a2.39,2.39,0,0,0,.89-.17,1.93,1.93,0,0,0,.71-.49,2.16,2.16,0,0,0,.48-.84A3.44,3.44,0,0,0,212.76,405.11Z"/><path class="cls-4" d="M221.23,408.32v-5.63h0l-2.07,5.63h-.77l-2.07-5.63h0v5.63h-.79v-6.48h1.24l2,5.47h.05l2-5.48h1.29v6.48Z"/><polyline class="cls-3" points="17.62 33.18 17.62 203.14 13.41 206.98 17.95 211.43 17.95 404.47 112.28 404.47 118.11 407.64 123.29 404.16 203.28 404.16"/><path class="cls-4" d="M76.7,375.36c-1.25-.27-1.88-.42-3.13-.74-.14.28-.25.53-.34.75A4.6,4.6,0,0,0,73,376a3.81,3.81,0,0,0-.13.42,1.78,1.78,0,0,0,0,.29.64.64,0,0,0,.21.51,1.85,1.85,0,0,0,.7.31v.44c-1.14-.3-1.71-.46-2.85-.8v-.44a2.85,2.85,0,0,0,.46,0,.86.86,0,0,0,.34-.06.63.63,0,0,0,.26-.2,1.62,1.62,0,0,0,.22-.35c1.22-2.69,1.83-4.05,3-6.8l.51.12c1.06,2.87,1.6,4.29,2.66,7.13.18.47.34.84.47,1.13a3.25,3.25,0,0,0,.39.65,1,1,0,0,0,.41.33,2,2,0,0,0,.52.15v.45c-1.53-.25-2.3-.4-3.83-.73v-.46a1.85,1.85,0,0,0,.86.07.32.32,0,0,0,.23-.34,1.41,1.41,0,0,0,0-.21,2.23,2.23,0,0,0,0-.23l-.08-.28c0-.1-.08-.23-.14-.37C77,376.18,76.89,375.91,76.7,375.36Zm-2.9-1.26c1.07.27,1.61.4,2.68.63-.52-1.49-.78-2.24-1.31-3.73Z"/><path class="cls-4" d="M86.76,374.64v-.43a4,4,0,0,0,1-.65,2.34,2.34,0,0,0,.54-.82l.34,0v1.47l1.57.08v.55l-1.57-.09v3.55a4.58,4.58,0,0,0,0,.69,1.51,1.51,0,0,0,.13.45.57.57,0,0,0,.25.26,1,1,0,0,0,.39.09.9.9,0,0,0,.5-.1,1.21,1.21,0,0,0,.4-.39l.29.23a1.17,1.17,0,0,1-.57.63,1.93,1.93,0,0,1-1,.18,1.79,1.79,0,0,1-1.18-.44,1.46,1.46,0,0,1-.4-1.09V374.7Z"/><path class="cls-4" d="M94.54,374.11a3.58,3.58,0,0,1,1.27.23,3.48,3.48,0,0,1,1,.64,3.19,3.19,0,0,1,.72,1,2.93,2.93,0,0,1,.26,1.26,3.13,3.13,0,0,1-.26,1.31,3.38,3.38,0,0,1-.72,1.05,3.42,3.42,0,0,1-1,.69,3.3,3.3,0,0,1-2.52,0,3.5,3.5,0,0,1-1-.69,3.33,3.33,0,0,1-1-2.37,3.05,3.05,0,0,1,.26-1.26,3,3,0,0,1,.71-1,3.17,3.17,0,0,1,1-.63A3.54,3.54,0,0,1,94.54,374.11Zm0,.56a1.73,1.73,0,0,0-.79.18,1.79,1.79,0,0,0-.61.52,2.5,2.5,0,0,0-.39.82,4,4,0,0,0-.13,1.07,4.2,4.2,0,0,0,.13,1.1,2.55,2.55,0,0,0,.39.83,1.65,1.65,0,0,0,.61.54,1.59,1.59,0,0,0,.79.19,1.67,1.67,0,0,0,.81-.19,1.7,1.7,0,0,0,.63-.54,2.73,2.73,0,0,0,.4-.84,4.11,4.11,0,0,0,.14-1.09,3.81,3.81,0,0,0-.14-1.05,2.73,2.73,0,0,0-.4-.82,1.77,1.77,0,0,0-.63-.53A1.67,1.67,0,0,0,94.54,374.67Z"/><path class="cls-4" d="M102.22,373.87a3.34,3.34,0,0,1,1.27.15,3.15,3.15,0,0,1,1.05.58,2.91,2.91,0,0,1,.72.94,3,3,0,0,1,.26,1.24,3.43,3.43,0,0,1-.26,1.33,3.83,3.83,0,0,1-.72,1.09,3.59,3.59,0,0,1-1.05.75,3.46,3.46,0,0,1-1.27.33,3.27,3.27,0,0,1-1.25-.17,3.13,3.13,0,0,1-1-.62,3,3,0,0,1-.7-1,3.28,3.28,0,0,1-.26-1.3,3.18,3.18,0,0,1,.26-1.28,3.4,3.4,0,0,1,.7-1,3.73,3.73,0,0,1,1-.7A3.63,3.63,0,0,1,102.22,373.87Zm0,.56a1.65,1.65,0,0,0-.79.23,1.91,1.91,0,0,0-.61.56,2.66,2.66,0,0,0-.39.85,4.55,4.55,0,0,0,0,2.16,2.35,2.35,0,0,0,.39.81,1.58,1.58,0,0,0,.6.5,1.61,1.61,0,0,0,.8.14,1.82,1.82,0,0,0,.81-.24,1.9,1.9,0,0,0,.62-.58,2.53,2.53,0,0,0,.4-.86,3.85,3.85,0,0,0,.15-1.1,3.41,3.41,0,0,0-.15-1,2.34,2.34,0,0,0-.39-.79,1.67,1.67,0,0,0-1.44-.63Z"/><path class="cls-4" d="M108.54,377.82a6.62,6.62,0,0,0,0,.71.88.88,0,0,0,.15.4.45.45,0,0,0,.32.18,1.86,1.86,0,0,0,.54,0v.41c-1.29.14-1.94.2-3.24.32v-.41a2.19,2.19,0,0,0,.57-.13.73.73,0,0,0,.33-.23.91.91,0,0,0,.17-.41,5.54,5.54,0,0,0,0-.66v-5c0-.42,0-.77,0-1.05a4.05,4.05,0,0,0-.05-.58.42.42,0,0,0-.28-.33,2,2,0,0,0-.78,0v-.4l2.22-.64Z"/><path class="cls-4" d="M116.9,372.65l1.32-.19v-.84a3.33,3.33,0,0,1,.71-2.19,3.17,3.17,0,0,1,2-1,2.68,2.68,0,0,1,1.19.05c.3.1.45.27.45.5a.64.64,0,0,1-.14.41.57.57,0,0,1-.37.22.53.53,0,0,1-.3-.05,2.31,2.31,0,0,1-.42-.23,2.66,2.66,0,0,0-.46-.26.94.94,0,0,0-.38,0,1.26,1.26,0,0,0-1,.86,2.31,2.31,0,0,0-.15.59,7.8,7.8,0,0,0,0,.94v.91l1.89-.27v.54l-1.89.28v3.56a4.3,4.3,0,0,0,0,.7.9.9,0,0,0,.19.43.57.57,0,0,0,.37.18,2.63,2.63,0,0,0,.61,0v.41c-1.34.2-2,.29-3.34.47v-.41a2.41,2.41,0,0,0,.53-.13.7.7,0,0,0,.31-.24,1,1,0,0,0,.14-.43,6.62,6.62,0,0,0,0-.71V373l-1.32.18Z"/><path class="cls-4" d="M125.15,371.15a3.16,3.16,0,0,1,1.27.05,2.69,2.69,0,0,1,1,.5,2.58,2.58,0,0,1,.72.88,2.85,2.85,0,0,1,.26,1.23,3.55,3.55,0,0,1-.26,1.34,4,4,0,0,1-1.77,2,3.84,3.84,0,0,1-1.27.44,3.25,3.25,0,0,1-1.25-.05,2.75,2.75,0,0,1-1-.52,2.44,2.44,0,0,1-.7-.93,3,3,0,0,1-.26-1.27,3.44,3.44,0,0,1,.26-1.31,3.62,3.62,0,0,1,.7-1.1,3.89,3.89,0,0,1,1-.81A3.77,3.77,0,0,1,125.15,371.15Zm0,.56a1.86,1.86,0,0,0-.79.3,2.16,2.16,0,0,0-.61.63,2.83,2.83,0,0,0-.39.88,4.23,4.23,0,0,0-.13,1.09,3.87,3.87,0,0,0,.13,1.07,2.2,2.2,0,0,0,.39.78,1.4,1.4,0,0,0,1.4.5,1.9,1.9,0,0,0,.81-.31,2.19,2.19,0,0,0,.62-.63,2.69,2.69,0,0,0,.4-.89,4,4,0,0,0,.14-1.11,3.31,3.31,0,0,0-.14-1,2,2,0,0,0-.4-.76,1.5,1.5,0,0,0-.62-.44A1.55,1.55,0,0,0,125.15,371.71Z"/><path class="cls-4" d="M131.62,374.61c0,.32,0,.57,0,.76a.75.75,0,0,0,.13.4.36.36,0,0,0,.28.15,3.06,3.06,0,0,0,.53,0v.4l-3.12.47v-.41a2.94,2.94,0,0,0,.54-.14.73.73,0,0,0,.3-.24,1,1,0,0,0,.14-.42,6.75,6.75,0,0,0,0-.71V373.5c0-.52,0-.93,0-1.23a1.52,1.52,0,0,0-.12-.63.35.35,0,0,0-.31-.21,3.64,3.64,0,0,0-.58.05v-.41l2.05-.75c.07.57.1.86.16,1.42h0a3.64,3.64,0,0,1,.38-.7,3.52,3.52,0,0,1,.5-.57,2.68,2.68,0,0,1,.57-.4,1.67,1.67,0,0,1,.59-.21.86.86,0,0,1,.6.1.52.52,0,0,1,.21.45.61.61,0,0,1-.17.46.87.87,0,0,1-.51.23.8.8,0,0,1-.31,0l-.23-.06-.19-.08a.4.4,0,0,0-.19,0,1,1,0,0,0-.64.49,3.53,3.53,0,0,0-.49,1.09,7.43,7.43,0,0,0-.15.79,8.72,8.72,0,0,0,0,.9Z"/><path class="cls-4" d="M142.06,375l-.26,0v-2l.29,0c.31,1.06.86,1.54,1.67,1.45a1.29,1.29,0,0,0,.74-.31.91.91,0,0,0,.28-.72.85.85,0,0,0-.05-.3,1,1,0,0,0-.2-.23,2.68,2.68,0,0,0-.41-.26l-.7-.37a7,7,0,0,1-.69-.37,2.6,2.6,0,0,1-.5-.37,1.48,1.48,0,0,1-.3-.42,1.6,1.6,0,0,1-.1-.56,2.08,2.08,0,0,1,.14-.75,2,2,0,0,1,.37-.61,2.14,2.14,0,0,1,.55-.43,2,2,0,0,1,.69-.21,2.11,2.11,0,0,1,.66,0,2,2,0,0,1,.6.2l.23-.27.23,0v1.68l-.31,0a2.44,2.44,0,0,0-.56-1,.91.91,0,0,0-.75-.21,1,1,0,0,0-.64.28.82.82,0,0,0-.24.61.81.81,0,0,0,.06.33.74.74,0,0,0,.21.27,2.12,2.12,0,0,0,.35.24l.53.27.86.47a3.23,3.23,0,0,1,.58.42,1.41,1.41,0,0,1,.33.46,1.48,1.48,0,0,1,.1.57,1.82,1.82,0,0,1-.54,1.36,2.36,2.36,0,0,1-1.42.63,2.29,2.29,0,0,1-1.57-.35Z"/><path class="cls-4" d="M151.81,369.8c0-.32,0-.57,0-.75a1,1,0,0,0-.12-.41.51.51,0,0,0-.3-.18,3.29,3.29,0,0,0-.53,0V368c.85-.06,1.27-.09,2.12-.13v3.57c0,.44,0,.81,0,1.08a6.16,6.16,0,0,0,.05.63.67.67,0,0,0,.08.24.35.35,0,0,0,.16.13.68.68,0,0,0,.27.05H154v.4l-1.93.25c-.06-.55-.08-.83-.13-1.39h0a3.31,3.31,0,0,1-1,1.12,2.64,2.64,0,0,1-1.21.43,2.58,2.58,0,0,1-1-.11,1.28,1.28,0,0,1-1-1.12,6.17,6.17,0,0,1-.09-1.17v-1.86a7.12,7.12,0,0,0,0-.74.71.71,0,0,0-.12-.41.43.43,0,0,0-.29-.17,2.58,2.58,0,0,0-.54,0v-.41l2.13-.19v3.18a4,4,0,0,0,.3,1.81.92.92,0,0,0,.95.5c.69-.06,1.23-.54,1.61-1.46,0-.09.07-.18.1-.26l.06-.26c0-.1,0-.2,0-.32s0-.25,0-.42Z"/><path class="cls-4" d="M160.18,372.87a2.79,2.79,0,0,1-1.09.8,3.82,3.82,0,0,1-1.44.3,2.87,2.87,0,0,1-1.15-.19,2.59,2.59,0,0,1-.9-.62,2.76,2.76,0,0,1-.58-1,4.16,4.16,0,0,1,0-2.64,3,3,0,0,1,.67-1.05,2.94,2.94,0,0,1,1-.68,3.58,3.58,0,0,1,1.33-.26,4.26,4.26,0,0,1,.83.06,2.7,2.7,0,0,1,.66.21,1.19,1.19,0,0,1,.42.33.61.61,0,0,1,.16.41.41.41,0,0,1-.16.36.6.6,0,0,1-.42.13.63.63,0,0,1-.35-.09,1.93,1.93,0,0,1-.36-.38,1.4,1.4,0,0,0-.46-.38,1.26,1.26,0,0,0-.55-.1,1.47,1.47,0,0,0-1.27.67,3.54,3.54,0,0,0-.42,1.9,3.51,3.51,0,0,0,.47,2,1.56,1.56,0,0,0,1.39.66,2.25,2.25,0,0,0,.93-.2,3.15,3.15,0,0,0,.88-.63Z"/><path class="cls-4" d="M166.48,373.09a2.76,2.76,0,0,1-1.1.73,3.57,3.57,0,0,1-1.44.21,2.81,2.81,0,0,1-1.14-.26,2.59,2.59,0,0,1-.9-.67,2.83,2.83,0,0,1-.58-1,4.07,4.07,0,0,1,0-2.64,2.75,2.75,0,0,1,.67-1,2.7,2.7,0,0,1,1-.63,3.58,3.58,0,0,1,1.33-.18,5,5,0,0,1,.84.12,3,3,0,0,1,.65.25,1.4,1.4,0,0,1,.43.35.72.72,0,0,1,.15.43.43.43,0,0,1-.15.35.6.6,0,0,1-.42.1.77.77,0,0,1-.36-.11,2,2,0,0,1-.36-.41,1.47,1.47,0,0,0-.45-.4,1.28,1.28,0,0,0-.56-.14,1.35,1.35,0,0,0-1.26.6,3.29,3.29,0,0,0-.43,1.87,3.72,3.72,0,0,0,.47,2.05,1.65,1.65,0,0,0,1.4.74,2.19,2.19,0,0,0,.92-.14,2.74,2.74,0,0,0,.88-.57Z"/><path class="cls-4" d="M173,373.66a2.82,2.82,0,0,1-2.48.88,3.93,3.93,0,0,1-1.26-.37,3.35,3.35,0,0,1-1-.73,3,3,0,0,1-.62-1,3.65,3.65,0,0,1-.23-1.29,3.38,3.38,0,0,1,.24-1.3,2.58,2.58,0,0,1,1.68-1.56,3.09,3.09,0,0,1,1.3-.11,2.7,2.7,0,0,1,1.76.84,2.65,2.65,0,0,1,.62,1.84c0,.11,0,.18-.06.19a.61.61,0,0,1-.3,0c-1.55-.22-2.32-.31-3.86-.45a1.09,1.09,0,0,0,0,.22,2.81,2.81,0,0,0,0,.3,3.92,3.92,0,0,0,.15,1.11,2.71,2.71,0,0,0,.42.89,2.26,2.26,0,0,0,.66.61,2,2,0,0,0,.85.29,1.84,1.84,0,0,0,.91-.1,2.68,2.68,0,0,0,.87-.59ZM171,370.25l.37,0a.65.65,0,0,0,.22,0,.2.2,0,0,0,.09-.09.37.37,0,0,0,0-.16,1.25,1.25,0,0,0-.34-.9,1.49,1.49,0,0,0-.95-.44c-.84-.09-1.37.36-1.57,1.34C169.72,370.1,170.15,370.15,171,370.25Z"/><path class="cls-4" d="M174.56,375l-.25-.05v-2l.29.05c.31,1.15.86,1.79,1.67,1.94a1,1,0,0,0,.74-.08.68.68,0,0,0,.28-.64.9.9,0,0,0,0-.3,1.41,1.41,0,0,0-.2-.3,5.48,5.48,0,0,0-.41-.39c-.18-.15-.41-.35-.7-.58s-.5-.4-.7-.58a3.85,3.85,0,0,1-.49-.51,2.26,2.26,0,0,1-.3-.51,1.55,1.55,0,0,1-.1-.59,1.71,1.71,0,0,1,.14-.7,1.3,1.3,0,0,1,.37-.51,1.42,1.42,0,0,1,.55-.27,1.6,1.6,0,0,1,.69,0,2.69,2.69,0,0,1,.66.22,2.59,2.59,0,0,1,.6.39l.23-.2.23.05v1.68l-.31-.07a3.57,3.57,0,0,0-.56-1.13,1.34,1.34,0,0,0-.75-.45.83.83,0,0,0-.64.09.59.59,0,0,0-.24.54,1,1,0,0,0,.06.36,1.28,1.28,0,0,0,.2.32,4,4,0,0,0,.36.35c.15.13.32.27.53.43s.62.52.86.74a4.56,4.56,0,0,1,.58.6,2.1,2.1,0,0,1,.33.57,1.68,1.68,0,0,1,.1.6,1.33,1.33,0,0,1-.54,1.19,1.92,1.92,0,0,1-1.42.18,3.08,3.08,0,0,1-1.57-.81C174.71,374.78,174.66,374.85,174.56,375Z"/><path class="cls-4" d="M179.89,376.09l-.25-.06v-2l.29.08a2.53,2.53,0,0,0,1.67,2.07,1,1,0,0,0,.74,0c.19-.09.28-.3.28-.61a1,1,0,0,0-.05-.31,1.78,1.78,0,0,0-.2-.32l-.41-.42-.7-.63c-.27-.23-.5-.44-.7-.63a5.73,5.73,0,0,1-.49-.55,2.43,2.43,0,0,1-.3-.54,1.59,1.59,0,0,1-.1-.59,1.68,1.68,0,0,1,.14-.7,1.16,1.16,0,0,1,.37-.47,1.24,1.24,0,0,1,.55-.23,1.66,1.66,0,0,1,.69.05,2.61,2.61,0,0,1,.66.28,3,3,0,0,1,.6.43l.23-.18.23.07v1.67l-.31-.09a4,4,0,0,0-.56-1.17,1.45,1.45,0,0,0-.75-.51.8.8,0,0,0-.64,0,.55.55,0,0,0-.25.52,1,1,0,0,0,.07.36,1.37,1.37,0,0,0,.2.34,4.12,4.12,0,0,0,.36.38l.53.47.86.8a5.37,5.37,0,0,1,.58.66,2.35,2.35,0,0,1,.33.59,1.77,1.77,0,0,1,.1.61,1.2,1.2,0,0,1-.54,1.14,1.82,1.82,0,0,1-1.42.07,3.28,3.28,0,0,1-1.57-.93Z"/><path class="cls-4" d="M62,85.12l-.37-.64a11,11,0,0,0,1.07-.74,1.59,1.59,0,0,0,.5-.67,1.2,1.2,0,0,0,0-.75,5.34,5.34,0,0,0-.47-1l-4.45-7.88a6.73,6.73,0,0,0-.61-.91,1.23,1.23,0,0,0-.62-.42,1.4,1.4,0,0,0-.79.07,10.23,10.23,0,0,0-1.12.5L54.73,72c2.89-1.68,4.35-2.47,7.32-4a11.27,11.27,0,0,1,3.78-1.16,8.94,8.94,0,0,1,3.46.22,6.86,6.86,0,0,1,2.78,1.48,6.69,6.69,0,0,1,1.82,2.59,6.79,6.79,0,0,1,.54,2.93,7,7,0,0,1-.7,2.77,8.48,8.48,0,0,1-1.79,2.42,10.86,10.86,0,0,1-2.78,1.91C66.24,82.68,64.8,83.46,62,85.12ZM59.78,70.31c-.23.13-.3.29-.19.48,2,3.7,3,5.55,5,9.24.7,1.3,2,1.45,3.84.52a6.15,6.15,0,0,0,3.31-3.32,6.45,6.45,0,0,0-.46-4.88A8.4,8.4,0,0,0,69.7,69.9a5.47,5.47,0,0,0-4.54-1.75,7.6,7.6,0,0,0-2.73.8C61.37,69.48,60.84,69.76,59.78,70.31Z"/><path class="cls-4" d="M82.58,59.79a10.61,10.61,0,0,1,3.82-.45,9.19,9.19,0,0,1,3.35.86,7.26,7.26,0,0,1,2.49,1.95A6.57,6.57,0,0,1,93.59,65a6.42,6.42,0,0,1,0,3,7.91,7.91,0,0,1-1.26,2.75A9.49,9.49,0,0,1,90.05,73,10.2,10.2,0,0,1,87,74.46a10.32,10.32,0,0,1-3.37.44,9.69,9.69,0,0,1-3.12-.64,8,8,0,0,1-2.59-1.6A6.7,6.7,0,0,1,75.76,67a7.54,7.54,0,0,1,1-3,9.16,9.16,0,0,1,2.34-2.54A10.77,10.77,0,0,1,82.58,59.79Zm4.11,13.65a6.74,6.74,0,0,0,2.23-1.1,5.53,5.53,0,0,0,1.48-1.72,5.85,5.85,0,0,0,.67-2.26,7.67,7.67,0,0,0-.22-2.69,8.12,8.12,0,0,0-1.1-2.61A5.9,5.9,0,0,0,88,61.3a5.56,5.56,0,0,0-2.34-.79,7.13,7.13,0,0,0-2.77.3,7,7,0,0,0-2.47,1.26A5.41,5.41,0,0,0,78.88,64a5.92,5.92,0,0,0-.52,2.44,8.31,8.31,0,0,0,.53,2.79,7.77,7.77,0,0,0,1.31,2.36A5.88,5.88,0,0,0,82,73.11a5.44,5.44,0,0,0,2.19.63A6.85,6.85,0,0,0,86.69,73.44Z"/><path class="cls-4" d="M118.93,66.14a126.55,126.55,0,0,1,6-11.32c2.06.09,3.09.16,5.15.34l-.07.73a4.31,4.31,0,0,0-1.19.06,1.28,1.28,0,0,0-.71.4,1.85,1.85,0,0,0-.38.86,10.4,10.4,0,0,0-.18,1.43c-.21,3-.31,4.54-.52,7.58a10.27,10.27,0,0,0,0,1.53,1.88,1.88,0,0,0,.26.89,1.14,1.14,0,0,0,.64.46,6.13,6.13,0,0,0,1.15.21l-.07.74c-2.62-.23-3.94-.31-6.57-.39,0-.29,0-.44,0-.73a6.13,6.13,0,0,0,1.16-.09,1.25,1.25,0,0,0,.7-.37,1.75,1.75,0,0,0,.37-.81,10.3,10.3,0,0,0,.15-1.44l.45-9H125a125.19,125.19,0,0,0-6.52,12.58H118a124.56,124.56,0,0,0-6.59-12.49h-.09l.55,8.84a10.76,10.76,0,0,0,.18,1.52,1.87,1.87,0,0,0,.37.85,1.12,1.12,0,0,0,.7.37,7.24,7.24,0,0,0,1.16.07c0,.29,0,.44,0,.73-2.26.1-3.4.17-5.65.38l-.07-.73a6.86,6.86,0,0,0,1.14-.23,1.24,1.24,0,0,0,.65-.45,1.68,1.68,0,0,0,.27-.85,10.23,10.23,0,0,0,0-1.44c-.23-3.14-.35-4.71-.58-7.85a9.3,9.3,0,0,0-.18-1.34,1.74,1.74,0,0,0-.38-.82,1.28,1.28,0,0,0-.73-.38,5.37,5.37,0,0,0-1.2-.06c0-.29,0-.44-.06-.73,2.19-.2,3.29-.28,5.49-.38,2.53,4.47,3.7,6.73,5.82,11.31Z"/><path class="cls-4" d="M141.83,56.52a11,11,0,0,1,3.6,1.32A8.92,8.92,0,0,1,148,60.11,7.22,7.22,0,0,1,149.35,63a6.79,6.79,0,0,1-1.51,5.82,8.05,8.05,0,0,1-2.38,1.88,9.26,9.26,0,0,1-3,1,10.57,10.57,0,0,1-6.56-1.18,9.58,9.58,0,0,1-2.46-2,8.3,8.3,0,0,1-1.56-2.6,6.81,6.81,0,0,1,.66-6,7.23,7.23,0,0,1,2.25-2.22A9.26,9.26,0,0,1,138,56.5,10.72,10.72,0,0,1,141.83,56.52Zm-2.57,14a6.68,6.68,0,0,0,2.48,0,5.4,5.4,0,0,0,2.1-.86A5.94,5.94,0,0,0,145.47,68a8,8,0,0,0,1-2.5,8.2,8.2,0,0,0,.21-2.83,5.77,5.77,0,0,0-.77-2.36,5.42,5.42,0,0,0-1.72-1.75,7,7,0,0,0-2.58-1,7,7,0,0,0-2.77,0,5.18,5.18,0,0,0-2.22,1,5.67,5.67,0,0,0-1.56,1.94,8.18,8.18,0,0,0-.8,2.72,7.79,7.79,0,0,0,.08,2.7,6,6,0,0,0,.91,2.17,5.3,5.3,0,0,0,1.65,1.54A6.85,6.85,0,0,0,139.26,70.54Z"/><path class="cls-4" d="M165.27,67.33a3.51,3.51,0,0,1-2,2,6.41,6.41,0,0,1-3.65.11c1.11,2.59,1.63,3.89,2.56,6.5a3.46,3.46,0,0,0,.8,1.32,7.37,7.37,0,0,0,1.32,1c-.12.27-.18.41-.29.68-1.47-.64-2.21-.95-3.69-1.53-1-3-1.52-4.5-2.73-7.49a3.8,3.8,0,0,0-.33-.67,2.47,2.47,0,0,0-.4-.45,2.67,2.67,0,0,0-.56-.33c-.22-.09-.49-.19-.81-.29-.5,1.54-.75,2.31-1.24,3.84a5.58,5.58,0,0,0-.27,1.15,1.15,1.15,0,0,0,.15.79,1.76,1.76,0,0,0,.72.59,11.74,11.74,0,0,0,1.39.57l-.24.69c-2.74-1-4.13-1.38-6.91-2.15l.2-.7a7.53,7.53,0,0,0,1.15.2,1.49,1.49,0,0,0,.76-.12,1.34,1.34,0,0,0,.51-.54,6.34,6.34,0,0,0,.4-1c1-3.46,1.57-5.19,2.61-8.65a6.12,6.12,0,0,0,.24-1.07,1.2,1.2,0,0,0-.12-.72,1.25,1.25,0,0,0-.58-.52,7.93,7.93,0,0,0-1.12-.44l.2-.71c2.81.78,4.21,1.21,7,2.15a9.46,9.46,0,0,1,4.32,2.62A3,3,0,0,1,165.27,67.33Zm-9.44,0,1.48.48a6.31,6.31,0,0,0,3.34.41,3.17,3.17,0,0,0,1.8-4.22,4.37,4.37,0,0,0-2.39-1.57l-2-.67c-.25-.08-.41,0-.47.2C156.87,64.06,156.52,65.13,155.83,67.28Z"/><path class="cls-4" d="M172.05,73.6a14.85,14.85,0,0,0,1.87.79,4.09,4.09,0,0,0,1.34.24,1.75,1.75,0,0,0,1-.29,2.18,2.18,0,0,0,.66-.79l.71.38c-1,1.86-1.53,2.79-2.54,4.65l-.68-.36a2.32,2.32,0,0,0,.31-1,1.49,1.49,0,0,0-.25-.93,3.83,3.83,0,0,0-.94-1,11.05,11.05,0,0,0-1.77-1l-2,3.93a2.82,2.82,0,0,0-.31,1,1.41,1.41,0,0,0,.21.86,2.82,2.82,0,0,0,.81.81,11.43,11.43,0,0,0,1.42.86,13.23,13.23,0,0,0,1.74.77,3.74,3.74,0,0,0,1.39.2,2.77,2.77,0,0,0,1.2-.38,6,6,0,0,0,1.19-1l.71.41c-.9,1.25-1.34,1.87-2.23,3.13a92.42,92.42,0,0,0-11.52-5.86l.3-.68a6,6,0,0,0,1.12.37,1.47,1.47,0,0,0,.78,0,1.3,1.3,0,0,0,.58-.46,6.18,6.18,0,0,0,.55-1c1.54-3.27,2.31-4.91,3.84-8.19a5.65,5.65,0,0,0,.4-1,1.13,1.13,0,0,0-.53-1.33,8.71,8.71,0,0,0-1-.61l.3-.67a106,106,0,0,1,12.17,6.16l-1.54,3-.71-.4a3.42,3.42,0,0,0,.24-1.33,2.24,2.24,0,0,0-.36-1.1,4.17,4.17,0,0,0-1-1,13.36,13.36,0,0,0-1.75-1.06c-1.06-.55-1.59-.82-2.66-1.34q-.36-.18-.51.12C173.53,70.61,173,71.61,172.05,73.6Z"/><path class="cls-4" d="M170.56,204.34a.21.21,0,0,0,0,.07.5.5,0,0,0,.31.64,10.62,10.62,0,0,1,5.82,4.82,21.45,21.45,0,0,1,1.53,3.85l1.3,4a13.94,13.94,0,0,1,.65,2.56,14.52,14.52,0,0,1,0,2l-.28,8.65a.51.51,0,0,0,1,0l.28-8.66a10.94,10.94,0,0,0-.73-4.87l-1.29-4a22.78,22.78,0,0,0-1.62-4,11.66,11.66,0,0,0-6.37-5.28A.51.51,0,0,0,170.56,204.34Z"/><path class="cls-4" d="M170.29,204.42l0,.06a7.69,7.69,0,0,0,1.89,8.12c.1.11.22.21.33.31a4,4,0,0,1,.85.92,3.79,3.79,0,0,1,.28,1.95c-.21,5.35-1.72,9.23-4.49,11.51a19.07,19.07,0,0,1-4.07,2.35c-.58.27-1.15.54-1.72.84a25.53,25.53,0,0,0-10.77,10.64.5.5,0,1,0,.89.47s0,0,0-.05a24.8,24.8,0,0,1,10.32-10.17c.55-.29,1.12-.56,1.69-.83a19.54,19.54,0,0,0,4.28-2.48c3-2.47,4.63-6.59,4.85-12.24a4.54,4.54,0,0,0-.41-2.48,4.8,4.8,0,0,0-1.05-1.18l-.32-.28a6.7,6.7,0,0,1-1.63-7,.52.52,0,0,0-.3-.65A.5.5,0,0,0,170.29,204.42Z"/><path class="cls-4" d="M175.62,197.85a9.94,9.94,0,0,0-.93,6,20.53,20.53,0,0,0,1.88,5.49c.24.52.47,1,.68,1.54a.52.52,0,0,0,.66.27.51.51,0,0,0,.28-.66c-.22-.51-.46-1-.7-1.56a19.3,19.3,0,0,1-1.79-5.21,8.49,8.49,0,0,1,1.45-6.34c.2-.26.3-.29.33-.29s.17,0,.42.52A68.13,68.13,0,0,1,184,217.08a5.72,5.72,0,0,1,.06,2,6.21,6.21,0,0,1-.55,1.38l-3.24,6.5a.51.51,0,0,0,.23.68.48.48,0,0,0,.67-.23l3.24-6.5a7.11,7.11,0,0,0,.64-1.62,6.74,6.74,0,0,0-.05-2.41,69.21,69.21,0,0,0-6.2-19.78c-.14-.28-.54-1.11-1.36-1.08a1.49,1.49,0,0,0-1.1.66A7.69,7.69,0,0,0,175.62,197.85Z"/><path class="cls-4" d="M183.07,195.77a7.51,7.51,0,0,0-.66,1.7,17.9,17.9,0,0,0-.28,5.46c0,.51.06.89.09,1.25a8.52,8.52,0,0,1-.19,3.51.5.5,0,0,0,.34.63A.51.51,0,0,0,183,208a9.59,9.59,0,0,0,.23-3.88c0-.35-.06-.72-.08-1.11a17.33,17.33,0,0,1,.24-5.27,5.54,5.54,0,0,1,2.45-3.5l1.78,8.3a10.55,10.55,0,0,1,.36,3.24,10.05,10.05,0,0,1-.88,2.9,24.52,24.52,0,0,1-1.36,2.59,19.9,19.9,0,0,0-1.82,3.76.51.51,0,0,0,1,.32,18.82,18.82,0,0,1,1.73-3.58,26.31,26.31,0,0,0,1.41-2.7,11.13,11.13,0,0,0,1-3.2,11.29,11.29,0,0,0-.38-3.54l-1.91-8.91a.49.49,0,0,0-.25-.34.52.52,0,0,0-.42,0A5.73,5.73,0,0,0,183.07,195.77Z"/><path class="cls-4" d="M186.93,196.59a2.26,2.26,0,0,0-.11.22.5.5,0,0,0,.93.39c.36-.9,1.51-1.29,2.46-1.55,2.13-.57,3.58-.49,4.57.25.17.13.2.2.2.21s0,.12-.12.32a20.62,20.62,0,0,1-3,3.69,16.94,16.94,0,0,0-3.73,5.16.49.49,0,0,0,.29.64.5.5,0,0,0,.65-.29,16.15,16.15,0,0,1,3.54-4.82,22.68,22.68,0,0,0,3.11-3.89,1.52,1.52,0,0,0,.23-1,1.41,1.41,0,0,0-.58-.82c-1.65-1.25-3.9-.84-5.44-.42A4.58,4.58,0,0,0,186.93,196.59Z"/><path class="cls-4" d="M152.09,227.93a.5.5,0,0,0,0,.43.5.5,0,0,0,.66.27,21.21,21.21,0,0,0,6.33-4.53,23.78,23.78,0,0,1,5.54-4.21c1.12-.57,2.19-1.25,3.23-1.9l.26-.16a19.13,19.13,0,0,0,4.93-4.39.5.5,0,0,0-.08-.71.52.52,0,0,0-.71.08,18.26,18.26,0,0,1-4.68,4.17l-.26.16c-1,.64-2.08,1.3-3.16,1.85a25.3,25.3,0,0,0-5.77,4.38,19.68,19.68,0,0,1-6,4.33A.51.51,0,0,0,152.09,227.93Z"/><path class="cls-4" d="M147.06,220.13a46.25,46.25,0,0,0-2.68,6.47l-2,5.67a12.51,12.51,0,0,0-1,4.37c0,2.21,1.23,4.24,2.18,5.88l3.18,5.44a.51.51,0,0,0,.69.19.5.5,0,0,0,.19-.69L144.45,242c-.94-1.61-2-3.44-2-5.39a11.81,11.81,0,0,1,.92-4l2-5.67a31.84,31.84,0,0,1,5.5-10.71l7.73-10.67c.25-.34.51-.5.59-.49a2.53,2.53,0,0,1,.13.22,10.58,10.58,0,0,1-.19,9,20,20,0,0,1-1.49,2.42c-.4.59-.8,1.18-1.16,1.79a4.15,4.15,0,0,0-.72,2.38,4.65,4.65,0,0,0,.77,2,3.55,3.55,0,0,1,.65,1.62.51.51,0,0,0,1,0,4.33,4.33,0,0,0-.78-2.11,3.85,3.85,0,0,1-.64-1.55,3.31,3.31,0,0,1,.58-1.79c.35-.6.74-1.17,1.12-1.74a21.62,21.62,0,0,0,1.57-2.54,11.56,11.56,0,0,0,.2-9.82,1.45,1.45,0,0,0-.46-.62c-.59-.42-1.38-.14-2,.72L150,215.64a44.6,44.6,0,0,0-2.71,4.05Z"/><path class="cls-4" d="M153.55,253.16a.38.38,0,0,0-.06.16.51.51,0,0,0,.43.57c3.62.55,7.39.91,10.21-1.19a13.42,13.42,0,0,0,2.31-2.4L175,239.73a39.56,39.56,0,0,0,6-8.91.5.5,0,0,0-.27-.66.49.49,0,0,0-.66.26,39.05,39.05,0,0,1-5.83,8.68l-8.54,10.57a12.46,12.46,0,0,1-2.13,2.22c-2.51,1.87-6,1.52-9.45,1A.48.48,0,0,0,153.55,253.16Z"/><path class="cls-4" d="M163.44,252.49a7.44,7.44,0,0,0-.78,2c-.59,8,1.51,15.25,3.74,22.91l.48,1.69a.51.51,0,0,0,1-.28l-.49-1.69c-2.2-7.57-4.27-14.72-3.71-22.56a7.83,7.83,0,0,1,1.45-2.73.5.5,0,0,0,0-.71.52.52,0,0,0-.72,0A6.58,6.58,0,0,0,163.44,252.49Z"/><path class="cls-4" d="M142,239.46a.84.84,0,0,0-.05.17,65.84,65.84,0,0,0-.51,10.54c.1,2.44.37,4.91.64,7.3l3.39,30.16a.51.51,0,0,0,.56.45.51.51,0,0,0,.45-.56l-3.39-30.16c-.27-2.37-.55-4.82-.64-7.23a64.75,64.75,0,0,1,.5-10.36.5.5,0,0,0-.43-.57A.51.51,0,0,0,142,239.46Z"/><path class="cls-4" d="M74.65,211.3l0,.06a.45.45,0,0,1-.25.6,9.78,9.78,0,0,0-5,4.73,20.33,20.33,0,0,0-1.18,3.61L67.26,224a11.52,11.52,0,0,0-.45,2.37,11,11,0,0,0,.08,1.81l.75,7.9a.46.46,0,0,1-.41.5.47.47,0,0,1-.51-.42L66,228.28a13.86,13.86,0,0,1-.09-1.95,13.51,13.51,0,0,1,.48-2.55l1-3.7a20.67,20.67,0,0,1,1.25-3.78,10.64,10.64,0,0,1,5.52-5.19A.48.48,0,0,1,74.65,211.3Z"/><path class="cls-4" d="M74.9,211.35l0,.06a7,7,0,0,1-1.26,7.53l-.29.3a3.61,3.61,0,0,0-.71.89,3.27,3.27,0,0,0-.15,1.8c.5,4.88,2.1,8.33,4.76,10.26a17.61,17.61,0,0,0,3.86,1.92c.54.21,1.08.43,1.61.67a23.34,23.34,0,0,1,10.46,9.12.46.46,0,0,1-.79.48s0,0,0,0a22.67,22.67,0,0,0-10-8.72q-.8-.35-1.59-.66a18.57,18.57,0,0,1-4.06-2c-2.88-2.09-4.61-5.76-5.13-10.91a4.09,4.09,0,0,1,.23-2.29,4.84,4.84,0,0,1,.89-1.14l.27-.27a6.14,6.14,0,0,0,1.1-6.54.46.46,0,0,1,.23-.61A.47.47,0,0,1,74.9,211.35Z"/><path class="cls-4" d="M69.65,205.65a9.09,9.09,0,0,1,1.19,5.42,18.34,18.34,0,0,1-1.4,5.12c-.19.49-.37,1-.53,1.44a.46.46,0,0,1-.88-.3q.25-.72.54-1.47A17.82,17.82,0,0,0,69.92,211a7.82,7.82,0,0,0-1.69-5.72c-.2-.23-.29-.25-.32-.25s-.16,0-.36.5a62.67,62.67,0,0,0-4.46,18.17,5.26,5.26,0,0,0,.06,1.87,5.73,5.73,0,0,0,.58,1.23l3.34,5.76a.47.47,0,0,1-.81.46l-3.33-5.76a6.25,6.25,0,0,1-.68-1.45,6,6,0,0,1-.08-2.2,63.1,63.1,0,0,1,4.53-18.43c.1-.26.43-1.05,1.18-1.07a1.42,1.42,0,0,1,1,.55A7.13,7.13,0,0,1,69.65,205.65Z"/><path class="cls-4" d="M62.72,204.17a7,7,0,0,1,.71,1.51,16.53,16.53,0,0,1,.56,5c0,.47,0,.81,0,1.14a8,8,0,0,0,.38,3.2.46.46,0,0,1-.87.32,8.82,8.82,0,0,1-.44-3.53c0-.33,0-.67,0-1a16,16,0,0,0-.51-4.8,5.05,5.05,0,0,0-2.45-3.05L59,210.6a9.67,9.67,0,0,0-.14,3,9.37,9.37,0,0,0,1,2.6,22.15,22.15,0,0,0,1.39,2.29,18.3,18.3,0,0,1,1.88,3.34.48.48,0,0,1-.26.6.47.47,0,0,1-.61-.26A17.49,17.49,0,0,0,60.4,219,22.79,22.79,0,0,1,59,216.59a10,10,0,0,1-1.06-2.87,10.76,10.76,0,0,1,.14-3.26l1.24-8.25a.47.47,0,0,1,.21-.32.46.46,0,0,1,.38,0A5.21,5.21,0,0,1,62.72,204.17Z"/><path class="cls-4" d="M59.24,205.14l.12.2a.46.46,0,0,1-.22.61.47.47,0,0,1-.62-.21c-.37-.8-1.45-1.09-2.33-1.27-2-.41-3.3-.25-4.16.48-.15.13-.17.2-.17.21s0,.11.13.28a19.08,19.08,0,0,0,2.93,3.21,15.51,15.51,0,0,1,3.71,4.5.47.47,0,0,1-.24.61.47.47,0,0,1-.61-.24,15.07,15.07,0,0,0-3.5-4.21,20.06,20.06,0,0,1-3.07-3.37,1.31,1.31,0,0,1-.27-.9,1.27,1.27,0,0,1,.48-.78c1.44-1.24,3.52-1,5-.69A4.12,4.12,0,0,1,59.24,205.14Z"/><path class="cls-4" d="M92.88,231.81a.51.51,0,0,1,.05.4.47.47,0,0,1-.59.28,19.15,19.15,0,0,1-6-3.78A22.24,22.24,0,0,0,81,225.17c-1.06-.46-2.08-1-3.06-1.55l-.25-.13a17.83,17.83,0,0,1-4.76-3.74.46.46,0,0,1,0-.65.47.47,0,0,1,.66,0,17,17,0,0,0,4.52,3.55l.24.13c1,.52,2,1.07,3,1.51A22.93,22.93,0,0,1,86.89,228a18.16,18.16,0,0,0,5.75,3.62A.47.47,0,0,1,92.88,231.81Z"/><path class="cls-4" d="M97,224.4a41.55,41.55,0,0,1,2.82,5.77l2.17,5.06a11.33,11.33,0,0,1,1.14,3.94,11.53,11.53,0,0,1-1.66,5.5l-2.59,5.16a.47.47,0,0,1-.62.2.46.46,0,0,1-.21-.61l2.59-5.16a10.68,10.68,0,0,0,1.56-5,10.46,10.46,0,0,0-1.06-3.62L99,230.52a39.12,39.12,0,0,0-3-6A40.75,40.75,0,0,0,93.36,221l-7.67-9.31a1.06,1.06,0,0,0-.57-.42.67.67,0,0,0-.1.21,9.63,9.63,0,0,0,.68,8.18,18.53,18.53,0,0,0,1.51,2.14c.39.51.79,1,1.16,1.57a3.82,3.82,0,0,1,.79,2.13,4.21,4.21,0,0,1-.6,1.85,3.31,3.31,0,0,0-.49,1.52.47.47,0,0,1-.44.48.46.46,0,0,1-.48-.44,3.82,3.82,0,0,1,.59-2,3.47,3.47,0,0,0,.49-1.45,3.07,3.07,0,0,0-.63-1.61c-.35-.53-.74-1-1.13-1.52a21.38,21.38,0,0,1-1.58-2.24,10.59,10.59,0,0,1-.74-9,1.27,1.27,0,0,1,.38-.59c.52-.42,1.26-.21,1.87.54l7.68,9.31A40,40,0,0,1,96.79,224Z"/><path class="cls-4" d="M93,255c0,.05,0,.09.06.15a.46.46,0,0,1-.36.54c-3.28.71-6.7,1.25-9.4-.51a12.3,12.3,0,0,1-2.25-2.06l-8.41-9.17a36.34,36.34,0,0,1-6-7.81.46.46,0,0,1,.21-.62.45.45,0,0,1,.62.2,36.15,36.15,0,0,0,5.82,7.61l8.42,9.17a11,11,0,0,0,2.07,1.91c2.4,1.57,5.61,1,8.7.38A.47.47,0,0,1,93,255Z"/><path class="cls-4" d="M83.91,254.91a6.76,6.76,0,0,1,.84,1.78c1,7.3-.51,14-2.1,21.16l-.35,1.57a.48.48,0,0,1-.55.35.46.46,0,0,1-.36-.55l.35-1.57c1.57-7,3.06-13.7,2.09-20.83a7.2,7.2,0,0,0-1.47-2.41.45.45,0,0,1,0-.65.46.46,0,0,1,.65,0A5.11,5.11,0,0,1,83.91,254.91Z"/><path class="cls-4" d="M102.76,241.79a.34.34,0,0,1,.06.15,60.92,60.92,0,0,1,1.08,9.6c0,2.24-.07,4.51-.18,6.71L102.35,286a.46.46,0,1,1-.92-.05l1.37-27.76c.11-2.18.22-4.43.17-6.64a58.91,58.91,0,0,0-1.06-9.44.46.46,0,0,1,.85-.33Z"/><path class="cls-5" d="M123.48,186s1.44-10.69-9.21-13.91L113,175.32l-1.88-.51c.5-1.25,1-2.49,1.49-3.74l-2.6-1.24s-4.35,8.66-2.06,13.44l2.64,1.56s-1.14-5.38.18-8.51l1.56.46s-.68,7.44.81,9l2.09.47-.42-6.83a.93.93,0,0,1,.77-1.08.92.92,0,0,1,.69,1.06q.48,3.49,1,7l2.77.19-1-4.72c0-.53.26-.95.55-1s.88.36.94,1.11c.33,1.33.66,2.66,1,4C121.45,186,122.5,187.47,123.48,186Z"/><path class="cls-5" d="M108.53,168.69a33.91,33.91,0,0,0-2.74,12.86s-6.14-3.87-7.43-8c0,0-3-3.64-.17-7a6.11,6.11,0,0,0,1.5-3.8s-1.6-4.27,2-6.2a18.23,18.23,0,0,1,3.54-1.72,55.68,55.68,0,0,0,6.33-3.19s2.5-.72,3.2-.49.67,1.39-.37,2.44a41.09,41.09,0,0,1-3.72,1.77,7,7,0,0,0-2.13,3.35s-.18,1.35-2.35,2.34C106.17,161.06,103.55,166.7,108.53,168.69Z"/><path class="cls-5" d="M109.06,161.1s3.27,3.86,5.38,4.67c0,0,7.24,4,7.68,9.81,0,0-4.65-5.29-10.62-7.09a6.56,6.56,0,0,1-2.06-1.05,6.74,6.74,0,0,1-2.29-3.22,2.61,2.61,0,0,1,.07-1.39A3,3,0,0,1,109.06,161.1Z"/><path class="cls-5" d="M123.41,172.88s2.54,9,1.89,12.59c0,0,1.36,1.06,2-3a28.86,28.86,0,0,0-.15-4s1.31-2.34,2-.6l-.58,6.78,2.85-1.37s1.65-4.62-.18-8.12l-1.68-5.41-2.29,1s1.5,3.06,1.36,3.73-1.74,2.46-2.23.13l-.69-3.52Z"/><path class="cls-5" d="M120.78,168.2l2,2.94,8.3-4.16s2.67-3-.18-5.54Z"/><path class="cls-5" d="M123.3,164.39l-3.79,2.86s-3.36-3.81-5.61-4.26c0,0,4.41-5.37,10.39-1.37l1,1.07s.62,1.75-1,.61c0,0-2-1.65-3.32-1.31,0,0-1.56,1,.23,1.56Z"/><path class="cls-5" d="M122.77,150.68s2.19,2.33,2.37,3.56c0,0,2.9.2,3.65,1a6.44,6.44,0,0,1,2.56,4,6.51,6.51,0,0,1,2.34,6.67,8,8,0,0,1-2.56,2.73l2.07,6.13a25.25,25.25,0,0,1,.41,3.09,24.22,24.22,0,0,1-.05,4l4.11-3.66c.25-.44.5-.93.74-1.47s.5-1.2.68-1.75a7.54,7.54,0,0,0,1.85-2.08,7.62,7.62,0,0,0,1-4.47,11.74,11.74,0,0,0-.95-2.3,10.89,10.89,0,0,0-1.75-2.34s2.3-5.43-2.45-8.54c0,0-4-2.21-5.07-1.28C131.73,153.94,129.92,150,122.77,150.68Z"/><path class="cls-5" d="M112.36,162l1.32-1.41-.48-1.93s.35-1.51,1.43-.48l1,1.32,3.18-1.24-.07-3s1.08-2.28,1.79-.2l-.13,3.13,3.84,1.07s.82-2.28,1.64-1.76.74,1.17-.08,2.64l1.73,1.87s3.66-1.86,1.06-5c0,0-.82-1.74-3.63-1.08,0,0-2.42-4.21-4-4.51l-.4-.08s-3.61-1.14-4.74,3.42a4,4,0,0,1-1.44,1,10.85,10.85,0,0,0-1.6.33,4.27,4.27,0,0,0-1.57.67,3,3,0,0,0-1,1.49l-.36,1.54Z"/><path class="cls-5" d="M117.8,237.15s.54-7.71,1.43-10.15c0,0,5.31-11.95,5.25-14.42,0,0,.22-8.92-1.13-11.33l-3.14-5.79a9.08,9.08,0,0,1-9.17-4.77s-3-1-4.61-.53c0,0-15.27-1.55-7-12.42,0,0,2.34,5,6.41,6.6,0,0-1.5,2.53-1.1,3.54,0,0,1,2,3.21-2.52a35.5,35.5,0,0,0,10.68,3s-.52,3.89,1.06,4.26c0,0,1.59,1.08,1-4.17,0,0,9.53-1.92,10.88-3.12,0,0,1.47,2.53,2.48,2.68,0,0,2.36-.24-.74-3.65,0,0,6.34-4.63,6.91-7.19,0,0,3.61,2,2.1,7.85,0,0-3.53,5.69-8.48,5.13a36.76,36.76,0,0,1-4.24-.3s-2.79,1-2.86,1.89c0,0-2.36,3.19-4.2,3.59A37,37,0,0,1,126.49,207s-.24,10.66-2.45,13.66a22.25,22.25,0,0,0-2,4,42.71,42.71,0,0,0-2.5,12.57S119.62,238.2,117.8,237.15Z"/></g></g></svg>