<svg xmlns="http://www.w3.org/2000/svg" viewBox="0 0 234.08 421.4"><defs><style>.cls-1{fill:#e9c4a9;}.cls-2{font-size:13.62px;font-family:SukhumvitSet-Light, Sukhumvit Set;font-weight:300;letter-spacing:0em;}.cls-2,.cls-4{fill:#fff;}.cls-3{fill:none;stroke:#d38d30;stroke-miterlimit:10;stroke-width:0.75px;}.cls-5{fill:#d2a267;}</style></defs><title>front3</title><g id="Layer_2" data-name="Layer 2"><g id="Layer_1-2" data-name="Layer 1"><path class="cls-1" d="M0,16.47a15.32,15.32,0,0,1,.58-4.79A15.84,15.84,0,0,1,5.18,4.36a16.89,16.89,0,0,1,10-4.24l203-.12A16.71,16.71,0,0,1,229,4.49a16.2,16.2,0,0,1,4.79,9.37q.15,195.57.31,391.15a16.33,16.33,0,0,1-4.55,11.45,16.77,16.77,0,0,1-10.85,4.88l-204.29.06s-10-.64-13.79-11.93L.14,407.4Z"/><text class="cls-2" transform="translate(16.08 11.67) rotate(90) scale(0.99 1)">03</text><path class="cls-3" d="M31.43,18.91h81.93l4.82-3.1L123.52,19h94.82V199.24l5,4.24-4.73,4,.27,184.5"/><rect class="cls-4" x="208.35" y="406.25" width="0.73" height="0.17"/><rect class="cls-4" x="208.32" y="400" width="0.73" height="0.17"/><rect class="cls-4" x="215.08" y="399.97" width="0.73" height="0.17"/><rect class="cls-4" x="215.1" y="406.25" width="0.73" height="0.17"/><rect class="cls-4" x="221.69" y="399.96" width="0.73" height="0.17"/><rect class="cls-4" x="221.7" y="406.24" width="0.73" height="0.17"/><rect class="cls-4" x="220.86" y="406.24" width="0.73" height="0.17"/><rect class="cls-4" x="215.88" y="406.25" width="0.73" height="0.17"/><path class="cls-4" d="M213.59,403.21a4,4,0,0,1-.22,1.39,2.58,2.58,0,0,1-1.59,1.61,3.87,3.87,0,0,1-1.26.2H208.7V400h1.83a3.62,3.62,0,0,1,1.26.2,2.5,2.5,0,0,1,1,.61,2.78,2.78,0,0,1,.62,1A4.18,4.18,0,0,1,213.59,403.21Zm-.83,0a3.88,3.88,0,0,0-.17-1.19,2.48,2.48,0,0,0-.48-.83,2.19,2.19,0,0,0-.72-.49,2.38,2.38,0,0,0-.89-.16h-1v5.33h1a2.39,2.39,0,0,0,.89-.17,1.82,1.82,0,0,0,.71-.49,2.11,2.11,0,0,0,.48-.83A3.44,3.44,0,0,0,212.76,403.21Z"/><path class="cls-4" d="M221.23,406.41v-5.6h0l-2.07,5.6h-.77l-2.07-5.6h0v5.6h-.79V400h1.24l2,5.44h.05l2-5.45h1.29v6.45Z"/><polyline class="cls-3" points="17.62 33.03 17.62 202.19 13.41 206.01 17.95 210.44 17.95 402.58 112.28 402.58 118.11 405.73 123.29 402.27 203.28 402.27"/><path class="cls-4" d="M76.7,373.61c-1.25-.27-1.88-.42-3.13-.74-.14.28-.25.53-.35.75s-.17.41-.22.57a3.81,3.81,0,0,0-.13.42,1.78,1.78,0,0,0,0,.29.6.6,0,0,0,.21.5,1.77,1.77,0,0,0,.7.31v.44c-1.14-.29-1.71-.45-2.85-.79v-.44a2.85,2.85,0,0,0,.46,0,.86.86,0,0,0,.34-.06.63.63,0,0,0,.26-.2,1.62,1.62,0,0,0,.22-.35c1.22-2.68,1.83-4,3-6.77l.51.12c1.06,2.86,1.6,4.28,2.66,7.09.18.47.34.85.47,1.13a3.7,3.7,0,0,0,.39.66,1.1,1.1,0,0,0,.41.32,2.52,2.52,0,0,0,.52.15v.45c-1.53-.25-2.3-.4-3.83-.73v-.45a2,2,0,0,0,.86.06.31.31,0,0,0,.23-.33,1.55,1.55,0,0,0,0-.22,2.07,2.07,0,0,0,0-.22l-.08-.28c0-.1-.08-.23-.14-.37Zm-2.9-1.26c1.07.27,1.61.4,2.68.63-.52-1.48-.78-2.23-1.31-3.72C74.62,370.5,74.35,371.12,73.8,372.35Z"/><path class="cls-4" d="M86.76,372.89v-.43a4,4,0,0,0,1-.65,2.26,2.26,0,0,0,.54-.82l.34,0v1.47l1.57.08v.54c-.63,0-.94,0-1.57-.08v3.53a4.36,4.36,0,0,0,0,.68,1.32,1.32,0,0,0,.13.46.55.55,0,0,0,.25.25,1,1,0,0,0,.39.09.94.94,0,0,0,.49-.09,1.28,1.28,0,0,0,.41-.4l.29.24a1.17,1.17,0,0,1-.57.63,2,2,0,0,1-1,.17,1.79,1.79,0,0,1-1.18-.44,1.43,1.43,0,0,1-.4-1.08v-4.12Z"/><path class="cls-4" d="M94.55,372.36a3.56,3.56,0,0,1,1.26.23,3.29,3.29,0,0,1,1,.64,3.08,3.08,0,0,1,.72,1,2.83,2.83,0,0,1,.26,1.25,3.08,3.08,0,0,1-.26,1.3,3.34,3.34,0,0,1-.72,1,3.42,3.42,0,0,1-1,.69,3.2,3.2,0,0,1-1.27.25,3.36,3.36,0,0,1-1.25-.25,3.15,3.15,0,0,1-1-.69,3.28,3.28,0,0,1-.7-1,3.33,3.33,0,0,1-.26-1.31,3.05,3.05,0,0,1,.26-1.26,2.91,2.91,0,0,1,.71-1,3.17,3.17,0,0,1,1-.63A3.56,3.56,0,0,1,94.55,372.36Zm0,.55a1.66,1.66,0,0,0-.8.19,1.68,1.68,0,0,0-.61.52,2.44,2.44,0,0,0-.39.81,4,4,0,0,0-.13,1.06,4.15,4.15,0,0,0,.13,1.1,2.55,2.55,0,0,0,.39.83,1.85,1.85,0,0,0,.61.54,1.71,1.71,0,0,0,.79.19,1.79,1.79,0,0,0,.81-.19,1.91,1.91,0,0,0,.63-.54,2.73,2.73,0,0,0,.4-.84,4.09,4.09,0,0,0,.14-1.08,3.76,3.76,0,0,0-.14-1.05,2.73,2.73,0,0,0-.4-.82,2,2,0,0,0-.63-.53A1.92,1.92,0,0,0,94.55,372.91Z"/><path class="cls-4" d="M102.22,372.12a3.34,3.34,0,0,1,1.27.15,3.15,3.15,0,0,1,1.05.58,2.91,2.91,0,0,1,.72.94,2.88,2.88,0,0,1,.26,1.23,3.34,3.34,0,0,1-.26,1.32,3.64,3.64,0,0,1-.72,1.08,3.59,3.59,0,0,1-1.05.75,3.46,3.46,0,0,1-1.27.33,3.27,3.27,0,0,1-1.25-.17,2.92,2.92,0,0,1-1.74-1.61,3.24,3.24,0,0,1-.26-1.3,3.17,3.17,0,0,1,.26-1.27,3.24,3.24,0,0,1,.7-1,3.73,3.73,0,0,1,1-.7A3.58,3.58,0,0,1,102.22,372.12Zm0,.56a1.65,1.65,0,0,0-.79.23,1.8,1.8,0,0,0-.61.56,2.61,2.61,0,0,0-.39.84,4.51,4.51,0,0,0,0,2.15,2.35,2.35,0,0,0,.39.81,1.68,1.68,0,0,0,.6.5,1.61,1.61,0,0,0,.8.14,1.82,1.82,0,0,0,.81-.24,2,2,0,0,0,.63-.58,2.72,2.72,0,0,0,.39-.86,3.78,3.78,0,0,0,.14-1.09,3.42,3.42,0,0,0-.14-1.05,2.2,2.2,0,0,0-.39-.78,1.79,1.79,0,0,0-.63-.5A1.65,1.65,0,0,0,102.22,372.68Z"/><path class="cls-4" d="M108.54,376.06a6.54,6.54,0,0,0,0,.7.88.88,0,0,0,.15.4.53.53,0,0,0,.32.18,2.31,2.31,0,0,0,.54,0v.41c-1.29.13-1.94.2-3.24.31v-.4a2.19,2.19,0,0,0,.57-.13.73.73,0,0,0,.33-.23.91.91,0,0,0,.17-.41,5.54,5.54,0,0,0,0-.66v-5c0-.41,0-.76,0-1a3.71,3.71,0,0,0-.05-.57.42.42,0,0,0-.28-.34,2.27,2.27,0,0,0-.78,0v-.39l2.22-.64Z"/><path class="cls-4" d="M116.9,370.9l1.32-.18v-.83a3.33,3.33,0,0,1,.71-2.19,3.16,3.16,0,0,1,2-1,2.49,2.49,0,0,1,1.18.05c.31.1.46.26.46.5a.68.68,0,0,1-.14.41.56.56,0,0,1-.37.21.53.53,0,0,1-.3,0,2.31,2.31,0,0,1-.42-.23,1.8,1.8,0,0,0-.46-.25.83.83,0,0,0-.39,0,1.23,1.23,0,0,0-1,.85,2.2,2.2,0,0,0-.15.59,7.72,7.72,0,0,0,0,.93v.91l1.89-.27v.54l-1.89.27v3.55a3.4,3.4,0,0,0,0,.7.91.91,0,0,0,.19.42.57.57,0,0,0,.37.18,2.54,2.54,0,0,0,.61,0v.4c-1.34.2-2,.29-3.34.47v-.4a3,3,0,0,0,.53-.14.58.58,0,0,0,.31-.24,1.15,1.15,0,0,0,.14-.42,6.75,6.75,0,0,0,0-.71v-3.64l-1.32.18Z"/><path class="cls-4" d="M125.15,369.41a3.36,3.36,0,0,1,1.27,0,2.69,2.69,0,0,1,1,.5,2.58,2.58,0,0,1,.72.88,2.8,2.8,0,0,1,.26,1.22,3.55,3.55,0,0,1-.26,1.34,4,4,0,0,1-.72,1.13,4.28,4.28,0,0,1-1,.83,3.82,3.82,0,0,1-1.27.43,3.07,3.07,0,0,1-1.25-.05,2.74,2.74,0,0,1-1-.51,2.48,2.48,0,0,1-.7-.92,3.07,3.07,0,0,1-.26-1.27,3.35,3.35,0,0,1,.26-1.3,3.66,3.66,0,0,1,.7-1.11,4.3,4.3,0,0,1,1-.8A4,4,0,0,1,125.15,369.41Zm0,.56a1.86,1.86,0,0,0-.79.3,2.25,2.25,0,0,0-.61.62,3.06,3.06,0,0,0-.39.88,4.21,4.21,0,0,0-.13,1.08,3.82,3.82,0,0,0,.13,1.07,2.2,2.2,0,0,0,.39.78,1.4,1.4,0,0,0,.6.43,1.62,1.62,0,0,0,.8.07,1.9,1.9,0,0,0,.81-.31,2.29,2.29,0,0,0,.62-.62,2.84,2.84,0,0,0,.4-.9,3.85,3.85,0,0,0,.14-1.1,3.25,3.25,0,0,0-.14-1,1.9,1.9,0,0,0-.4-.76A1.5,1.5,0,0,0,126,370,1.66,1.66,0,0,0,125.15,370Z"/><path class="cls-4" d="M131.62,372.86c0,.32,0,.57,0,.75a.79.79,0,0,0,.13.41.39.39,0,0,0,.28.15,3.26,3.26,0,0,0,.53,0v.4l-3.12.47v-.41a2.94,2.94,0,0,0,.54-.14.73.73,0,0,0,.3-.24.8.8,0,0,0,.14-.42,6.62,6.62,0,0,0,0-.71v-1.35c0-.53,0-.94,0-1.23a1.52,1.52,0,0,0-.12-.63.33.33,0,0,0-.31-.2,3.42,3.42,0,0,0-.58,0v-.4l2.05-.75c.07.57.1.85.17,1.41h0a3.64,3.64,0,0,1,.38-.7,3.9,3.9,0,0,1,.5-.56,2.68,2.68,0,0,1,.57-.4,1.66,1.66,0,0,1,.6-.21.84.84,0,0,1,.59.1.52.52,0,0,1,.21.45.63.63,0,0,1-.17.46.87.87,0,0,1-.51.23h-.31a1,1,0,0,1-.23-.07l-.19-.07a.4.4,0,0,0-.19,0,1.07,1.07,0,0,0-.64.49,3.64,3.64,0,0,0-.49,1.09,7.73,7.73,0,0,0-.15.78,8.72,8.72,0,0,0,0,.9Z"/><path class="cls-4" d="M142.06,373.28l-.26,0v-2l.29,0c.31,1,.86,1.53,1.67,1.44a1.29,1.29,0,0,0,.74-.31.91.91,0,0,0,.28-.72.79.79,0,0,0-.05-.29.6.6,0,0,0-.2-.23,3.65,3.65,0,0,0-.41-.27l-.7-.36c-.27-.13-.5-.26-.69-.37a2.6,2.6,0,0,1-.5-.37,1.35,1.35,0,0,1-.3-.42,1.52,1.52,0,0,1-.1-.56,2,2,0,0,1,.14-.74,1.84,1.84,0,0,1,.37-.6,1.78,1.78,0,0,1,.55-.43,1.8,1.8,0,0,1,.69-.22,2.47,2.47,0,0,1,.66,0,2,2,0,0,1,.6.2l.23-.27.23,0v1.67l-.31,0a2.39,2.39,0,0,0-.56-1,1,1,0,0,0-.75-.22,1,1,0,0,0-.64.28.82.82,0,0,0-.24.61.81.81,0,0,0,.06.33.71.71,0,0,0,.21.26,1.66,1.66,0,0,0,.35.25l.53.27c.33.17.62.32.86.46a3.23,3.23,0,0,1,.58.42,1.29,1.29,0,0,1,.43,1,1.8,1.8,0,0,1-.54,1.35,2.3,2.3,0,0,1-1.42.62,2.23,2.23,0,0,1-1.57-.34Z"/><path class="cls-4" d="M151.81,368.07c0-.32,0-.57,0-.75a.86.86,0,0,0-.13-.41.41.41,0,0,0-.29-.17,2.44,2.44,0,0,0-.53-.05v-.41l2.12-.14v3.56c0,.45,0,.81,0,1.08a6.16,6.16,0,0,0,.05.63.69.69,0,0,0,.08.23.3.3,0,0,0,.16.13.68.68,0,0,0,.27.05H154v.41l-1.93.24c-.05-.55-.08-.83-.13-1.38h0a3.22,3.22,0,0,1-1,1.12,2.64,2.64,0,0,1-1.21.43,2.58,2.58,0,0,1-1-.11,1.48,1.48,0,0,1-.7-.44,1.53,1.53,0,0,1-.29-.68,7.07,7.07,0,0,1-.08-1.16V368.4a7.12,7.12,0,0,0,0-.74.74.74,0,0,0-.12-.41.43.43,0,0,0-.29-.17,3.75,3.75,0,0,0-.54,0v-.41l2.13-.19v3.16a4,4,0,0,0,.3,1.81.93.93,0,0,0,.95.49c.69-.05,1.23-.53,1.61-1.45,0-.09.07-.18.1-.26l.06-.26c0-.09,0-.2,0-.31s0-.26,0-.42Z"/><path class="cls-4" d="M160.18,371.13a2.77,2.77,0,0,1-1.09.79,3.68,3.68,0,0,1-1.44.31,3.05,3.05,0,0,1-1.15-.2,2.56,2.56,0,0,1-.9-.61,2.85,2.85,0,0,1-.58-1,4,4,0,0,1-.2-1.28,3.9,3.9,0,0,1,.23-1.35,3.05,3.05,0,0,1,.67-1,3,3,0,0,1,1-.69,3.79,3.79,0,0,1,1.33-.25,4.26,4.26,0,0,1,.83.06,2.7,2.7,0,0,1,.66.21,1.29,1.29,0,0,1,.42.32.63.63,0,0,1,.16.42.44.44,0,0,1-.16.36.66.66,0,0,1-.42.12.63.63,0,0,1-.35-.08,2.06,2.06,0,0,1-.36-.39,1.5,1.5,0,0,0-.46-.37,1.13,1.13,0,0,0-.55-.1,1.45,1.45,0,0,0-1.27.67,4.5,4.5,0,0,0,0,3.9,1.56,1.56,0,0,0,1.39.66,2.43,2.43,0,0,0,.93-.21,3.1,3.1,0,0,0,.88-.62Z"/><path class="cls-4" d="M166.48,371.34a2.66,2.66,0,0,1-1.1.73,3.41,3.41,0,0,1-1.44.21,2.89,2.89,0,0,1-1.15-.26,2.76,2.76,0,0,1-.89-.66,2.83,2.83,0,0,1-.58-1,3.79,3.79,0,0,1-.21-1.29,3.56,3.56,0,0,1,.24-1.34,2.77,2.77,0,0,1,.66-1,2.81,2.81,0,0,1,1-.62,3.58,3.58,0,0,1,1.33-.18,5,5,0,0,1,.84.12,3,3,0,0,1,.65.25,1.4,1.4,0,0,1,.43.35.68.68,0,0,1,.15.42.41.41,0,0,1-.15.35.63.63,0,0,1-.43.1.66.66,0,0,1-.35-.11,2.2,2.2,0,0,1-.36-.4,1.47,1.47,0,0,0-.45-.4,1.28,1.28,0,0,0-.56-.14,1.36,1.36,0,0,0-1.26.59,3.29,3.29,0,0,0-.43,1.87,3.71,3.71,0,0,0,.47,2,1.68,1.68,0,0,0,1.4.74,2.37,2.37,0,0,0,.92-.15,2.74,2.74,0,0,0,.88-.57Z"/><path class="cls-4" d="M173,371.91a2.79,2.79,0,0,1-2.48.87,3.68,3.68,0,0,1-1.26-.36,3.32,3.32,0,0,1-1-.72,3.13,3.13,0,0,1-.62-1,3.65,3.65,0,0,1-.23-1.29,3.37,3.37,0,0,1,.24-1.29,2.61,2.61,0,0,1,.66-1,2.69,2.69,0,0,1,1-.57,3.09,3.09,0,0,1,1.3-.11,2.69,2.69,0,0,1,1.76.83,2.65,2.65,0,0,1,.62,1.84c0,.11,0,.17-.06.19a1.06,1.06,0,0,1-.3,0c-1.55-.22-2.32-.31-3.86-.45a1.09,1.09,0,0,0,0,.22,2.62,2.62,0,0,0,0,.29,3.87,3.87,0,0,0,.15,1.11,2.48,2.48,0,0,0,.42.88,2.17,2.17,0,0,0,1.51.9,1.84,1.84,0,0,0,.91-.1,2.69,2.69,0,0,0,.87-.58ZM171,368.52l.37,0,.22,0a.2.2,0,0,0,.09-.09.37.37,0,0,0,0-.16,1.25,1.25,0,0,0-.34-.9,1.48,1.48,0,0,0-.95-.43c-.84-.1-1.37.35-1.57,1.33C169.72,368.37,170.15,368.42,171,368.52Z"/><path class="cls-4" d="M174.57,373.24l-.26,0v-2l.29,0c.31,1.15.86,1.78,1.67,1.94a1,1,0,0,0,.74-.08.69.69,0,0,0,.28-.64.9.9,0,0,0,0-.3,1.41,1.41,0,0,0-.2-.3,5.48,5.48,0,0,0-.41-.39l-.7-.57c-.27-.21-.5-.4-.7-.58a3.85,3.85,0,0,1-.49-.51,1.9,1.9,0,0,1-.3-.51,1.5,1.5,0,0,1-.1-.58,1.71,1.71,0,0,1,.14-.7,1.19,1.19,0,0,1,.37-.5,1.29,1.29,0,0,1,.55-.27,1.59,1.59,0,0,1,.69,0,2.74,2.74,0,0,1,.66.23,2.79,2.79,0,0,1,.6.38l.23-.2.23,0v1.67l-.31-.06a3.57,3.57,0,0,0-.56-1.13,1.34,1.34,0,0,0-.75-.45.85.85,0,0,0-.65.09.63.63,0,0,0-.23.54,1,1,0,0,0,.06.35,1.17,1.17,0,0,0,.2.33c.1.11.22.22.36.35l.53.43.86.72a5.28,5.28,0,0,1,.58.61,2.21,2.21,0,0,1,.33.56,1.72,1.72,0,0,1,.1.6,1.3,1.3,0,0,1-.54,1.18,1.83,1.83,0,0,1-1.42.18,3,3,0,0,1-1.57-.8Z"/><path class="cls-4" d="M179.89,374.33l-.25-.06v-2l.29.07a2.53,2.53,0,0,0,1.67,2.06,1,1,0,0,0,.74,0,.64.64,0,0,0,.28-.62,1,1,0,0,0-.05-.31,1.75,1.75,0,0,0-.2-.31,5.14,5.14,0,0,0-.41-.42l-.7-.63c-.27-.23-.5-.44-.7-.63a4.74,4.74,0,0,1-.49-.55,2.17,2.17,0,0,1-.3-.53,1.55,1.55,0,0,1-.1-.59,1.67,1.67,0,0,1,.14-.69,1.1,1.1,0,0,1,.37-.47,1.13,1.13,0,0,1,.55-.23,1.51,1.51,0,0,1,.69,0,2.56,2.56,0,0,1,.66.27,3.82,3.82,0,0,1,.6.43l.23-.17.22.06v1.67l-.3-.09a4,4,0,0,0-.56-1.17,1.49,1.49,0,0,0-.75-.5.83.83,0,0,0-.65,0,.56.56,0,0,0-.24.52,1,1,0,0,0,.07.35,1.37,1.37,0,0,0,.2.34c.1.12.22.24.36.38l.53.47.86.8a4.69,4.69,0,0,1,.58.65,2.35,2.35,0,0,1,.33.59,1.74,1.74,0,0,1,.1.61,1.18,1.18,0,0,1-.54,1.13,1.82,1.82,0,0,1-1.42.07,3.28,3.28,0,0,1-1.57-.93Z"/><path class="cls-4" d="M62,84.72l-.37-.63a11,11,0,0,0,1.07-.74,1.65,1.65,0,0,0,.5-.67,1.2,1.2,0,0,0,0-.75,5,5,0,0,0-.47-1l-4.45-7.84a5.9,5.9,0,0,0-.61-.91,1.21,1.21,0,0,0-.62-.41,1.39,1.39,0,0,0-.79.06,10.23,10.23,0,0,0-1.12.5l-.38-.63c2.89-1.67,4.35-2.46,7.32-3.93a11.75,11.75,0,0,1,3.78-1.16,9.14,9.14,0,0,1,3.46.22,7,7,0,0,1,2.78,1.48,6.69,6.69,0,0,1,1.82,2.57,6.79,6.79,0,0,1,.54,2.93,6.9,6.9,0,0,1-.7,2.75A8.44,8.44,0,0,1,71.94,79a11.09,11.09,0,0,1-2.78,1.9C66.24,82.29,64.8,83.07,62,84.72ZM59.79,70c-.24.13-.31.29-.2.48,2,3.68,3,5.52,5,9.2.7,1.29,2,1.44,3.83.51a6.14,6.14,0,0,0,3.32-3.3A6.4,6.4,0,0,0,71.27,72a8.34,8.34,0,0,0-1.57-2.44,5.72,5.72,0,0,0-2.07-1.4,5.5,5.5,0,0,0-2.47-.34,7.6,7.6,0,0,0-2.73.8C61.37,69.16,60.84,69.43,59.79,70Z"/><path class="cls-4" d="M82.58,59.51a10.58,10.58,0,0,1,3.82-.45,9.39,9.39,0,0,1,3.35.85,7.26,7.26,0,0,1,2.49,2,6.49,6.49,0,0,1,1.35,2.82,6.42,6.42,0,0,1,0,3,7.9,7.9,0,0,1-1.26,2.73,9.64,9.64,0,0,1-2.24,2.22A10.18,10.18,0,0,1,87,74.11a10.32,10.32,0,0,1-3.37.44,10,10,0,0,1-3.12-.63,8.33,8.33,0,0,1-2.59-1.6,6.56,6.56,0,0,1-1.72-2.49,6.65,6.65,0,0,1-.43-3.1,7.3,7.3,0,0,1,1-3,9.12,9.12,0,0,1,2.34-2.53A10.75,10.75,0,0,1,82.58,59.51ZM86.69,73.1A6.94,6.94,0,0,0,88.92,72a5.34,5.34,0,0,0,1.47-1.71A5.64,5.64,0,0,0,91.07,68a7.55,7.55,0,0,0-.22-2.67,8.12,8.12,0,0,0-1.1-2.61A5.9,5.9,0,0,0,88,61a5.51,5.51,0,0,0-2.33-.78,7.31,7.31,0,0,0-2.77.29,7,7,0,0,0-2.47,1.26,5.38,5.38,0,0,0-1.53,1.92,5.91,5.91,0,0,0-.52,2.43,8.16,8.16,0,0,0,.53,2.77,7.77,7.77,0,0,0,1.31,2.36A6,6,0,0,0,82,72.77a5.28,5.28,0,0,0,2.19.62A7.06,7.06,0,0,0,86.69,73.1Z"/><path class="cls-4" d="M118.93,65.83a125.73,125.73,0,0,1,6-11.27c2.06.1,3.09.16,5.15.34l-.07.73a4.31,4.31,0,0,0-1.19.06,1.22,1.22,0,0,0-.71.4,1.81,1.81,0,0,0-.38.85,10.23,10.23,0,0,0-.18,1.42c-.21,3-.31,4.53-.52,7.55a10.15,10.15,0,0,0,0,1.52,1.88,1.88,0,0,0,.26.89,1.14,1.14,0,0,0,.64.46A8.36,8.36,0,0,0,129,69c0,.29,0,.44-.07.73-2.62-.23-3.94-.31-6.57-.38l0-.74a6.24,6.24,0,0,0,1.16-.08,1.25,1.25,0,0,0,.7-.37,1.75,1.75,0,0,0,.37-.8,10.3,10.3,0,0,0,.15-1.44l.45-8.94H125a122.28,122.28,0,0,0-6.52,12.52H118a123.69,123.69,0,0,0-6.59-12.43h-.09l.55,8.8a10.76,10.76,0,0,0,.18,1.52,1.87,1.87,0,0,0,.37.84,1.12,1.12,0,0,0,.7.37,6.37,6.37,0,0,0,1.16.06l0,.73c-2.27.1-3.4.17-5.65.38l-.07-.73a6.06,6.06,0,0,0,1.14-.22,1.36,1.36,0,0,0,.65-.45,1.67,1.67,0,0,0,.27-.84,10.22,10.22,0,0,0,0-1.44c-.23-3.13-.35-4.69-.58-7.82a9.14,9.14,0,0,0-.18-1.33,1.7,1.7,0,0,0-.38-.81,1.23,1.23,0,0,0-.73-.38,5.37,5.37,0,0,0-1.2-.06c0-.3,0-.44-.06-.73,2.19-.2,3.29-.28,5.49-.38,2.53,4.45,3.7,6.7,5.82,11.26Z"/><path class="cls-4" d="M141.83,56.26a10.74,10.74,0,0,1,3.6,1.31A8.9,8.9,0,0,1,148,59.83a7.2,7.2,0,0,1,1.34,2.84,6.52,6.52,0,0,1-.09,3.13,6.4,6.4,0,0,1-1.42,2.67,8.19,8.19,0,0,1-2.38,1.87,9.77,9.77,0,0,1-3,1,10.57,10.57,0,0,1-6.56-1.18,9.37,9.37,0,0,1-2.46-2,8.1,8.1,0,0,1-1.56-2.58,6.74,6.74,0,0,1,.66-5.94,7.2,7.2,0,0,1,2.25-2.21A9.06,9.06,0,0,1,138,56.24,10.5,10.5,0,0,1,141.83,56.26Zm-2.57,13.95a6.68,6.68,0,0,0,2.48,0,5.4,5.4,0,0,0,2.1-.86,5.9,5.9,0,0,0,1.63-1.7,8,8,0,0,0,1-2.49,8.08,8.08,0,0,0,.21-2.81,5.54,5.54,0,0,0-.77-2.35,5.39,5.39,0,0,0-1.72-1.74,7,7,0,0,0-2.58-1,7.14,7.14,0,0,0-2.77,0,5.28,5.28,0,0,0-2.22,1,5.73,5.73,0,0,0-1.56,1.93,8.26,8.26,0,0,0-.8,2.71,7.73,7.73,0,0,0,.08,2.69,5.83,5.83,0,0,0,.91,2.16,5.26,5.26,0,0,0,1.65,1.53A6.85,6.85,0,0,0,139.26,70.21Z"/><path class="cls-4" d="M165.27,67a3.52,3.52,0,0,1-2,2,6.52,6.52,0,0,1-3.65.1c1.11,2.58,1.63,3.88,2.56,6.47a3.46,3.46,0,0,0,.8,1.32,7.35,7.35,0,0,0,1.32,1l-.3.68c-1.46-.64-2.2-.94-3.68-1.52-1-3-1.52-4.48-2.73-7.46a4,4,0,0,0-.33-.66,2,2,0,0,0-.4-.45,2.3,2.3,0,0,0-.56-.33c-.22-.09-.49-.19-.81-.29-.5,1.53-.75,2.3-1.24,3.82a5.66,5.66,0,0,0-.27,1.14,1.15,1.15,0,0,0,.15.79,1.76,1.76,0,0,0,.72.59,11.74,11.74,0,0,0,1.39.57c-.09.27-.14.41-.24.69-2.74-1-4.13-1.38-6.91-2.14l.2-.71a6.63,6.63,0,0,0,1.15.21,1.48,1.48,0,0,0,.76-.13,1.25,1.25,0,0,0,.51-.53,6.55,6.55,0,0,0,.4-1c1-3.45,1.57-5.17,2.61-8.61a6.12,6.12,0,0,0,.24-1.07,1.2,1.2,0,0,0-.12-.72,1.23,1.23,0,0,0-.58-.51,9.18,9.18,0,0,0-1.12-.45l.2-.7c2.81.78,4.21,1.2,7,2.14a9.51,9.51,0,0,1,4.32,2.61A3,3,0,0,1,165.27,67ZM155.83,67l1.48.49a6.39,6.39,0,0,0,3.34.4,3.15,3.15,0,0,0,1.8-4.2,4.4,4.4,0,0,0-2.39-1.56c-.81-.27-1.21-.41-2-.66-.25-.08-.41,0-.47.19C156.87,63.76,156.52,64.83,155.83,67Z"/><path class="cls-4" d="M172.05,73.26a14.61,14.61,0,0,0,1.87.78,3.84,3.84,0,0,0,1.34.24,1.67,1.67,0,0,0,1-.29,2.14,2.14,0,0,0,.66-.78l.71.37L175,78.21l-.68-.36a2.46,2.46,0,0,0,.32-1,1.5,1.5,0,0,0-.26-.93,3.81,3.81,0,0,0-.94-1,11.05,11.05,0,0,0-1.77-1l-2,3.92a2.72,2.72,0,0,0-.31,1,1.44,1.44,0,0,0,.22.86,2.89,2.89,0,0,0,.8.81,12.92,12.92,0,0,0,1.42.85,11.84,11.84,0,0,0,1.74.76,3.74,3.74,0,0,0,1.39.2,2.64,2.64,0,0,0,1.2-.38,6,6,0,0,0,1.19-1l.71.42c-.9,1.24-1.34,1.86-2.23,3.11a94.29,94.29,0,0,0-11.52-5.83l.3-.67a8,8,0,0,0,1.12.37,1.56,1.56,0,0,0,.78,0,1.19,1.19,0,0,0,.58-.46,5.6,5.6,0,0,0,.55-1c1.54-3.26,2.31-4.89,3.84-8.15a5.65,5.65,0,0,0,.4-1,1.19,1.19,0,0,0,0-.73,1.27,1.27,0,0,0-.51-.59,8.71,8.71,0,0,0-1-.61l.3-.67a107.44,107.44,0,0,1,12.17,6.13c-.62,1.22-.92,1.83-1.54,3l-.71-.4a3.37,3.37,0,0,0,.24-1.32,2.24,2.24,0,0,0-.36-1.1,4,4,0,0,0-1-1,13.36,13.36,0,0,0-1.75-1.06c-1.06-.55-1.59-.81-2.66-1.33-.24-.12-.41-.08-.5.12Z"/><path class="cls-4" d="M170.56,203.38s0,.05,0,.08a.5.5,0,0,0,.31.63,10.65,10.65,0,0,1,5.82,4.79,21.65,21.65,0,0,1,1.53,3.84l1.3,4a13.54,13.54,0,0,1,.65,2.54,14.4,14.4,0,0,1,0,2l-.28,8.61a.51.51,0,0,0,1,0l.28-8.62a13.56,13.56,0,0,0,0-2.11,13.92,13.92,0,0,0-.69-2.74l-1.29-4a22.39,22.39,0,0,0-1.62-4,11.67,11.67,0,0,0-6.37-5.26A.52.52,0,0,0,170.56,203.38Z"/><path class="cls-4" d="M170.29,203.46l0,.06a7.65,7.65,0,0,0,1.89,8.09l.33.3a4,4,0,0,1,.85.92,3.76,3.76,0,0,1,.28,1.94c-.21,5.33-1.72,9.18-4.49,11.45a18.62,18.62,0,0,1-4.07,2.34c-.58.27-1.15.55-1.72.84A25.43,25.43,0,0,0,152.56,240a.49.49,0,0,0,.21.67.5.5,0,0,0,.68-.21s0,0,0-.05a24.76,24.76,0,0,1,10.32-10.13c.55-.28,1.12-.55,1.69-.82a19.91,19.91,0,0,0,4.28-2.47c3-2.46,4.63-6.56,4.85-12.18a4.5,4.5,0,0,0-.41-2.47,4.94,4.94,0,0,0-1.05-1.17l-.32-.28a6.65,6.65,0,0,1-1.63-7,.51.51,0,0,0-.92-.41Z"/><path class="cls-4" d="M175.62,196.92a9.88,9.88,0,0,0-.93,6,20.33,20.33,0,0,0,1.88,5.46c.24.52.47,1,.68,1.53a.52.52,0,0,0,.66.27.5.5,0,0,0,.28-.65c-.22-.51-.46-1-.7-1.56a19.11,19.11,0,0,1-1.79-5.18,8.44,8.44,0,0,1,1.45-6.32c.2-.25.3-.28.33-.28s.17,0,.42.51A67.72,67.72,0,0,1,184,216.07a5.61,5.61,0,0,1,.06,2,6.21,6.21,0,0,1-.55,1.38L180.28,226a.49.49,0,0,0,.23.67.47.47,0,0,0,.67-.23l3.24-6.47a7,7,0,0,0,.64-1.61,6.63,6.63,0,0,0-.05-2.39,68.54,68.54,0,0,0-6.2-19.69c-.14-.28-.54-1.11-1.36-1.08a1.49,1.49,0,0,0-1.1.66A8.17,8.17,0,0,0,175.62,196.92Z"/><path class="cls-4" d="M183.07,194.85a7.62,7.62,0,0,0-.66,1.69,17.79,17.79,0,0,0-.28,5.44c0,.51.06.89.09,1.25a8.42,8.42,0,0,1-.19,3.49.49.49,0,0,0,.34.62A.51.51,0,0,0,183,207a9.5,9.5,0,0,0,.23-3.86c0-.36-.06-.72-.08-1.11a17.2,17.2,0,0,1,.24-5.25,5.47,5.47,0,0,1,2.45-3.47l1.78,8.25a10.45,10.45,0,0,1,.36,3.23,9.93,9.93,0,0,1-.88,2.88,24.37,24.37,0,0,1-1.36,2.58,20.1,20.1,0,0,0-1.82,3.75.51.51,0,0,0,.33.63.52.52,0,0,0,.64-.32,19,19,0,0,1,1.73-3.57,25,25,0,0,0,1.41-2.68,11,11,0,0,0,1-3.18,11.23,11.23,0,0,0-.38-3.53l-1.91-8.87a.49.49,0,0,0-.25-.33.52.52,0,0,0-.42,0A5.69,5.69,0,0,0,183.07,194.85Z"/><path class="cls-4" d="M186.93,195.67a2.26,2.26,0,0,0-.11.22.5.5,0,0,0,.27.66.51.51,0,0,0,.66-.27c.36-.9,1.51-1.29,2.46-1.54,2.13-.58,3.58-.5,4.57.24.17.14.2.2.2.21s0,.13-.12.32a20.93,20.93,0,0,1-3,3.68,16.82,16.82,0,0,0-3.73,5.13.49.49,0,0,0,.29.64.51.51,0,0,0,.65-.29,16.08,16.08,0,0,1,3.54-4.8,22.56,22.56,0,0,0,3.11-3.87,1.52,1.52,0,0,0,.23-1,1.42,1.42,0,0,0-.58-.81c-1.65-1.24-3.9-.83-5.44-.42A4.6,4.6,0,0,0,186.93,195.67Z"/><path class="cls-4" d="M152.09,226.86a.5.5,0,0,0,.64.7,21,21,0,0,0,6.33-4.51,24,24,0,0,1,5.54-4.19c1.12-.57,2.19-1.24,3.23-1.89l.26-.15a19.47,19.47,0,0,0,4.93-4.38.49.49,0,0,0-.08-.7.51.51,0,0,0-.71.08,18.37,18.37,0,0,1-4.68,4.15l-.26.16c-1,.63-2.08,1.29-3.16,1.84a25.51,25.51,0,0,0-5.77,4.35,19.82,19.82,0,0,1-6,4.32A.45.45,0,0,0,152.09,226.86Z"/><path class="cls-4" d="M147.06,219.1a45.9,45.9,0,0,0-2.68,6.44l-2,5.64a12.45,12.45,0,0,0-1,4.35c0,2.2,1.23,4.22,2.18,5.85l3.18,5.42a.51.51,0,0,0,.69.19.5.5,0,0,0,.19-.69l-3.18-5.42c-.94-1.61-2-3.43-2-5.37a11.76,11.76,0,0,1,.92-4l2-5.64a31.6,31.6,0,0,1,5.5-10.66l7.73-10.62c.25-.34.51-.5.59-.49a2.53,2.53,0,0,1,.13.22,10.47,10.47,0,0,1-.19,8.92,20,20,0,0,1-1.49,2.42c-.4.58-.8,1.17-1.16,1.78a4.1,4.1,0,0,0-.72,2.37,4.66,4.66,0,0,0,.77,2,3.47,3.47,0,0,1,.65,1.61.5.5,0,0,0,.51.5.51.51,0,0,0,.5-.51,4.33,4.33,0,0,0-.78-2.1,3.81,3.81,0,0,1-.64-1.54,3.31,3.31,0,0,1,.58-1.79c.35-.59.74-1.16,1.12-1.72a23.27,23.27,0,0,0,1.57-2.53,11.47,11.47,0,0,0,.2-9.78,1.37,1.37,0,0,0-.46-.61c-.59-.42-1.38-.14-2,.71L150,214.63a44.27,44.27,0,0,0-2.71,4Z"/><path class="cls-4" d="M153.55,252a.44.44,0,0,0-.06.16.51.51,0,0,0,.43.57c3.62.55,7.39.9,10.21-1.19a13,13,0,0,0,2.31-2.38L175,238.61a39.54,39.54,0,0,0,6-8.87.51.51,0,0,0-.93-.4,39.1,39.1,0,0,1-5.83,8.65l-8.54,10.51a12.4,12.4,0,0,1-2.13,2.21c-2.51,1.86-6,1.52-9.45,1A.5.5,0,0,0,153.55,252Z"/><path class="cls-4" d="M163.44,251.31a7.29,7.29,0,0,0-.78,2c-.59,8,1.51,15.18,3.74,22.8l.48,1.68a.5.5,0,0,0,.63.34.5.5,0,0,0,.35-.61l-.49-1.68c-2.2-7.54-4.27-14.66-3.71-22.46a7.69,7.69,0,0,1,1.45-2.71.5.5,0,0,0,0-.71.52.52,0,0,0-.72,0A6.24,6.24,0,0,0,163.44,251.31Z"/><path class="cls-4" d="M142,238.34a.84.84,0,0,0-.05.17,65.21,65.21,0,0,0-.51,10.49c.1,2.43.37,4.89.64,7.26l3.39,30a.51.51,0,0,0,1-.11l-3.39-30c-.27-2.36-.55-4.79-.64-7.19a64.13,64.13,0,0,1,.5-10.31.5.5,0,0,0-.43-.57A.51.51,0,0,0,142,238.34Z"/><path class="cls-4" d="M74.65,210.31l0,.06a.45.45,0,0,1-.25.6,9.74,9.74,0,0,0-5,4.71,20.39,20.39,0,0,0-1.18,3.59L67.26,223a11.55,11.55,0,0,0-.45,2.36,10.8,10.8,0,0,0,.08,1.8l.75,7.86a.45.45,0,0,1-.41.5.47.47,0,0,1-.51-.41L66,227.21a13.64,13.64,0,0,1-.09-1.93,13.26,13.26,0,0,1,.48-2.54l1-3.69a20.48,20.48,0,0,1,1.25-3.76,10.58,10.58,0,0,1,5.52-5.16A.46.46,0,0,1,74.65,210.31Z"/><path class="cls-4" d="M74.9,210.36l0,.06a7,7,0,0,1-1.26,7.5c-.09.1-.19.19-.29.29a3.61,3.61,0,0,0-.71.89,3.23,3.23,0,0,0-.15,1.79c.5,4.86,2.1,8.29,4.76,10.21A17.15,17.15,0,0,0,81.14,233c.54.22,1.08.43,1.61.67a23.32,23.32,0,0,1,10.46,9.08.45.45,0,0,1-.15.63.48.48,0,0,1-.64-.15s0,0,0-.05a22.76,22.76,0,0,0-10-8.68c-.53-.23-1.06-.44-1.59-.65a18.53,18.53,0,0,1-4.06-2c-2.88-2.08-4.61-5.73-5.13-10.86a4.06,4.06,0,0,1,.23-2.28,4.59,4.59,0,0,1,.89-1.13l.27-.27a6.09,6.09,0,0,0,1.1-6.51.46.46,0,0,1,.23-.61A.47.47,0,0,1,74.9,210.36Z"/><path class="cls-4" d="M69.65,204.69a9,9,0,0,1,1.19,5.39,18.05,18.05,0,0,1-1.4,5.09c-.19.49-.37,1-.53,1.44a.47.47,0,0,1-.59.29.46.46,0,0,1-.29-.58q.25-.72.54-1.47A17.69,17.69,0,0,0,69.92,210a7.75,7.75,0,0,0-1.69-5.69c-.2-.22-.29-.25-.32-.25s-.16,0-.36.5a62.09,62.09,0,0,0-4.46,18.08,5.19,5.19,0,0,0,.06,1.86,5.51,5.51,0,0,0,.58,1.23l3.34,5.73a.47.47,0,0,1-.81.46l-3.33-5.74a6.1,6.1,0,0,1-.68-1.43,6,6,0,0,1-.08-2.19,62.66,62.66,0,0,1,4.53-18.35c.1-.26.43-1,1.18-1.06a1.42,1.42,0,0,1,1,.54A7.13,7.13,0,0,1,69.65,204.69Z"/><path class="cls-4" d="M62.72,203.21a7,7,0,0,1,.71,1.51,16.34,16.34,0,0,1,.56,5c0,.47,0,.81,0,1.14a7.87,7.87,0,0,0,.38,3.18.46.46,0,0,1-.87.32,8.73,8.73,0,0,1-.44-3.52c0-.32,0-.65,0-1a15.81,15.81,0,0,0-.51-4.78,5,5,0,0,0-2.45-3L59,209.61a9.6,9.6,0,0,0-.14,3,9.2,9.2,0,0,0,1,2.59,23.12,23.12,0,0,0,1.39,2.28,18.1,18.1,0,0,1,1.88,3.32.47.47,0,0,1-.87.34A17.31,17.31,0,0,0,60.4,218,22.62,22.62,0,0,1,59,215.58a10.09,10.09,0,0,1-1.06-2.86,10.63,10.63,0,0,1,.14-3.24l1.24-8.22a.47.47,0,0,1,.21-.32.46.46,0,0,1,.38-.05A5.24,5.24,0,0,1,62.72,203.21Z"/><path class="cls-4" d="M59.24,204.18l.12.2a.46.46,0,0,1-.22.61.47.47,0,0,1-.62-.21c-.37-.8-1.45-1.09-2.33-1.27-2-.4-3.3-.25-4.16.48-.15.13-.17.2-.17.21s0,.11.13.28a19,19,0,0,0,2.93,3.19,15.56,15.56,0,0,1,3.71,4.48.47.47,0,0,1-.24.61.47.47,0,0,1-.61-.24,14.83,14.83,0,0,0-3.5-4.18A20.06,20.06,0,0,1,51.21,205a1.28,1.28,0,0,1-.27-.89,1.3,1.3,0,0,1,.48-.78c1.44-1.23,3.52-1,5-.69A4.19,4.19,0,0,1,59.24,204.18Z"/><path class="cls-4" d="M92.88,230.73a.48.48,0,0,1,.05.39.46.46,0,0,1-.59.28,19.11,19.11,0,0,1-6-3.76A22.19,22.19,0,0,0,81,224.12c-1.06-.46-2.08-1-3.06-1.54l-.25-.13a17.79,17.79,0,0,1-4.76-3.73.45.45,0,0,1,0-.64.47.47,0,0,1,.66,0,16.53,16.53,0,0,0,4.52,3.53l.24.13c1,.53,2,1.07,3,1.51a23.18,23.18,0,0,1,5.53,3.65,18.32,18.32,0,0,0,5.75,3.61A.39.39,0,0,1,92.88,230.73Z"/><path class="cls-4" d="M97,223.35a41.21,41.21,0,0,1,2.82,5.74l2.17,5a11.22,11.22,0,0,1,1.14,3.92,11.42,11.42,0,0,1-1.66,5.47l-2.59,5.14a.47.47,0,0,1-.62.2.46.46,0,0,1-.21-.61l2.59-5.14a10.56,10.56,0,0,0,1.56-5,10.29,10.29,0,0,0-1.06-3.6l-2.17-5a38.47,38.47,0,0,0-3-6A38.93,38.93,0,0,0,93.36,220l-7.67-9.27c-.25-.3-.5-.43-.57-.41a.54.54,0,0,0-.1.2,9.57,9.57,0,0,0,.68,8.15,18.33,18.33,0,0,0,1.51,2.12c.39.51.79,1,1.16,1.56a3.82,3.82,0,0,1,.79,2.13,4.13,4.13,0,0,1-.6,1.83,3.34,3.34,0,0,0-.49,1.52.46.46,0,0,1-.92,0,3.85,3.85,0,0,1,.59-2,3.34,3.34,0,0,0,.49-1.44,3.07,3.07,0,0,0-.63-1.6c-.35-.52-.74-1-1.13-1.51a22.34,22.34,0,0,1-1.58-2.23,10.51,10.51,0,0,1-.74-8.92,1.32,1.32,0,0,1,.38-.59c.52-.42,1.26-.21,1.87.54l7.68,9.27A38.45,38.45,0,0,1,96.79,223Z"/><path class="cls-4" d="M93,253.76l.06.14a.47.47,0,0,1-.36.55c-3.28.7-6.7,1.24-9.4-.51a12.3,12.3,0,0,1-2.25-2.06l-8.41-9.12a36.16,36.16,0,0,1-6-7.78.46.46,0,0,1,.21-.61.45.45,0,0,1,.62.2,35.92,35.92,0,0,0,5.82,7.57l8.42,9.13a11,11,0,0,0,2.07,1.9c2.4,1.56,5.61,1,8.7.38A.47.47,0,0,1,93,253.76Z"/><path class="cls-4" d="M83.91,253.71a6.91,6.91,0,0,1,.84,1.78c1,7.26-.51,14-2.1,21.06l-.35,1.56a.47.47,0,0,1-.55.35.46.46,0,0,1-.36-.55l.35-1.56c1.57-7,3.06-13.64,2.09-20.74a7.26,7.26,0,0,0-1.47-2.39.45.45,0,0,1,0-.65.46.46,0,0,1,.65,0A5.27,5.27,0,0,1,83.91,253.71Z"/><path class="cls-4" d="M102.76,240.66a.35.35,0,0,1,.06.14,60.42,60.42,0,0,1,1.08,9.56c0,2.23-.07,4.49-.18,6.68l-1.37,27.63a.46.46,0,0,1-.92,0L102.8,257c.11-2.17.22-4.41.17-6.61a58.29,58.29,0,0,0-1.06-9.39.46.46,0,0,1,.85-.33Z"/><path class="cls-5" d="M123.48,185.1s1.44-10.64-9.21-13.84L113,174.5l-1.88-.51c.5-1.24,1-2.48,1.49-3.72l-2.6-1.24s-4.35,8.62-2.06,13.39l2.64,1.55s-1.14-5.36.18-8.48l1.56.47s-.68,7.4.81,9l2.09.47-.42-6.8a.92.92,0,0,1,.77-1.07.91.91,0,0,1,.69,1.05q.48,3.48,1,7l2.77.19-1-4.7c0-.53.26-.95.55-1s.88.36.94,1.11c.33,1.32.66,2.64,1,4C121.45,185.1,122.5,186.59,123.48,185.1Z"/><path class="cls-5" d="M108.53,167.91a33.54,33.54,0,0,0-2.74,12.79s-6.14-3.85-7.43-7.92c0,0-3-3.62-.17-7a6.06,6.06,0,0,0,1.5-3.78s-1.6-4.25,2-6.17a17.74,17.74,0,0,1,3.54-1.71,57,57,0,0,0,6.33-3.18,10.61,10.61,0,0,1,3.2-.49c.69.23.67,1.39-.37,2.43a39.23,39.23,0,0,1-3.72,1.76,7,7,0,0,0-2.13,3.33s-.18,1.35-2.35,2.34C106.17,160.31,103.55,165.92,108.53,167.91Z"/><path class="cls-5" d="M109.06,160.35s3.27,3.84,5.38,4.64c0,0,7.24,4,7.68,9.77,0,0-4.65-5.26-10.62-7.06a6.5,6.5,0,0,1-2.06-1,6.78,6.78,0,0,1-2.29-3.21,2.58,2.58,0,0,1,.07-1.38A2.89,2.89,0,0,1,109.06,160.35Z"/><path class="cls-5" d="M123.41,172.07S126,181,125.3,184.6c0,0,1.36,1.05,2-3a28.73,28.73,0,0,0-.15-4s1.31-2.32,2-.59l-.58,6.74,2.85-1.36s1.65-4.6-.18-8.08L129.53,169l-2.29,1s1.5,3.05,1.36,3.72-1.74,2.44-2.23.13l-.69-3.51Z"/><path class="cls-5" d="M120.78,167.42l2,2.92,8.3-4.14s2.67-3-.18-5.52Z"/><path class="cls-5" d="M123.3,163.62l-3.79,2.84s-3.36-3.78-5.61-4.23c0,0,4.41-5.35,10.39-1.36l1,1.06s.62,1.74-1,.61c0,0-2-1.65-3.32-1.31,0,0-1.56,1,.23,1.55Z"/><path class="cls-5" d="M122.77,150s2.19,2.32,2.37,3.53c0,0,2.9.21,3.65,1.05a6.43,6.43,0,0,1,2.56,3.95,6.48,6.48,0,0,1,2.34,6.65,8,8,0,0,1-2.56,2.71L133.2,174a24.38,24.38,0,0,1,.41,3.07,24,24,0,0,1-.05,3.93l4.11-3.64c.25-.44.5-.93.74-1.46s.5-1.2.68-1.75a7.47,7.47,0,0,0,1.85-2.07,7.55,7.55,0,0,0,1-4.45,11.38,11.38,0,0,0-.95-2.28,11.15,11.15,0,0,0-1.75-2.34s2.3-5.4-2.45-8.49c0,0-4-2.2-5.07-1.28C131.73,153.22,129.92,149.31,122.77,150Z"/><path class="cls-5" d="M112.36,161.28l1.32-1.42-.48-1.92s.35-1.5,1.43-.47l1,1.32,3.18-1.24-.07-3s1.08-2.27,1.79-.2l-.13,3.12,3.84,1.07s.82-2.27,1.64-1.75.74,1.16-.08,2.62l1.73,1.86s3.66-1.85,1.06-4.95c0,0-.82-1.74-3.63-1.08,0,0-2.42-4.19-4-4.49l-.4-.08s-3.61-1.13-4.74,3.41a4,4,0,0,1-1.44,1,10.85,10.85,0,0,0-1.6.33,4.27,4.27,0,0,0-1.57.67,3,3,0,0,0-1,1.48l-.36,1.54Z"/><path class="cls-5" d="M117.8,236s.54-7.68,1.43-10.1c0,0,5.31-11.89,5.25-14.35,0,0,.22-8.88-1.13-11.28l-3.14-5.76A9.11,9.11,0,0,1,111,189.8s-3-1-4.61-.53c0,0-15.27-1.54-7-12.36,0,0,2.34,5,6.41,6.56,0,0-1.5,2.53-1.1,3.53,0,0,1,2,3.21-2.51a35.63,35.63,0,0,0,10.68,3s-.52,3.87,1.06,4.24c0,0,1.59,1.08,1-4.15,0,0,9.53-1.91,10.88-3.11,0,0,1.47,2.52,2.48,2.67,0,0,2.36-.24-.74-3.63,0,0,6.34-4.61,6.91-7.16,0,0,3.61,2,2.1,7.81,0,0-3.53,5.67-8.48,5.11a36.76,36.76,0,0,1-4.24-.3s-2.79,1-2.86,1.88c0,0-2.36,3.18-4.2,3.57A36.82,36.82,0,0,1,126.49,206s-.24,10.61-2.45,13.6a22.27,22.27,0,0,0-2,3.95,42.33,42.33,0,0,0-2.5,12.51S119.62,237.08,117.8,236Z"/></g></g></svg>