<svg xmlns="http://www.w3.org/2000/svg" viewBox="0 0 234.08 418.03"><defs><style>.cls-1{fill:#e9c4a9;}.cls-2{font-size:13.62px;font-family:SukhumvitSet-Light, Sukhumvit Set;font-weight:300;letter-spacing:0em;}.cls-2,.cls-4{fill:#fff;}.cls-3{fill:none;stroke:#d38d30;stroke-miterlimit:10;stroke-width:0.74px;}.cls-5{fill:#d2a267;}</style></defs><title>front4</title><g id="Layer_2" data-name="Layer 2"><g id="Layer_1-2" data-name="Layer 1"><path class="cls-1" d="M0,16.34a15.06,15.06,0,0,1,.58-4.75A15.79,15.79,0,0,1,5.18,4.32a16.89,16.89,0,0,1,10-4.2l203-.12A16.76,16.76,0,0,1,229,4.45a16,16,0,0,1,4.79,9.3q.15,194,.31,388a16.11,16.11,0,0,1-4.55,11.36A16.75,16.75,0,0,1,218.68,418L14.39,418S4.41,417.4.6,406.2l-.46-2.05Z"/><text class="cls-2" transform="translate(16.08 11.58) rotate(90) scale(0.98 1)">04</text><path class="cls-3" d="M31.43,18.76h81.93l4.82-3.07,5.34,3.16h94.82v178.8l5,4.2-4.73,4,.27,183"/><rect class="cls-4" x="208.35" y="403" width="0.73" height="0.17"/><rect class="cls-4" x="208.32" y="396.8" width="0.73" height="0.17"/><rect class="cls-4" x="215.08" y="396.77" width="0.73" height="0.17"/><rect class="cls-4" x="215.1" y="403" width="0.73" height="0.17"/><rect class="cls-4" x="221.69" y="396.77" width="0.73" height="0.17"/><rect class="cls-4" x="221.7" y="403" width="0.73" height="0.17"/><rect class="cls-4" x="220.86" y="403" width="0.73" height="0.17"/><rect class="cls-4" x="215.88" y="403" width="0.73" height="0.17"/><path class="cls-4" d="M213.59,400a3.82,3.82,0,0,1-.22,1.37,2.53,2.53,0,0,1-1.59,1.6,3.62,3.62,0,0,1-1.26.21H208.7V396.8h1.83a3.87,3.87,0,0,1,1.26.2,2.63,2.63,0,0,1,1,.61,2.74,2.74,0,0,1,.62,1A4.16,4.16,0,0,1,213.59,400Zm-.83,0a3.81,3.81,0,0,0-.17-1.18,2.34,2.34,0,0,0-.48-.82,2.05,2.05,0,0,0-.72-.49,2.38,2.38,0,0,0-.89-.16h-1v5.29h1a2.39,2.39,0,0,0,.89-.17,1.93,1.93,0,0,0,.71-.49,2.07,2.07,0,0,0,.48-.82A3.42,3.42,0,0,0,212.76,400Z"/><path class="cls-4" d="M221.23,403.16v-5.55h0l-2.07,5.56h-.77l-2.07-5.56h0v5.56h-.79v-6.4h1.24l2,5.4h.05l2-5.4h1.29v6.4Z"/><polyline class="cls-3" points="17.62 32.76 17.62 200.57 13.41 204.37 17.95 208.76 17.95 399.36 112.28 399.36 118.11 402.49 123.29 399.05 203.28 399.05"/><path class="cls-4" d="M76.7,370.62c-1.25-.26-1.88-.41-3.14-.73l-.34.74c-.09.22-.17.41-.22.57s-.1.3-.13.41a1.89,1.89,0,0,0,0,.29.6.6,0,0,0,.21.5,1.85,1.85,0,0,0,.7.31v.43c-1.14-.29-1.71-.44-2.85-.78v-.44a2.77,2.77,0,0,0,.46,0,.86.86,0,0,0,.34-.06.63.63,0,0,0,.26-.2,1.54,1.54,0,0,0,.22-.34c1.22-2.66,1.83-4,3-6.72l.51.12c1.06,2.83,1.6,4.24,2.66,7,.18.46.34.83.47,1.12a3.57,3.57,0,0,0,.39.65,1.07,1.07,0,0,0,.4.32,2.26,2.26,0,0,0,.53.14v.45c-1.53-.25-2.3-.39-3.83-.72v-.45a2,2,0,0,0,.86.06.3.3,0,0,0,.23-.33,1.41,1.41,0,0,0,0-.21,2.07,2.07,0,0,0,0-.22c0-.09-.05-.18-.08-.28l-.14-.37Zm-2.9-1.25c1.07.27,1.61.4,2.68.63-.52-1.47-.78-2.21-1.31-3.69Z"/><path class="cls-4" d="M86.76,369.91v-.43a3.69,3.69,0,0,0,1-.64,2.3,2.3,0,0,0,.54-.81l.34,0v1.45l1.57.08v.54c-.63,0-.94,0-1.57-.08v3.5a4.44,4.44,0,0,0,0,.68,1.2,1.2,0,0,0,.13.45.6.6,0,0,0,.25.25,1,1,0,0,0,.39.09,1,1,0,0,0,.5-.09,1.45,1.45,0,0,0,.4-.39,3.25,3.25,0,0,1,.29.23,1.15,1.15,0,0,1-.57.62,1.84,1.84,0,0,1-1,.17,1.74,1.74,0,0,1-1.18-.43,1.42,1.42,0,0,1-.4-1.07V370Z"/><path class="cls-4" d="M94.54,369.38a3.58,3.58,0,0,1,1.27.23,3.48,3.48,0,0,1,1,.64,3,3,0,0,1,.72,1,2.81,2.81,0,0,1,.26,1.24,3,3,0,0,1-.26,1.29,3.29,3.29,0,0,1-.72,1,3.37,3.37,0,0,1-2.32.93,3.35,3.35,0,0,1-1.25-.24,3.3,3.3,0,0,1-1-.68,3.26,3.26,0,0,1-.71-1,3.33,3.33,0,0,1-.26-1.31,3,3,0,0,1,.26-1.24,2.87,2.87,0,0,1,.71-1,3.12,3.12,0,0,1,1-.63A3.68,3.68,0,0,1,94.54,369.38Zm0,.55a1.63,1.63,0,0,0-.8.19,1.76,1.76,0,0,0-.61.51,2.44,2.44,0,0,0-.39.81,3.87,3.87,0,0,0-.13,1.05,4.12,4.12,0,0,0,.13,1.09,2.55,2.55,0,0,0,.39.83,1.93,1.93,0,0,0,.61.53,1.7,1.7,0,0,0,.79.18,1.67,1.67,0,0,0,.81-.18,1.63,1.63,0,0,0,.63-.54,2.79,2.79,0,0,0,.4-.83,4,4,0,0,0,.14-1.07,3.86,3.86,0,0,0-.14-1.05,2.61,2.61,0,0,0-.4-.8,1.79,1.79,0,0,0-.63-.53A1.92,1.92,0,0,0,94.55,369.93Z"/><path class="cls-4" d="M102.22,369.15a3.34,3.34,0,0,1,1.27.15,3.13,3.13,0,0,1,1.05.57,2.77,2.77,0,0,1,.72.93,2.88,2.88,0,0,1,.26,1.23,3.4,3.4,0,0,1-.26,1.31,3.55,3.55,0,0,1-1.77,1.81,3.26,3.26,0,0,1-1.27.32,3.08,3.08,0,0,1-2.29-.77,3,3,0,0,1-.7-1,3.2,3.2,0,0,1-.26-1.29,3.12,3.12,0,0,1,.26-1.26,3.31,3.31,0,0,1,.7-1,3.5,3.5,0,0,1,1-.69A3.37,3.37,0,0,1,102.22,369.15Zm0,.55a1.65,1.65,0,0,0-.79.23,1.88,1.88,0,0,0-.61.55,2.71,2.71,0,0,0-.39.84,4,4,0,0,0-.13,1.06,3.87,3.87,0,0,0,.13,1.07,2.35,2.35,0,0,0,.39.81,1.65,1.65,0,0,0,.6.49,1.73,1.73,0,0,0,.8.14,1.82,1.82,0,0,0,.81-.24,2,2,0,0,0,.62-.57,2.53,2.53,0,0,0,.4-.86,3.71,3.71,0,0,0,.14-1.08,3.12,3.12,0,0,0-.14-1,2.22,2.22,0,0,0-.4-.78,1.7,1.7,0,0,0-.62-.48A1.65,1.65,0,0,0,102.22,369.7Z"/><path class="cls-4" d="M108.54,373.05a6.41,6.41,0,0,0,0,.7.93.93,0,0,0,.15.4.48.48,0,0,0,.32.17,2.22,2.22,0,0,0,.54,0v.4c-1.29.13-1.94.2-3.24.31v-.4a2.19,2.19,0,0,0,.57-.13.73.73,0,0,0,.33-.23.87.87,0,0,0,.17-.4,5.35,5.35,0,0,0,0-.65v-5c0-.42,0-.76,0-1a4,4,0,0,0-.05-.57.43.43,0,0,0-.28-.33,2.25,2.25,0,0,0-.78,0v-.39l2.22-.63Z"/><path class="cls-4" d="M116.9,367.94l1.32-.18v-.83a3.25,3.25,0,0,1,.71-2.16,3.11,3.11,0,0,1,2-1,2.54,2.54,0,0,1,1.19.05c.3.1.45.26.45.49a.66.66,0,0,1-.14.41.56.56,0,0,1-.37.21.63.63,0,0,1-.3,0,2.48,2.48,0,0,1-.42-.24,2.18,2.18,0,0,0-.46-.25.94.94,0,0,0-.38,0,1.25,1.25,0,0,0-1,.85,2.23,2.23,0,0,0-.15.58,7.72,7.72,0,0,0,0,.93v.9l1.89-.27v.54l-1.89.27v3.52a4.25,4.25,0,0,0,0,.69.91.91,0,0,0,.19.42.57.57,0,0,0,.37.18,2.63,2.63,0,0,0,.61,0v.41l-3.34.46v-.4a2.35,2.35,0,0,0,.53-.14.62.62,0,0,0,.31-.23,1,1,0,0,0,.14-.43,6.41,6.41,0,0,0,0-.7V368.3l-1.32.18Z"/><path class="cls-4" d="M125.15,366.46a3.36,3.36,0,0,1,1.27.05,2.82,2.82,0,0,1,1,.49,2.49,2.49,0,0,1,.72.88,2.73,2.73,0,0,1,.26,1.21,3.45,3.45,0,0,1-.26,1.32,4,4,0,0,1-.72,1.12,4.05,4.05,0,0,1-1,.83,3.82,3.82,0,0,1-1.27.43,3.25,3.25,0,0,1-1.25-.05,2.67,2.67,0,0,1-1-.51,2.48,2.48,0,0,1-.7-.92,2.8,2.8,0,0,1-.26-1.25,3.27,3.27,0,0,1,.26-1.29,3.62,3.62,0,0,1,.7-1.1,4,4,0,0,1,1-.79A3.77,3.77,0,0,1,125.15,366.46Zm0,.55a2,2,0,0,0-.79.31,2.09,2.09,0,0,0-.61.61,2.88,2.88,0,0,0-.39.87,4.07,4.07,0,0,0-.14,1.07,3.85,3.85,0,0,0,.14,1.07,2,2,0,0,0,.39.76,1.51,1.51,0,0,0,.6.44,1.62,1.62,0,0,0,.8.06,1.89,1.89,0,0,0,.81-.3,2.29,2.29,0,0,0,.62-.62,2.88,2.88,0,0,0,.4-.89,3.83,3.83,0,0,0,.14-1.09,3.25,3.25,0,0,0-.14-1,1.92,1.92,0,0,0-.4-.75,1.5,1.5,0,0,0-.62-.44A1.66,1.66,0,0,0,125.15,367Z"/><path class="cls-4" d="M131.62,369.88c0,.32,0,.57,0,.75a.78.78,0,0,0,.13.4.39.39,0,0,0,.28.15,3.27,3.27,0,0,0,.53,0v.4l-3.12.46v-.4a2.25,2.25,0,0,0,.54-.15.64.64,0,0,0,.3-.23.8.8,0,0,0,.14-.42,6.41,6.41,0,0,0,0-.7v-1.34c0-.52,0-.93,0-1.22a1.52,1.52,0,0,0-.12-.63.34.34,0,0,0-.31-.2,3.64,3.64,0,0,0-.58.05v-.4l2.05-.74c.07.56.1.84.16,1.4h0a3.42,3.42,0,0,1,.88-1.25,3.09,3.09,0,0,1,.57-.4,1.87,1.87,0,0,1,.59-.2.94.94,0,0,1,.6.09.52.52,0,0,1,.21.45.61.61,0,0,1-.17.46.93.93,0,0,1-.51.23h-.31l-.23-.07-.19-.07a.4.4,0,0,0-.19,0,1,1,0,0,0-.64.49,3.47,3.47,0,0,0-.49,1.08,7,7,0,0,0-.15.77,8.69,8.69,0,0,0,0,.89Z"/><path class="cls-4" d="M142.06,370.3l-.26,0v-2l.29,0c.31,1,.86,1.52,1.67,1.43a1.29,1.29,0,0,0,.74-.31.89.89,0,0,0,.28-.71.79.79,0,0,0-.05-.29.82.82,0,0,0-.2-.23,3.77,3.77,0,0,0-.41-.26l-.7-.36a7,7,0,0,1-.69-.37,2.93,2.93,0,0,1-.5-.36,1.48,1.48,0,0,1-.3-.42,1.5,1.5,0,0,1-.1-.55,2,2,0,0,1,.14-.74,1.84,1.84,0,0,1,.37-.6,2.14,2.14,0,0,1,.55-.43,2,2,0,0,1,.69-.21,2.47,2.47,0,0,1,.66,0,2,2,0,0,1,.6.19l.23-.26.23,0v1.66l-.31,0a2.41,2.41,0,0,0-.56-.94,1,1,0,0,0-.75-.22,1.08,1.08,0,0,0-.64.28.82.82,0,0,0-.24.61.81.81,0,0,0,.06.33.71.71,0,0,0,.21.26,2.12,2.12,0,0,0,.35.24l.53.27c.33.17.62.32.86.46a2.79,2.79,0,0,1,.58.41,1.52,1.52,0,0,1,.33.46,1.4,1.4,0,0,1,.1.56,1.78,1.78,0,0,1-.54,1.34,2.36,2.36,0,0,1-1.42.62,2.29,2.29,0,0,1-1.57-.34Z"/><path class="cls-4" d="M151.81,365.13c0-.31,0-.56,0-.74a1,1,0,0,0-.12-.41.45.45,0,0,0-.3-.17,2.37,2.37,0,0,0-.53-.05v-.41l2.12-.13v3.53c0,.44,0,.79,0,1.07a6.17,6.17,0,0,0,.05.62.87.87,0,0,0,.08.23.35.35,0,0,0,.16.13.68.68,0,0,0,.27.05H154v.4c-.77.09-1.16.14-1.93.25-.05-.55-.08-.83-.13-1.37h0a3.37,3.37,0,0,1-1,1.11,2.74,2.74,0,0,1-1.21.42,2.58,2.58,0,0,1-1-.11,1.4,1.4,0,0,1-.7-.43,1.43,1.43,0,0,1-.28-.68,5.94,5.94,0,0,1-.09-1.15v-1.83a7,7,0,0,0,0-.74.7.7,0,0,0-.12-.4.43.43,0,0,0-.29-.17,3.51,3.51,0,0,0-.54,0v-.4l2.13-.19v3.14a3.92,3.92,0,0,0,.3,1.79.93.93,0,0,0,.95.49c.69-.05,1.23-.53,1.61-1.44,0-.09.07-.18.1-.26s0-.16.06-.26,0-.19,0-.31,0-.25,0-.41Z"/><path class="cls-4" d="M160.18,368.16a2.77,2.77,0,0,1-1.09.79,3.82,3.82,0,0,1-1.44.3,2.87,2.87,0,0,1-1.15-.2,2.54,2.54,0,0,1-.9-.6,2.86,2.86,0,0,1-.58-1,3.89,3.89,0,0,1-.2-1.27,3.85,3.85,0,0,1,.23-1.34,3,3,0,0,1,.67-1,2.94,2.94,0,0,1,1-.68,3.58,3.58,0,0,1,1.33-.25,3.69,3.69,0,0,1,.84.06,2.76,2.76,0,0,1,.65.21,1.18,1.18,0,0,1,.43.32.63.63,0,0,1,.15.41.43.43,0,0,1-.15.35.75.75,0,0,1-.78,0,1.67,1.67,0,0,1-.36-.38,1.5,1.5,0,0,0-.46-.37,1.26,1.26,0,0,0-.55-.1,1.47,1.47,0,0,0-1.27.66,4.43,4.43,0,0,0,0,3.87,1.56,1.56,0,0,0,1.39.66,2.62,2.62,0,0,0,.93-.2,3.31,3.31,0,0,0,.88-.62Z"/><path class="cls-4" d="M166.48,368.38a2.85,2.85,0,0,1-1.1.72,3.75,3.75,0,0,1-1.44.21,3,3,0,0,1-1.14-.26,2.79,2.79,0,0,1-1.48-1.65,3.74,3.74,0,0,1-.21-1.28,3.54,3.54,0,0,1,.24-1.33,2.73,2.73,0,0,1,.66-1,2.66,2.66,0,0,1,1-.61,3.6,3.6,0,0,1,1.33-.18,3.54,3.54,0,0,1,.84.12,2.59,2.59,0,0,1,.65.24,1.4,1.4,0,0,1,.43.35.68.68,0,0,1,.15.42.39.39,0,0,1-.15.34.55.55,0,0,1-.42.1.66.66,0,0,1-.36-.1,2.36,2.36,0,0,1-.36-.41,1.57,1.57,0,0,0-.45-.39,1.28,1.28,0,0,0-.56-.14,1.36,1.36,0,0,0-1.26.59,3.22,3.22,0,0,0-.43,1.85,3.63,3.63,0,0,0,.47,2,1.69,1.69,0,0,0,1.4.74,2.37,2.37,0,0,0,.92-.15,2.88,2.88,0,0,0,.88-.56Z"/><path class="cls-4" d="M173,368.94a2.84,2.84,0,0,1-2.48.87,3.92,3.92,0,0,1-1.26-.36,3.66,3.66,0,0,1-1-.72,3.26,3.26,0,0,1-.62-1,3.59,3.59,0,0,1-.23-1.28,3.28,3.28,0,0,1,.24-1.28,2.55,2.55,0,0,1,1.68-1.54,3.27,3.27,0,0,1,1.3-.11,2.69,2.69,0,0,1,1.76.83,2.59,2.59,0,0,1,.62,1.82c0,.11,0,.17-.06.19a1.06,1.06,0,0,1-.3,0c-1.54-.22-2.32-.31-3.86-.45a1.09,1.09,0,0,0,0,.22,2.71,2.71,0,0,0,0,.29,3.8,3.8,0,0,0,.15,1.1,2.87,2.87,0,0,0,.42.88,2.1,2.1,0,0,0,.66.6,2.2,2.2,0,0,0,.85.29,2.1,2.1,0,0,0,.91-.1,2.59,2.59,0,0,0,.87-.58ZM171,365.58l.38,0a.44.44,0,0,0,.21,0,.14.14,0,0,0,.09-.08.42.42,0,0,0,0-.17,1.24,1.24,0,0,0-.34-.89,1.47,1.47,0,0,0-.95-.42c-.84-.1-1.37.35-1.57,1.32C169.72,365.43,170.16,365.47,171,365.58Z"/><path class="cls-4" d="M174.57,370.26l-.26,0v-2l.29.05c.31,1.13.86,1.76,1.67,1.92a1.09,1.09,0,0,0,.74-.08.68.68,0,0,0,.28-.63,1,1,0,0,0,0-.31,1.7,1.7,0,0,0-.2-.29,5.48,5.48,0,0,0-.41-.39c-.18-.15-.41-.34-.7-.56l-.7-.58a4.55,4.55,0,0,1-.49-.5,2.06,2.06,0,0,1-.3-.51,1.72,1.72,0,0,1-.1-.58,1.67,1.67,0,0,1,.14-.69,1.26,1.26,0,0,1,.37-.5,1.29,1.29,0,0,1,.55-.27,1.6,1.6,0,0,1,.69,0,2.69,2.69,0,0,1,.66.22,2.93,2.93,0,0,1,.6.38l.23-.2.23,0v1.66l-.31-.07a3.55,3.55,0,0,0-.56-1.11,1.27,1.27,0,0,0-.75-.44.83.83,0,0,0-.64.09.59.59,0,0,0-.24.53,1,1,0,0,0,.06.35,1.09,1.09,0,0,0,.21.32,2.86,2.86,0,0,0,.35.34c.15.13.32.27.53.43l.86.72a4.56,4.56,0,0,1,.58.6,2.21,2.21,0,0,1,.33.56,1.64,1.64,0,0,1,.1.6,1.3,1.3,0,0,1-.54,1.17,1.92,1.92,0,0,1-1.42.18,3.07,3.07,0,0,1-1.57-.8Z"/><path class="cls-4" d="M179.9,371.34l-.26-.06v-2l.29.07a2.53,2.53,0,0,0,1.67,2.05,1,1,0,0,0,.74,0,.6.6,0,0,0,.28-.6,1,1,0,0,0-.05-.31,1.75,1.75,0,0,0-.2-.31c-.1-.12-.24-.25-.41-.42l-.7-.62c-.27-.23-.5-.44-.7-.63a4.7,4.7,0,0,1-.49-.54,2.17,2.17,0,0,1-.3-.53,1.76,1.76,0,0,1-.1-.58,1.67,1.67,0,0,1,.14-.69,1.16,1.16,0,0,1,.37-.47,1.23,1.23,0,0,1,.55-.22,1.65,1.65,0,0,1,.69,0,3.47,3.47,0,0,1,1.26.7l.23-.17.23.06v1.66l-.31-.09a3.91,3.91,0,0,0-.56-1.16,1.49,1.49,0,0,0-.75-.5.8.8,0,0,0-.64,0,.56.56,0,0,0-.25.51,1,1,0,0,0,.07.36,1.17,1.17,0,0,0,.2.33c.1.12.22.24.36.38l.53.47c.33.29.62.56.86.79a4.66,4.66,0,0,1,.58.64,2.35,2.35,0,0,1,.33.59,1.72,1.72,0,0,1,.1.6,1.19,1.19,0,0,1-.54,1.13,1.91,1.91,0,0,1-1.42.07,3.36,3.36,0,0,1-1.57-.93Z"/><path class="cls-4" d="M62,84l-.37-.62a11,11,0,0,0,1.07-.74,1.57,1.57,0,0,0,.5-.66,1.17,1.17,0,0,0,0-.74,5,5,0,0,0-.47-1l-4.45-7.78a7.21,7.21,0,0,0-.61-.9,1.28,1.28,0,0,0-.62-.41,1.32,1.32,0,0,0-.79.07,8.61,8.61,0,0,0-1.12.5l-.38-.63c2.89-1.66,4.35-2.44,7.32-3.9a11.72,11.72,0,0,1,3.78-1.15,9.14,9.14,0,0,1,3.46.22,6.94,6.94,0,0,1,2.78,1.46,7.07,7.07,0,0,1,2.36,5.46,6.81,6.81,0,0,1-.7,2.73,8.5,8.5,0,0,1-1.79,2.39,11,11,0,0,1-2.78,1.88C66.24,81.64,64.8,82.4,62,84ZM59.78,69.42c-.23.13-.3.28-.19.48l5,9.12c.7,1.29,2,1.43,3.84.51a6.09,6.09,0,0,0,3.31-3.28,6.28,6.28,0,0,0-.46-4.81A8.23,8.23,0,0,0,69.7,69a5.72,5.72,0,0,0-2.07-1.4,5.64,5.64,0,0,0-2.47-.33,7.57,7.57,0,0,0-2.73.79C61.37,68.61,60.84,68.87,59.78,69.42Z"/><path class="cls-4" d="M82.58,59a10.82,10.82,0,0,1,3.82-.44,9.38,9.38,0,0,1,3.35.84,7.45,7.45,0,0,1,2.49,1.93,6.51,6.51,0,0,1,1.35,2.81,6.25,6.25,0,0,1,0,3,7.86,7.86,0,0,1-1.26,2.72,9.38,9.38,0,0,1-2.24,2.2A10.16,10.16,0,0,1,87,73.52a10.31,10.31,0,0,1-3.37.43,10,10,0,0,1-3.12-.62,8.3,8.3,0,0,1-2.59-1.59,6.58,6.58,0,0,1-2.15-5.55,7.27,7.27,0,0,1,1-3,9.06,9.06,0,0,1,2.34-2.51A10.94,10.94,0,0,1,82.58,59Zm4.11,13.48a6.71,6.71,0,0,0,2.23-1.08,5.58,5.58,0,0,0,1.48-1.7,5.76,5.76,0,0,0,.67-2.23,7.49,7.49,0,0,0-.22-2.66,8,8,0,0,0-1.1-2.58A5.79,5.79,0,0,0,88,60.53a5.41,5.41,0,0,0-2.34-.78,7.31,7.31,0,0,0-2.77.29,7.15,7.15,0,0,0-2.48,1.25,5.34,5.34,0,0,0-1.52,1.91,5.7,5.7,0,0,0-.52,2.4,8.05,8.05,0,0,0,.53,2.75,7.78,7.78,0,0,0,1.31,2.34A6,6,0,0,0,82,72.19a5.6,5.6,0,0,0,2.19.62A6.85,6.85,0,0,0,86.69,72.51Z"/><path class="cls-4" d="M118.93,65.31a122.93,122.93,0,0,1,6-11.18c2.06.09,3.09.16,5.15.33l-.07.72a4.63,4.63,0,0,0-1.18.06,1.28,1.28,0,0,0-.72.4,1.81,1.81,0,0,0-.38.85,9.86,9.86,0,0,0-.18,1.41c-.21,3-.31,4.49-.52,7.48a11.69,11.69,0,0,0,0,1.52,1.91,1.91,0,0,0,.26.88,1.17,1.17,0,0,0,.64.45,8.36,8.36,0,0,0,1.15.21l-.07.72c-2.62-.23-3.94-.3-6.56-.38l0-.73a5.48,5.48,0,0,0,1.16-.08,1.31,1.31,0,0,0,.7-.36,1.66,1.66,0,0,0,.37-.8,10.13,10.13,0,0,0,.15-1.42l.45-8.87H125a119.92,119.92,0,0,0-6.53,12.42H118a121.17,121.17,0,0,0-6.59-12.33h-.09l.55,8.73a10.59,10.59,0,0,0,.18,1.51,1.92,1.92,0,0,0,.37.84,1.15,1.15,0,0,0,.7.36,6.43,6.43,0,0,0,1.16.06c0,.29,0,.44,0,.73-2.26.09-3.39.17-5.65.37,0-.29,0-.43-.07-.72a7,7,0,0,0,1.14-.22,1.25,1.25,0,0,0,.65-.45,1.6,1.6,0,0,0,.27-.83,10.08,10.08,0,0,0,0-1.43c-.23-3.1-.35-4.65-.58-7.75a8.78,8.78,0,0,0-.18-1.32,1.61,1.61,0,0,0-.38-.81,1.25,1.25,0,0,0-.73-.38,6,6,0,0,0-1.19-.06c0-.29,0-.43-.07-.72,2.19-.2,3.29-.27,5.49-.38,2.54,4.42,3.7,6.66,5.82,11.18Z"/><path class="cls-4" d="M141.83,55.81a11,11,0,0,1,3.6,1.3A9.13,9.13,0,0,1,148,59.35a7.12,7.12,0,0,1,1.34,2.82,6.44,6.44,0,0,1-.09,3.11,6.35,6.35,0,0,1-1.42,2.64,8,8,0,0,1-2.38,1.86,9.58,9.58,0,0,1-3,1,10.65,10.65,0,0,1-6.56-1.17,9.51,9.51,0,0,1-2.46-1.94,8.12,8.12,0,0,1-1.56-2.56,6.49,6.49,0,0,1-.37-3,6.36,6.36,0,0,1,1-2.93A7.25,7.25,0,0,1,134.78,57a9,9,0,0,1,3.22-1.2A10.72,10.72,0,0,1,141.83,55.81Zm-2.57,13.84a6.68,6.68,0,0,0,2.48,0,5.54,5.54,0,0,0,2.1-.85,6,6,0,0,0,1.63-1.69,7.78,7.78,0,0,0,1-2.47,8,8,0,0,0,.21-2.79,5.64,5.64,0,0,0-.77-2.33,5.46,5.46,0,0,0-1.72-1.73,7,7,0,0,0-2.59-1,7.1,7.1,0,0,0-2.76,0,5.28,5.28,0,0,0-2.22,1,5.56,5.56,0,0,0-1.56,1.91,8.14,8.14,0,0,0-.8,2.69,7.56,7.56,0,0,0,.08,2.66,5.66,5.66,0,0,0,.91,2.14,5.38,5.38,0,0,0,1.65,1.53A6.85,6.85,0,0,0,139.26,69.65Z"/><path class="cls-4" d="M165.27,66.48a3.5,3.5,0,0,1-2,2,6.61,6.61,0,0,1-3.65.1c1.12,2.56,1.63,3.85,2.57,6.42a3.36,3.36,0,0,0,.79,1.31,7.83,7.83,0,0,0,1.32,1l-.29.67c-1.47-.63-2.21-.93-3.69-1.51-1-3-1.52-4.44-2.73-7.39a3.37,3.37,0,0,0-.33-.66,2,2,0,0,0-.4-.45,2.29,2.29,0,0,0-.56-.32c-.22-.09-.49-.19-.81-.29-.5,1.52-.74,2.28-1.24,3.79a5.44,5.44,0,0,0-.27,1.13,1.2,1.2,0,0,0,.15.79,1.83,1.83,0,0,0,.72.58,12,12,0,0,0,1.39.56l-.24.69c-2.74-.94-4.12-1.37-6.91-2.13l.2-.7a6.47,6.47,0,0,0,1.15.2,1.49,1.49,0,0,0,.76-.12,1.25,1.25,0,0,0,.51-.53,6,6,0,0,0,.4-1c1-3.42,1.57-5.13,2.61-8.54A6,6,0,0,0,155,61a1.28,1.28,0,0,0-.11-.72,1.36,1.36,0,0,0-.59-.5,8.25,8.25,0,0,0-1.11-.44l.2-.7c2.8.77,4.2,1.19,7,2.12a9.53,9.53,0,0,1,4.32,2.59A2.9,2.9,0,0,1,165.27,66.48Zm-9.44,0,1.48.48a6.39,6.39,0,0,0,3.34.4,2.59,2.59,0,0,0,1.84-1.79,2.56,2.56,0,0,0,0-2.38,4.35,4.35,0,0,0-2.39-1.54c-.81-.28-1.21-.41-2-.67-.25-.07-.41,0-.47.2C156.87,63.25,156.52,64.31,155.83,66.43Z"/><path class="cls-4" d="M172.05,72.67a14.61,14.61,0,0,0,1.87.78,4.09,4.09,0,0,0,1.34.24,1.75,1.75,0,0,0,1-.29,2.14,2.14,0,0,0,.66-.78l.71.38c-1,1.83-1.53,2.75-2.54,4.59l-.68-.36a2.47,2.47,0,0,0,.32-1,1.46,1.46,0,0,0-.26-.92,3.81,3.81,0,0,0-.94-1,10.81,10.81,0,0,0-1.78-1l-1.94,3.89a2.63,2.63,0,0,0-.31,1,1.39,1.39,0,0,0,.21.85,2.93,2.93,0,0,0,.81.8,12.92,12.92,0,0,0,1.42.85,11.67,11.67,0,0,0,1.74.75,3.55,3.55,0,0,0,1.39.2,2.63,2.63,0,0,0,1.2-.37,6.25,6.25,0,0,0,1.19-1l.71.41c-.9,1.23-1.34,1.85-2.23,3.09a91.91,91.91,0,0,0-11.52-5.79l.3-.67a6.86,6.86,0,0,0,1.12.37,1.56,1.56,0,0,0,.78,0,1.17,1.17,0,0,0,.58-.45,5.6,5.6,0,0,0,.55-1c1.54-3.23,2.31-4.85,3.84-8.08a5.33,5.33,0,0,0,.4-1,1.28,1.28,0,0,0,0-.73,1.32,1.32,0,0,0-.51-.59,10.5,10.5,0,0,0-1-.6l.3-.66a107,107,0,0,1,12.17,6.08l-1.54,3-.71-.4a3.32,3.32,0,0,0,.24-1.31,2.21,2.21,0,0,0-.36-1.09,4.33,4.33,0,0,0-1-1,13.47,13.47,0,0,0-1.75-1c-1.06-.55-1.59-.81-2.66-1.33q-.36-.16-.51.12C173.53,69.71,173,70.7,172.05,72.67Z"/><path class="cls-4" d="M170.56,201.76a.21.21,0,0,0,0,.07.5.5,0,0,0,.31.63,10.6,10.6,0,0,1,5.82,4.76,21.26,21.26,0,0,1,1.53,3.8l1.3,3.92a13.44,13.44,0,0,1,.65,2.53,14.11,14.11,0,0,1,0,1.95l-.28,8.55a.51.51,0,0,0,1,0l.28-8.55a13.33,13.33,0,0,0,0-2.09,13.56,13.56,0,0,0-.69-2.72l-1.29-3.92a22.41,22.41,0,0,0-1.62-4,11.62,11.62,0,0,0-6.37-5.21A.51.51,0,0,0,170.56,201.76Z"/><path class="cls-4" d="M170.29,201.83l0,.06a7.55,7.55,0,0,0,1.89,8l.33.3a4,4,0,0,1,.85.91,3.7,3.7,0,0,1,.28,1.92c-.21,5.29-1.72,9.11-4.49,11.37a19.41,19.41,0,0,1-4.07,2.32c-.58.27-1.15.54-1.72.83a25.34,25.34,0,0,0-10.77,10.51.49.49,0,0,0,.21.67.51.51,0,0,0,.68-.21s0,0,0,0a24.69,24.69,0,0,1,10.32-10.05c.55-.28,1.12-.55,1.69-.81a20.25,20.25,0,0,0,4.28-2.45c3-2.44,4.63-6.51,4.85-12.09a4.45,4.45,0,0,0-.41-2.45,5.09,5.09,0,0,0-1.05-1.16l-.32-.28a6.55,6.55,0,0,1-1.63-7,.51.51,0,0,0-.92-.41Z"/><path class="cls-4" d="M175.62,195.35a9.71,9.71,0,0,0-.93,5.91,19.9,19.9,0,0,0,1.88,5.41c.24.52.47,1,.68,1.52a.51.51,0,0,0,.66.27.5.5,0,0,0,.28-.65c-.22-.5-.46-1-.7-1.54a19,19,0,0,1-1.79-5.14,8.32,8.32,0,0,1,1.45-6.27c.2-.25.3-.28.33-.28s.17,0,.42.51A66.82,66.82,0,0,1,184,214.34a5.56,5.56,0,0,1,.06,2,5.88,5.88,0,0,1-.55,1.36l-3.24,6.43a.48.48,0,0,0,.23.66.48.48,0,0,0,.67-.22l3.24-6.43a6.86,6.86,0,0,0,.64-1.59,6.57,6.57,0,0,0-.05-2.38,67.73,67.73,0,0,0-6.2-19.53c-.14-.27-.54-1.1-1.36-1.07a1.52,1.52,0,0,0-1.1.66A7.5,7.5,0,0,0,175.62,195.35Z"/><path class="cls-4" d="M183.07,193.29a7.73,7.73,0,0,0-.66,1.68,17.53,17.53,0,0,0-.28,5.4c0,.51.06.88.09,1.24a8.29,8.29,0,0,1-.19,3.46.48.48,0,0,0,.34.61.51.51,0,0,0,.63-.33,9.34,9.34,0,0,0,.23-3.83c0-.35-.06-.71-.08-1.1a16.89,16.89,0,0,1,.24-5.2,5.45,5.45,0,0,1,2.45-3.45l1.78,8.19a10.26,10.26,0,0,1,.36,3.2,9.81,9.81,0,0,1-.88,2.86,24.07,24.07,0,0,1-1.36,2.56,19.81,19.81,0,0,0-1.82,3.72.49.49,0,0,0,.33.62.5.5,0,0,0,.64-.31,18.75,18.75,0,0,1,1.73-3.54,25.61,25.61,0,0,0,1.41-2.66,10.88,10.88,0,0,0,1-3.16,11.08,11.08,0,0,0-.38-3.5L186.7,191a.49.49,0,0,0-.25-.33.52.52,0,0,0-.42,0A5.73,5.73,0,0,0,183.07,193.29Z"/><path class="cls-4" d="M186.93,194.1a2.4,2.4,0,0,0-.11.23.49.49,0,0,0,.27.65.51.51,0,0,0,.66-.27c.36-.89,1.51-1.28,2.46-1.53,2.13-.57,3.58-.49,4.57.25.17.13.2.19.2.2s0,.13-.12.32a20.79,20.79,0,0,1-3,3.65,16.64,16.64,0,0,0-3.73,5.08.49.49,0,0,0,.29.64.5.5,0,0,0,.65-.29,16.06,16.06,0,0,1,3.54-4.76,22.38,22.38,0,0,0,3.11-3.84,1.47,1.47,0,0,0,.23-1,1.35,1.35,0,0,0-.58-.81c-1.65-1.23-3.9-.83-5.44-.42A4.61,4.61,0,0,0,186.93,194.1Z"/><path class="cls-4" d="M152.09,225.05a.48.48,0,0,0,0,.42.5.5,0,0,0,.66.27,21.07,21.07,0,0,0,6.33-4.47,23.9,23.9,0,0,1,5.54-4.16c1.12-.57,2.19-1.23,3.23-1.87l.26-.16a19.13,19.13,0,0,0,4.93-4.34.49.49,0,0,0-.08-.7.51.51,0,0,0-.71.09,18.41,18.41,0,0,1-4.68,4.11l-.26.16c-1,.63-2.08,1.28-3.16,1.83a24.85,24.85,0,0,0-5.77,4.32,19.88,19.88,0,0,1-6,4.28A.45.45,0,0,0,152.09,225.05Z"/><path class="cls-4" d="M147.06,217.35a44.83,44.83,0,0,0-2.68,6.39l-2,5.59a12.29,12.29,0,0,0-1,4.32c0,2.18,1.23,4.19,2.18,5.8l3.18,5.38a.51.51,0,0,0,.69.18.48.48,0,0,0,.19-.67L144.45,239c-.94-1.6-2-3.41-2-5.33a11.59,11.59,0,0,1,.92-4l2-5.59a31.27,31.27,0,0,1,5.5-10.58L158.56,203c.25-.34.51-.5.59-.49a1.59,1.59,0,0,1,.13.22,10.32,10.32,0,0,1-.19,8.85,20.56,20.56,0,0,1-1.49,2.4c-.4.58-.8,1.16-1.16,1.76a4.06,4.06,0,0,0-.72,2.35,4.57,4.57,0,0,0,.77,1.95,3.44,3.44,0,0,1,.65,1.6.5.5,0,0,0,.51.49.51.51,0,0,0,.5-.51,4.26,4.26,0,0,0-.78-2.08,3.74,3.74,0,0,1-.64-1.52,3.28,3.28,0,0,1,.58-1.78c.35-.59.74-1.15,1.12-1.71A22.07,22.07,0,0,0,160,212a11.29,11.29,0,0,0,.2-9.7,1.49,1.49,0,0,0-.46-.61c-.59-.42-1.38-.14-2,.71L150,212.91a46.72,46.72,0,0,0-2.71,4Z"/><path class="cls-4" d="M153.55,250a.44.44,0,0,0-.06.16.5.5,0,0,0,.43.56c3.62.54,7.39.9,10.21-1.18a12.94,12.94,0,0,0,2.31-2.37L175,236.71a39.16,39.16,0,0,0,6-8.81.49.49,0,0,0-.27-.65.5.5,0,0,0-.66.26,38.38,38.38,0,0,1-5.83,8.57l-8.54,10.43a12.34,12.34,0,0,1-2.13,2.2c-2.51,1.84-6,1.5-9.45,1A.5.5,0,0,0,153.55,250Z"/><path class="cls-4" d="M163.44,249.3a7.37,7.37,0,0,0-.78,2c-.59,7.92,1.51,15.06,3.74,22.63l.48,1.66a.51.51,0,0,0,.63.34.5.5,0,0,0,.35-.61l-.49-1.67c-2.2-7.47-4.27-14.54-3.71-22.28a7.73,7.73,0,0,1,1.45-2.69.49.49,0,0,0,0-.7.52.52,0,0,0-.72,0A6.43,6.43,0,0,0,163.44,249.3Z"/><path class="cls-4" d="M142,236.44a.75.75,0,0,0-.05.16,64.22,64.22,0,0,0-.51,10.41c.1,2.41.37,4.85.64,7.21L145.47,284a.51.51,0,0,0,1-.11l-3.39-29.78c-.27-2.34-.55-4.76-.64-7.14a63.14,63.14,0,0,1,.5-10.23.5.5,0,0,0-.43-.56A.51.51,0,0,0,142,236.44Z"/><path class="cls-4" d="M74.65,208.63l0,.06a.45.45,0,0,1-.25.6,9.66,9.66,0,0,0-5,4.67,19.82,19.82,0,0,0-1.18,3.56l-.95,3.66a11.24,11.24,0,0,0-.45,2.34,10.73,10.73,0,0,0,.08,1.79l.75,7.79a.46.46,0,0,1-.41.5.47.47,0,0,1-.51-.41l-.75-7.8a13.36,13.36,0,0,1-.09-1.91,13.06,13.06,0,0,1,.48-2.52l1-3.66a20.19,20.19,0,0,1,1.25-3.73,10.55,10.55,0,0,1,5.52-5.12A.46.46,0,0,1,74.65,208.63Z"/><path class="cls-4" d="M74.9,208.68l0,.06a6.89,6.89,0,0,1-1.26,7.44l-.29.29a3.57,3.57,0,0,0-.71.88,3.17,3.17,0,0,0-.15,1.77c.5,4.82,2.1,8.23,4.76,10.14a17.53,17.53,0,0,0,3.86,1.89c.54.21,1.08.43,1.61.66a23.29,23.29,0,0,1,10.46,9,.45.45,0,0,1-.15.62.47.47,0,0,1-.64-.14.06.06,0,0,0,0-.05,22.67,22.67,0,0,0-10-8.61c-.53-.23-1.06-.44-1.59-.65a18.45,18.45,0,0,1-4.06-2c-2.88-2.06-4.61-5.69-5.13-10.78a4,4,0,0,1,.23-2.26,4.73,4.73,0,0,1,.89-1.12l.27-.27a6,6,0,0,0,1.1-6.46.45.45,0,0,1,.23-.6A.47.47,0,0,1,74.9,208.68Z"/><path class="cls-4" d="M69.65,203.05a8.88,8.88,0,0,1,1.19,5.35,18,18,0,0,1-1.4,5.06c-.19.48-.37,1-.53,1.42a.46.46,0,0,1-.59.28.45.45,0,0,1-.29-.57c.17-.48.35-1,.54-1.45a17.49,17.49,0,0,0,1.35-4.8,7.66,7.66,0,0,0-1.69-5.65c-.2-.22-.29-.24-.32-.24s-.16,0-.36.49a61.27,61.27,0,0,0-4.46,17.94,5.13,5.13,0,0,0,.06,1.85,5.37,5.37,0,0,0,.58,1.21l3.34,5.69a.45.45,0,0,1-.17.62.46.46,0,0,1-.64-.16l-3.33-5.69a6.1,6.1,0,0,1-.68-1.43,5.85,5.85,0,0,1-.08-2.17,61.71,61.71,0,0,1,4.53-18.2c.1-.26.43-1,1.18-1a1.38,1.38,0,0,1,1,.54A6.93,6.93,0,0,1,69.65,203.05Z"/><path class="cls-4" d="M62.72,201.59a6.48,6.48,0,0,1,.71,1.5A16,16,0,0,1,64,208c0,.46,0,.8,0,1.13a7.72,7.72,0,0,0,.38,3.15.46.46,0,0,1-.28.59.47.47,0,0,1-.59-.27,8.63,8.63,0,0,1-.44-3.49c0-.32,0-.65,0-1a15.59,15.59,0,0,0-.51-4.74,5,5,0,0,0-2.45-3L59,207.94a9.4,9.4,0,0,0-.14,2.94,9.2,9.2,0,0,0,1,2.57,21.73,21.73,0,0,0,1.39,2.26,18.25,18.25,0,0,1,1.88,3.3.47.47,0,0,1-.26.59.47.47,0,0,1-.61-.26,17.05,17.05,0,0,0-1.78-3.13A22.46,22.46,0,0,1,59,213.85,9.91,9.91,0,0,1,57.89,211,10.51,10.51,0,0,1,58,207.8l1.24-8.15a.45.45,0,0,1,.21-.31.46.46,0,0,1,.38-.05A5.2,5.2,0,0,1,62.72,201.59Z"/><path class="cls-4" d="M59.24,202.55l.12.19a.46.46,0,0,1-.22.61.47.47,0,0,1-.62-.21c-.37-.79-1.45-1.08-2.33-1.26-2-.4-3.3-.24-4.16.48-.15.13-.17.19-.17.21s0,.11.13.27A19,19,0,0,0,54.92,206a15.29,15.29,0,0,1,3.71,4.44.45.45,0,0,1-.24.6.47.47,0,0,1-.61-.24,14.87,14.87,0,0,0-3.5-4.15,20.24,20.24,0,0,1-3.07-3.33,1.28,1.28,0,0,1-.27-.89,1.24,1.24,0,0,1,.48-.77c1.44-1.22,3.52-1,5-.69A4.18,4.18,0,0,1,59.24,202.55Z"/><path class="cls-4" d="M92.88,228.89a.45.45,0,0,1-.54.66,19,19,0,0,1-6-3.73A22.41,22.41,0,0,0,81,222.33c-1.06-.46-2.08-1-3.06-1.53l-.25-.13A17.85,17.85,0,0,1,72.92,217a.45.45,0,0,1,0-.64.47.47,0,0,1,.66,0,16.82,16.82,0,0,0,4.52,3.5l.24.13c1,.52,2,1.06,3,1.49a23.44,23.44,0,0,1,5.53,3.63,18.24,18.24,0,0,0,5.75,3.58A.39.39,0,0,1,92.88,228.89Z"/><path class="cls-4" d="M97,221.57a40.66,40.66,0,0,1,2.82,5.69l2.17,5a11.06,11.06,0,0,1,1.14,3.89,11.29,11.29,0,0,1-1.66,5.43l-2.59,5.09a.46.46,0,0,1-.62.2.45.45,0,0,1-.21-.61l2.59-5.09a10.41,10.41,0,0,0,1.56-5,10.25,10.25,0,0,0-1.06-3.58l-2.17-5a37.86,37.86,0,0,0-3-5.93,38.64,38.64,0,0,0-2.65-3.43l-7.67-9.2c-.25-.29-.5-.42-.57-.4a.54.54,0,0,0-.1.2,9.41,9.41,0,0,0,.68,8.08,18.14,18.14,0,0,0,1.51,2.1c.39.51.79,1,1.16,1.56a3.75,3.75,0,0,1,.79,2.1,4.17,4.17,0,0,1-.6,1.83,3.2,3.2,0,0,0-.49,1.49.46.46,0,0,1-.92.05,3.78,3.78,0,0,1,.59-1.95,3.35,3.35,0,0,0,.49-1.43,3,3,0,0,0-.63-1.59c-.35-.52-.74-1-1.13-1.5a21,21,0,0,1-1.58-2.21,10.35,10.35,0,0,1-.74-8.85,1.25,1.25,0,0,1,.38-.58c.52-.42,1.26-.21,1.87.53l7.68,9.2a39.24,39.24,0,0,1,2.71,3.5Z"/><path class="cls-4" d="M93,251.73c0,.05,0,.09.06.15a.47.47,0,0,1-.36.54c-3.28.69-6.7,1.23-9.4-.51a11.86,11.86,0,0,1-2.25-2l-8.41-9.05a35.8,35.8,0,0,1-6-7.72.46.46,0,0,1,.21-.61.47.47,0,0,1,.62.2,35.62,35.62,0,0,0,5.82,7.52l8.42,9a11.23,11.23,0,0,0,2.07,1.89c2.4,1.54,5.61,1,8.7.38A.47.47,0,0,1,93,251.73Z"/><path class="cls-4" d="M83.91,251.69a6.74,6.74,0,0,1,.84,1.76c1,7.2-.51,13.85-2.1,20.89l-.35,1.55a.46.46,0,0,1-.55.34.45.45,0,0,1-.36-.54l.35-1.55c1.57-6.95,3.06-13.52,2.09-20.57a7.24,7.24,0,0,0-1.47-2.38.44.44,0,0,1,0-.64.47.47,0,0,1,.65,0A5.27,5.27,0,0,1,83.91,251.69Z"/><path class="cls-4" d="M102.76,238.73a.47.47,0,0,1,.06.15,59.55,59.55,0,0,1,1.08,9.48c0,2.21-.07,4.46-.18,6.62l-1.37,27.42a.46.46,0,0,1-.48.43.47.47,0,0,1-.44-.48l1.37-27.41c.11-2.15.22-4.38.17-6.56a57.43,57.43,0,0,0-1.06-9.32.45.45,0,0,1,.37-.53A.47.47,0,0,1,102.76,238.73Z"/><path class="cls-5" d="M123.48,183.62s1.44-10.55-9.21-13.73L113,173.1l-1.88-.5c.5-1.23,1-2.46,1.49-3.69l-2.6-1.23S105.7,176.23,108,181l2.64,1.54s-1.14-5.31.18-8.41l1.56.46s-.68,7.34.81,8.91l2.09.46-.42-6.74a.91.91,0,0,1,.77-1.06.89.89,0,0,1,.69,1q.48,3.45,1,6.9l2.77.2-1-4.67c0-.52.26-.94.55-1s.88.35.94,1.09c.33,1.31.66,2.62,1,3.93C121.45,183.62,122.5,185.1,123.48,183.62Z"/><path class="cls-5" d="M108.53,166.56a33.14,33.14,0,0,0-2.74,12.7s-6.14-3.82-7.43-7.86c0,0-3-3.59-.17-7a6,6,0,0,0,1.5-3.74s-1.6-4.22,2-6.13a17.91,17.91,0,0,1,3.54-1.69,56.25,56.25,0,0,0,6.33-3.16,10.67,10.67,0,0,1,3.2-.48c.69.22.67,1.38-.37,2.41a40.09,40.09,0,0,1-3.72,1.75,6.87,6.87,0,0,0-2.13,3.3s-.18,1.33-2.35,2.32C106.17,159,103.55,164.6,108.53,166.56Z"/><path class="cls-5" d="M109.06,159.07s3.27,3.81,5.38,4.61c0,0,7.24,4,7.68,9.68,0,0-4.65-5.22-10.62-7a6.44,6.44,0,0,1-2.06-1,6.7,6.7,0,0,1-2.29-3.19,2.5,2.5,0,0,1,.07-1.36A2.9,2.9,0,0,1,109.06,159.07Z"/><path class="cls-5" d="M123.41,170.7s2.54,8.85,1.89,12.43c0,0,1.36,1,2-2.95a28.32,28.32,0,0,0-.15-3.94s1.31-2.31,2-.58l-.58,6.68,2.85-1.35s1.65-4.56-.18-8l-1.68-5.35-2.29,1s1.5,3,1.36,3.69-1.74,2.42-2.23.13l-.69-3.48Z"/><path class="cls-5" d="M120.78,166.08l2,2.9,8.3-4.11s2.67-2.94-.18-5.47Z"/><path class="cls-5" d="M123.3,162.31l-3.79,2.82s-3.36-3.75-5.61-4.2c0,0,4.41-5.3,10.39-1.35l1,1.06s.62,1.72-1,.6c0,0-2-1.63-3.32-1.3,0,0-1.56,1,.23,1.54Z"/><path class="cls-5" d="M122.77,148.78s2.19,2.3,2.37,3.51c0,0,2.9.2,3.65,1a6.36,6.36,0,0,1,2.56,3.92,6.4,6.4,0,0,1,2.34,6.59,8,8,0,0,1-2.56,2.69l2.07,6.06a24.37,24.37,0,0,1,.41,3,23.6,23.6,0,0,1-.05,3.9l4.11-3.61c.25-.44.5-.92.74-1.45s.5-1.19.68-1.73a7.29,7.29,0,0,0,2.86-6.47A11.27,11.27,0,0,0,141,164a10.7,10.7,0,0,0-1.75-2.32s2.3-5.36-2.45-8.43c0,0-4-2.18-5.07-1.27C131.73,152,129.92,148.12,122.77,148.78Z"/><path class="cls-5" d="M112.36,160l1.32-1.4-.48-1.91s.35-1.49,1.43-.47l1,1.31,3.18-1.23-.07-2.93s1.08-2.25,1.79-.2l-.13,3.09,3.84,1.06s.82-2.25,1.64-1.74.74,1.16-.08,2.6l1.73,1.85s3.66-1.84,1.06-4.91c0,0-.82-1.73-3.63-1.07,0,0-2.42-4.15-4-4.46l-.4-.08s-3.61-1.11-4.74,3.39a4,4,0,0,1-1.44,1,10.85,10.85,0,0,0-1.6.33,4.12,4.12,0,0,0-1.57.66,3,3,0,0,0-1,1.47l-.36,1.53Z"/><path class="cls-5" d="M117.8,234.16s.54-7.62,1.43-10c0,0,5.31-11.79,5.25-14.23,0,0,.22-8.81-1.13-11.19L120.21,193a9.14,9.14,0,0,1-9.17-4.72s-3-1-4.61-.52c0,0-15.27-1.53-7-12.27,0,0,2.34,4.93,6.41,6.52,0,0-1.5,2.5-1.1,3.5,0,0,1,2,3.21-2.5a35.56,35.56,0,0,0,10.68,3s-.52,3.84,1.06,4.21c0,0,1.59,1.07,1-4.12,0,0,9.53-1.89,10.88-3.08,0,0,1.47,2.5,2.48,2.65,0,0,2.36-.24-.74-3.61,0,0,6.34-4.57,6.91-7.1,0,0,3.61,2,2.1,7.75,0,0-3.53,5.62-8.48,5.07a39.25,39.25,0,0,1-4.24-.3s-2.79,1-2.86,1.87c0,0-2.36,3.15-4.2,3.54a36.19,36.19,0,0,1,3.92,11.46s-.24,10.53-2.45,13.5a21.76,21.76,0,0,0-2,3.92,41.67,41.67,0,0,0-2.5,12.4S119.62,235.19,117.8,234.16Z"/></g></g></svg>