<?xml version="1.0" encoding="utf-8"?>
<!-- Generator: Adobe Illustrator 24.0.3, SVG Export Plug-In . SVG Version: 6.00 Build 0)  -->
<svg version="1.1" id="Layer_1" xmlns="http://www.w3.org/2000/svg" xmlns:xlink="http://www.w3.org/1999/xlink" x="0px" y="0px"
	 viewBox="0 0 811.9 547" style="enable-background:new 0 0 811.9 547;" xml:space="preserve">
<style type="text/css">
	.st0{fill:none;stroke:#CD983F;stroke-width:0.71;stroke-miterlimit:10;}
</style>
<title>borde</title>
<g id="Layer_2_1_">
	<g id="หน้า6-ชื่อ_">
		<path class="st0" d="M9.1,470.8c-0.2-130-0.4-260.1-0.6-390.1c0-1.4,0.1-8.2,6-13.8c3.2-3.2,7.9-5.2,13-5.7h756.4
			c4.7,0.1,9.1,1.7,12.3,4.3c3.6,2.9,6,6.7,6.8,10.7v391.6c-0.4,3.6-1.8,7-4.1,10.1c-2.7,3.7-6.9,6.5-12,8.1H26.2
			c-4.5-0.8-8.6-2.8-11.5-5.6C11.9,477.5,10,474.2,9.1,470.8z"/>
		<path class="st0" d="M0.9,464.7L0.4,85.8c0-1.3,0.1-8,6.1-13.4c3.4-3.1,8.1-5.1,13.3-5.6H792c4.7,0.1,9.2,1.6,12.6,4.1
			c3.7,2.8,6.1,6.4,6.9,10.4v380.3c-0.4,3.5-1.8,6.8-4.2,9.8c-2.8,3.6-7.1,6.4-12.2,7.9H18.4c-4.6-0.8-8.7-2.7-11.8-5.4
			C3.8,471.3,1.8,468.1,0.9,464.7z"/>
	</g>
</g>
</svg>
