<svg xmlns="http://www.w3.org/2000/svg" xmlns:xlink="http://www.w3.org/1999/xlink" viewBox="0 0 102.83 102.92"><defs><style>.cls-1{fill:url(#radial-gradient);}.cls-2{fill:url(#radial-gradient-2);}.cls-3{fill:url(#radial-gradient-3);}.cls-4{fill:url(#radial-gradient-4);}.cls-5{fill:url(#radial-gradient-5);}.cls-6{fill:url(#radial-gradient-6);}.cls-7{fill:url(#radial-gradient-7);}.cls-8{fill:url(#radial-gradient-8);}.cls-9{fill:url(#radial-gradient-9);}.cls-10{fill:url(#radial-gradient-10);}.cls-11{fill:url(#radial-gradient-11);}.cls-12{fill:url(#radial-gradient-12);}.cls-13{fill:url(#radial-gradient-13);}.cls-14{fill:url(#radial-gradient-14);}.cls-15{fill:url(#radial-gradient-15);}.cls-16{fill:url(#radial-gradient-16);}.cls-17{fill:url(#radial-gradient-17);}.cls-18{fill:url(#radial-gradient-18);}.cls-19{fill:url(#radial-gradient-19);}.cls-20{fill:url(#radial-gradient-20);}.cls-21{fill:url(#radial-gradient-21);}.cls-22{fill:url(#radial-gradient-22);}.cls-23{fill:url(#radial-gradient-23);}.cls-24{fill:url(#radial-gradient-24);}.cls-25{fill:url(#radial-gradient-25);}.cls-26{fill:url(#radial-gradient-26);}.cls-27{fill:url(#radial-gradient-27);}.cls-28{fill:url(#radial-gradient-28);}.cls-29{fill:url(#radial-gradient-29);}.cls-30{fill:url(#radial-gradient-30);}.cls-31{fill:url(#radial-gradient-31);}.cls-32{fill:url(#radial-gradient-32);}.cls-33{fill:url(#radial-gradient-33);}.cls-34{fill:url(#radial-gradient-34);}.cls-35{fill:url(#radial-gradient-35);}.cls-36{fill:url(#radial-gradient-36);}.cls-37{fill:url(#radial-gradient-37);}.cls-38{fill:url(#radial-gradient-38);}.cls-39{fill:url(#radial-gradient-39);}.cls-40{fill:url(#radial-gradient-40);}.cls-41{fill:url(#radial-gradient-41);}.cls-42{fill:url(#radial-gradient-42);}.cls-43{fill:url(#radial-gradient-43);}.cls-44{fill:url(#radial-gradient-44);}.cls-45{fill:url(#radial-gradient-45);}.cls-46{fill:url(#radial-gradient-46);}.cls-47{fill:url(#radial-gradient-47);}.cls-48{fill:url(#radial-gradient-48);}.cls-49{fill:url(#radial-gradient-49);}.cls-50{fill:url(#radial-gradient-50);}.cls-51{fill:url(#radial-gradient-51);}.cls-52{fill:url(#radial-gradient-52);}.cls-53{fill:url(#radial-gradient-53);}.cls-54{fill:url(#radial-gradient-54);}.cls-55{fill:url(#radial-gradient-55);}.cls-56{fill:url(#radial-gradient-56);}.cls-57{fill:url(#radial-gradient-57);}.cls-58{fill:url(#radial-gradient-58);}.cls-59{fill:url(#radial-gradient-59);}.cls-60{fill:url(#radial-gradient-60);}.cls-61{fill:url(#radial-gradient-61);}.cls-62{fill:url(#radial-gradient-62);}.cls-63{fill:url(#radial-gradient-63);}.cls-64{fill:url(#radial-gradient-64);}.cls-65{fill:url(#radial-gradient-65);}.cls-66{fill:url(#radial-gradient-66);}.cls-67{fill:url(#radial-gradient-67);}.cls-68{fill:url(#radial-gradient-68);}.cls-69{fill:url(#radial-gradient-69);}.cls-70{fill:url(#radial-gradient-70);}.cls-71{fill:url(#radial-gradient-71);}.cls-72{fill:url(#radial-gradient-72);}.cls-73{fill:url(#radial-gradient-73);}.cls-74{fill:url(#radial-gradient-74);}.cls-75{fill:url(#radial-gradient-75);}.cls-76{fill:url(#radial-gradient-76);}.cls-77{fill:#fff;}.cls-78{fill:#d38d30;}</style><radialGradient id="radial-gradient" cx="-3420.61" cy="4050.4" r="18.36" gradientTransform="matrix(-0.71, 0.71, -0.71, -0.71, 519.09, 5322.26)" gradientUnits="userSpaceOnUse"><stop offset="0" stop-color="#141414"/><stop offset="0.16" stop-color="#171716"/><stop offset="0.3" stop-color="#22201c"/><stop offset="0.43" stop-color="#342e25"/><stop offset="0.56" stop-color="#4d4333"/><stop offset="0.69" stop-color="#6e5e44"/><stop offset="0.81" stop-color="#967f5a"/><stop offset="0.93" stop-color="#c4a673"/><stop offset="1" stop-color="#e5c185"/></radialGradient><radialGradient id="radial-gradient-2" cx="-1521.73" cy="259.8" r="18.35" gradientTransform="translate(1527.37 564.27) rotate(29.5)" xlink:href="#radial-gradient"/><radialGradient id="radial-gradient-3" cx="-3032.98" cy="4214.73" r="18.35" gradientTransform="translate(1332.95 5081.07) rotate(130.25)" xlink:href="#radial-gradient"/><radialGradient id="radial-gradient-4" cx="-1518.55" cy="262.63" r="18.36" gradientTransform="translate(1527.37 564.27) rotate(29.5)" xlink:href="#radial-gradient"/><radialGradient id="radial-gradient-5" cx="-2227.6" cy="4446.16" r="18.35" gradientTransform="matrix(-0.65, 0.76, -0.76, -0.65, 2029.47, 4620.79)" xlink:href="#radial-gradient"/><radialGradient id="radial-gradient-6" cx="-1515.88" cy="265.94" r="18.34" gradientTransform="translate(1527.37 564.27) rotate(29.5)" xlink:href="#radial-gradient"/><radialGradient id="radial-gradient-7" cx="-1395.55" cy="4541.76" r="18.35" gradientTransform="matrix(-0.76, -0.65, 0.65, -0.76, -3922.46, 2616.53)" xlink:href="#radial-gradient"/><radialGradient id="radial-gradient-8" cx="-1513.79" cy="269.65" r="18.31" gradientTransform="translate(1527.37 564.27) rotate(29.5)" xlink:href="#radial-gradient"/><radialGradient id="radial-gradient-9" cx="-557.51" cy="4498.52" r="18.35" gradientTransform="matrix(-0.76, -0.65, 0.65, -0.76, -3255.74, 3128.44)" xlink:href="#radial-gradient"/><radialGradient id="radial-gradient-10" cx="-1512.35" cy="273.66" r="18.27" gradientTransform="translate(1527.37 564.27) rotate(29.5)" xlink:href="#radial-gradient"/><radialGradient id="radial-gradient-11" cx="260.2" cy="4317.44" r="18.35" gradientTransform="translate(-2515.11 3523.56) rotate(-139.76)" xlink:href="#radial-gradient"/><radialGradient id="radial-gradient-12" cx="-1511.58" cy="277.85" r="18.21" gradientTransform="translate(1527.37 564.27) rotate(29.5)" xlink:href="#radial-gradient"/><radialGradient id="radial-gradient-13" cx="1037.1" cy="4004.72" r="18.35" gradientTransform="translate(-1721.82 3790.67) rotate(-139.75)" xlink:href="#radial-gradient"/><radialGradient id="radial-gradient-14" cx="-1511.52" cy="282.1" r="18.2" gradientTransform="translate(1527.37 564.27) rotate(29.5)" xlink:href="#radial-gradient"/><radialGradient id="radial-gradient-15" cx="1752.04" cy="3568.22" r="18.35" gradientTransform="translate(-896.61 3922.82) rotate(-139.75)" xlink:href="#radial-gradient"/><radialGradient id="radial-gradient-16" cx="-1512.16" cy="286.31" r="18.26" gradientTransform="translate(1527.37 564.27) rotate(29.5)" xlink:href="#radial-gradient"/><radialGradient id="radial-gradient-17" cx="2386.14" cy="3018.58" r="18.35" gradientTransform="translate(-60.65 3916.03) rotate(-139.75)" xlink:href="#radial-gradient"/><radialGradient id="radial-gradient-18" cx="-1513.48" cy="290.35" r="18.31" gradientTransform="translate(1527.37 564.27) rotate(29.5)" xlink:href="#radial-gradient"/><radialGradient id="radial-gradient-19" cx="2920.07" cy="2372.9" r="18.35" gradientTransform="matrix(-0.76, -0.65, 0.65, -0.76, 760.73, 3770.77)" xlink:href="#radial-gradient"/><radialGradient id="radial-gradient-20" cx="-1515.46" cy="294.13" r="18.34" gradientTransform="translate(1527.37 564.27) rotate(29.5)" xlink:href="#radial-gradient"/><radialGradient id="radial-gradient-21" cx="3340" cy="1648.17" r="18.35" gradientTransform="translate(1545.81 3490.88) rotate(-139.75)" xlink:href="#radial-gradient"/><radialGradient id="radial-gradient-22" cx="-1518.03" cy="297.52" r="18.35" gradientTransform="translate(1527.37 564.27) rotate(29.5)" xlink:href="#radial-gradient"/><radialGradient id="radial-gradient-23" cx="3634.16" cy="863.45" r="18.35" gradientTransform="matrix(-0.76, -0.65, 0.65, -0.76, 2273.37, 3083.45)" xlink:href="#radial-gradient"/><radialGradient id="radial-gradient-24" cx="-1521.12" cy="300.44" r="18.35" gradientTransform="translate(1527.37 564.27) rotate(29.5)" xlink:href="#radial-gradient"/><radialGradient id="radial-gradient-25" cx="3795.21" cy="41.11" r="18.35" gradientTransform="translate(2923.41 2560.52) rotate(-139.75)" xlink:href="#radial-gradient"/><radialGradient id="radial-gradient-26" cx="-1524.65" cy="302.81" r="18.33" gradientTransform="translate(1527.37 564.27) rotate(29.5)" xlink:href="#radial-gradient"/><radialGradient id="radial-gradient-27" cx="-1528.53" cy="304.57" r="18.29" gradientTransform="translate(1527.37 564.27) rotate(29.5)" xlink:href="#radial-gradient"/><radialGradient id="radial-gradient-28" cx="3702.15" cy="-1627.76" r="18.35" gradientTransform="matrix(0.65, -0.76, 0.76, 0.65, -1104.95, 3953.79)" xlink:href="#radial-gradient"/><radialGradient id="radial-gradient-29" cx="-1532.64" cy="305.66" r="18.24" gradientTransform="translate(1527.37 564.27) rotate(29.5)" xlink:href="#radial-gradient"/><radialGradient id="radial-gradient-30" cx="-1534.76" cy="305.95" r="18.21" gradientTransform="translate(1527.37 564.27) rotate(29.5)" xlink:href="#radial-gradient"/><radialGradient id="radial-gradient-31" cx="-1536.88" cy="306.06" r="18.18" gradientTransform="translate(1527.37 564.27) rotate(29.5)" xlink:href="#radial-gradient"/><radialGradient id="radial-gradient-32" cx="-1539.01" cy="306" r="18.2" gradientTransform="translate(1527.37 564.27) rotate(29.5)" xlink:href="#radial-gradient"/><radialGradient id="radial-gradient-33" cx="-1541.13" cy="305.76" r="18.23" gradientTransform="translate(1527.37 564.27) rotate(29.5)" xlink:href="#radial-gradient"/><radialGradient id="radial-gradient-34" cx="-1543.22" cy="305.34" r="18.26" gradientTransform="translate(1527.37 564.27) rotate(29.5)" xlink:href="#radial-gradient"/><radialGradient id="radial-gradient-35" cx="-1545.26" cy="304.76" r="18.28" gradientTransform="translate(1527.37 564.27) rotate(29.5)" xlink:href="#radial-gradient"/><radialGradient id="radial-gradient-36" cx="-1578.47" cy="499.24" r="17.06" gradientTransform="matrix(0.93, 0.53, -0.53, 0.93, 1768.16, 437.78)" xlink:href="#radial-gradient"/><radialGradient id="radial-gradient-37" cx="-1549.18" cy="303.09" r="18.33" gradientTransform="translate(1527.37 564.27) rotate(29.5)" xlink:href="#radial-gradient"/><radialGradient id="radial-gradient-38" cx="-1551.02" cy="302.01" r="18.34" gradientTransform="translate(1527.37 564.27) rotate(29.5)" xlink:href="#radial-gradient"/><radialGradient id="radial-gradient-39" cx="-1552.77" cy="300.79" r="18.35" gradientTransform="translate(1527.37 564.27) rotate(29.5)" xlink:href="#radial-gradient"/><radialGradient id="radial-gradient-40" cx="524.37" cy="-5263.06" r="18.35" gradientTransform="matrix(0.65, -0.76, 0.76, 0.65, 3704.54, 3860.8)" xlink:href="#radial-gradient"/><radialGradient id="radial-gradient-41" cx="-1555.92" cy="297.94" r="18.36" gradientTransform="translate(1527.37 564.27) rotate(29.5)" xlink:href="#radial-gradient"/><radialGradient id="radial-gradient-42" cx="-283.17" cy="-5488.79" r="18.35" gradientTransform="translate(4398.33 3385.75) rotate(-49.75)" xlink:href="#radial-gradient"/><radialGradient id="radial-gradient-43" cx="-1558.57" cy="294.6" r="18.34" gradientTransform="translate(1527.37 564.27) rotate(29.5)" xlink:href="#radial-gradient"/><radialGradient id="radial-gradient-44" cx="-1116.05" cy="-5577.08" r="18.35" gradientTransform="translate(-2724.54 5029.37) rotate(40.23)" xlink:href="#radial-gradient"/><radialGradient id="radial-gradient-45" cx="-1560.62" cy="290.88" r="18.31" gradientTransform="translate(1527.37 564.27) rotate(29.5)" xlink:href="#radial-gradient"/><radialGradient id="radial-gradient-46" cx="-1952.81" cy="-5527.58" r="18.35" gradientTransform="translate(-2053.89 5527.75) rotate(40.24)" xlink:href="#radial-gradient"/><radialGradient id="radial-gradient-47" cx="-1562.04" cy="286.86" r="18.27" gradientTransform="translate(1527.37 564.27) rotate(29.5)" xlink:href="#radial-gradient"/><radialGradient id="radial-gradient-48" cx="-2769.98" cy="-5340.32" r="18.35" gradientTransform="translate(-1308.35 5908.62) rotate(40.24)" xlink:href="#radial-gradient"/><radialGradient id="radial-gradient-49" cx="-1562.77" cy="282.67" r="18.21" gradientTransform="translate(1527.37 564.27) rotate(29.5)" xlink:href="#radial-gradient"/><radialGradient id="radial-gradient-50" cx="-3544.86" cy="-5021.22" r="18.35" gradientTransform="matrix(0.76, 0.65, -0.65, 0.76, -510.29, 6161.69)" xlink:href="#radial-gradient"/><radialGradient id="radial-gradient-51" cx="-1562.8" cy="278.41" r="18.21" gradientTransform="translate(1527.37 564.27) rotate(29.5)" xlink:href="#radial-gradient"/><radialGradient id="radial-gradient-52" cx="-4256.1" cy="-4578.51" r="18.35" gradientTransform="matrix(0.76, 0.65, -0.65, 0.76, 321.22, 6279.6)" xlink:href="#radial-gradient"/><radialGradient id="radial-gradient-53" cx="-1562.13" cy="274.21" r="18.26" gradientTransform="translate(1527.37 564.27) rotate(29.5)" xlink:href="#radial-gradient"/><radialGradient id="radial-gradient-54" cx="-4884.89" cy="-4024.33" r="18.35" gradientTransform="matrix(0.76, 0.65, -0.65, 0.76, 1162.15, 6259.82)" xlink:href="#radial-gradient"/><radialGradient id="radial-gradient-55" cx="-1560.77" cy="270.17" r="18.31" gradientTransform="translate(1527.37 564.27) rotate(29.5)" xlink:href="#radial-gradient"/><radialGradient id="radial-gradient-56" cx="-5413.67" cy="-3374.34" r="18.35" gradientTransform="matrix(0.76, 0.65, -0.65, 0.76, 1988.96, 6103.18)" xlink:href="#radial-gradient"/><radialGradient id="radial-gradient-57" cx="-1558.77" cy="266.42" r="18.34" gradientTransform="translate(1527.37 564.27) rotate(29.5)" xlink:href="#radial-gradient"/><radialGradient id="radial-gradient-58" cx="-5827.72" cy="-2645.34" r="18.35" gradientTransform="translate(2779.84 5811.94) rotate(40.25)" xlink:href="#radial-gradient"/><radialGradient id="radial-gradient-59" cx="-1556.17" cy="263.05" r="18.36" gradientTransform="translate(1527.37 564.27) rotate(29.5)" xlink:href="#radial-gradient"/><radialGradient id="radial-gradient-60" cx="-6115.98" cy="-1858.58" r="18.35" gradientTransform="translate(3512.2 5396.66) rotate(40.25)" xlink:href="#radial-gradient"/><radialGradient id="radial-gradient-61" cx="-1553.05" cy="260.15" r="18.35" gradientTransform="translate(1527.37 564.27) rotate(29.5)" xlink:href="#radial-gradient"/><radialGradient id="radial-gradient-62" cx="-1551.33" cy="258.9" r="18.34" gradientTransform="translate(1527.37 564.27) rotate(29.5)" xlink:href="#radial-gradient"/><radialGradient id="radial-gradient-63" cx="-1549.5" cy="257.8" r="18.33" gradientTransform="translate(1527.37 564.27) rotate(29.5)" xlink:href="#radial-gradient"/><radialGradient id="radial-gradient-64" cx="-1576.04" cy="486.98" r="17.07" gradientTransform="matrix(0.93, 0.53, -0.53, 0.94, 1775.9, 396.6)" xlink:href="#radial-gradient"/><radialGradient id="radial-gradient-65" cx="-1545.61" cy="256.08" r="18.29" gradientTransform="translate(1527.37 564.27) rotate(29.5)" xlink:href="#radial-gradient"/><radialGradient id="radial-gradient-66" cx="-1543.57" cy="255.46" r="18.26" gradientTransform="translate(1527.37 564.27) rotate(29.5)" xlink:href="#radial-gradient"/><radialGradient id="radial-gradient-67" cx="-1541.49" cy="255.02" r="18.24" gradientTransform="translate(1527.37 564.27) rotate(29.5)" xlink:href="#radial-gradient"/><radialGradient id="radial-gradient-68" cx="-1539.37" cy="254.75" r="18.21" gradientTransform="translate(1527.37 564.27) rotate(29.5)" xlink:href="#radial-gradient"/><radialGradient id="radial-gradient-69" cx="-1537.25" cy="254.65" r="18.18" gradientTransform="translate(1527.37 564.27) rotate(29.5)" xlink:href="#radial-gradient"/><radialGradient id="radial-gradient-70" cx="-1535.12" cy="254.73" r="18.21" gradientTransform="translate(1527.37 564.27) rotate(29.5)" xlink:href="#radial-gradient"/><radialGradient id="radial-gradient-71" cx="-1533" cy="254.99" r="18.24" gradientTransform="translate(1527.37 564.27) rotate(29.5)" xlink:href="#radial-gradient"/><radialGradient id="radial-gradient-72" cx="-1530.92" cy="255.42" r="18.26" gradientTransform="translate(1527.37 564.27) rotate(29.5)" xlink:href="#radial-gradient"/><radialGradient id="radial-gradient-73" cx="-1528.87" cy="256.03" r="18.29" gradientTransform="translate(1527.37 564.27) rotate(29.5)" xlink:href="#radial-gradient"/><radialGradient id="radial-gradient-74" cx="-1563.65" cy="488.14" r="17.07" gradientTransform="matrix(0.94, 0.53, -0.53, 0.94, 1806.45, 412.11)" xlink:href="#radial-gradient"/><radialGradient id="radial-gradient-75" cx="-1524.97" cy="257.73" r="18.33" gradientTransform="translate(1527.37 564.27) rotate(29.5)" xlink:href="#radial-gradient"/><radialGradient id="radial-gradient-76" cx="-529.95" cy="297.06" r="18.21" gradientTransform="matrix(0.98, 0.18, -0.16, 0.88, 618.65, -86.52)" xlink:href="#radial-gradient"/></defs><title>camera_tigger</title><g id="Layer_2" data-name="Layer 2"><g id="Layer_1-2" data-name="Layer 1"><rect class="cls-1" x="48.33" y="38.95" width="51.41" height="0.5" transform="translate(-9.74 39.87) rotate(-28.36)"/><path class="cls-2" d="M51.51,51.64l-.2-.46,3.08-1.34.2.46ZM55.36,50l-.2-.46.62-.27.2.46Zm1.08-.47-.2-.46,3.08-1.35.2.46Zm3.85-1.68-.2-.46.62-.27.2.46Zm1.08-.47-.2-.47,3.08-1.34.2.46Zm3.85-1.69-.2-.46.62-.27.2.47Zm1.08-.47-.2-.46,3.08-1.34.2.46Zm3.85-1.68L70,43l.61-.27.21.46ZM71.23,43l-.2-.46,3.08-1.35.2.46Zm3.85-1.68-.2-.46.61-.27.2.46Zm1.08-.47L76,40.42,79,39.07l.21.46ZM80,39.19l-.21-.46.62-.27.2.47Zm1.07-.47-.2-.46L84,36.92l.2.46ZM84.93,37l-.2-.46.62-.27.2.46ZM86,36.57l-.2-.46,3.08-1.35.2.46Zm3.85-1.68-.2-.46.62-.27.2.46Zm1.08-.47-.2-.46,3.08-1.35.2.46Zm3.85-1.69-.2-.46L95.2,32l.21.47Zm1.08-.47-.2-.46,2.76-1.2.2.46Z"/><rect class="cls-3" x="50.03" y="42.85" width="51.41" height="0.5" transform="translate(-9.87 26.79) rotate(-18.85)"/><path class="cls-4" d="M51.48,51.66l-.13-.49,3.26-.82.13.49Zm4.07-1-.12-.49.65-.16.12.49Zm1.14-.28-.12-.49L59.83,49l.12.49Zm4.08-1-.13-.49.66-.16.12.49ZM61.91,49l-.13-.49L65,47.73l.13.49ZM66,48l-.12-.49.65-.16.12.49Zm1.14-.28L67,47.24l3.26-.82.12.49Zm4.08-1-.13-.49.66-.16.12.49Zm1.14-.29-.12-.48,3.26-.82.12.49Zm4.07-1-.12-.49.65-.16.13.49Zm1.14-.29-.12-.49,3.26-.81.12.48Zm4.08-1-.12-.49.65-.16.12.49Zm1.14-.29-.12-.49,3.26-.81L86,43Zm4.08-1-.13-.49.65-.16.13.49ZM88,42.48,87.86,42l3.26-.82.13.49Zm4.07-1L91.94,41l.65-.16.12.48Zm1.14-.29-.12-.49,3.26-.82.12.49Zm4.08-1-.13-.49.66-.16.12.48Zm1.14-.29-.12-.49,2.92-.73.12.49Z"/><rect class="cls-5" x="51.07" y="46.98" width="51.41" height="0.5" transform="translate(-6.67 13.13) rotate(-9.37)"/><path class="cls-6" d="M51.43,51.66l0-.5,3.35-.27,0,.5Zm4.19-.33,0-.51.67,0,0,.5Zm1.17-.1,0-.5,3.35-.27,0,.5ZM61,50.89l0-.5.67,0,0,.5Zm1.18-.09,0-.5L65.47,50l0,.5Zm4.18-.34,0-.5.67-.05,0,.5Zm1.18-.09,0-.5,3.35-.27,0,.5ZM71.7,50l0-.5.67-.06,0,.51Zm1.18-.09,0-.51,3.35-.27,0,.51Zm4.18-.34,0-.5.67-.06,0,.5Zm1.18-.1,0-.5,3.35-.27,0,.5Zm4.19-.33-.05-.51.67,0,0,.5Zm1.17-.1,0-.5,3.35-.27,0,.5Zm4.19-.34,0-.5.67,0,0,.5ZM89,48.64l0-.5,3.35-.27,0,.5Zm4.19-.34,0-.5.67,0,0,.5Zm1.17-.09,0-.5,3.35-.27,0,.5Zm4.19-.34,0-.5.67-.06,0,.51Zm1.17-.09,0-.51,3-.24,0,.5Z"/><rect class="cls-7" x="76.87" y="25.77" width="0.5" height="51.41" transform="translate(25.45 128.47) rotate(-89.85)"/><path class="cls-8" d="M51.39,51.66l0-.5,3.34.29,0,.5Zm4.19.36,0-.5.67.06,0,.5Zm1.17.1,0-.5,3.35.29,0,.5Zm4.19.36,0-.5.67.06,0,.5Zm1.17.1,0-.5,3.35.28,0,.51Zm4.19.36,0-.5.67.05L67,53Zm1.17.1,0-.5,3.35.28,0,.51Zm4.18.36,0-.51.67.06-.05.5Zm1.18.1,0-.5,3.35.28,0,.5Zm4.18.36,0-.51.66.06,0,.5Zm1.17.1,0-.51,3.35.29,0,.5Zm4.19.35,0-.5.67.06,0,.5Zm1.17.1,0-.5,3.34.29,0,.5Zm4.19.36,0-.5.67.06,0,.5Zm1.17.1,0-.5,3.35.29,0,.5Zm4.19.36,0-.5.67.06,0,.5Zm1.17.1,0-.5,3.35.29,0,.5Zm4.19.36,0-.5.67.05,0,.51Zm1.17.1,0-.5,3,.25,0,.51Z"/><rect class="cls-9" x="76.51" y="30.01" width="0.5" height="51.41" transform="translate(8.98 122.07) rotate(-80.36)"/><path class="cls-10" d="M51.35,51.66l.13-.49,3.25.83-.12.49Zm4.07,1,.13-.49.65.17-.13.49Zm1.14.29.13-.49,3.25.84-.12.49Zm4.07,1,.13-.49.65.17-.13.48Zm1.14.29.13-.49,3.25.84-.12.48Zm4.07,1,.12-.48.66.16-.13.49Zm1.14.3.12-.49,3.26.83-.13.49Zm4.07,1,.12-.49.66.17-.13.49Zm1.14.29.12-.49,3.26.84-.13.49Zm4.07,1,.12-.49.65.16-.12.49Zm1.14.29.12-.49,3.26.84-.13.48Zm4.07,1,.12-.49.65.17-.12.49Zm1.14.29.12-.48L86,60l-.13.49Zm4.07,1,.12-.49.65.17-.12.49Zm1.14.29.12-.49,3.26.84-.13.49Zm4.07,1.05.12-.49.65.16-.12.49Zm1.14.29.12-.49,3.26.83-.13.49Zm4.07,1,.12-.49.65.17-.12.49Zm1.13.29.13-.48,2.92.74-.13.49Z"/><rect class="cls-11" x="75.45" y="34.13" width="0.5" height="51.41" transform="translate(-5.66 111.73) rotate(-70.85)"/><path class="cls-12" d="M51.31,51.64l.21-.46,3.07,1.36-.2.46Zm3.84,1.7.21-.46.61.28-.2.46Zm1.08.48.2-.46,3.08,1.36-.21.46Zm3.84,1.7.21-.46.61.27-.2.46Zm1.08.48.2-.46,3.07,1.36-.2.46ZM65,57.7l.2-.46.62.27L65.6,58Zm1.07.48.21-.47,3.07,1.37-.2.46Zm3.85,1.7.2-.46.61.27-.2.46Zm1.07.47.21-.46,3.07,1.36-.21.46Zm3.84,1.7.21-.46.61.28-.2.46Zm1.08.48.2-.46,3.08,1.36-.21.46Zm3.84,1.7.2-.46.62.27-.2.46Zm1.08.48.2-.46,3.07,1.36-.2.46Zm3.84,1.7.2-.46.62.27-.21.46Zm1.07.48.21-.46L89,67.79l-.2.46Zm3.84,1.7.21-.46.61.27-.2.46Zm1.08.47.2-.46L93.93,70l-.21.47Zm3.84,1.71.21-.47.61.28-.2.46Zm1.08.47.2-.46L98.53,72l-.21.46Z"/><rect class="cls-13" x="73.72" y="38.02" width="0.5" height="51.41" transform="translate(-17.41 98.11) rotate(-61.36)"/><path class="cls-14" d="M94.21,79.91l-2.52-1.65.28-.43,2.51,1.66ZM91.27,78l-.56-.37.28-.42.56.37ZM90,77.15,87.2,75.3l.28-.42,2.8,1.84ZM86.78,75l-.56-.37.28-.42.56.37Zm-1.26-.83-2.81-1.85.28-.42,2.8,1.85Zm-3.23-2.13-.56-.37.27-.42.57.37ZM81,71.23l-2.81-1.85L78.5,69l2.8,1.85ZM77.8,69.1l-.56-.37.27-.42.57.37Zm-1.27-.83-2.8-1.85L74,66l2.8,1.85Zm-3.22-2.13-.56-.37.27-.42.56.37ZM72,65.31l-2.8-1.85.28-.42,2.8,1.85Zm-3.22-2.13-.56-.37.27-.42.56.37Zm-1.27-.83-2.8-1.85.27-.42,2.81,1.85Zm-3.22-2.13-.57-.37.28-.42.56.37Zm-1.27-.83-2.8-1.85.27-.42L63.34,59Zm-3.22-2.13-.57-.37.28-.42.56.37Zm-1.27-.83-2.8-1.85.27-.42L58.85,56ZM55.34,54.3l-.56-.37.28-.42.56.37Zm-1.26-.83-2.8-1.85.27-.42,2.81,1.85Z"/><rect class="cls-15" x="71.38" y="41.58" width="0.5" height="51.41" transform="translate(-25.52 82.08) rotate(-51.87)"/><path class="cls-16" d="M88.92,86.58l-2.21-2,.34-.37,2.21,2Zm-2.58-2.39-.49-.46.34-.37.49.46Zm-1.11-1-2.46-2.29.34-.37,2.46,2.29ZM82.4,80.53l-.49-.46.34-.37.49.46Zm-1.11-1-2.46-2.29.34-.36,2.46,2.28Zm-2.83-2.63L78,76.41l.34-.37.49.46Zm-1.11-1-2.46-2.29.34-.36,2.46,2.28Zm-2.83-2.63L74,72.75l.34-.37.49.46Zm-1.11-1L71,69.9l.34-.37,2.46,2.28Zm-2.83-2.63-.5-.46.35-.36.49.45Zm-1.11-1L67,66.24l.34-.37,2.46,2.28Zm-2.83-2.63-.5-.45.35-.37.49.45Zm-1.11-1-2.47-2.28.35-.37,2.46,2.28ZM62.7,62.23l-.5-.45.35-.37.49.45Zm-1.11-1-2.47-2.28.35-.37,2.46,2.28Zm-2.84-2.63-.49-.45.35-.37.49.45Zm-1.1-1-2.47-2.28.35-.37L58,57.17Zm-2.84-2.63-.49-.45.34-.37.5.45Zm-1.1-1L51.24,51.6l.35-.37,2.46,2.29Z"/><rect class="cls-17" x="68.49" y="44.7" width="0.5" height="51.41" transform="translate(-29.49 64.71) rotate(-42.37)"/><path class="cls-18" d="M82.6,92.29,80.76,89.9l.4-.3L83,92ZM80.45,89.5,80,89l.4-.31.41.54Zm-.92-1.19-2-2.67.4-.3L79.93,88Zm-2.36-3.07-.41-.53.4-.31.41.54Zm-.92-1.19-2.06-2.67.4-.3,2.06,2.66ZM73.89,81l-.41-.53.4-.31.41.54ZM73,79.79l-2-2.67.4-.3,2,2.66ZM70.6,76.73l-.41-.54.4-.31.41.54Zm-.92-1.2-2.05-2.67.4-.3,2,2.66Zm-2.36-3.06-.41-.54.4-.3.41.53Zm-.92-1.2-2.05-2.66.4-.31,2,2.66ZM64,68.21l-.41-.54.4-.3.41.53ZM63.11,67l-2-2.66.4-.31,2,2.66ZM60.76,64l-.42-.54.4-.3.41.53Zm-.93-1.2-2-2.66.4-.31,2,2.66Zm-2.36-3.06-.41-.54.4-.3.41.53Zm-.92-1.2-2-2.66.4-.31L57,58.18Zm-2.36-3.06-.41-.54.4-.3.41.53Zm-.92-1.2-2.06-2.66.4-.31,2.06,2.66Z"/><rect class="cls-19" x="65.11" y="47.3" width="0.5" height="51.41" transform="translate(-29.16 47.17) rotate(-32.87)"/><path class="cls-20" d="M75.43,96.88,74,94.22l.44-.24,1.42,2.66Zm-1.66-3.11-.32-.59.45-.24.31.6Zm-.71-1.33-1.59-3,.45-.24,1.58,3ZM71.23,89l-.31-.59.44-.24.32.59Zm-.71-1.33-1.58-3,.44-.24,1.59,3ZM68.7,84.29l-.32-.6.45-.23.31.59ZM68,83,66.4,80l.45-.24,1.58,3Zm-1.83-3.41L65.85,79l.44-.24.32.6Zm-.71-1.33-1.58-3,.44-.24,1.59,3ZM63.63,74.8l-.32-.59.45-.24.31.59Zm-.71-1.33-1.59-3,.45-.23,1.58,3Zm-1.83-3.41-.31-.59.44-.24.32.59Zm-.71-1.34-1.58-3,.44-.24,1.59,3Zm-1.82-3.4-.32-.6.45-.23.31.59ZM57.85,64l-1.59-3,.45-.24,1.58,3ZM56,60.57,55.71,60l.44-.24.32.6Zm-.71-1.33-1.58-3,.44-.23,1.59,3Zm-1.82-3.41-.32-.59.45-.24.31.59Zm-.71-1.33-1.59-3,.45-.24,1.58,3Z"/><rect class="cls-21" x="61.36" y="49.3" width="0.5" height="51.41" transform="translate(-24.7 30.6) rotate(-23.37)"/><path class="cls-22" d="M67.6,100.21l-1-2.85.48-.16,1,2.85Zm-1.13-3.33-.21-.64.48-.16.21.64ZM66,95.45l-1.07-3.19.47-.16,1.08,3.19Zm-1.24-3.66-.21-.64L65,91l.21.63Zm-.48-1.44L63.2,87.17l.48-.16,1.07,3.18ZM63,86.69l-.22-.64.48-.16.22.64Zm-.49-1.43-1.07-3.19.48-.16L63,85.09Zm-1.23-3.67L61.11,81l.47-.17.22.64Zm-.48-1.43L59.76,77l.48-.16L61.31,80ZM59.6,76.5l-.21-.64.48-.16.21.64Zm-.48-1.44-1.07-3.18.47-.16L59.6,74.9ZM57.88,71.4l-.21-.64.48-.16.21.64ZM57.4,70l-1.07-3.19.48-.16,1.07,3.19ZM56.17,66.3,56,65.67l.48-.16.21.63Zm-.49-1.43-1.07-3.18.48-.17,1.07,3.19Zm-1.23-3.66-.22-.64.48-.16.22.64ZM54,59.77l-1.08-3.18.48-.16,1.07,3.18Zm-1.24-3.66-.21-.64.47-.16.22.64Zm-.48-1.43-1.07-3.19.47-.16,1.08,3.19Z"/><rect class="cls-23" x="57.33" y="50.66" width="0.5" height="51.41" transform="translate(-16.64 16.04) rotate(-13.88)"/><path class="cls-24" d="M59.32,102.22l-.48-3,.5-.08.48,3Zm-.56-3.48-.1-.66.49-.08.11.66Zm-.24-1.49L58,93.93l.5-.08L59,97.17Zm-.61-3.82-.11-.66.5-.08.11.66Zm-.24-1.49-.53-3.32.49-.08.54,3.32Zm-.61-3.82L57,87.46l.5-.08.1.66Zm-.24-1.49-.54-3.32.5-.08.53,3.32Zm-.62-3.82-.1-.66.5-.08.1.66ZM56,81.32,55.43,78l.5-.08.53,3.32Zm-.61-3.82-.11-.66.5-.08.11.66ZM55.11,76l-.53-3.32.5-.08.53,3.32Zm-.61-3.82-.11-.66.5-.08.11.66Zm-.24-1.49-.54-3.32.5-.08.54,3.32Zm-.62-3.82-.1-.66.5-.08.1.66Zm-.24-1.49-.53-3.32.5-.08.53,3.32Zm-.61-3.82-.11-.66.5-.08.11.66Zm-.24-1.49L52,56.76l.5-.08L53.05,60Zm-.61-3.82-.11-.66.5-.08.11.66Zm-.24-1.49-.54-3.32.5-.08.54,3.32Z"/><rect class="cls-25" x="53.12" y="51.34" width="0.5" height="51.41" transform="translate(-5.73 4.3) rotate(-4.38)"/><path class="cls-26" d="M50.83,102.82l0-3h.5l0,3Zm0-3.51v-.67h.5v.67Zm0-1.52,0-3.36h.51l0,3.36Zm0-3.86v-.67h.51v.67Zm0-1.51,0-3.36h.5l0,3.36Zm0-3.87v-.67h.5v.67Zm0-1.51,0-3.36h.51l0,3.36Zm0-3.87V82.5h.51v.68Zm0-1.51,0-3.36h.5l0,3.36Zm0-3.86v-.68h.5v.67Zm0-1.52,0-3.36h.51l0,3.36Zm0-3.86v-.67h.5v.67Zm0-1.51,0-3.37h.5l0,3.36Zm0-3.87v-.67h.5V67Zm0-1.51,0-3.36h.51l0,3.36Zm0-3.87V61h.5v.68Zm0-1.51,0-3.36h.5l0,3.36Zm0-3.87v-.67h.51v.67Zm0-1.51,0-3.36h.51l0,3.37Z"/><path class="cls-27" d="M42.35,102l.52-3,.5.09-.52,3ZM43,98.56l.11-.66.5.08-.12.66Zm.26-1.49.57-3.31.5.08-.58,3.31Zm.66-3.81L44,92.6l.5.08-.11.67Zm.26-1.49.57-3.31.5.08-.58,3.32ZM44.8,88l.12-.66.49.09-.11.66Zm.26-1.49.58-3.31.49.09-.57,3.31Zm.66-3.81.12-.66.49.09-.11.66ZM46,81.17l.58-3.31.49.09-.57,3.31Zm.66-3.81.12-.66.5.09-.12.66Zm.26-1.49.58-3.31.5.09L47.4,76Zm.67-3.8.11-.67.5.09-.12.66Zm.25-1.49.58-3.32.5.09-.58,3.31Zm.67-3.81.11-.66.5.08-.12.66Zm.26-1.49L49.32,62l.5.08-.58,3.31Zm.66-3.81.11-.66.5.08-.11.67ZM49.67,60l.57-3.31.5.08-.58,3.32Zm.66-3.81.12-.66.49.08-.11.67Zm.26-1.49.58-3.31.49.09-.57,3.31Z"/><rect class="cls-28" x="19.22" y="76.04" width="51.41" height="0.5" transform="translate(-40.23 100.51) rotate(-75.38)"/><path class="cls-29" d="M34.13,99.83l1-2.84.47.17-1,2.84Zm1.16-3.31.23-.64.47.17-.22.63Zm.51-1.43,1.11-3.17.48.17-1.12,3.17Zm1.28-3.65.22-.63.48.17-.23.63Zm.5-1.42,1.11-3.18.48.17-1.12,3.17Zm1.28-3.65.22-.64.48.17-.22.64Zm.5-1.43,1.12-3.17.47.17-1.11,3.17Zm1.28-3.64.23-.64.47.17-.22.63Zm.51-1.43,1.11-3.17.48.16L41.62,80Zm1.28-3.65.22-.63.48.16-.23.64Zm.5-1.43L44,71.62l.48.17L43.4,75Zm1.28-3.64.22-.64.48.17-.22.64Zm.5-1.43,1.12-3.17.47.17-1.11,3.17ZM46,66.07l.23-.63.47.17-.22.63Zm.5-1.42,1.12-3.17.48.16L47,64.81ZM47.78,61l.22-.63.48.16-.23.64Zm.5-1.43,1.11-3.17.48.17-1.12,3.17Zm1.28-3.64.22-.64.48.17-.22.63Zm.5-1.43,1.12-3.17.47.17-1.11,3.17Z"/><path class="cls-30" d="M30.18,98.24l1.23-2.75.46.2-1.23,2.75ZM31.62,95l.27-.62.46.21-.27.61Zm.61-1.38,1.38-3.07.46.2-1.38,3.07Zm1.58-3.53.28-.62.46.21-.28.61Zm.62-1.38,1.37-3.07.46.21-1.37,3.06ZM36,85.21l.27-.61.46.2-.27.62Zm.62-1.38L38,80.76l.46.21L37.09,84Zm1.58-3.53.27-.61.46.2-.27.62Zm.61-1.38,1.38-3.07.46.21-1.38,3.07Zm1.58-3.53.28-.61.46.2-.28.62ZM41,74l1.38-3.07.46.21-1.38,3.07Zm1.58-3.53.28-.61.46.21-.28.61Zm.62-1.38L44.59,66l.46.2-1.37,3.07Zm1.58-3.52.27-.62.46.21-.27.61Zm.62-1.39,1.37-3.06.46.2L45.88,64.4ZM47,60.67l.27-.62.46.21-.27.61Zm.61-1.38L49,56.22l.46.2-1.38,3.07Zm1.58-3.53.28-.62.46.21-.28.61Zm.62-1.38,1.37-3.07.46.21-1.37,3.06Z"/><path class="cls-31" d="M26.37,96.32l1.46-2.64.44.24-1.45,2.64Zm1.7-3.08.33-.59.44.24-.33.59Zm.73-1.33L30.42,89l.45.24-1.63,3Zm1.87-3.38.32-.59.44.24-.32.59Zm.73-1.33L33,84.26l.44.24-1.62,3Zm1.86-3.38.33-.59.44.24-.32.59ZM34,82.49l1.63-2.94.44.24-1.62,2.95Zm1.87-3.38.32-.59.45.24-.33.59Zm.73-1.33,1.62-2.94.44.24L37,78Zm1.87-3.38.32-.59.44.24-.32.59Zm.73-1.33,1.62-2.94.44.24-1.62,2.95Zm1.86-3.38.33-.59.44.24-.33.59Zm.73-1.33,1.62-2.94.45.24-1.63,3ZM43.65,65l.32-.59.44.24-.32.59Zm.73-1.33L46,60.71l.44.24L44.82,63.9Zm1.86-3.38.33-.59.44.24-.32.59ZM47,58.94,48.6,56l.44.24-1.62,2.95Zm1.87-3.38.32-.59.45.24-.33.59Zm.73-1.33,1.62-2.94.44.24L50,54.48Z"/><path class="cls-32" d="M23.16,94.37l-.42-.28,1.67-2.51.42.28Zm1.95-2.93-.42-.28.37-.56.42.28ZM26,90.18l-.42-.28,1.86-2.8.42.28ZM28.09,87l-.42-.28.37-.56.42.28Zm.83-1.26-.42-.28,1.86-2.8.42.28Zm2.14-3.22-.42-.28.38-.56.42.28Zm.84-1.26-.42-.28,1.86-2.79.42.27ZM34,78l-.42-.27.37-.56.42.28Zm.84-1.25-.42-.28,1.86-2.8.42.28ZM37,73.53l-.42-.28.37-.56.42.28Zm.83-1.26L37.44,72l1.86-2.8.42.28ZM40,69.05l-.42-.28.38-.56.42.28Zm.84-1.26-.42-.28,1.86-2.8.42.28ZM43,64.57l-.42-.28.37-.56.42.28Zm.84-1.26L43.39,63l1.86-2.8.42.28ZM46,60.09l-.42-.28.37-.56.42.28Zm.84-1.26-.42-.28,1.86-2.8.42.28Zm2.14-3.22-.42-.28.37-.56.42.28Zm.83-1.26-.42-.28,1.86-2.8.42.28Z"/><path class="cls-33" d="M19.7,91.88l-.39-.31,1.87-2.36.39.31Zm2.19-2.75-.4-.32.42-.52.39.31Zm.93-1.19-.39-.31L24.52,85l.39.31Zm2.4-3-.39-.31.42-.53.39.31Zm.94-1.19-.39-.31,2.08-2.64.4.32Zm2.4-3-.39-.31.41-.53.4.32Zm.94-1.18-.4-.32,2.09-2.63.4.31Zm2.4-3-.4-.32.42-.52.4.31Zm.94-1.19-.4-.31,2.09-2.64.39.31Zm2.4-3-.4-.31.42-.53.39.31Zm.94-1.19-.4-.31,2.09-2.64.39.32Zm2.39-3-.39-.31.42-.53.39.31Zm.94-1.18-.39-.32,2.08-2.63.4.31Zm2.4-3-.39-.31.41-.53.4.32Zm.94-1.18-.4-.31,2.09-2.64.4.31Zm2.4-3-.4-.32.42-.52.4.31Zm.94-1.19-.4-.31,2.09-2.64.39.32Zm2.4-3-.4-.31.42-.53.39.31Zm.94-1.19-.4-.31,2.09-2.63.39.31Z"/><path class="cls-34" d="M16.46,89.12l-.37-.35,2.06-2.19.37.34Zm2.4-2.57-.36-.34.46-.49.36.34Zm1-1.1-.37-.35,2.3-2.45.37.34Zm2.64-2.82-.37-.35.46-.49.37.35Zm1-1.11-.36-.34,2.29-2.46.37.35Zm2.65-2.82-.37-.34.46-.5.37.35Zm1-1.1-.37-.35,2.3-2.45.37.34Zm2.64-2.83-.37-.34.46-.49.37.34Zm1-1.1-.36-.35,2.29-2.45.37.35Zm2.65-2.82-.37-.35.46-.49.37.35Zm1-1.11-.37-.34,2.3-2.46.37.35Zm2.64-2.82-.37-.34.46-.49.37.34Zm1-1.1-.37-.35L40.2,63l.37.34ZM40.92,63l-.37-.35.46-.49.37.34Zm1-1.11-.37-.34,2.3-2.46.37.35Zm2.64-2.82-.37-.35.46-.49.37.35Zm1-1.11-.37-.34,2.29-2.45.37.34Zm2.64-2.82-.37-.34.46-.49.37.34Zm1-1.1-.37-.35,2.3-2.45.37.34Z"/><path class="cls-35" d="M13.46,86.1l-.34-.38,2.24-2,.33.38Zm2.61-2.36-.34-.38.5-.45.34.38Zm1.12-1-.34-.37,2.49-2.26.34.38Zm2.87-2.59-.34-.38.5-.45.33.38Zm1.12-1-.34-.37,2.49-2.26.34.38ZM24,76.52l-.34-.37.5-.45.34.37Zm1.12-1-.33-.38,2.49-2.25.34.37ZM28,72.91l-.34-.37.5-.45.34.37Zm1.12-1-.34-.38,2.5-2.25.33.37ZM32,69.3l-.34-.37.5-.45.34.37Zm1.12-1-.34-.38,2.49-2.25.34.37ZM36,65.69l-.34-.37.5-.45.33.37Zm1.12-1-.34-.37,2.49-2.26.34.37ZM40,62.09l-.33-.38.49-.45.34.38Zm1.13-1-.34-.37,2.49-2.26.34.38ZM44,58.48l-.34-.38.5-.45.34.38Zm1.12-1-.34-.37,2.5-2.26.34.38ZM48,54.87l-.34-.37.5-.46.34.38Zm1.12-1-.34-.37,2.49-2.25.34.37Z"/><path class="cls-36" d="M10.86,82.59l-.33-.43.57-.44.33.43Zm1.28-1-.33-.43L14.67,79l.33.43Zm3.29-2.5-.33-.43.57-.43.33.42Zm1.28-1-.33-.43,2.86-2.17.33.43ZM20,75.63l-.33-.43.57-.43.33.43Zm1.28-1L21,74.23l2.86-2.18.33.43Zm3.29-2.5-.33-.43.57-.44.33.43Zm1.28-1-.33-.43,2.86-2.17.33.43Zm3.29-2.5-.33-.43.57-.43.33.43Zm1.28-1-.33-.43L33,65.1l.33.43Zm3.29-2.5-.33-.43.57-.43.33.43Zm1.28-1-.33-.43,2.86-2.18.33.43Zm3.29-2.5L38,61.3l.57-.44.33.43Zm1.28-1-.33-.43,2.86-2.17.33.43Zm3.29-2.5-.33-.43.57-.43.33.43Zm1.28-1-.33-.43,2.86-2.17.33.43Zm3.29-2.5-.33-.42.57-.44.33.43Zm1.28-1-.33-.43,2.86-2.17.33.42Z"/><path class="cls-37" d="M8.26,79.36,8,78.93l2.53-1.62.27.42Zm3-1.9L11,77l.56-.37.27.43Zm1.27-.81-.27-.43,2.83-1.81.27.42Zm3.26-2.09-.28-.42.57-.37.27.43ZM17,73.74l-.27-.42,2.83-1.81.27.42Zm3.26-2.08L20,71.23l.57-.36.27.43Zm1.27-.82-.27-.42,2.83-1.81.27.42Zm3.25-2.08-.27-.43L25.1,68l.27.43Zm1.28-.82-.27-.42,2.83-1.82.27.43Zm3.25-2.08-.27-.43.57-.36.27.42ZM30.61,65l-.28-.42,2.83-1.82.28.43ZM33.86,63l-.27-.43.56-.36.28.42Zm1.27-.82-.27-.42,2.83-1.82.27.43Zm3.26-2.08-.27-.43.56-.36.28.42Zm1.27-.82-.27-.42L42.22,57l.27.43Zm3.26-2.09-.27-.42.56-.36.27.42Zm1.27-.81-.27-.43,2.83-1.81.27.43Zm3.26-2.09-.28-.42.57-.36.27.42Zm1.27-.81L48.45,53l2.83-1.81.27.42Z"/><path class="cls-38" d="M6.09,75.69l-.23-.45,2.66-1.41.23.45ZM9.2,74,9,73.6l.6-.32.23.45Zm1.34-.7-.24-.45,3-1.57.24.44ZM14,71.53l-.23-.45.59-.31.24.44Zm1.34-.71-.24-.45,3-1.57.24.45ZM18.71,69l-.24-.44.59-.32.24.45ZM20,68.3l-.23-.44,3-1.57.23.44Zm3.42-1.8-.24-.45.6-.31.23.44Zm1.34-.71-.24-.45,3-1.57.24.45ZM28.21,64,28,63.53l.59-.31.24.45Zm1.34-.71-.24-.44,3-1.58.24.45ZM33,61.46,32.73,61l.59-.32.24.45Zm1.33-.7-.23-.45,3-1.57.23.44ZM37.72,59l-.24-.45.6-.31.23.44Zm1.33-.71-.23-.45,3-1.57.24.45Zm3.42-1.81L42.24,56l.59-.32.24.45Zm1.34-.71-.24-.44,3-1.57.24.44Zm3.41-1.8L47,53.47l.59-.31.24.44Zm1.34-.71-.23-.45,3-1.57.23.45Z"/><path class="cls-39" d="M4.24,71.85,4,71.39l2.77-1.18.2.46Zm3.23-1.38L7.27,70l.62-.27.2.47Zm1.39-.59-.2-.47,3.09-1.32.2.47Zm3.56-1.52-.2-.47.62-.26.19.46Zm1.39-.6-.2-.46L16.7,66l.2.46Zm3.55-1.52-.2-.46.62-.26L18,66Zm1.39-.59-.2-.46,3.09-1.33.2.47Zm3.56-1.52-.2-.46.62-.27.19.47Zm1.39-.59-.2-.47,3.09-1.32.2.46ZM27.25,62l-.2-.47.62-.26.2.46Zm1.39-.6-.2-.46,3.09-1.32.2.46ZM32.2,59.9l-.2-.46.62-.27.19.47Zm1.39-.59-.2-.47,3.09-1.32.2.47Zm3.55-1.52-.2-.47.62-.26.2.46Zm1.39-.6-.2-.46,3.09-1.32.2.46Zm3.56-1.52-.2-.46.62-.26.19.46Zm1.39-.59-.2-.46,3.09-1.33.2.47ZM47,53.56l-.2-.46.62-.27.2.47ZM48.42,53l-.2-.47,3.09-1.32.2.46Z"/><rect class="cls-40" x="1.31" y="59.27" width="51.41" height="0.5" transform="translate(-17.41 11.58) rotate(-18.4)"/><path class="cls-41" d="M1.51,63.79l-.12-.49,2.93-.71.12.49ZM4.93,63l-.12-.49.65-.16.12.49ZM6.4,62.6l-.12-.49,3.27-.79.11.49Zm3.75-.91L10,61.2l.65-.16.12.49Zm1.47-.36-.11-.49,3.26-.79.12.49Zm3.76-.91-.12-.49.65-.16.12.49Zm1.47-.36-.12-.49L20,58.78l.12.49Zm3.76-.91-.12-.49.65-.16.12.49Zm1.47-.35L22,58.31l3.26-.8.12.49Zm3.75-.92-.12-.49.66-.16.12.49Zm1.47-.35L27.18,57l3.27-.8.12.49Zm3.76-.92-.12-.49.65-.15.12.49Zm1.47-.35-.12-.49,3.27-.8.11.49Zm3.75-.91-.11-.49.65-.16.12.49ZM37.75,55l-.11-.49,3.26-.79.12.49Zm3.76-.91-.12-.49.66-.16.11.49ZM43,53.72l-.12-.49,3.27-.79.12.49Zm3.76-.91-.12-.49.65-.16.12.49Zm1.47-.36L48.09,52l3.26-.79.12.49Z"/><rect class="cls-42" x="0.31" y="55.14" width="51.41" height="0.5" transform="translate(-8.25 4.69) rotate(-8.9)"/><path class="cls-43" d="M.15,55.39l0-.51,3-.22,0,.51Zm3.51-.26,0-.5.67-.05,0,.5ZM5.17,55l0-.5,3.35-.24,0,.5ZM9,54.74l0-.5.67-.05,0,.5Zm1.51-.11,0-.5,3.35-.24,0,.5Zm3.86-.28,0-.5L15,53.8l0,.5Zm1.51-.11,0-.5,3.35-.24,0,.5ZM19.75,54l0-.5.67-.05,0,.5Zm1.51-.11,0-.5,3.36-.24,0,.5Zm3.86-.28,0-.5.67,0,0,.51Zm1.5-.11,0-.5,3.35-.24,0,.5Zm3.86-.28,0-.5.67,0,0,.51ZM32,53.07l0-.5,3.35-.24,0,.5Zm3.85-.27,0-.51.67,0,0,.51Zm1.51-.11,0-.51,3.35-.24,0,.5Zm3.86-.28,0-.51.67,0,0,.51Zm1.51-.11,0-.51L46,51.55l0,.5ZM46.57,52l0-.51.68,0,0,.5Zm1.51-.11,0-.51,3.36-.24,0,.5Z"/><rect class="cls-44" x="25.46" y="25.44" width="0.5" height="51.41" transform="translate(-25.71 76.3) rotate(-89.39)"/><path class="cls-45" d="M.2,46.87l0-.5,3,.28,0,.5Zm3.5.33,0-.5.67.06,0,.5Zm1.51.14,0-.5,3.35.31,0,.5Zm3.85.36,0-.5.67.06,0,.5Zm1.5.14,0-.5,3.35.31-.05.51Zm3.85.36.05-.5.67.06-.05.5Zm1.51.14,0-.5,3.35.31,0,.51Zm3.84.36,0-.5.67.06-.05.51Zm1.51.14.05-.5,3.34.32,0,.5Zm3.85.36.05-.5.67.07-.05.5Zm1.51.15,0-.51,3.35.32-.05.5Zm3.84.36.05-.51.67.07-.05.5Zm1.51.14.05-.51,3.34.32,0,.5Zm3.85.36.05-.51.67.07,0,.5Zm1.5.14.05-.5,3.35.31,0,.5Zm3.85.36,0-.5.67.06,0,.5Zm1.51.14.05-.5,3.34.31,0,.5Zm3.85.36,0-.5.67.06,0,.5Zm1.5.14.05-.5,3.35.31,0,.5Z"/><rect class="cls-46" x="25.85" y="21.2" width="0.5" height="51.41" transform="translate(-24.65 64.37) rotate(-79.89)"/><path class="cls-47" d="M1.65,38.48,1.78,38l2.91.77-.13.49Zm3.4.9.13-.48.65.17-.13.49Zm1.46.39.13-.49,3.25.87-.13.48Zm3.74,1,.13-.48.65.17-.13.48Zm1.46.39.13-.49,3.25.86L15,42Zm3.74,1,.13-.49.65.18-.13.48Zm1.46.39L17,42l3.25.86-.13.49Zm3.74,1,.13-.49.64.17-.12.49Zm1.46.39.13-.49,3.25.86-.13.49Zm3.73,1,.13-.49.65.17-.13.49Zm1.47.38.13-.48,3.24.86-.12.48Zm3.73,1,.13-.48.65.17-.13.49Zm1.46.39.13-.49,3.25.87-.13.48Zm3.74,1,.13-.49.65.18-.13.48ZM37.7,48l.13-.49,3.25.86L41,48.9Zm3.74,1,.13-.49.65.17-.13.49Zm1.46.39.13-.49,3.25.86-.13.49Zm3.74,1,.13-.49.65.17-.13.49Zm1.46.38.13-.48,3.25.86-.13.49Z"/><rect class="cls-48" x="26.94" y="17.08" width="0.5" height="51.41" transform="translate(-22.24 54.06) rotate(-70.4)"/><path class="cls-49" d="M4.47,30.45l.2-.46,2.75,1.24-.21.46Zm3.2,1.45.21-.46.61.28-.21.46Zm1.38.62.21-.46,3.06,1.39-.21.46Zm3.52,1.6.21-.46.61.27-.21.46Zm1.38.62.21-.46,3.06,1.39-.21.45Zm3.52,1.59.21-.46.61.28-.21.46Zm1.38.63.21-.46,3.06,1.38-.21.46Zm3.52,1.59.21-.46.61.28-.21.46Zm1.38.62.21-.46L27,40.1l-.21.46Zm3.52,1.6.21-.46.61.27-.21.46Zm1.38.62.21-.46,3.06,1.39-.21.46ZM32.17,43l.21-.46.61.28-.21.46Zm1.38.63.21-.46,3.06,1.38-.21.46Zm3.52,1.59.21-.46.61.28-.21.46Zm1.38.62.21-.46,3.06,1.39-.21.46ZM42,47.42l.21-.46.61.27-.21.46Zm1.38.62.21-.46L46.62,49l-.21.46Zm3.52,1.59.21-.46.61.28-.21.46Zm1.38.63.21-.46,3.06,1.38-.21.46Z"/><rect class="cls-50" x="28.7" y="13.21" width="0.5" height="51.41" transform="translate(-19.13 45.3) rotate(-60.91)"/><path class="cls-51" d="M51.27,51.62l-2.79-1.87.28-.42,2.79,1.87Zm-3.49-2.34-.55-.37.28-.42.55.37Zm-1-.65L44,46.76l.29-.42,2.79,1.87Zm-3.49-2.34-.56-.38.28-.42.56.38Zm-1-.66-2.79-1.87.28-.42,2.79,1.87Zm-3.49-2.34-.56-.37.28-.42.56.37Zm-1-.65-2.79-1.87.28-.42,2.79,1.87ZM34.38,40.3l-.56-.38.29-.42.55.38Zm-1-.66-2.8-1.87.28-.42,2.8,1.87ZM29.92,37.3l-.56-.37.28-.42.56.37Zm-1-.65-2.79-1.87.28-.42,2.79,1.87Zm-3.49-2.34-.56-.38.28-.42.56.38Zm-1-.66-2.79-1.87.28-.42,2.79,1.87ZM21,31.31l-.56-.37.28-.42.56.37Zm-1-.65-2.8-1.87.28-.42,2.8,1.87Zm-3.49-2.34L16,27.94l.28-.42.56.38Zm-1-.66-2.79-1.87.28-.42,2.79,1.87Zm-3.49-2.34L11.49,25l.28-.42.56.37Zm-1-.65L8.57,23l.28-.42,2.5,1.68Z"/><rect class="cls-52" x="31.07" y="9.67" width="0.5" height="51.41" transform="translate(-15.87 37.79) rotate(-51.41)"/><path class="cls-53" d="M51.24,51.6,48.8,49.29l.34-.37,2.45,2.31Zm-3.05-2.89-.49-.46.34-.37.49.47Zm-.86-.81-2.45-2.3.35-.37,2.45,2.31ZM44.27,45l-.49-.46.35-.37.49.46Zm-.85-.81L41,41.91l.35-.37,2.44,2.31Zm-3.06-2.88-.49-.46.35-.37.49.46Zm-.85-.81-2.45-2.3.35-.37,2.44,2.31Zm-3.06-2.88L36,37.18l.35-.37.49.46Zm-.85-.81-2.45-2.3.35-.37,2.44,2.31ZM32.54,34l-.49-.46.35-.37.49.46Zm-.86-.81-2.44-2.31.34-.36L32,32.77Zm-3.05-2.88-.49-.46.34-.37.49.46Zm-.86-.81-2.44-2.31.34-.36,2.45,2.3Zm-3.05-2.88-.49-.46.34-.37.49.46Zm-.86-.81-2.44-2.31.34-.36,2.45,2.3ZM20.8,22.88l-.48-.47.34-.36.49.46ZM20,22.07,17.5,19.76l.35-.36,2.44,2.3Zm-3.06-2.89-.49-.46.35-.36.49.46Zm-.85-.8-2.19-2.07.34-.37L16.38,18Z"/><rect class="cls-54" x="33.99" y="6.58" width="0.5" height="51.41" transform="translate(-12.8 31.13) rotate(-41.91)"/><path class="cls-55" d="M51.21,51.56l-2-2.67.4-.31,2,2.68Zm-2.53-3.34-.41-.54.4-.3.41.53ZM48,47.28l-2-2.68.41-.3,2,2.67Zm-2.53-3.35L45,43.39l.4-.3.41.54ZM44.72,43l-2-2.68.41-.3,2,2.68Zm-2.54-3.35-.41-.53.4-.31.41.54Zm-.71-.93-2-2.68.4-.31,2,2.68Zm-2.54-3.35-.41-.54.4-.3.41.53Zm-.71-.94-2-2.68.4-.3,2,2.68Zm-2.54-3.35-.41-.53.41-.31.4.54ZM35,30.14l-2-2.68.4-.31,2,2.68Zm-2.54-3.35L32,26.25l.41-.3.4.53Zm-.71-.94-2-2.68.4-.3,2,2.68ZM29.18,22.5l-.4-.53.4-.31.4.54Zm-.71-.94-2-2.67.4-.31,2,2.68Zm-2.54-3.34-.4-.54.4-.3.4.53Zm-.71-.94-2-2.68.4-.3,2,2.67Zm-2.54-3.35-.4-.54.4-.3.41.54ZM22,13l-1.82-2.4.41-.3,1.82,2.4Z"/><rect class="cls-56" x="37.38" y="4" width="0.5" height="51.41" transform="translate(-10.06 24.8) rotate(-32.42)"/><path class="cls-57" d="M51.19,51.53l-1.56-3,.45-.23,1.56,3Zm-1.95-3.72-.31-.6.44-.23.32.59Zm-.55-1-1.56-3,.45-.23,1.56,3Zm-1.95-3.72-.31-.6.45-.23.31.59Zm-.54-1-1.56-3,.44-.24,1.56,3Zm-2-3.72-.32-.59.45-.24.31.6Zm-.55-1-1.56-3,.45-.23,1.56,3Zm-2-3.72-.31-.6.44-.23.31.59Zm-.55-1-1.56-3,.45-.23,1.56,3Zm-2-3.72-.31-.6.45-.23.31.59Zm-.55-1.05-1.56-3,.45-.24,1.56,3Zm-2-3.72-.31-.59.45-.24.31.6Zm-.54-1-1.56-3,.44-.23,1.56,3Zm-2-3.72-.32-.6.45-.23.31.6Zm-.55-1-1.56-3L32.6,15l1.56,3Zm-1.95-3.72-.31-.6.44-.23.32.59Zm-.55-1.05-1.56-3,.45-.24,1.56,3ZM29.26,9.7,29,9.11l.45-.24.31.6Zm-.54-1L27.32,6l.44-.23,1.4,2.67Z"/><rect class="cls-58" x="41.15" y="2.03" width="0.5" height="51.41" transform="translate(-7.53 18.31) rotate(-22.92)"/><path class="cls-59" d="M51.17,51.49l-1-3.19.48-.16,1,3.19Zm-1.31-4-.21-.64.48-.16.21.64Zm-.36-1.12-1-3.19.48-.16,1,3.19Zm-1.31-4L48,41.75l.48-.16.21.64Zm-.37-1.12-1-3.19.48-.16,1,3.19Zm-1.31-4-.21-.64.48-.16.21.64Zm-.37-1.12L45.1,33l.47-.16,1,3.19Zm-1.31-4-.21-.64.48-.16.21.64Zm-.36-1.12-1-3.19.48-.16L45,30.89Zm-1.31-4L43,26.42l.48-.16.21.64Zm-.37-1.12-1-3.19.48-.16,1.05,3.19Zm-1.31-4-.21-.64.48-.16.21.64Zm-.37-1.12-1-3.19.48-.16,1.05,3.19Zm-1.31-4-.21-.64.48-.16.21.64Zm-.36-1.12-1-3.19.48-.16,1,3.2Zm-1.31-4-.21-.64.47-.16.21.64Zm-.37-1.12-1-3.19.48-.16,1.05,3.2Zm-1.31-4L36.24,6l.48-.16.21.64ZM36.08,5.5l-.94-2.86.48-.16.94,2.87Z"/><rect class="cls-60" x="45.2" y="0.7" width="0.5" height="51.41" transform="translate(-4.89 11.27) rotate(-13.42)"/><path class="cls-61" d="M51.16,51.45l-.5-3.32.5-.08.5,3.32Zm-.63-4.15-.1-.67.5-.07.1.66Zm-.18-1.17-.5-3.32.5-.07.5,3.32ZM49.72,42l-.1-.66.5-.08.1.66Zm-.18-1.16L49,37.49l.49-.07L50,40.74Zm-.63-4.16-.1-.66.5-.08.1.67Zm-.18-1.16-.5-3.32.49-.08.51,3.32Zm-.63-4.15-.1-.67.5-.07.1.66Zm-.18-1.17-.51-3.32.5-.07.51,3.32ZM47.29,26l-.1-.66.5-.08.1.66Zm-.18-1.16-.51-3.32.5-.08.51,3.32Zm-.63-4.16-.1-.66.49-.08.11.67Zm-.18-1.16-.51-3.32.5-.08.51,3.33Zm-.63-4.15-.11-.67.5-.07.1.66Zm-.18-1.17L45,10.91l.5-.07L46,14.16Zm-.63-4.15-.11-.66.5-.08.1.67Zm-.18-1.16L44.17,5.6l.5-.08.51,3.32ZM44,4.76l-.1-.66.5-.08.1.67ZM43.87,3.6l-.46-3,.5-.07.46,3Z"/><path class="cls-62" d="M51.16,51.43l-.23-3.35.51,0,.23,3.36Zm-.29-4.19,0-.67.5,0,.05.67Zm-.08-1.18-.23-3.35.51,0L51.3,46Zm-.28-4.19,0-.67.5,0,0,.67Zm-.08-1.17-.23-3.35.5,0,.23,3.35Zm-.29-4.19,0-.67.51,0,0,.67Zm-.08-1.18L49.83,32l.5,0,.23,3.35Zm-.29-4.19,0-.67.5,0,0,.67ZM49.69,30l-.23-3.36.5,0,.23,3.35Zm-.29-4.19,0-.67.5,0,0,.67Zm-.08-1.18-.23-3.35.51,0,.23,3.36ZM49,20.41l0-.67.5,0,0,.67ZM49,19.24l-.23-3.36.5,0,.23,3.35Zm-.29-4.19-.05-.68.5,0,.05.67Zm-.08-1.18-.23-3.35.5,0,.23,3.36ZM48.3,9.68l0-.67.51,0,0,.67Zm-.08-1.17L48,5.15l.5,0,.23,3.35Zm-.29-4.2,0-.67.5,0,0,.67Zm-.08-1.17-.2-3,.5,0,.2,3Z"/><path class="cls-63" d="M51.16,51.41l.05-3.36h.5l0,3.36Zm.06-4.2v-.67h.51v.67Zm0-1.18,0-3.36h.5l0,3.36Zm.06-4.2v-.67h.5v.67Zm0-1.18,0-3.36h.5l0,3.36Zm.06-4.2v-.67h.5v.67Zm0-1.17,0-3.36H52l-.05,3.36Zm.07-4.2V30.4H52v.67Zm0-1.18.05-3.36H52l0,3.36Zm.06-4.2V25h.51v.68Zm0-1.18.05-3.36h.5l-.05,3.36Zm.06-4.2v-.67h.5v.67Zm0-1.18,0-3.36h.5l0,3.36Zm.06-4.2v-.67h.5V15Zm0-1.17,0-3.36h.51l0,3.36Zm.07-4.2V8.89h.51v.67Zm0-1.18,0-3.36h.5l0,3.36Zm.06-4.2V3.52h.51V4.2Zm0-1.18,0-3h.51l0,3Z"/><path class="cls-64" d="M51.14,51.37l.36-3.6.54,0-.37,3.6Zm.45-4.5.08-.72.53.05-.07.72Zm.13-1.26.37-3.6.53.05-.36,3.6Zm.46-4.5.07-.71.54.05-.08.72Zm.13-1.25.36-3.6.54.05-.37,3.6Zm.45-4.5.08-.72.53,0-.07.72Zm.13-1.26.37-3.6.53.05-.36,3.6Zm.46-4.5.07-.72.54.05-.08.72Zm.13-1.26.36-3.6.54.05L54,28.39Zm.45-4.5.08-.72.53.05-.07.72Zm.13-1.26.37-3.6L55,19l-.36,3.6Zm.46-4.5.07-.72.54.05-.08.72Zm.13-1.26.36-3.6.54,0-.37,3.6Zm.45-4.5.08-.72.53.05-.07.72Zm.13-1.26.37-3.6.53,0-.36,3.6Zm.46-4.5.07-.72.54,0-.08.72Zm.13-1.26.36-3.6.54.05-.37,3.6ZM56.27.8l.08-.72.53.05-.07.72Z"/><path class="cls-65" d="M51.17,51.37l.6-3.31.49.09-.6,3.31Zm.75-4.14.12-.66.5.09-.13.66Zm.21-1.15.6-3.31.5.09-.6,3.31Zm.75-4.14.12-.66.5.09-.12.66Zm.21-1.15.61-3.31.49.09-.6,3.31Zm.76-4.14L54,36l.49.09-.12.66Zm.21-1.16.6-3.3.5.09-.61,3.3Zm.75-4.13.12-.66.5.09-.12.66ZM55,30.2l.6-3.3.5.09-.6,3.3Zm.75-4.13.12-.66.5.09-.12.66ZM56,24.91l.61-3.3.49.09-.6,3.3Zm.76-4.13.12-.66.49.09-.12.66ZM57,19.62l.6-3.31.5.1-.61,3.3Zm.75-4.13.12-.66.5.09-.12.66Zm.21-1.16L58.52,11l.49.09-.6,3.31Zm.76-4.13.12-.66.49.09-.12.66ZM58.88,9l.6-3.31.49.09-.6,3.31Zm.75-4.13.12-.67.5.1L60.13,5Zm.21-1.16.54-3,.5.09-.54,3Z"/><path class="cls-66" d="M51.17,51.35,52,48.1l.49.13-.87,3.25Zm1.09-4.06.18-.65.48.13-.17.65Zm.31-1.14.87-3.24.49.13-.87,3.24Zm1.09-4,.18-.65.48.13-.17.65ZM54,41l.87-3.24.49.13-.88,3.24Zm1.09-4.06.17-.65.49.14-.17.65Zm.31-1.13.87-3.25.49.13-.88,3.25Zm1.09-4.06.17-.65.49.13-.17.65Zm.3-1.13.88-3.25.49.13-.88,3.25Zm1.1-4.06.17-.65.49.13-.18.65Zm.3-1.14L59,22.14l.48.13-.87,3.24Zm1.1-4.05.17-.65.49.13-.18.65Zm.3-1.14.88-3.25.48.13-.87,3.25Zm1.09-4.06.18-.65.49.13-.18.65ZM61,15l.87-3.25.49.13-.87,3.25Zm1.09-4.06.18-.65.48.13-.17.65Zm.31-1.14.87-3.24.49.13-.87,3.24Zm1.09-4.05.18-.65.48.13-.17.65Zm.31-1.14.78-2.91.49.13-.79,2.91Z"/><path class="cls-67" d="M51.18,51.33l1.14-3.17.47.18L51.65,51.5Zm1.42-4,.23-.63.47.17-.22.64Zm.4-1.1,1.14-3.16.47.17-1.14,3.16Zm1.43-4,.22-.63.48.17-.23.64Zm.39-1.1L56,38.05l.48.17L55.3,41.38Zm1.43-4,.23-.64.47.17-.23.64Zm.4-1.11L57.79,33l.47.17-1.14,3.16Zm1.42-3.95.23-.64.47.17-.22.64Zm.4-1.11,1.14-3.16.48.17L59,31.26Zm1.43-3.95.22-.64.48.18-.23.63ZM60.29,26l1.14-3.16.48.17L60.77,26.2Zm1.43-4,.23-.63.47.17-.23.63Zm.4-1.11,1.14-3.16.47.17-1.14,3.16ZM63.54,17l.23-.63.48.17-.23.63Zm.4-1.11,1.14-3.16.48.17-1.14,3.16ZM65.37,12l.22-.63.48.17-.23.63Zm.4-1.11,1.14-3.16.47.17L66.24,11ZM67.19,6.9l.23-.63.47.17-.23.63Zm.4-1.11,1-2.83.48.17L68.06,6Z"/><path class="cls-68" d="M51.18,51.31l1.4-3.06.46.21-1.4,3.06Zm1.75-3.82.28-.61.46.2-.28.62Zm.49-1.07,1.4-3.06.46.21-1.4,3.06Zm1.75-3.82.28-.62.46.21-.28.62Zm.49-1.07,1.39-3.06.46.21-1.39,3.06ZM57.4,37.7l.28-.61.46.21-.28.61Zm.49-1.07,1.4-3.05.46.21-1.4,3.05Zm1.75-3.82.28-.61.46.21L60.1,33Zm.49-1.07,1.4-3,.46.21L60.59,32Zm1.75-3.82.28-.61.45.21-.27.61Zm.49-1.07,1.39-3.05.46.21-1.4,3ZM64.11,23l.28-.61.46.21-.28.61ZM64.6,22,66,18.9l.46.21-1.4,3.06Zm1.75-3.82.28-.61.46.21-.28.61Zm.49-1.07L68.24,14l.45.21L67.3,17.28Zm1.75-3.82.27-.61.46.21-.28.61Zm.48-1.07,1.4-3.06.46.21-1.4,3.06Zm1.75-3.82.28-.61.46.21-.28.61Zm.49-1.07,1.25-2.74.46.21L71.77,7.5Z"/><path class="cls-69" d="M51.19,51.29l1.65-2.93.44.25-1.65,2.93Zm2.06-3.66.33-.59.44.25-.33.58Zm.58-1,1.64-2.93.44.25-1.64,2.93Zm2.06-3.66.32-.59.44.25-.33.58Zm.57-1L58.11,39l.44.25L56.9,42.16Zm2.06-3.66.33-.59.44.25-.33.58Zm.57-1,1.65-2.93.44.25-1.65,2.93Zm2.06-3.66.33-.59.44.25-.33.59Zm.58-1,1.64-2.93.44.25-1.64,2.93Zm2.06-3.66.32-.59.44.25-.33.59Zm.57-1L66,24.91l.44.25L64.8,28.09Zm2.06-3.66.33-.59.44.25-.33.59Zm.57-1,1.65-2.93.44.25L67.43,23.4Zm2.06-3.66.33-.58.44.24-.33.59Zm.58-1,1.64-2.94.44.25-1.64,2.93Zm2.06-3.67.32-.58.44.24-.32.59Zm.57-1,1.65-2.93.44.24L72.7,14Zm2.06-3.67.33-.58.44.24-.33.59Zm.58-1,1.47-2.63.44.25L75.33,9.33Z"/><path class="cls-70" d="M51.62,51.55l-.41-.28,1.88-2.78.42.28ZM54,48.07l-.42-.28.38-.56.41.29Zm.66-1-.42-.28L56.1,44l.42.28ZM57,43.62l-.42-.28.38-.56.42.28Zm.66-1-.42-.28,1.88-2.78.42.28ZM60,39.16l-.42-.28.38-.56.42.29Zm.66-1-.42-.28,1.89-2.79.41.28ZM63,34.71l-.41-.28.37-.56.42.28Zm.66-1-.41-.28,1.88-2.78.42.28ZM66,30.25,65.61,30l.38-.56.41.29Zm.66-1L66.27,29l1.88-2.79.42.28ZM69,25.8l-.42-.28L69,25l.42.28Zm.66-1-.42-.28,1.88-2.78.42.28Zm2.35-3.48-.42-.28L72,20.5l.42.29Zm.66-1-.42-.28,1.89-2.79.41.28Zm2.35-3.48-.41-.28.37-.56.42.28Zm.66-1-.41-.28,1.88-2.78.42.28Zm2.36-3.48-.42-.28.38-.56.41.29Zm.66-1-.42-.28L80,8.68l.41.28Z"/><path class="cls-71" d="M51.61,51.57l-.39-.32,2.1-2.61.4.31Zm2.63-3.27L53.85,48l.42-.52.4.31Zm.74-.92-.39-.32,2.11-2.61.39.31Zm2.64-3.27-.4-.32.42-.52.4.31Zm.73-.92L58,42.87l2.11-2.62.39.32ZM61,39.92l-.4-.32.42-.52.4.31Zm.73-.92-.39-.32,2.11-2.62.39.32Zm2.64-3.27-.4-.32.43-.52.39.31Zm.73-.92-.39-.32,2.11-2.62.39.32Zm2.64-3.27-.39-.32.42-.52.39.31Zm.74-.92-.4-.32,2.11-2.62.39.32Zm2.63-3.27L70.71,27l.42-.52.39.31Zm.74-.92-.4-.32,2.11-2.62.39.32Zm2.63-3.27-.39-.32.42-.52.39.31Zm.74-.92-.39-.32,2.1-2.62.4.32ZM77.84,19l-.39-.32.42-.52.39.31Zm.74-.92-.39-.32,2.1-2.62.4.32Zm2.63-3.28-.39-.31.42-.53.39.32Zm.74-.91-.39-.32,1.89-2.34.39.31Z"/><path class="cls-72" d="M51.6,51.59l-.37-.35,2.32-2.44.36.35Zm2.89-3.05-.36-.35.46-.48.37.34Zm.81-.85-.36-.35,2.31-2.43.37.34Zm2.9-3-.37-.35.47-.49.36.35Zm.81-.86-.37-.34L61,41l.37.35Zm2.9-3-.37-.35.46-.49.37.35Zm.81-.85-.37-.35,2.32-2.44.36.35Zm2.89-3-.36-.35.46-.48.36.34Zm.81-.85-.36-.35,2.31-2.43.37.34Zm2.9-3L69,32.61l.47-.49.36.35Zm.81-.85-.37-.35,2.32-2.43.37.35Zm2.89-3-.36-.35.46-.49.37.35Zm.82-.85-.37-.35,2.32-2.44.36.35Zm2.89-3.05-.36-.35.46-.48.36.34Zm.81-.85L77.18,24l2.31-2.43.37.34Zm2.9-3-.37-.34.47-.49.36.35Zm.81-.85-.37-.35,2.32-2.43.36.35Zm2.89-3L83.78,17l.46-.49.37.35Zm.81-.85-.36-.35L86.67,14l.36.34Z"/><path class="cls-73" d="M51.58,51.6l-.33-.38L53.76,49l.33.38Zm3.14-2.79-.34-.38.51-.45.33.38ZM55.6,48l-.34-.37,2.51-2.24.34.38Zm3.14-2.79-.34-.38.5-.44.34.37Zm.87-.78-.33-.38,2.51-2.23.33.37Zm3.14-2.8-.33-.37.5-.45.33.38Zm.88-.78-.33-.38,2.51-2.23.33.38Zm3.14-2.79-.34-.38.5-.45.34.38Zm.88-.79-.34-.37,2.51-2.24.34.38Zm3.13-2.79-.33-.38.5-.44.34.37Zm.88-.78-.33-.38,2.51-2.23.33.37Zm3.14-2.8-.33-.37.5-.45.33.38Zm.88-.78-.34-.38,2.51-2.23.34.38Zm3.14-2.79L78.48,27l.5-.45.34.38Zm.88-.79-.34-.37L81.87,24l.34.38Zm3.13-2.79-.33-.38L83,23l.34.37Zm.88-.78-.33-.38,2.51-2.23.33.37Zm3.14-2.8-.34-.37.51-.45.33.38Zm.88-.78L87.39,19l2.25-2,.34.38Z"/><path class="cls-74" d="M51.6,51.63l-.33-.43L54.17,49l.33.44Zm3.63-2.72-.33-.43.58-.44.33.44Zm1-.76-.33-.43,2.9-2.18.33.44Zm3.63-2.72L59.55,45l.58-.44.33.44Zm1-.76-.33-.43,2.91-2.18.33.44ZM64.52,42l-.33-.43.58-.44.33.44Zm1-.76-.33-.43,2.9-2.18.33.44Zm3.63-2.72L68.84,38l.58-.44.33.44Zm1-.76-.32-.43,2.9-2.18.33.44ZM73.81,35l-.32-.43.58-.44.33.44Zm1-.76-.33-.43,2.91-2.18.33.44Zm3.63-2.72-.33-.43.58-.44.33.44Zm1-.76-.33-.44,2.9-2.17.33.44ZM83.11,28l-.33-.43.58-.44.33.44Zm1-.76-.32-.44,2.9-2.17.33.43Zm3.63-2.72-.32-.44.58-.43.33.44Zm1-.76-.33-.44,2.91-2.17.32.43Zm3.63-2.72-.33-.44.58-.43.33.44Z"/><path class="cls-75" d="M51.55,51.63l-.27-.43,2.84-1.79.27.43Zm3.55-2.24L54.84,49l.56-.36.27.43Zm1-.63-.27-.43,2.85-1.79.26.43Zm3.56-2.24-.27-.42.57-.36.26.42Zm1-.62-.27-.43,2.85-1.79.27.43Zm3.56-2.24-.27-.43.57-.36.27.43Zm1-.63-.27-.43,2.85-1.79.27.43Zm3.56-2.24-.27-.42.57-.36.27.43Zm1-.62-.26-.43L72.33,38l.27.43Zm3.56-2.24L73,37.5l.57-.36.27.43Zm1-.63L74,36.87l2.84-1.79.27.43Zm3.55-2.24-.27-.42.57-.36.27.43Zm1-.62L78.59,34l2.84-1.79.27.43Zm3.55-2.24-.27-.43.57-.36.27.43Zm1-.63-.27-.42L86,29.35l.27.43ZM87,29.33l-.26-.42.56-.36.27.43Zm1-.62-.27-.43,2.85-1.79.26.43Zm3.56-2.24L91.25,26l.57-.36.26.43Zm1-.63-.27-.42,2.55-1.61.27.43Z"/><path class="cls-76" d="M46.87,102.87l.21-2.7.5,0-.21,2.7Zm.25-3.15,0-.61.51,0-.05.61Zm.1-1.36.24-3,.5,0-.23,3Zm.28-3.47,0-.61.51,0,0,.61Zm.1-1.36.24-3,.5,0-.23,3Zm.28-3.47,0-.6.51.05,0,.6ZM48,88.7l.24-3,.5,0-.23,3Zm.28-3.47,0-.6.51.05-.05.6Zm.1-1.36.24-3,.5,0-.23,3Zm.28-3.47,0-.6.51,0,0,.6Zm.1-1.35L49,76l.5,0-.23,3ZM49,75.58l0-.61.51,0,0,.61Zm.1-1.36.24-3,.5,0-.23,3Zm.28-3.47,0-.6.51,0-.05.6Zm.1-1.36.24-3,.5,0-.23,3Zm.28-3.47,0-.6.51.05,0,.6Zm.1-1.36.24-3,.5.05-.23,3Zm.28-3.47,0-.6.51,0-.05.6Zm.1-1.35.24-3,.5.05-.23,3Z"/><circle class="cls-77" cx="51.6" cy="51.39" r="45.99"/><circle class="cls-78" cx="51.9" cy="51.51" r="42.07"/></g></g></svg>