<?xml version="1.0" encoding="utf-8"?>
<!-- Generator: Adobe Illustrator 24.0.3, SVG Export Plug-In . SVG Version: 6.00 Build 0)  -->
<svg version="1.1" id="Layer_1" xmlns="http://www.w3.org/2000/svg" xmlns:xlink="http://www.w3.org/1999/xlink" x="0px" y="0px"
	 viewBox="0 0 770.9 445" style="enable-background:new 0 0 770.9 445;" xml:space="preserve">
<style type="text/css">
	.st0{fill:#FFFFFF;}
</style>
<title>forcast_border_1</title>
<g id="Layer_2_1_">
	<g id="Layer_1-2">
		<path class="st0" d="M765.1,18.4v408.2H5.8V18.4H765.1z M764.3,425.9V19.1H6.6v406.9H764.3z"/>
		<path class="st0" d="M754.8,418.2c0-0.1,0-0.2,0.1-0.2c0.2-0.1,0.4-0.1,0.6,0c0,0,0,0,0,0l1.2,1c0.1,0.1,0.1,0.4-0.1,0.5
			c-0.2,0.1-0.4,0.1-0.5,0l-1.2-1C754.8,418.4,754.8,418.3,754.8,418.2z"/>
		<path class="st0" d="M757.3,420.2c0-0.1,0-0.2,0.1-0.2c0.2-0.1,0.4-0.1,0.6,0c0,0,0,0,0,0l1.2,1c0.2,0.1,0.2,0.3,0,0.5
			c-0.2,0.1-0.4,0.1-0.6,0l-1.2-1C757.4,420.4,757.3,420.3,757.3,420.2z"/>
		<path class="st0" d="M757.3,419.1c0-0.1,0-0.2,0.1-0.2l1.2-0.9c0.2-0.1,0.4-0.1,0.6,0c0,0,0,0,0,0c0.2,0.1,0.2,0.3,0,0.5l-1.2,0.9
			c-0.2,0.1-0.4,0.1-0.6,0c0,0,0,0,0,0C757.3,419.3,757.3,419.2,757.3,419.1z"/>
		<path class="st0" d="M754.7,421.2c0-0.1,0-0.2,0.1-0.2l1.2-1c0.1-0.1,0.4-0.2,0.6-0.1c0.2,0.1,0.2,0.3,0.1,0.5c0,0,0,0-0.1,0.1
			l-1.2,1c-0.2,0.1-0.4,0.1-0.6,0C754.8,421.4,754.7,421.3,754.7,421.2z"/>
		<path class="st0" d="M756.6,423.1v-2.4c0-0.2,0.2-0.3,0.4-0.3c0.2,0,0.4,0.1,0.4,0.3v2.4c0,0.2-0.2,0.3-0.4,0.3
			C756.8,423.4,756.6,423.3,756.6,423.1z"/>
		<path class="st0" d="M756.6,418.6v-2.3c0-0.2,0.2-0.3,0.4-0.3c0.2,0,0.4,0.1,0.4,0.3v2.3c0,0.2-0.2,0.3-0.4,0.3
			C756.8,419,756.6,418.8,756.6,418.6z"/>
		<path class="st0" d="M752.3,419.7c0-0.2,0.2-0.3,0.4-0.3h3c0.2,0,0.4,0.1,0.4,0.3c0,0.2-0.2,0.3-0.4,0.3h-3
			C752.5,420,752.3,419.9,752.3,419.7z"/>
		<path class="st0" d="M758,419.7c0-0.2,0.2-0.3,0.4-0.3h3c0.2,0,0.4,0.1,0.4,0.3c0,0.2-0.2,0.3-0.4,0.3h-3
			C758.2,420,758,419.9,758,419.7z"/>
		<path class="st0" d="M757.4,421l1.3-1.1c0.2-0.1,0.2-0.3,0-0.5l-1.3-1.1c-0.2-0.1-0.4-0.1-0.6,0l-1.3,1.1
			c-0.1,0.1-0.1,0.1-0.1,0.2c0,0.1,0,0.2,0.1,0.2l1.3,1.1C756.9,421.1,757.2,421.1,757.4,421z"/>
		<path class="st0" d="M754.8,27.2c0,0.1,0,0.2,0.1,0.2c0.2,0.1,0.4,0.1,0.6,0l1.2-1c0.1-0.1,0.1-0.4-0.1-0.5
			c-0.2-0.1-0.4-0.1-0.5,0l-1.2,1C754.8,27.1,754.8,27.1,754.8,27.2z"/>
		<path class="st0" d="M757.3,25.2c0,0.1,0,0.2,0.1,0.2c0.2,0.1,0.4,0.1,0.6,0c0,0,0,0,0,0l1.2-1c0.2-0.1,0.2-0.3,0-0.5
			c-0.2-0.1-0.4-0.1-0.6,0l0,0l-1.2,1C757.4,25,757.3,25.1,757.3,25.2z"/>
		<path class="st0" d="M757.3,26.3c0,0.1,0,0.2,0.1,0.2l1.2,0.9c0.2,0.1,0.4,0.1,0.6,0c0.2-0.1,0.2-0.3,0-0.5l0,0L758,26
			c-0.2-0.1-0.4-0.1-0.6,0c0,0,0,0,0,0C757.3,26.1,757.3,26.2,757.3,26.3z"/>
		<path class="st0" d="M754.7,24.2c0,0.1,0,0.2,0.1,0.2l1.2,1c0.2,0.1,0.4,0.1,0.6-0.1c0.1-0.1,0.1-0.3,0-0.4l-1.2-1
			c-0.2-0.1-0.4-0.1-0.6,0C754.8,24.1,754.7,24.2,754.7,24.2z"/>
		<path class="st0" d="M756.6,22.3v2.4c0,0.2,0.2,0.3,0.4,0.3c0.2,0,0.4-0.1,0.4-0.3v-2.4c0-0.2-0.2-0.3-0.4-0.3
			C756.8,22,756.6,22.1,756.6,22.3z"/>
		<path class="st0" d="M756.6,26.8v2.3c0,0.2,0.2,0.3,0.4,0.3c0.2,0,0.4-0.1,0.4-0.3v-2.3c0-0.2-0.2-0.3-0.4-0.3
			C756.8,26.4,756.6,26.6,756.6,26.8z"/>
		<path class="st0" d="M752.3,25.7c0,0.2,0.2,0.3,0.4,0.3h3c0.2,0,0.4-0.1,0.4-0.3c0-0.2-0.2-0.3-0.4-0.3h-3
			C752.5,25.4,752.3,25.5,752.3,25.7z"/>
		<path class="st0" d="M758,25.7c0,0.2,0.2,0.3,0.4,0.3h3c0.2,0,0.4-0.1,0.4-0.3c0-0.2-0.2-0.3-0.4-0.3h-3
			C758.2,25.4,758,25.5,758,25.7z"/>
		<path class="st0" d="M757.4,24.4l1.3,1.1c0.2,0.1,0.2,0.3,0,0.5l-1.3,1.1c-0.2,0.1-0.4,0.1-0.6,0l-1.3-1.1
			c-0.1-0.1-0.1-0.1-0.1-0.2c0-0.1,0-0.2,0.1-0.2l1.3-1.1C756.9,24.3,757.2,24.3,757.4,24.4z"/>
		<path class="st0" d="M15.9,27.2c0,0.1,0,0.2-0.1,0.2c-0.2,0.1-0.4,0.1-0.6,0l-1.2-1c-0.1-0.1-0.1-0.4,0.1-0.5
			c0.2-0.1,0.4-0.1,0.5,0l1.2,1C15.9,27,15.9,27.1,15.9,27.2z"/>
		<path class="st0" d="M13.4,25.2c0,0.1,0,0.2-0.1,0.2c-0.2,0.1-0.4,0.1-0.6,0c0,0,0,0,0,0l-1.2-1c-0.2-0.1-0.2-0.3,0-0.5
			s0.4-0.1,0.6,0l1.2,1C13.3,25,13.4,25.1,13.4,25.2z"/>
		<path class="st0" d="M13.4,26.3c0,0.1,0,0.2-0.1,0.2l-1.2,0.9c-0.2,0.1-0.4,0.1-0.6,0s-0.2-0.3,0-0.5l1.2-0.9
			c0.2-0.1,0.4-0.1,0.6,0c0,0,0,0,0,0C13.4,26.1,13.4,26.2,13.4,26.3z"/>
		<path class="st0" d="M16,24.2c0,0.1,0,0.2-0.1,0.2l-1.2,1c-0.2,0.1-0.4,0.1-0.6-0.1c-0.1-0.1-0.1-0.3,0-0.4l1.2-1
			c0.2-0.1,0.4-0.1,0.6,0C16,24.1,16,24.2,16,24.2z"/>
		<path class="st0" d="M14.1,22.3v2.4c0,0.2-0.2,0.3-0.4,0.3s-0.4-0.1-0.4-0.3v-2.4c0-0.2,0.2-0.3,0.4-0.3S14.1,22.1,14.1,22.3z"/>
		<path class="st0" d="M14.1,26.8v2.3c0,0.2-0.2,0.3-0.4,0.3s-0.4-0.1-0.4-0.3l0,0v-2.3c0-0.2,0.2-0.3,0.4-0.3S14.1,26.6,14.1,26.8z
			"/>
		<path class="st0" d="M18.4,25.7c0,0.2-0.2,0.3-0.4,0.3l0,0H15c-0.2,0-0.4-0.1-0.4-0.3c0-0.2,0.2-0.3,0.4-0.3l0,0h3
			C18.2,25.4,18.4,25.5,18.4,25.7z"/>
		<path class="st0" d="M12.8,25.7c0,0.2-0.2,0.3-0.4,0.3l0,0H9.4C9.1,26,9,25.9,9,25.7c0-0.2,0.2-0.3,0.4-0.3h2.9
			C12.6,25.4,12.8,25.5,12.8,25.7L12.8,25.7z"/>
		<path class="st0" d="M13.3,24.4L12,25.5c-0.2,0.1-0.2,0.3,0,0.5l1.3,1.1c0.2,0.1,0.4,0.1,0.6,0l1.3-1.1c0.1-0.1,0.1-0.1,0.1-0.2
			c0-0.1,0-0.2-0.1-0.2l-1.3-1.1C13.8,24.3,13.5,24.3,13.3,24.4z"/>
		<path class="st0" d="M15.9,421.2c0,0.1,0,0.2-0.1,0.2c-0.2,0.1-0.4,0.1-0.6,0l-1.2-1c-0.2-0.1-0.2-0.3,0-0.5c0,0,0,0,0,0
			c0.2-0.1,0.4-0.1,0.6,0l1.2,1C15.9,421,15.9,421.1,15.9,421.2z"/>
		<path class="st0" d="M13.4,419.2c0,0.1,0,0.2-0.1,0.2c-0.2,0.1-0.4,0.1-0.6,0l-1.2-1c-0.2-0.1-0.2-0.3,0-0.5
			c0.2-0.1,0.4-0.1,0.6,0c0,0,0,0,0,0l1.2,1C13.3,419,13.4,419.1,13.4,419.2z"/>
		<path class="st0" d="M13.4,420.3c0,0.1-0.1,0.2-0.1,0.2l-1.2,0.9c-0.2,0.1-0.4,0.1-0.6,0c-0.2-0.1-0.2-0.3,0-0.5l1.2-0.9
			c0.2-0.1,0.4-0.1,0.6,0C13.4,420.1,13.4,420.2,13.4,420.3z"/>
		<path class="st0" d="M16,418.2c0,0.1,0,0.2-0.1,0.2l-1.2,1c-0.2,0.1-0.4,0.1-0.6,0c-0.2-0.1-0.2-0.3,0-0.5c0,0,0,0,0,0l1.2-1
			c0.2-0.1,0.4-0.1,0.6,0C16,418.1,16,418.2,16,418.2z"/>
		<path class="st0" d="M14.1,416.3v2.4c0,0.2-0.2,0.3-0.4,0.3s-0.4-0.1-0.4-0.3v-2.4c0-0.2,0.2-0.3,0.4-0.3S14.1,416.1,14.1,416.3z"
			/>
		<path class="st0" d="M14.1,420.8v2.4c0,0.2-0.2,0.3-0.4,0.3s-0.4-0.1-0.4-0.3v-2.4c0-0.2,0.2-0.3,0.4-0.3S14.1,420.6,14.1,420.8z"
			/>
		<path class="st0" d="M18.4,419.7c0,0.2-0.2,0.3-0.4,0.3c0,0,0,0,0,0H15c-0.2,0-0.4-0.1-0.4-0.3c0-0.2,0.2-0.3,0.4-0.3c0,0,0,0,0,0
			h3C18.2,419.4,18.4,419.5,18.4,419.7z"/>
		<path class="st0" d="M12.8,419.7c0,0.2-0.2,0.3-0.4,0.3c0,0,0,0,0,0H9.4c-0.2,0-0.4-0.1-0.4-0.3c0-0.2,0.2-0.3,0.4-0.3
			c0,0,0,0,0,0h2.9C12.6,419.4,12.7,419.5,12.8,419.7z"/>
		<path class="st0" d="M13.3,418.4l-1.3,1.1c-0.2,0.1-0.2,0.3,0,0.5l1.3,1.1c0.2,0.1,0.4,0.1,0.6,0l1.3-1.1c0.1-0.1,0.1-0.1,0.1-0.2
			c0-0.1,0-0.2-0.1-0.2l-1.3-1.1C13.8,418.3,13.5,418.3,13.3,418.4z"/>
		<path class="st0" d="M770.9,44V401l-39.1,31H39.1L0,401V44l39.1-31h692.8L770.9,44z M770.1,400.8V44.2l-38.6-30.7H39.4L0.8,44.2
			v356.5l38.6,30.7h692.1L770.1,400.8z"/>
	</g>
</g>
</svg>
