<?xml version="1.0" encoding="utf-8"?>
<!-- Generator: Adobe Illustrator 24.0.3, SVG Export Plug-In . SVG Version: 6.00 Build 0)  -->
<svg version="1.1" id="Layer_1" xmlns="http://www.w3.org/2000/svg" xmlns:xlink="http://www.w3.org/1999/xlink" x="0px" y="0px"
	 viewBox="0 0 132 190.6" style="enable-background:new 0 0 132 190.6;" xml:space="preserve">
<style type="text/css">
	.st0{fill:#C59E6E;}
	.st1{fill:none;stroke:#8B5E3C;stroke-width:0.29;stroke-miterlimit:10;}
	.st2{fill:none;stroke:#8B5E3C;stroke-width:0.27;stroke-miterlimit:10;}
	.st3{fill:none;stroke:#C59E6E;stroke-width:0.4;stroke-miterlimit:10;}
</style>
<title>home_decolator</title>
<g>
	<g id="Layer_2_1_">
		<g id="หน้าแรก">
			<path class="st0" d="M50.6,45.5L64.3,54l14.2-8.5L64.3,69.4C59.7,61.5,55.2,53.5,50.6,45.5z"/>
			<path class="st0" d="M44.2,63.7c-6.8,8.7-7.5,20.5-1.9,29.4c7.3,11.8,21.6,11.7,22.2,11.7c0.7,0,15.8-0.5,22.7-13.7
				c4.6-8.8,3.7-19.5-2.2-27.4c4.9,4.4,8.5,10.1,10.1,16.5c0.5,2,3.3,14.6-4.8,26.6c-0.7,1.1-9.4,13.4-25.2,13.6
				C48.6,120.4,39.6,106.9,39,106c-4.2-7.2-5.8-15.6-4.5-23.8C35.8,75.2,39.2,68.7,44.2,63.7z"/>
			<line class="st1" x1="34.3" y1="91.8" x2="22.6" y2="91.9"/>
			<line class="st2" x1="35.4" y1="97.6" x2="14.7" y2="101"/>
			<path class="st2" d="M21.2,94.9l-1.7,5.3l2.8,4"/>
			<path class="st2" d="M16.2,95.7c-0.6,1.8-1.1,3.5-1.8,5.3l2.8,4"/>
			<line class="st1" x1="34.1" y1="86.7" x2="18.8" y2="84.3"/>
			<path class="st1" d="M21.3,81.4l-2.6,2.9l1.6,3.8"/>
			<line class="st1" x1="37.2" y1="102.4" x2="26.7" y2="107.6"/>
			<line class="st1" x1="44.1" y1="111.8" x2="36.2" y2="120.4"/>
			<line class="st1" x1="54.1" y1="118.2" x2="49.1" y2="128.7"/>
			<line class="st1" x1="58.4" y1="119.6" x2="53.3" y2="138.4"/>
			<path class="st1" d="M49.9,134.4l3.4,4l4.6-2.1"/>
			<line class="st2" x1="40.4" y1="107.9" x2="23.3" y2="120.1"/>
			<path class="st2" d="M26.4,111.8c0.3,1.8,0.5,3.7,0.8,5.5l4.2,2.3"/>
			<path class="st2" d="M22.4,114.7c0.3,1.8,0.5,3.7,0.8,5.5l4.2,2.3"/>
			<line class="st2" x1="48.7" y1="115.4" x2="37.3" y2="133.1"/>
			<path class="st2" d="M37.1,124.2c0.9,1.6,1.8,3.2,2.8,4.8l4.8,0.6"/>
			<path class="st2" d="M34.4,128.4c0.9,1.6,1.8,3.2,2.8,4.8l4.8,0.6"/>
			<line class="st1" x1="65.2" y1="120.3" x2="65.2" y2="130.1"/>
			<line class="st3" x1="64.4" y1="24.8" x2="64.4" y2="42.5"/>
			<line class="st3" x1="58.1" y1="34.9" x2="70.3" y2="34.9"/>
			<line class="st3" x1="59.9" y1="30.3" x2="68.8" y2="39.2"/>
			<line class="st3" x1="69.1" y1="30.2" x2="60.2" y2="39.1"/>
			<line class="st1" x1="86.6" y1="111.2" x2="94.5" y2="119.7"/>
			<line class="st1" x1="95.8" y1="91.6" x2="107.5" y2="91.6"/>
			<line class="st2" x1="94.9" y1="96.7" x2="115.6" y2="100.1"/>
			<path class="st2" d="M109.1,94c0.6,1.8,1.2,3.5,1.8,5.3l-2.8,4"/>
			<path class="st2" d="M114.1,94.8c0.6,1.8,1.2,3.5,1.8,5.3l-2.8,4"/>
			<line class="st1" x1="96" y1="86.6" x2="111.3" y2="84.2"/>
			<path class="st1" d="M108.8,81.3l2.6,2.9c-0.5,1.3-1.1,2.5-1.6,3.8"/>
			<line class="st1" x1="93.1" y1="101.8" x2="103.6" y2="107"/>
			<line class="st1" x1="77" y1="117.7" x2="82" y2="128.3"/>
			<line class="st1" x1="72.5" y1="119.3" x2="77.6" y2="138.2"/>
			<path class="st1" d="M81,134.2l-3.4,4l-4.6-2.1"/>
			<line class="st2" x1="90.1" y1="107.1" x2="107.2" y2="119.4"/>
			<path class="st2" d="M104.1,111c-0.3,1.8-0.5,3.7-0.8,5.5l-4.2,2.3"/>
			<path class="st2" d="M108.1,114c-0.3,1.8-0.5,3.7-0.8,5.5l-4.2,2.3"/>
			<line class="st2" x1="82" y1="114.9" x2="93.4" y2="132.5"/>
			<path class="st2" d="M93.6,123.6c-0.9,1.6-1.8,3.2-2.8,4.8l-4.8,0.6"/>
			<path class="st2" d="M96.3,127.8c-0.9,1.6-1.8,3.2-2.8,4.8l-4.8,0.6"/>
			<line class="st3" x1="65.2" y1="170.4" x2="65.2" y2="152.7"/>
			<line class="st3" x1="71.6" y1="160.3" x2="59.4" y2="160.3"/>
			<line class="st3" x1="69.8" y1="164.9" x2="60.9" y2="156"/>
			<line class="st3" x1="60.6" y1="165" x2="69.5" y2="156.1"/>
			<line class="st3" x1="65.2" y1="144.6" x2="65.2" y2="147.4"/>
			<line class="st3" x1="65.2" y1="138.4" x2="65.2" y2="141.2"/>
			<line class="st3" x1="64.4" y1="16.3" x2="64.4" y2="19.1"/>
			<line class="st3" x1="64.4" y1="10.1" x2="64.4" y2="12.9"/>
		</g>
	</g>
</g>
</svg>
