<?xml version="1.0" encoding="utf-8"?>
<!-- Generator: Adobe Illustrator 24.0.3, SVG Export Plug-In . SVG Version: 6.00 Build 0) -->
<svg version="1.1" id="Layer_1" xmlns="http://www.w3.org/2000/svg" xmlns:xlink="http://www.w3.org/1999/xlink" x="0px" y="0px" viewBox="0 0 222.8 223.4" style="enable-background:new 0 0 222.8 223.4;" xml:space="preserve">
	<style type="text/css">
		.st0{fill:#C59E6E;}
		.st1{fill:none;stroke:#FFFFFF;stroke-width:0.74;stroke-miterlimit:10;}
		.st2{fill:none;stroke:#FFFFFF;stroke-width:0.66;stroke-miterlimit:10;}
		.st3{fill:none;stroke:#FFFFFF;stroke-width:0.66;stroke-miterlimit:9.9998;}
		.st4{fill:#FFFFFF;stroke:#FFFFFF;stroke-width:0.3;stroke-miterlimit:10;}
		.st5{fill:none;stroke:#FFFFFF;stroke-width:0.26;stroke-miterlimit:10;}
		.st6{fill:#FFFFFF;}
		.st7{fill:none;stroke:#FFFFFF;stroke-width:0.3;stroke-miterlimit:10;}
		.st8{fill:none;stroke:#C59E6E;stroke-width:0.92;stroke-miterlimit:10;}
	</style>
	<g>
		<g id="landing_logo">
			<g id="inside">
				<circle class="st0" cx="110.5" cy="113.8" r="44.7" />
				<line class="st1" x1="122.4" y1="83.7" x2="113.3" y2="113.9" />
				<path class="st1" d="M134.7,108.4c0.5,1.7,3.3,11.3-2.3,21c-3.1,5.2-7.8,9.1-13.4,11.3" />
				<path class="st1" d="M111.7,91.1c-4.7-0.6-9.5,0.2-13.8,2.3c-3.2,1.7-6,4.1-8.2,6.9c-0.2,0.3-0.6,0.8-1,1.3
					c-2.8,4.4-4.5,9.6-4.6,14.8c-0.1,12,10,20.4,10.8,21.1" />
				<line class="st1" x1="96.1" y1="115" x2="101.9" y2="97" />
				<line class="st1" x1="127" y1="92.4" x2="120.1" y2="115.9" />
				<line class="st1" x1="130.6" y1="111" x2="125.7" y2="127.2" />
				<path class="st2" d="M97.4,125.4c0,0,14.3-9.4,22.2,7.7C119.7,133,104.6,143,97.4,125.4z" />
				<ellipse transform="matrix(0.2566 -0.9665 0.9665 0.2566 -44.281 201.2223)" class="st3" cx="108.7" cy="129.4" rx="6.2" ry="6.1" />
				<circle class="st4" cx="108.8" cy="129.3" r="1.9" />
				<path class="st1" d="M94.5,120.1c-1,2.5-1.5,5.2-1.5,7.9c0,2.8-0.1,6.9,2.7,10.8c2.3,3,5.6,5.2,9.3,5.9
					c6.6,1.4,11.8-2.4,12.6-3.1l0.3-0.2c2.9-2.4,5.1-5.6,6.2-9.2" />
				<line class="st1" x1="113.4" y1="86" x2="105.6" y2="112.5" />
				<line class="st5" x1="120.7" y1="130.6" x2="129.2" y2="127.8" />
				<ellipse class="st6" cx="123.3" cy="123.5" rx="0.3" ry="0.3" />
				<ellipse class="st6" cx="121.6" cy="121.3" rx="0.3" ry="0.3" />
				<ellipse class="st6" cx="117.2" cy="118" rx="0.3" ry="0.3" />
				<ellipse class="st6" cx="114.5" cy="116.7" rx="0.3" ry="0.3" />
				<ellipse class="st6" cx="111.3" cy="115.4" rx="0.3" ry="0.3" />
				<ellipse class="st6" cx="108.4" cy="111.1" rx="0.3" ry="0.3" />
				<ellipse class="st6" cx="108.5" cy="110.2" rx="0.3" ry="0.3" />
				<ellipse class="st6" cx="101.6" cy="115.4" rx="0.3" ry="0.3" />
				<ellipse class="st6" cx="93.4" cy="113.5" rx="0.3" ry="0.3" />
				<ellipse class="st6" cx="92.9" cy="112.5" rx="0.3" ry="0.3" />
				<ellipse class="st6" cx="122.6" cy="117.4" rx="0.3" ry="0.3" />
				<ellipse class="st6" cx="123.3" cy="116.6" rx="0.3" ry="0.3" />
				<line class="st7" x1="115.2" y1="124.2" x2="121.7" y2="118.2" />
				<line class="st5" x1="107.6" y1="121.1" x2="108.3" y2="112.1" />
				<line class="st5" x1="97.5" y1="122.7" x2="93.8" y2="114.4" />
				<line class="st5" x1="123.8" y1="126" x2="119.3" y2="128.4" />
				<line class="st5" x1="122.4" y1="124.2" x2="118.3" y2="127.1" />
				<line class="st5" x1="120.7" y1="122.3" x2="117" y2="125.7" />
				<line class="st5" x1="116.5" y1="119.1" x2="113.7" y2="123.2" />
				<line class="st5" x1="114" y1="117.8" x2="111.8" y2="122.2" />
				<line class="st5" x1="111" y1="116.7" x2="109.7" y2="121.5" />
				<ellipse class="st6" cx="104.8" cy="115.1" rx="0.3" ry="0.3" />
				<line class="st7" x1="105" y1="116.1" x2="105.3" y2="121" />
				<line class="st7" x1="101.9" y1="116.4" x2="102.6" y2="121.3" />
				<ellipse class="st6" cx="98.2" cy="116.2" rx="0.3" ry="0.3" />
				<line class="st7" x1="98.5" y1="117.1" x2="100" y2="121.9" />
				<ellipse class="st6" cx="124.5" cy="125.6" rx="0.3" ry="0.3" />
				<ellipse class="st6" cx="130.3" cy="127.4" rx="0.3" ry="0.3" />
				<ellipse class="st6" cx="131.3" cy="127" rx="0.3" ry="0.3" />
			</g>
			<g id="outside">
				<path class="st8" d="M110.2,0c0,19.9,0,39.7,0,59.6" />
				<line class="st8" x1="100.2" y1="11.7" x2="104.6" y2="59.2" />
				<line class="st8" x1="93.1" y1="35.8" x2="97.3" y2="60.4" />
				<line class="st8" x1="66.8" y1="46.6" x2="81.7" y2="66.6" />
				<line class="st8" x1="45.5" y1="34.8" x2="75.2" y2="71.7" />
				<path class="st8" d="M24.5,28.6l46.3,46.6" />
				<path class="st8" d="M71.2,19.2l18.9,43.5" />
				<line class="st8" x1="121.3" y1="11.2" x2="115.9" y2="59.3" />
				<line class="st8" x1="128.8" y1="34.6" x2="123.8" y2="61.1" />
				<path class="st8" d="M153.1,15.3l-20.6,48.3" />
				<line class="st8" x1="154.8" y1="46.8" x2="139.4" y2="66.5" />
				<line class="st8" x1="176.9" y1="34.9" x2="146.1" y2="70.8" />
				<path class="st8" d="M191.6,33.2L150,74.8" />
				<line class="st8" x1="189.2" y1="48.3" x2="153.2" y2="78.9" />
				<line class="st8" x1="157.5" y1="86" x2="177" y2="70.8" />
				<path class="st8" d="M161.5,93.8l48.7-22.4" />
				<line class="st8" x1="163.7" y1="101.6" x2="188.4" y2="96.4" />
				<line class="st8" x1="164.7" y1="108.2" x2="213.8" y2="103.7" />
				<path class="st8" d="M165,114l57.8-0.5" />
				<line class="st8" x1="165.2" y1="119.3" x2="212.3" y2="123.5" />
				<line class="st8" x1="164" y1="127.2" x2="188" y2="130.6" />
				<path class="st8" d="M161.1,135.8l50.7,19.3" />
				<line class="st8" x1="157.4" y1="142.4" x2="177.8" y2="156.7" />
				<line class="st8" x1="153.2" y1="148.7" x2="190.1" y2="179.2" />
				<path class="st8" d="M149,152.7l39.9,40.5" />
				<line class="st8" x1="145.6" y1="156.2" x2="174.8" y2="193.5" />
				<line class="st8" x1="138.6" y1="160.4" x2="152.8" y2="181.6" />
				<path class="st8" d="M130.2,165.3l18.6,44.9" />
				<line class="st8" x1="122.9" y1="167.1" x2="126.8" y2="191.9" />
				<line class="st8" x1="115.8" y1="168.2" x2="119.1" y2="216.3" />
				<path class="st8" d="M109.8,168.3l0.6,55.1" />
				<line class="st8" x1="104.9" y1="168.4" x2="100.4" y2="216.2" />
				<line class="st8" x1="96.8" y1="167" x2="93.2" y2="192.5" />
				<path class="st8" d="M87.8,164.9c-6.5,17-13,34-19.5,51" />
				<line class="st8" x1="81.9" y1="161.2" x2="67.4" y2="181.1" />
				<line class="st8" x1="75.3" y1="156.6" x2="44.9" y2="192.4" />
				<path class="st8" d="M71.3,152.9l-42.4,42.3" />
				<line class="st8" x1="67.4" y1="149" x2="30.8" y2="178.7" />
				<line class="st8" x1="63.3" y1="142.1" x2="42.8" y2="157.2" />
				<path class="st8" d="M58.6,134.9L7.2,156.7" />
				<line class="st8" x1="56.4" y1="127.1" x2="31.8" y2="131.8" />
				<line class="st8" x1="55.8" y1="120" x2="7.2" y2="123.7" />
				<path class="st8" d="M55.1,114.1L0,113.9" />
				<line class="st8" x1="55.7" y1="107.7" x2="8.3" y2="102.4" />
				<line class="st8" x1="32.7" y1="96.5" x2="56.8" y2="100.5" />
				<path class="st8" d="M4.3,69L60,91.6" />
				<line class="st8" x1="43.8" y1="70.1" x2="63.3" y2="85" />
				<line class="st8" x1="31.6" y1="47.1" x2="67.3" y2="78.6" />
			</g>
		</g>
	</g>
</svg>
