<svg xmlns="http://www.w3.org/2000/svg" viewBox="0 0 152.35 152.34"><defs><style>.cls-1{fill:#fff;}.cls-2{fill:none;stroke:#c59e6e;stroke-miterlimit:10;stroke-width:1.35px;}.cls-3{fill:#c59e6e;}</style></defs><title>logo_white</title><g id="Layer_2" data-name="Layer 2"><g id="Layer_1-2" data-name="Layer 1"><rect class="cls-1" x="0.02" y="77.75" width="76.21" height="0.75" transform="translate(-3.95 2.06) rotate(-2.94)"/><path class="cls-1" d="M76.2,75.8l0,.75-5-.16,0-.75ZM70,75.61l0,.74-1,0,0-.75Zm-1.74-.06,0,.75-5-.16,0-.75ZM62,75.35l0,.75-1,0,0-.75Zm-1.74,0,0,.74-5-.15,0-.75ZM54,75.1l0,.75-1,0,0-.75ZM52.29,75l0,.75-5-.16,0-.74Zm-6.22-.19,0,.74-1,0,0-.74Zm-1.74-.06,0,.75-5-.16,0-.75Zm-6.23-.2,0,.75-1,0,0-.75Zm-1.74,0,0,.75-5-.16,0-.75Zm-6.23-.2,0,.75-1,0,0-.75Zm-1.74,0,0,.74-5-.15,0-.75Zm-6.22-.2,0,.75-1,0,0-.74ZM20.42,74l0,.75-5-.16,0-.74Zm-6.22-.19,0,.74-1,0,0-.74Zm-1.75-.06,0,.75-5-.16,0-.75Zm-6.22-.2,0,.75-1,0,0-.75Zm-1.74,0,0,.75L0,74.13l0-.74Z"/><rect class="cls-1" x="37.96" y="33.71" width="0.75" height="76.21" transform="translate(-37.4 101.68) rotate(-83.43)"/><path class="cls-1" d="M76.26,75.81l-.15.73-4.88-1,.14-.73Zm-6.11-1.22-.15.73-1-.2.14-.73Zm-1.71-.34-.15.73-4.88-1,.15-.73ZM62.33,73l-.14.74-1-.2.15-.73Zm-1.71-.34-.14.73-4.89-1,.15-.74Zm-6.1-1.22-.15.73-1-.19.15-.74Zm-1.71-.34-.15.73-4.88-1,.14-.73ZM46.7,69.9l-.15.73-1-.2.14-.73ZM45,69.55l-.15.74-4.88-1,.14-.73Zm-6.11-1.22-.14.73-1-.19.15-.73ZM37.17,68l-.14.73-4.89-1,.15-.74Zm-6.1-1.22-.15.73-1-.19.15-.74Zm-1.71-.34-.15.73-4.89-1,.15-.73ZM23.25,65.2l-.15.74-1-.2.14-.73Zm-1.71-.34-.15.73-4.88-1,.14-.73Zm-6.11-1.22-.14.73-1-.19.15-.73Zm-1.71-.34-.14.73-4.89-1,.15-.73Zm-6.1-1.22-.15.73-1-.2.15-.73Zm-1.71-.35-.15.74-4.38-.88.15-.73Z"/><rect class="cls-1" x="39.19" y="27.53" width="0.75" height="76.21" transform="translate(-34.45 85.52) rotate(-73.95)"/><path class="cls-1" d="M76.32,75.83l-.27.7-4.66-1.78.27-.69ZM70.5,73.61l-.27.7L69.3,74l.26-.7ZM68.87,73l-.27.7-4.66-1.77.27-.7ZM63,70.78l-.26.7-.93-.35.26-.7Zm-1.63-.62-.26.7-4.66-1.77.27-.7ZM55.59,68l-.26.7-.93-.36.26-.69ZM54,67.33l-.26.7L49,66.26l.27-.7Zm-5.82-2.21-.26.7-.94-.36.27-.7Zm-1.63-.62-.27.7-4.65-1.77.26-.7Zm-5.82-2.22-.27.7-.93-.35.27-.7Zm-1.63-.61-.27.69-4.65-1.77.26-.69Zm-5.82-2.22-.27.7L32,59.8l.27-.7Zm-1.63-.62-.27.7-4.66-1.77.27-.7Zm-5.82-2.21-.27.7L24.59,57l.26-.69ZM24.16,56l-.27.7-4.66-1.77.27-.7Zm-5.83-2.21-.26.7-.93-.36.26-.7Zm-1.63-.62-.26.7L11.78,52.1l.27-.7ZM10.88,51l-.26.69-.93-.35.26-.7Zm-1.63-.62L9,51,4.81,49.45l.27-.7Z"/><rect class="cls-1" x="41.43" y="21.63" width="0.75" height="76.21" transform="translate(-30.12 71.67) rotate(-64.44)"/><path class="cls-1" d="M76.37,75.85,76,76.5,71.69,74l.38-.64ZM71,72.71l-.38.65-.86-.51.38-.64Zm-1.51-.88-.38.65L64.81,70l.38-.64Zm-5.38-3.14-.37.64-.86-.5.37-.65Zm-1.5-.88-.38.64-4.3-2.51.38-.65Zm-5.38-3.15-.38.65-.86-.5.38-.65Zm-1.5-.88-.38.65-4.3-2.51.38-.65Zm-5.38-3.14-.38.65-.86-.51.38-.64Zm-1.51-.88-.37.65-4.3-2.52.37-.64Zm-5.37-3.14-.38.64-.86-.5.38-.64ZM42,55.74l-.37.64-4.31-2.51.38-.65ZM36.59,52.6l-.38.64-.86-.5.38-.65Zm-1.51-.89-.38.65-4.3-2.51.38-.65ZM29.7,48.57l-.37.65-.86-.51.37-.64Zm-1.5-.88-.38.65-4.3-2.52.38-.64Zm-5.38-3.14-.38.64-.86-.5.38-.64Zm-1.5-.88-.38.64-4.3-2.51.37-.65Zm-5.38-3.14-.38.64-.86-.5.38-.65Zm-1.51-.88-.37.64L10.2,38l.38-.65Z"/><rect class="cls-1" x="44.62" y="16.18" width="0.75" height="76.21" transform="translate(-25.29 59.94) rotate(-54.95)"/><path class="cls-1" d="M76.42,75.89l-.47.57-3.83-3.19.48-.57Zm-4.78-4-.48.58-.76-.64.47-.58ZM70.3,70.79l-.48.57L66,68.17l.48-.57Zm-4.78-4-.48.57-.77-.64.48-.57Zm-1.34-1.12-.48.58-3.83-3.19.48-.58Zm-4.79-4-.48.58-.76-.64.48-.57Zm-1.34-1.11-.48.57L53.75,58l.47-.57Zm-4.78-4-.48.58L52,56.53,52.5,56Zm-1.34-1.12-.48.58-3.83-3.19.48-.57Zm-4.79-4-.48.57-.76-.64.48-.57ZM45.8,50.37l-.47.58L41.5,47.76l.48-.58Zm-4.78-4-.48.58-.76-.64.47-.57Zm-1.34-1.11-.48.57-3.83-3.19.48-.57Zm-4.78-4-.48.57-.77-.63.48-.58Zm-1.34-1.12-.48.58-3.83-3.19.48-.58Zm-4.79-4-.48.57-.76-.64.48-.57Zm-1.34-1.12-.48.57-3.82-3.18.47-.58Zm-4.78-4-.48.58L21.4,31l.48-.57ZM21.31,30l-.48.57L17.4,27.67l.48-.57Z"/><rect class="cls-1" x="48.66" y="11.34" width="0.75" height="76.21" transform="translate(-20.6 49.68) rotate(-45.44)"/><path class="cls-1" d="M76.47,75.93l-.57.49-3.25-3.78.57-.49Zm-4.06-4.72-.57.49-.65-.76.57-.49Zm-1.14-1.32-.57.49L67.45,66.6l.57-.49Zm-4.06-4.72-.57.48L66,64.9l.57-.49Zm-1.14-1.33-.56.49-3.25-3.78.56-.48ZM62,59.12l-.57.49-.65-.76.57-.48ZM60.87,57.8l-.56.49-3.25-3.78.57-.49Zm-4.06-4.72-.56.49-.65-.76.56-.49Zm-1.13-1.32-.57.48-3.25-3.77.57-.49ZM51.62,47l-.57.49-.65-.75.57-.49Zm-1.14-1.32-.57.49-3.25-3.78.57-.49ZM46.42,41l-.57.49-.65-.76.57-.49Zm-1.14-1.32-.57.49-3.25-3.78.57-.49ZM41.22,35l-.57.48L40,34.68l.57-.49Zm-1.14-1.33-.56.49-3.25-3.78.56-.48ZM36,28.9l-.57.49-.65-.76.57-.48Zm-1.14-1.32-.56.49-3.25-3.78.57-.49Zm-4.06-4.72-.56.49-.65-.76.56-.49Zm-1.13-1.32-.57.48-2.91-3.38.57-.49Z"/><rect class="cls-1" x="53.44" y="7.22" width="0.75" height="76.21" transform="translate(-16.36 40.22) rotate(-35.94)"/><path class="cls-1" d="M37,10.79l2.31,3.82L38.7,15l-2.31-3.82Zm2.7,4.46.51.85-.64.39-.51-.85Zm1.16,1.92,2.58,4.26-.64.39-2.58-4.26Zm3,4.9.51.85-.64.39-.51-.85ZM45,24l2.58,4.26-.64.39-2.58-4.26Zm3,4.9.51.85-.64.39-.51-.85Zm1.16,1.92,2.58,4.26-.64.39-2.58-4.27Zm3,4.9.52.85L52,37l-.51-.85Zm1.17,1.92,2.58,4.26-.64.38L52.64,38Zm3,4.9.52.85-.64.39-.51-.86Zm1.17,1.91L60,48.71l-.64.38-2.58-4.26Zm3,4.91.52.85-.64.39-.52-.86Zm1.17,1.91,2.58,4.27-.64.38L60.9,51.65Zm3,4.9L65,57l-.64.38-.52-.85Zm1.16,1.92,2.59,4.26-.64.39L65,58.47Zm3,4.9.52.86-.64.38L68,63.37Zm1.16,1.92,2.58,4.26-.63.39-2.59-4.26Zm3,4.9.52.86-.64.38-.52-.85Zm1.16,1.92L76.5,76l-.63.39-2.59-4.26Z"/><rect class="cls-1" x="58.84" y="3.95" width="0.75" height="76.21" transform="translate(-12.54 30.78) rotate(-26.45)"/><path class="cls-1" d="M48.35,5.23,50,9.38l-.69.27L47.66,5.5Zm1.93,4.84.37.93-.7.27-.36-.92Zm.83,2.08L53,16.78l-.69.28-1.85-4.63Zm2.12,5.33.37.92-.7.28-.37-.93Zm.83,2.08,1.84,4.63-.7.28-1.84-4.63Zm2.11,5.32.37.93-.69.28-.37-.93ZM57,27l1.85,4.63-.7.27-1.84-4.63Zm2.12,5.32.37.93-.69.27-.37-.92ZM60,34.37,61.79,39l-.69.28-1.84-4.63Zm2.12,5.33.37.92-.7.28L61.38,40Zm.83,2.08,1.84,4.63-.69.28L62.2,42.06ZM65,47.1l.37.93-.7.28-.37-.93Zm.83,2.09,1.84,4.63-.7.27-1.84-4.63ZM68,54.51l.36.93-.69.27-.37-.92Zm.82,2.08,1.85,4.63-.7.28L68.1,56.87Zm2.12,5.33.37.92-.69.28-.37-.93ZM71.74,64l1.84,4.63-.69.28-1.84-4.63Zm2.12,5.33.37.92-.7.28-.36-.93Zm.83,2.08L76.53,76l-.69.27L74,71.68Z"/><rect class="cls-1" x="64.7" y="1.62" width="0.75" height="76.21" transform="matrix(0.96, -0.29, 0.29, 0.96, -8.76, 20.7)"/><path class="cls-1" d="M60.44,1.61,61.38,6l-.73.16-.94-4.36Zm1.1,5.09.21,1L61,7.83l-.21-1ZM62,8.89l1,4.87-.73.16L61.29,9.05Zm1.21,5.6.21,1-.73.16-.21-1Zm.47,2.2,1,4.87-.73.15-1-4.87Zm1.21,5.6.21,1-.73.16-.21-1Zm.48,2.19,1,4.87-.73.15-1-4.86Zm1.21,5.6.21,1-.73.16-.21-1Zm.47,2.19,1.05,4.87-.73.16-1-4.87Zm1.21,5.6.21,1-.73.16-.21-1Zm.48,2.19,1,4.87-.73.16-1-4.87ZM70,45.66l.21,1-.73.16-.21-1Zm.47,2.19,1,4.87-.73.16L69.71,48Zm1.21,5.6.21,1-.73.15-.21-1Zm.48,2.19,1.05,4.87-.73.16-1-4.87Zm1.21,5.6.21,1-.73.16-.21-1Zm.47,2.2,1,4.87-.73.15-1-4.87ZM75,69l.21,1-.73.16-.21-1Zm.48,2.19,1,4.87-.73.15-1-4.86Z"/><rect class="cls-1" x="70.87" y="0.29" width="0.75" height="76.21" transform="translate(-4.38 9.57) rotate(-7.45)"/><path class="cls-1" d="M73,0l.21,4.46-.74,0L72.21.07Zm.25,5.21,0,1-.74,0-.05-1Zm.1,2.24.24,5-.75,0-.23-5Zm.27,5.72,0,1-.75,0,0-1Zm.11,2.24.23,5-.74,0-.24-5ZM74,21.16l.05,1-.75,0-.05-1Zm.11,2.24.23,5-.75,0-.23-5Zm.27,5.73,0,1-.74,0,0-1Zm.1,2.24.24,5-.75,0-.24-5Zm.27,5.72.05,1-.75,0,0-1Zm.11,2.24.23,5-.74,0-.24-5Zm.27,5.72,0,1-.75,0,0-1Zm.1,2.24.24,5-.75,0-.23-5ZM75.46,53l.05,1-.75,0,0-1Zm.11,2.24.24,5-.75,0-.24-5ZM75.84,61l0,1-.75,0,0-1ZM76,63.22l.23,5-.74,0-.24-5Zm.27,5.72,0,1-.74,0,0-1Zm.1,2.24.24,5-.75,0-.23-5Z"/><rect class="cls-1" x="39.44" y="37.72" width="76.21" height="0.75" transform="matrix(0.04, -1, 1, 0.04, 36.71, 114.23)"/><path class="cls-1" d="M85.57.54,85,5l-.74-.09L84.83.46ZM85,5.72l-.11,1-.75-.09.12-1ZM84.69,8l-.59,4.94-.74-.08L84,7.86ZM84,13.64l-.12,1-.74-.09.12-1Zm-.26,2.22-.59,4.95-.75-.09L83,15.77Zm-.68,5.69-.12,1-.74-.09.12-1Zm-.27,2.23-.59,4.95-.74-.09.59-4.95Zm-.68,5.69-.11,1-.75-.09.12-1Zm-.26,2.22-.59,4.95-.74-.09.59-4.94Zm-.68,5.69-.12,1-.74-.09.12-1Zm-.26,2.23-.59,5-.75-.09.59-4.95Zm-.68,5.69-.12,1-.74-.09.12-1ZM80,47.53l-.59,4.94-.74-.09.59-4.94Zm-.67,5.68-.12,1-.74-.08.11-1ZM79,55.44l-.59,5-.74-.09.59-4.95Zm-.68,5.69-.11,1L77.49,62l.12-1Zm-.26,2.23L77.5,68.3l-.74-.08.59-4.95Zm-.68,5.69-.12,1L76.55,70l.12-1Zm-.27,2.22-.58,5-.75-.09.59-4.95Z"/><rect class="cls-1" x="45.7" y="38.47" width="76.21" height="0.75" transform="translate(28.99 113.18) rotate(-78.46)"/><path class="cls-1" d="M97.92,3.13,96.67,7.42,96,7.21,97.2,2.92Zm-1.46,5-.28,1-.72-.21.28-1Zm-.63,2.15-1.4,4.79-.72-.21,1.4-4.78Zm-1.61,5.5-.28,1-.71-.21.27-1Zm-.63,2.16L92.2,22.72l-.72-.21,1.4-4.78ZM92,23.44l-.28.95L91,24.18l.28-.95Zm-.63,2.15L90,30.37l-.72-.21,1.4-4.78Zm-1.61,5.5-.28.95-.72-.21.28-.95Zm-.63,2.15L87.72,38,87,37.81,88.4,33Zm-1.61,5.5-.28,1-.71-.21.28-1Zm-.62,2.15-1.4,4.78-.72-.21,1.4-4.78Zm-1.61,5.5-.28,1-.72-.21.28-1Zm-.63,2.15-1.4,4.79-.72-.21,1.4-4.79ZM83,54l-.28,1-.71-.21.27-1Zm-.63,2.15L81,61l-.72-.21L81.7,56Zm-1.6,5.5-.28,1-.72-.21.28-1Zm-.63,2.16-1.4,4.78-.72-.21,1.4-4.78Zm-1.61,5.5-.28,1-.72-.21.28-1Zm-.63,2.15-1.4,4.78-.71-.21,1.39-4.78Z"/><rect class="cls-1" x="51.76" y="40.24" width="76.21" height="0.75" transform="translate(19.7 109.9) rotate(-68.96)"/><path class="cls-1" d="M109.68,7.72l-2,4-.67-.33,1.94-4Zm-2.27,4.69-.44.9L106.3,13l.44-.89Zm-1,2-2.16,4.49-.68-.33,2.17-4.49Zm-2.49,5.16-.43.9-.68-.33.44-.9Zm-1,2-2.16,4.48-.68-.32,2.17-4.49Zm-2.49,5.16-.43.89-.67-.32.43-.9Zm-1,2-2.17,4.49L96.66,33l2.16-4.49ZM97,33.94l-.43.9-.67-.32.43-.9Zm-1,2-2.17,4.49-.67-.33,2.17-4.48Zm-2.49,5.16-.44.9-.67-.33.43-.89Zm-1,2-2.17,4.49-.67-.33,2.17-4.48ZM90.07,48.3l-.44.9L89,48.87l.43-.9Zm-1,2L86.93,54.8l-.68-.32L88.42,50ZM86.6,55.48l-.43.89-.68-.32.44-.9Zm-1,2L83.46,62l-.68-.32L85,57.17Zm-2.49,5.16-.43.89L82,63.23l.43-.9Zm-1,2L80,69.16l-.67-.32,2.16-4.49Zm-2.5,5.16-.43.9-.67-.32.43-.9Zm-1,2-2.17,4.49L75.85,76,78,71.53Z"/><path class="cls-1" d="M120.51,14.18l-2.58,3.65-.61-.43,2.58-3.65Zm-3,4.26-.57.81-.61-.43.57-.81Zm-1.29,1.83-2.88,4.06-.61-.43,2.88-4.06Zm-3.31,4.67-.58.82-.61-.43.58-.82Zm-1.3,1.83-2.88,4.07-.61-.43L111,26.34Zm-3.31,4.68-.57.81-.61-.43.57-.81ZM107,33.28l-2.88,4.07-.61-.43,2.88-4.07ZM103.69,38l-.58.81-.61-.43.58-.81Zm-1.3,1.83-2.88,4.07-.61-.44,2.88-4.06Zm-3.31,4.68-.57.81-.61-.43.57-.82ZM97.79,46.3l-2.88,4.06-.61-.43,2.88-4.07ZM94.48,51l-.58.82-.61-.44.58-.81Zm-1.3,1.83L90.3,56.87l-.61-.43,2.88-4.07Zm-3.31,4.68-.57.81-.61-.43.57-.81Zm-1.29,1.83L85.7,63.38,85.09,63,88,58.88ZM85.27,64l-.58.81-.61-.43.58-.81ZM84,65.82l-2.88,4.06-.61-.43,2.88-4.06Zm-3.31,4.67-.57.82-.61-.43.57-.82Zm-1.29,1.83-2.88,4.07L75.88,76l2.88-4.07Z"/><rect class="cls-1" x="62.59" y="46.63" width="76.21" height="0.75" transform="translate(-0.06 93.87) rotate(-49.97)"/><path class="cls-1" d="M130.13,22.35,127,25.52l-.53-.53,3.14-3.17Zm-3.67,3.7-.7.7-.53-.52.7-.71Zm-1.58,1.59-3.51,3.53-.53-.52,3.51-3.54Zm-4,4.06-.7.71-.53-.53.7-.7Zm-1.58,1.6-3.51,3.53-.53-.52,3.51-3.54Zm-4,4.06-.7.71-.53-.53.7-.7ZM113.65,39l-3.51,3.54-.53-.53,3.51-3.53Zm-4,4.07-.71.71-.53-.53.71-.71ZM108,44.61l-3.51,3.54-.53-.53,3.51-3.53Zm-4,4.07-.7.71-.53-.53.7-.71Zm-1.58,1.59-3.51,3.54-.53-.53,3.51-3.54Zm-4,4.07-.71.7-.53-.52.71-.71Zm-1.58,1.59L93.3,59.46l-.53-.52,3.51-3.54Zm-4,4.06-.7.71-.53-.52.7-.71Zm-1.58,1.6-3.51,3.53-.53-.52,3.51-3.54Zm-4,4.06-.7.71-.53-.53.7-.7Zm-1.57,1.59-3.51,3.54-.54-.53L85,66.72Zm-4,4.07-.7.71-.53-.53.7-.71ZM80,72.9l-3.51,3.54-.53-.53,3.51-3.53Z"/><path class="cls-1" d="M134.41,27,131,29.9l-.49-.57,3.4-2.9Zm-4,3.38-.76.65-.48-.57.76-.65Zm-1.71,1.46-3.79,3.23-.48-.57,3.79-3.23Zm-4.35,3.71-.76.65-.49-.57.76-.64ZM122.67,37l-3.79,3.23-.49-.57,3.8-3.23Zm-4.36,3.72-.76.64-.48-.56.76-.65Zm-1.7,1.45-3.79,3.24-.49-.57,3.79-3.24Zm-4.36,3.72-.76.65L111,46l.76-.65Zm-1.71,1.46-3.79,3.23-.48-.57,3.79-3.23Zm-4.36,3.72-.76.64-.48-.57.76-.64Zm-1.7,1.45-3.79,3.23-.49-.56L104,52Zm-4.36,3.72-.76.65-.49-.57.76-.65ZM98.41,57.7l-3.79,3.24-.48-.57,3.79-3.23Zm-4.36,3.72-.76.65-.48-.57.76-.64Zm-1.7,1.46-3.79,3.23-.49-.57,3.79-3.23ZM88,66.6l-.76.64-.49-.56L87.5,66Zm-1.71,1.45-3.79,3.24L82,70.72l3.79-3.24Zm-4.36,3.72-.76.65-.48-.57.76-.65Zm-1.7,1.46-3.79,3.23-.49-.57,3.79-3.23Z"/><path class="cls-1" d="M138.28,32l-3.63,2.6-.43-.6,3.62-2.61Zm-4.23,3-.81.58L132.8,35l.81-.58Zm-1.82,1.31-4,2.91-.44-.61,4-2.91Zm-4.66,3.34-.81.59-.43-.61.81-.58ZM125.75,41l-4,2.91-.44-.61,4-2.9Zm-4.65,3.35-.81.58-.43-.61.8-.58Zm-1.82,1.31-4,2.91L114.8,48l4-2.91ZM114.63,49l-.81.58-.44-.6.81-.59Zm-1.82,1.31-4,2.91-.43-.61,4-2.91Zm-4.65,3.35-.81.58-.44-.61.81-.58ZM106.34,55l-4,2.91-.43-.6,4-2.91Zm-4.66,3.35-.8.58-.44-.61.81-.58Zm-1.82,1.31-4,2.91-.44-.61L99.43,59ZM95.21,63l-.81.59L94,62.93l.81-.58Zm-1.82,1.31-4,2.91-.44-.61,4-2.9Zm-4.65,3.35-.81.58-.44-.61L88.3,67Zm-1.82,1.31-4,2.91-.43-.61,4-2.91Zm-4.65,3.34-.81.58-.44-.6.81-.59Zm-1.82,1.31-4,2.91L76,75.87,80,73Z"/><path class="cls-1" d="M141.34,36.64l.38.64-3.83,2.3-.38-.64Zm-4.47,2.68.38.64-.85.51-.39-.64ZM135,40.47l.38.64-4.27,2.57-.39-.64Zm-4.92,3,.39.64-.86.52-.38-.64Zm-1.92,1.16.39.64-4.28,2.56-.38-.64Zm-4.91,2.94.38.65-.85.51-.39-.64Zm-1.92,1.16.38.64-4.27,2.56-.39-.64Zm-4.92,3,.39.64-.86.51-.38-.64Zm-1.92,1.15.39.64L110.55,56l-.38-.65Zm-4.91,2.95.38.64-.85.51-.39-.64Zm-1.92,1.15.38.64-4.27,2.57-.39-.64Zm-4.92,2.95.39.64-.86.51-.38-.64ZM100.77,61l.38.65-4.27,2.56-.38-.64Zm-4.91,3,.38.64-.85.52L95,64.45Zm-1.93,1.16.39.64-4.27,2.56-.39-.64ZM89,68l.39.64-.86.51-.38-.64ZM87.1,69.19l.38.64-4.27,2.56-.38-.64Zm-4.91,3,.38.64-.85.51-.39-.64Zm-1.93,1.15.39.64L76.38,76.5,76,75.86Z"/><path class="cls-1" d="M144.39,42.17l.33.67-4,2-.33-.67Zm-4.68,2.3.33.67-.89.44-.33-.67Zm-2,1,.33.67-4.47,2.2-.33-.67ZM132.56,48l.33.67-.89.44-.33-.67Zm-2,1,.33.67-4.47,2.21-.33-.68Zm-5.14,2.53.33.68-.89.44-.33-.67Zm-2,1,.33.67-4.47,2.2-.33-.67ZM118.26,55l.33.67-.9.44-.33-.67Zm-2,1,.33.67-4.47,2.2-.33-.67Zm-5.14,2.53.33.67-.9.44-.33-.67Zm-2,1,.33.67L105,62.42l-.33-.67ZM104,62.08l.33.67-.89.44-.33-.67Zm-2,1,.33.67-4.47,2.2-.33-.67ZM96.8,65.6l.33.67-.89.44L95.91,66Zm-2,1,.33.68-4.47,2.2-.33-.67Zm-5.14,2.54.33.67-.89.44-.33-.67Zm-2,1,.33.67L83.5,73l-.33-.67ZM82.5,72.65l.33.67-.89.44-.33-.67Zm-2,1,.33.67-4.47,2.2L76,75.84Z"/><path class="cls-1" d="M147,47.93l.27.7-4.15,1.63-.28-.69Zm-4.85,1.91.27.69-.93.37-.27-.7Zm-2.09.82.28.7-4.64,1.82-.27-.7Zm-5.33,2.1.27.69-.92.37-.28-.7Zm-2.09.82.28.69-4.64,1.83-.27-.7Zm-5.33,2.1.28.69-.93.37-.28-.7Zm-2.09.82.28.69L120.83,59l-.27-.7Zm-5.33,2.09.28.7-.93.36-.27-.69Zm-2.08.82.27.7-4.64,1.82-.27-.69Zm-5.34,2.1.28.7-.93.36-.27-.69Zm-2.08.82.27.7L106,64.85l-.28-.69ZM105,64.43l.27.69-.93.37-.27-.7Zm-2.09.82.27.7-4.63,1.82-.28-.7Zm-5.33,2.1.27.69-.93.37-.27-.7Zm-2.09.82.27.69-4.63,1.83-.28-.7Zm-5.33,2.1.27.69-.92.37-.28-.7Zm-2.09.82.28.69-4.64,1.83-.27-.7Zm-5.33,2.09.27.7-.92.36-.28-.69ZM80.68,74l.28.7-4.64,1.82-.27-.69Z"/><path class="cls-1" d="M149.06,53.89l.22.71L145,55.89l-.21-.72Zm-5,1.5.22.71-1,.29-.21-.72Zm-2.14.64.21.72-4.77,1.43-.22-.71Zm-5.49,1.65.21.72-1,.28-.22-.71Zm-2.15.65.22.71-4.78,1.44-.21-.72ZM128.8,60l.22.71-1,.29-.21-.72Zm-2.14.64.21.72-4.77,1.43-.22-.72Zm-5.49,1.65.21.72-.95.28-.22-.71Zm-2.15.64.22.72-4.78,1.43-.21-.71Zm-5.49,1.65.22.72-1,.29-.21-.72Zm-2.14.65.21.71-4.77,1.44-.21-.72Zm-5.49,1.65.21.71-1,.29-.21-.72Zm-2.15.64.22.72L99.2,69.65,99,68.94Zm-5.49,1.65.22.72-1,.28-.22-.71Zm-2.14.65.21.71L91.56,72l-.21-.72Zm-5.49,1.64.22.72-1,.29-.21-.72Zm-2.15.65.22.72-4.77,1.43-.22-.72ZM83,73.74l.21.71-.95.29L82,74Zm-2.15.64.21.72-4.77,1.43-.21-.71Z"/><path class="cls-1" d="M150.32,60.24l.16.79-1,.22-.17-.79Zm-2.35.5.17.78-5.21,1.09-.16-.78ZM142,62l.16.78-1,.22-.17-.78Zm-2.35.49.17.79-5.21,1.09-.16-.79Zm-6,1.26.17.78-1,.22-.17-.78Zm-2.34.49.17.78-5.21,1.09-.16-.78Zm-6,1.25.17.79-1,.22-.17-.79ZM123,66l.17.79-5.21,1.09-.17-.78Zm-6,1.26.17.78-1,.22-.17-.78Zm-2.34.49.17.79-5.21,1.09-.17-.79Zm-6,1.26.17.78-1,.22-.17-.79Zm-2.34.49.17.78-5.21,1.09-.17-.78Zm-6,1.25.17.79-1,.22-.17-.79ZM98,71.21l.17.79L93,73.09l-.17-.78Zm-6,1.26.17.78-1,.22L91,72.69ZM89.66,73l.17.78-5.21,1.1-.17-.79Zm-6,1.26.17.78-1,.22-.17-.79Zm-2.34.49.17.78-5.21,1.09-.17-.78Z"/><path class="cls-1" d="M151.74,66.22l.1.74-4.43.56-.1-.74Zm-5.17.65.1.75-1,.12-.1-.74Zm-2.22.29.09.74-4.94.62-.09-.74Zm-5.69.72.1.74-1,.12-.09-.74Zm-2.22.28.09.74-4.94.63-.09-.74Zm-5.68.72.09.74-1,.13-.09-.74Zm-2.23.28.09.74-4.94.63-.09-.74Zm-5.68.72.09.74-1,.13-.09-.74Zm-2.23.28.1.75-5,.62-.09-.74Zm-5.68.73.09.74-1,.12L114,71Zm-2.23.28.1.74-4.94.63-.1-.75Zm-5.68.72.09.74-1,.13L106,72Zm-2.22.28.09.74-4.94.63-.1-.74Zm-5.69.72.1.74-1,.13-.1-.74Zm-2.22.28.09.74-4.94.63L92,73.8Zm-5.69.72.1.75-1,.12-.1-.74ZM89,74.18l.09.74-4.94.62-.09-.74Zm-5.69.72.1.74-1,.12L82.32,75Zm-2.22.28.09.74-4.94.63-.09-.75Z"/><path class="cls-1" d="M152.31,72.51l0,.75-4.46.19,0-.75Zm-5.21.22,0,.75-1,0,0-.74Zm-2.24.1,0,.75-5,.21,0-.74Zm-5.72.25,0,.75-1,0,0-.75Zm-2.24.1,0,.74-5,.22,0-.75Zm-5.73.24,0,.75-1,0,0-.74Zm-2.24.1,0,.75-5,.21,0-.74Zm-5.72.25,0,.74-1,0,0-.75Zm-2.24.09,0,.75-5,.22,0-.75Zm-5.73.25,0,.75-1,0,0-.74Zm-2.24.1,0,.75-5,.21,0-.75Zm-5.72.25,0,.74-1,0,0-.75Zm-2.24.09,0,.75-5,.22,0-.75Zm-5.73.25,0,.75-1,0,0-.75Zm-2.24.1,0,.74-5,.22,0-.75Zm-5.72.25,0,.74-1,0,0-.75Zm-2.24.09,0,.75-5,.21,0-.74Zm-5.72.25,0,.75-1,0,0-.75Zm-2.24.1,0,.74-5,.22,0-.75Z"/><path class="cls-1" d="M152.35,78.82l0,.75-4.46-.18,0-.74Zm-5.21-.2,0,.74-1,0,0-.74Zm-2.24-.09,0,.74-5-.19,0-.75Zm-5.72-.23,0,.75-1,0,0-.75Zm-2.24-.09,0,.75-5-.2,0-.75ZM131.21,78l0,.75-1,0,0-.74ZM129,77.9l0,.74-5-.19,0-.75Zm-5.72-.23,0,.75-1,0,0-.75ZM121,77.58l0,.75-5-.2,0-.75Zm-5.73-.23,0,.75-1,0,0-.75ZM113,77.26l0,.75-5-.2,0-.74ZM107.31,77l0,.74-1,0,0-.74ZM105.07,77l0,.74-5-.19,0-.75Zm-5.72-.23,0,.75-1,0,0-.75Zm-2.24-.09,0,.75-5-.2,0-.75Zm-5.73-.23,0,.75-1,0,0-.74Zm-2.24-.08,0,.74-5-.19,0-.75Zm-5.72-.23,0,.75-1,0,0-.75ZM81.18,76l0,.75-5-.2,0-.75Z"/><rect class="cls-1" x="113.63" y="42.73" width="0.75" height="76.21" transform="translate(19.85 184.11) rotate(-82.99)"/><path class="cls-1" d="M150.87,91.36l-.15.73-4.37-.91.15-.74Zm-5.1-1.07-.16.73-1-.2.15-.73Zm-2.2-.46-.15.74-4.88-1,.15-.73ZM138,88.67l-.15.73-1-.21.16-.73Zm-2.19-.46-.16.73-4.87-1,.15-.73ZM130.16,87l-.15.73-1-.2.15-.73Zm-2.2-.46-.15.73-4.88-1,.16-.73Zm-5.61-1.17-.15.74-1-.21.15-.73ZM120.16,85l-.15.73-4.88-1,.15-.73Zm-5.61-1.17-.15.73-1-.2.15-.74Zm-2.19-.46-.16.73-4.88-1,.16-.74Zm-5.61-1.17-.16.73-1-.2.15-.73Zm-2.2-.46-.15.74-4.88-1,.15-.73Zm-5.61-1.16-.15.73-1-.21.16-.73Zm-2.19-.46-.16.73-4.87-1,.15-.73Zm-5.61-1.17-.16.73-1-.2.15-.73Zm-2.2-.46-.15.73-4.88-1,.16-.73Zm-5.61-1.17-.15.74-1-.21.15-.73Zm-2.19-.45-.15.73-4.88-1,.15-.73Z"/><rect class="cls-1" x="112.34" y="48.9" width="0.75" height="76.21" transform="translate(-2.76 170.33) rotate(-73.48)"/><path class="cls-1" d="M147.34,103.47l-.27.7-4.16-1.62.27-.7Zm-4.86-1.89-.27.7-.93-.37.27-.69Zm-2.09-.81-.27.69-4.64-1.8.27-.7Zm-5.34-2.08-.27.69-.93-.36.28-.69ZM133,97.88l-.28.69-4.64-1.81.27-.69Zm-5.34-2.08-.28.69-.92-.36.27-.69ZM125.54,95l-.27.7-4.65-1.81.27-.69Zm-5.34-2.07-.27.69-.93-.36.27-.7Zm-2.09-.82-.27.7L113.19,91l.27-.69ZM112.77,90l-.27.7-.93-.36.27-.7Zm-2.09-.81-.27.7-4.65-1.81.28-.7Zm-5.34-2.08-.27.7-.93-.36.27-.7Zm-2.09-.81L103,87,98.34,85.2l.27-.7Zm-5.34-2.08-.27.7-.93-.36.27-.7Zm-2.09-.81-.27.69-4.64-1.8.27-.7Zm-5.34-2.08-.27.7-.93-.37.27-.69Zm-2.09-.81-.27.69-4.64-1.8.27-.7Zm-5.34-2.08-.27.69-.93-.36.27-.69ZM81,77.63l-.27.7-4.64-1.81.27-.69Z"/><rect class="cls-1" x="110.06" y="54.78" width="0.75" height="76.21" transform="translate(-21.5 151.35) rotate(-63.97)"/><path class="cls-1" d="M141.86,114.84l-.38.64-3.84-2.28.38-.65Zm-4.48-2.67-.38.64-.86-.51.39-.64ZM135.46,111l-.39.65-4.28-2.55.39-.64Zm-4.93-2.93-.38.65-.86-.51.39-.65ZM128.61,107l-.39.64L123.94,105l.39-.64ZM123.68,104l-.38.64-.86-.51.39-.64Zm-1.92-1.15-.39.64L117.09,101l.39-.64Zm-4.93-2.93-.38.64-.86-.51.39-.64Zm-1.92-1.15-.39.64-4.28-2.54.39-.65ZM110,95.86l-.38.64-.86-.51.39-.64Zm-1.92-1.15-.39.65-4.28-2.55.39-.64Zm-4.93-2.93-.38.65-.86-.51.39-.65Zm-1.92-1.14-.39.64-4.28-2.55.39-.64Zm-4.93-2.93-.38.64L95,87.84l.39-.64Zm-1.92-1.15L94,87.2l-4.28-2.55.39-.64Zm-4.93-2.93-.38.64-.86-.51.39-.64Zm-1.92-1.15-.39.64-4.28-2.55.39-.64Zm-4.93-2.93-.38.64-.86-.51.39-.64ZM80.66,78.4l-.39.65L76,76.5l.39-.65Z"/><rect class="cls-1" x="106.83" y="60.21" width="0.75" height="76.21" transform="translate(-35.1 128.43) rotate(-54.47)"/><path class="cls-1" d="M134.58,125.15l-.48.57-3.41-2.89.48-.57Zm-4-3.37-.48.57-.76-.65.48-.57Zm-1.71-1.45-.48.57-3.8-3.22.48-.57Zm-4.37-3.71-.48.57-.76-.64.48-.57Zm-1.71-1.44-.48.57-3.8-3.22L119,112Zm-4.37-3.71L118,112l-.76-.64.49-.57ZM116.73,110l-.49.57-3.8-3.22.48-.57Zm-4.38-3.7-.48.57-.76-.64.48-.57Zm-1.71-1.45-.48.57-3.8-3.22.48-.57Zm-4.37-3.7-.48.57-.76-.65.48-.57Zm-1.71-1.45-.48.57-3.8-3.22.48-.57ZM100.19,96l-.48.57-.77-.65.49-.57Zm-1.71-1.45-.49.57-3.8-3.22.49-.57Zm-4.37-3.71-.49.57-.76-.64.48-.57Zm-1.72-1.45-.48.58-3.8-3.22.48-.58ZM88,85.71l-.48.57-.76-.64.48-.57Zm-1.71-1.45-.48.57L82,81.61l.48-.57Zm-4.37-3.7-.48.57-.76-.64.48-.57Zm-1.71-1.45-.48.57-3.81-3.22.49-.57Z"/><rect class="cls-1" x="102.75" y="65.02" width="0.75" height="76.21" transform="translate(-42.72 103.08) rotate(-44.98)"/><path class="cls-1" d="M125.7,134.11l-.57.48-2.88-3.41.57-.48Zm-3.37-4-.57.48-.64-.76.57-.48Zm-1.44-1.71-.58.48-3.21-3.8.57-.48Zm-3.71-4.37-.57.48-.64-.76.57-.48Zm-1.44-1.72-.57.49L112,119l.57-.48ZM112,118l-.57.48-.64-.76.57-.48Zm-1.44-1.71-.57.48-3.22-3.8.57-.48Zm-3.71-4.37-.57.48-.64-.76.57-.49Zm-1.44-1.72-.57.49-3.22-3.81.57-.48Zm-3.7-4.37-.58.48-.64-.76.57-.48Zm-1.45-1.71-.57.48-3.22-3.8.57-.48Zm-3.7-4.38-.58.49-.64-.76.57-.49ZM95.14,98l-.57.49-3.22-3.81.57-.48Zm-3.7-4.37-.57.48-.65-.76.57-.48ZM90,91.91l-.57.48-3.22-3.8.57-.49Zm-3.7-4.38-.57.49-.65-.76.57-.49Zm-1.45-1.71-.57.49L81.05,82.5l.57-.48Zm-3.7-4.37-.57.48-.65-.76.57-.48Zm-1.45-1.71-.57.48-3.22-3.8.57-.49Z"/><rect class="cls-1" x="97.93" y="69.1" width="0.75" height="76.21" transform="translate(-43.98 77) rotate(-35.5)"/><path class="cls-1" d="M76.51,76l2.54,4.29-.64.38-2.55-4.28Zm3.18,5.36.51.85-.64.39-.51-.86Zm.89,1.5,2.55,4.28-.64.38-2.55-4.28Zm3.18,5.35.51.86-.64.38-.51-.86Zm.9,1.5L87.2,94l-.64.38L84,90.07ZM87.84,95l.51.86-.64.38-.51-.86Zm.89,1.5,2.55,4.28-.65.38-2.54-4.28Zm3.18,5.35.51.86-.64.38-.51-.86Zm.9,1.5,2.54,4.28-.64.39-2.55-4.29ZM96,108.74l.51.86-.64.38-.51-.85Zm.89,1.5,2.55,4.28-.65.39-2.54-4.29Zm3.18,5.36.51.85-.64.38-.51-.85Zm.9,1.49,2.54,4.29-.64.38-2.55-4.28Zm3.18,5.36.51.85-.64.39-.51-.86ZM105,124l2.55,4.28-.65.38-2.54-4.28Zm3.18,5.35.51.85-.64.39-.51-.86Zm.9,1.5,2.54,4.28-.64.38-2.55-4.28Zm3.18,5.35.51.86-.64.38-.51-.86Zm.89,1.5,2.28,3.84-.64.38L112.54,138Z"/><rect class="cls-1" x="92.51" y="72.32" width="0.75" height="76.21" transform="translate(-39 51.88) rotate(-25.99)"/><path class="cls-1" d="M76.53,76l1.81,4.64-.7.27-1.8-4.64Zm2.26,5.81.36.92-.7.27-.36-.92Zm.63,1.62,1.81,4.64-.7.27-1.81-4.64Zm2.26,5.81.36.92-.7.27L81,89.55Zm.63,1.62,1.8,4.64-.69.27-1.81-4.64Zm2.26,5.81.36.92-.7.27L83.87,97Zm.63,1.62L87,103l-.69.27L84.5,98.6Zm2.25,5.81.37.92-.7.27-.36-.92Zm.64,1.62,1.8,4.64-.69.28L87.39,106Zm2.25,5.81.36.92-.69.27-.36-.92Zm.64,1.62,1.8,4.64-.7.28-1.8-4.65ZM93.23,119l.36.92-.69.27-.36-.92Zm.63,1.62,1.81,4.64-.7.28-1.8-4.65Zm2.26,5.81.36.92-.69.27-.37-.92Zm.63,1.62,1.81,4.64-.7.28-1.8-4.65ZM99,133.86l.36.92-.7.27-.36-.92Zm.63,1.62,1.81,4.64-.7.28-1.81-4.65Zm2.26,5.81.36.92-.7.27-.36-.92Zm.63,1.62,1.62,4.16-.7.27-1.62-4.16Z"/><rect class="cls-1" x="86.63" y="74.61" width="0.75" height="76.21" transform="translate(-28.42 29.34) rotate(-16.5)"/><path class="cls-1" d="M76.55,76.1l1,4.88-.73.15-1-4.88Zm1.27,6.1.2,1-.73.15-.2-1Zm.35,1.7,1,4.88-.73.15-1-4.87ZM79.44,90l.2,1-.73.15-.2-1Zm.36,1.71,1,4.88-.73.15-1-4.88Zm1.26,6.1.21,1-.73.15-.21-1Zm.36,1.7,1,4.88-.73.15-1-4.87Zm1.27,6.1.2,1-.73.15-.2-1Zm.35,1.71,1,4.88-.74.15-1-4.88Zm1.27,6.1.2,1-.73.15-.2-1Zm.35,1.7,1,4.88-.73.15-1-4.87Zm1.27,6.1.21,1-.74.15-.2-1Zm.36,1.71,1,4.88-.73.15-1-4.88Zm1.27,6.1.2,1-.73.15-.21-1Zm.35,1.7,1,4.88-.73.15-1-4.87Zm1.27,6.1.2,1-.73.15-.2-1Zm.35,1.71,1,4.88-.73.15-1-4.88Zm1.27,6.1.2,1-.73.15-.2-1Zm.36,1.7.91,4.37-.74.16-.91-4.37Z"/><rect class="cls-1" x="80.45" y="75.89" width="0.75" height="76.21" transform="translate(-13.29 10.7) rotate(-7)"/><path class="cls-1" d="M76.56,76.16l.19,5-.74,0-.2-5Zm.24,6.22,0,1-.75,0,0-1Zm.07,1.75.2,5-.75,0-.2-5Zm.25,6.22,0,1-.74,0,0-1Zm.06,1.74.2,5-.75,0-.19-5Zm.25,6.23,0,1-.75,0,0-1Zm.07,1.74.19,5-.75,0-.19-5Zm.24,6.22,0,1-.75,0,0-1Zm.07,1.74.19,5-.74,0-.2-5Zm.24,6.23,0,1-.74,0,0-1Zm.07,1.74.2,5-.75,0-.2-5Zm.25,6.22,0,1-.75,0,0-1Zm.06,1.74.2,5-.75,0-.19-5Zm.25,6.23,0,1-.75,0,0-1Zm.07,1.74.19,5-.74,0-.2-5Zm.24,6.22,0,1-.75,0,0-1Zm.07,1.75.2,5-.75,0-.2-5Zm.24,6.22,0,1-.74,0,0-1Zm.07,1.74.18,4.46-.75,0-.17-4.46Z"/><rect class="cls-1" x="36.42" y="113.87" width="76.21" height="0.75" transform="translate(-42.86 183.71) rotate(-87.5)"/><path class="cls-1" d="M76.56,76.22l-.63,5-.74-.1.62-4.94Zm-.79,6.18-.13,1-.74-.09.13-1Zm-.22,1.73-.63,4.94L74.18,89,74.81,84Zm-.79,6.18-.12,1-.74-.1.12-1ZM74.54,92,73.91,97l-.74-.09.63-5Zm-.78,6.18-.13,1-.74-.1.13-1ZM73.54,100l-.63,4.94-.74-.09.63-5Zm-.79,6.17-.12,1-.75-.09.13-1Zm-.22,1.73-.63,5-.74-.1.63-4.94ZM71.75,114l-.13,1-.74-.09.12-1Zm-.22,1.73-.63,4.95-.74-.1.62-4.94Zm-.79,6.18-.13,1-.74-.09.13-1Zm-.22,1.73-.63,4.94-.74-.09.63-4.94Zm-.79,6.18-.12,1-.74-.1.12-1Zm-.22,1.73-.62,4.94-.75-.09.63-5Zm-.78,6.18-.13,1-.74-.1.13-1Zm-.22,1.73-.63,4.94-.74-.09.63-5Zm-.79,6.18-.12,1-.74-.09.12-1Zm-.22,1.73-.56,4.42-.74-.09.56-4.43Z"/><rect class="cls-1" x="30.16" y="113.08" width="76.21" height="0.75" transform="translate(-56.9 156.64) rotate(-78)"/><path class="cls-1" d="M76.54,76.28l-1.43,4.77-.72-.21,1.44-4.77Zm-1.79,6-.29,1L73.75,83,74,82Zm-.5,1.67-1.44,4.77-.72-.22,1.44-4.77Zm-1.8,6-.29,1-.71-.22.29-1ZM72,91.55l-1.44,4.77-.71-.21,1.43-4.77Zm-1.8,6-.28,1-.72-.22.29-1Zm-.5,1.67L68.22,104l-.72-.22L68.94,99Zm-1.79,6-.29.95-.72-.21.29-1Zm-.51,1.67-1.43,4.77-.72-.22,1.44-4.77Zm-1.79,6-.29,1-.71-.22.28-1Zm-.5,1.67-1.44,4.77-.71-.21,1.43-4.77Zm-1.8,6-.28,1-.72-.22.29-1Zm-.5,1.67-1.44,4.77-.71-.22L62,121.87Zm-1.79,6-.29.95-.72-.21.29-1Zm-.51,1.67L59,134.49l-.72-.22,1.44-4.77Zm-1.79,6-.29,1-.71-.22.28-.95Zm-.5,1.67-1.44,4.77-.71-.21,1.43-4.77Zm-1.8,6-.29,1-.71-.21.29-1Zm-.5,1.67-1.29,4.27-.71-.21,1.28-4.28Z"/><path class="cls-1" d="M76.53,76.31,74.71,81l-.7-.28L75.84,76Zm-2.28,5.8-.36.92-.7-.27.36-.93Zm-.64,1.62-1.82,4.64-.7-.28,1.83-4.63Zm-2.28,5.79-.37.93-.69-.27.36-.93Zm-.64,1.63-1.83,4.63-.69-.27L70,90.87Zm-2.28,5.79-.37.93-.69-.27.36-.93Zm-.64,1.62-1.83,4.64-.69-.27,1.82-4.64Zm-2.28,5.8-.37.93-.69-.28.36-.92ZM64.85,106,63,110.62l-.69-.28,1.82-4.63Zm-2.28,5.8-.37.92-.69-.27.36-.93Zm-.64,1.62L60.1,118l-.69-.27,1.82-4.63Zm-2.29,5.79-.36.93-.7-.27.37-.93ZM59,120.82l-1.83,4.63-.7-.27,1.83-4.64Zm-2.29,5.79-.36.93-.7-.28.37-.92Zm-.64,1.62-1.82,4.64-.7-.27L55.39,128ZM53.8,134l-.36.93-.7-.28.37-.93Zm-.64,1.62-1.82,4.64-.7-.28,1.83-4.63Zm-2.28,5.8-.36.92-.7-.27.37-.93Zm-.64,1.62-1.63,4.15-.7-.27,1.64-4.16Z"/><path class="cls-1" d="M76.52,76.34l-2.2,4.47-.67-.33L75.85,76Zm-2.75,5.59-.44.89-.68-.33.45-.89ZM73,83.49,70.79,88l-.67-.33,2.2-4.47Zm-2.75,5.59L69.8,90l-.67-.33.44-.89Zm-.77,1.56-2.2,4.47-.67-.33,2.2-4.47Zm-2.75,5.59-.45.89-.67-.33.45-.89Zm-.78,1.56-2.2,4.47-.67-.33,2.2-4.47Zm-2.75,5.59-.44.89-.67-.33.44-.89Zm-.77,1.56-2.2,4.47-.67-.33,2.2-4.47Zm-2.75,5.59-.45.89-.67-.33.44-.89Zm-.78,1.56-2.2,4.47-.67-.33,2.2-4.47Zm-2.75,5.59-.44.89-.67-.33.44-.89Zm-.77,1.56-2.2,4.47-.67-.33,2.2-4.47Zm-2.75,5.59-.45.89-.67-.33.44-.89Zm-.78,1.56-2.2,4.47-.67-.33,2.2-4.47ZM49.09,132l-.44.89-.67-.33.44-.89Zm-.77,1.56L46.12,138l-.67-.33,2.2-4.47Zm-2.76,5.59-.44.89-.67-.33.44-.89Zm-.77,1.56-2,4-.67-.33,2-4Z"/><path class="cls-1" d="M76.53,76.41,73.75,81l-.68-.41L75.84,76Zm-3.47,5.73-.56.92-.69-.41.56-.92Zm-1,1.6L69.3,88.33l-.68-.41,2.78-4.59Zm-3.47,5.74-.56.91L67.37,90l.55-.91Zm-1,1.6-2.78,4.59-.69-.41L67,90.67Zm-3.48,5.73-.55.92-.69-.41.56-.91Zm-1,1.61L60.41,103l-.69-.4L62.5,98Zm-3.47,5.73-.56.92-.69-.41.56-.92Zm-1,1.61L56,110.34l-.68-.41,2.78-4.58Zm-3.47,5.73-.56.92L54,112l.55-.92Zm-1,1.6-2.78,4.59-.69-.41,2.78-4.58Zm-3.48,5.74-.55.91-.69-.4.55-.92Zm-1,1.6L47.07,125l-.69-.41L49.16,120Zm-3.48,5.73-.55.92-.69-.41.56-.91Zm-1,1.61-2.78,4.59-.68-.41,2.77-4.59Zm-3.47,5.73-.56.92-.69-.41.56-.92Zm-1,1.61-2.78,4.58-.68-.4,2.78-4.59Zm-3.47,5.73-.56.92-.68-.41.55-.92Z"/><path class="cls-1" d="M76.49,76.39l-2.91,4L73,80l2.91-4Zm-3.64,5.06-.58.81-.61-.44.58-.81Zm-1,1.41-2.91,4-.61-.44,2.91-4Zm-3.64,5.06-.58.81L67,88.29l.59-.81Zm-1,1.41-2.91,4-.6-.44,2.91-4Zm-3.63,5.06L63,95.2l-.6-.44.58-.81Zm-1,1.42-2.91,4L59,99.41l2.91-4Zm-3.64,5-.58.81-.61-.44.58-.81Zm-1,1.42-2.91,4-.61-.44,2.92-4Zm-3.64,5-.58.81L53,107.7l.59-.81Zm-1,1.42-2.91,4-.6-.44,2.91-4Zm-3.63,5-.59.81-.6-.44.58-.81Zm-1,1.42-2.91,4-.61-.44,2.91-4Zm-3.64,5-.58.81-.61-.44.58-.81Zm-1,1.42-2.91,4-.61-.44,2.92-4Zm-3.64,5-.58.81-.6-.44.58-.81Zm-1,1.42-2.91,4-.6-.44,2.91-4Zm-3.63,5.05L35,134l-.6-.44.58-.81Zm-1,1.42L32,138.25l-.61-.44L34,134.19Z"/><path class="cls-1" d="M76.47,76.42l-3.24,3.79-.56-.49,3.23-3.79Zm-4,4.73-.64.76-.57-.48.65-.76Zm-1.13,1.33-3.23,3.79-.57-.49L70.72,82Zm-4,4.74L66.6,88,66,87.49l.65-.76Zm-1.13,1.32-3.24,3.79-.57-.48,3.24-3.79Zm-4.05,4.74-.64.76-.57-.49.64-.76Zm-1.13,1.33L57.7,98.4l-.56-.49,3.23-3.79Zm-4,4.73-.65.76-.57-.49.65-.75Zm-1.14,1.33-3.23,3.79L52,104l3.24-3.79Zm-4,4.74-.65.75-.57-.48.65-.76Zm-1.13,1.32-3.24,3.79-.57-.48L50,106.25Zm-4.05,4.74-.64.76-.57-.49L46,111Zm-1.13,1.32-3.23,3.79-.57-.48,3.23-3.79Zm-4,4.74-.65.76-.57-.49.65-.76Zm-1.13,1.33L37,122.65l-.57-.49,3.24-3.79Zm-4.05,4.73-.65.76-.56-.48.64-.76Zm-1.13,1.33-3.24,3.79-.57-.49,3.24-3.79ZM31,129.66l-.64.75-.57-.48.65-.76ZM29.88,131l-2.9,3.4-.57-.49,2.9-3.39Z"/><path class="cls-1" d="M76.45,76.44,72.91,80l-.53-.53,3.54-3.51ZM72,80.83l-.71.7L70.79,81l.71-.7Zm-1.24,1.22-3.54,3.51L66.72,85l3.54-3.51Zm-4.43,4.39-.7.7-.53-.53.71-.7Zm-1.23,1.23-3.54,3.51-.53-.53,3.54-3.51ZM60.7,92.05l-.7.7-.53-.53.71-.7Zm-1.23,1.23-3.54,3.51-.53-.53,3.54-3.51ZM55,97.67l-.7.7-.53-.53.71-.7Zm-1.23,1.22-3.54,3.51-.53-.53,3.54-3.51Zm-4.43,4.39-.7.7-.53-.53.71-.7Zm-1.23,1.23L44.61,108l-.53-.54,3.54-3.5Zm-4.43,4.38-.7.7-.53-.53.71-.7Zm-1.23,1.23L39,113.63l-.53-.53L42,109.59Zm-4.43,4.39-.7.7-.53-.53.71-.7Zm-1.24,1.22-3.53,3.51-.53-.53,3.54-3.51Zm-4.42,4.39-.71.7-.52-.53.71-.7Zm-1.24,1.23-3.53,3.51-.53-.54,3.54-3.5Zm-4.42,4.38-.71.7-.52-.53.71-.7ZM25.5,127l-3.17,3.14-.52-.53L25,126.43Z"/><path class="cls-1" d="M76.42,76.46l-3.81,3.21-.48-.58,3.81-3.2Zm-4.77,4-.76.64-.48-.58.76-.64Zm-1.33,1.12-3.82,3.2L66,84.22,69.84,81Zm-4.77,4-.76.64-.48-.57.76-.64Zm-1.34,1.12L60.4,89.92l-.48-.58,3.81-3.2Zm-4.77,4-.76.64-.48-.57.76-.65Zm-1.33,1.12L54.29,95l-.48-.57,3.82-3.2Zm-4.77,4-.77.64-.48-.57.77-.64ZM52,97l-3.81,3.21-.48-.58,3.81-3.2Zm-4.77,4-.76.64L46,101l.76-.64Zm-1.33,1.12-3.82,3.2-.48-.57,3.82-3.2Zm-4.77,4-.77.64-.48-.57.77-.64Zm-1.34,1.12L36,110.42l-.48-.57,3.82-3.21Zm-4.77,4-.76.64-.48-.57.76-.64Zm-1.34,1.12-3.81,3.2-.48-.57,3.81-3.2Zm-4.77,4-.76.64-.48-.57.76-.64Zm-1.33,1.12-3.82,3.21-.48-.57,3.82-3.21Zm-4.77,4-.76.64-.48-.57.76-.64Zm-1.34,1.12-3.42,2.87-.48-.57L21,122Z"/><path class="cls-1" d="M76.4,76.48l-4.07,2.88-.43-.61L76,75.87Zm-5.08,3.6-.82.57L70.07,80l.81-.57Zm-1.43,1L65.82,84l-.43-.61,4.07-2.88Zm-5.08,3.6-.82.57-.43-.61.81-.57Zm-1.43,1-4.07,2.87L58.88,88,63,85.08ZM58.3,89.28l-.82.58-.43-.61.82-.58Zm-1.43,1-4.06,2.87-.44-.61,4.07-2.87Zm-5.08,3.59-.82.58-.43-.61.82-.58Zm-1.43,1L46.3,97.77l-.44-.61,4.07-2.88Zm-5.08,3.6-.81.57L44,98.45l.82-.57Zm-1.42,1-4.07,2.88-.43-.61,4.06-2.88Zm-5.09,3.6-.81.57-.44-.61.82-.57Zm-1.42,1L33.28,107l-.43-.61,4.06-2.88Zm-5.09,3.6-.81.58-.43-.61.81-.58Zm-1.42,1-4.07,2.87-.43-.61,4.07-2.87Zm-5.09,3.59-.81.58-.43-.61.81-.58Zm-1.42,1-4.07,2.88-.43-.61,4.07-2.88Zm-5.09,3.59-.81.58-.43-.61.81-.58Zm-1.42,1-3.65,2.58-.43-.61,3.65-2.58Z"/><path class="cls-1" d="M76,75.85l.38.65L72.08,79l-.38-.65ZM70.63,79l.38.64-.86.51-.38-.65Zm-1.5.88.38.65-4.3,2.53-.38-.65Zm-5.37,3.16.38.65-.86.5-.38-.64Zm-1.5.89.38.64-4.29,2.53L58,86.48Zm-5.37,3.16.38.64-.85.51L56,87.62Zm-1.5.89.38.64-4.29,2.53-.38-.64ZM50,91.16l.38.64-.86.51-.38-.65ZM48.52,92l.38.65-4.29,2.53-.38-.65Zm-5.36,3.17.38.64-.86.51-.38-.65Zm-1.5.88.38.65-4.3,2.53-.38-.65Zm-5.37,3.16.38.65-.86.5-.38-.64Zm-1.5.89.38.64-4.29,2.53-.38-.64Zm-5.37,3.16.38.65-.86.5-.38-.64Zm-1.5.89.38.64L24,107.36l-.38-.64Zm-5.36,3.16.37.64-.85.51-.38-.64Zm-1.51.88.38.65-4.29,2.53-.38-.65Zm-5.36,3.17.38.64-.86.51-.38-.65Zm-1.5.88.37.65-3.84,2.26-.38-.64Z"/><path class="cls-1" d="M76,75.84l.33.67-4.49,2.17L71.53,78Zm-5.61,2.71.33.67-.9.43L69.52,79Zm-1.57.75.33.68-4.49,2.16-.32-.67ZM63.23,82l.33.67-.9.44-.32-.68Zm-1.57.76.33.67L57.5,85.61l-.32-.67Zm-5.61,2.71.33.67-.9.43-.32-.67Zm-1.57.75.33.68-4.49,2.16L50,88.4Zm-5.6,2.71.32.67-.9.44L48,89.37Zm-1.57.76.32.67-4.49,2.17-.32-.67ZM41.7,92.41l.32.67-.9.43-.32-.67Zm-1.57.75.32.68L36,96l-.32-.67Zm-5.61,2.71.32.68-.9.43-.32-.67ZM33,96.63l.32.67-4.49,2.17-.32-.67Zm-5.61,2.71.32.67-.89.43-.33-.67Zm-1.57.76.32.67-4.48,2.16-.33-.67Zm-5.61,2.7.32.68-.89.43-.33-.67Zm-1.57.76.32.67-4.48,2.17-.33-.67ZM13,106.27l.32.67-.89.43-.33-.67Zm-1.57.76.32.67-4,1.94L7.39,109Z"/><path class="cls-1" d="M76.05,75.83l.27.69-4.65,1.79-.27-.7Zm-5.81,2.23.27.7-.94.36-.26-.7Zm-1.63.63.27.69-4.65,1.79-.27-.7ZM62.8,80.92l.26.7-.93.35-.26-.69Zm-1.63.62.27.7L56.78,84l-.26-.7Zm-5.82,2.24.27.7-.93.35-.27-.69Zm-1.62.62.26.7-4.65,1.79-.26-.7Zm-5.82,2.24.27.69-.93.36L47,87Zm-1.63.62.27.7L41.9,89.75l-.27-.7ZM40.47,89.5l.27.69-.93.36-.27-.7Zm-1.63.62.27.7-4.65,1.79-.27-.7ZM33,92.35l.27.7-.93.36-.27-.7ZM31.4,93l.27.7L27,95.46l-.27-.69Zm-5.81,2.23.27.7-.93.36-.27-.7ZM24,95.84l.27.7-4.65,1.78-.27-.69Zm-5.81,2.23.26.7-.93.36-.26-.7Zm-1.63.63.27.7-4.65,1.78-.27-.7Zm-5.81,2.23.26.7L10,102l-.27-.7Zm-1.63.63.27.69-4.17,1.61-.27-.7Z"/><path class="cls-1" d="M76.08,75.82l.21.71-4.78,1.4-.21-.72Zm-6,1.74.21.72-1,.28-.21-.72Zm-1.67.49.21.72-4.79,1.39-.21-.71Zm-6,1.74.21.72-1,.28-.21-.72Zm-1.68.49L61,81,56.2,82.4,56,81.68ZM54.8,82l.21.72-1,.27-.21-.71Zm-1.68.49.21.71-4.78,1.4-.21-.72Zm-6,1.74.21.72-1,.28-.21-.72Zm-1.67.49.21.72L40.9,86.86l-.21-.72Zm-6,1.74.21.72-1,.28-.21-.72ZM37.82,87l.21.72-4.79,1.4L33,88.38Zm-6,1.75.21.71-1,.28L30.88,89Zm-1.68.48.21.72-4.78,1.4-.21-.72Zm-6,1.75.2.72-.95.28-.21-.72Zm-1.68.49.21.72-4.78,1.39-.21-.72Zm-6,1.74.21.72-.95.28-.21-.72Zm-1.67.49.21.72-4.78,1.39-.21-.71Zm-6,1.75.21.71-1,.28-.21-.72Zm-1.67.48.21.72L3.13,97.88l-.21-.72Z"/><path class="cls-1" d="M76.08,75.76l.16.8L71,77.62l-.17-.79Zm-6.59,1.33.16.8-1.05.21-.17-.79Zm-1.85.38.16.79-5.27,1.06-.16-.79ZM61.05,78.8l.17.79-1.06.21L60,79Zm-1.84.37.16.79L54.1,81l-.17-.8ZM52.62,80.5l.16.79-1.05.22-.17-.8Zm-1.85.37.16.8-5.27,1.06-.16-.79ZM44.18,82.2l.17.8-1.06.21-.16-.79Zm-1.84.38.16.79-5.27,1.06-.17-.79Zm-6.59,1.33.16.79-1,.21-.17-.79Zm-1.85.37.16.79-5.27,1.07-.16-.8Zm-6.59,1.33.17.79-1.06.22-.16-.8ZM25.47,86l.16.8-5.27,1.06-.17-.79Zm-6.59,1.33.16.8L18,88.32l-.17-.79ZM17,87.69l.16.79-5.27,1.06-.16-.79ZM10.44,89l.16.79-1,.21-.16-.79Zm-1.84.37.16.79L3.49,91.25l-.17-.8ZM2,90.72l.16.79-1,.22L1,90.93Z"/><path class="cls-1" d="M76.14,75.8l.09.75-5,.58-.09-.74ZM70,76.54l.08.74-1,.12L69,76.66Zm-1.74.2.09.75-5,.58-.08-.74ZM62,77.48l.09.74-1,.12-.09-.74Zm-1.73.2.09.75L55.45,79l-.09-.74Zm-6.19.74.09.74-1,.12-.09-.74Zm-1.73.2.09.75L47.53,80l-.09-.74Zm-6.18.74.09.74-1,.12-.09-.74Zm-1.73.2.08.75-4.94.58-.09-.74Zm-6.19.74.09.74-1,.12-.09-.75Zm-1.73.2.09.75-4.95.58-.09-.74Zm-6.18.74.08.74-1,.12-.08-.75Zm-1.74.2.09.74-4.95.59L23.7,82Zm-6.18.74.09.74-1,.12-.09-.75Zm-1.73.2.09.74-5,.59L15.78,83Zm-6.19.74.09.74-1,.12-.09-.75Zm-1.73.2.09.74L8,84.65l-.09-.74Zm-6.18.74.08.74-1,.12-.09-.75Zm-1.73.2L5,85l-4.43.53-.09-.74Z"/><path class="cls-1" d="M115,10.17l-2,3.49-.64-.39,2-3.48Zm-2.34,4.07-.45.78-.64-.39.45-.77Zm-1,1.75-2.24,3.89-.63-.39L111,15.61Zm-2.57,4.47-.45.78-.64-.39.45-.77Zm-1,1.75-2.24,3.89-.64-.38,2.24-3.89Zm-2.57,4.47-.45.78-.64-.38.45-.78Zm-1,1.75-2.24,3.89-.64-.38,2.24-3.89Zm-2.57,4.48-.45.77-.64-.38.45-.78Zm-1,1.74-2.24,3.89L98,38.16l2.24-3.89Zm-2.57,4.48-.45.77-.64-.38.45-.78Zm-1,1.75L95.1,44.77l-.64-.39,2.24-3.89Zm-2.57,4.47-.45.78-.64-.39.45-.78Zm-1,1.75L91.52,51l-.64-.39,2.24-3.89Zm-2.57,4.47-.45.78L90.1,52l.45-.78Zm-1,1.75-2.24,3.89-.64-.39,2.24-3.89Zm-2.57,4.47-.45.78-.64-.39.45-.77Zm-1,1.75-2.24,3.89L83.72,63,86,59.16ZM84,64l-.45.78-.64-.38.45-.78Zm-1,1.75-2.24,3.89-.64-.38,2.24-3.89Z"/><ellipse class="cls-1" cx="75.01" cy="76.83" rx="65.47" ry="64.83" transform="translate(-30.53 57.07) rotate(-35.08)"/><line class="cls-2" x1="98.76" y1="26.95" x2="81.45" y2="74.21"/><path class="cls-2" d="M116,67.5c.64,2.67,4.12,18.37-5.71,33.16a42.41,42.41,0,0,1-22.46,16.68"/><path class="cls-2" d="M81,37.68A38.66,38.66,0,0,0,58.89,40.1,39.4,39.4,0,0,0,45.11,50.37c-.39.45-1,1.14-1.65,2A47.12,47.12,0,0,0,34.67,75.6c-1.36,19.11,14,33.5,15.23,34.64"/><line class="cls-2" x1="53.95" y1="74.33" x2="64.88" y2="46.15"/><line class="cls-2" x1="105.23" y1="41.23" x2="92" y2="77.99"/><line class="cls-2" x1="109.27" y1="71.24" x2="99.98" y2="96.43"/><path class="cls-2" d="M55.11,90.89s23.6-13.69,34.65,14.3C89.76,105.19,64.75,119.66,55.11,90.89Z"/><ellipse class="cls-2" cx="72.54" cy="98.31" rx="9.82" ry="9.76" transform="translate(-43.56 136.35) rotate(-71.72)"/><circle class="cls-3" cx="72.82" cy="98.29" r="2.97" transform="translate(-29.63 165.12) rotate(-86.59)"/><path class="cls-2" d="M50.94,82.29A37,37,0,0,0,47.8,94.71c-.32,4.41-.8,11,3.32,17.54a24.86,24.86,0,0,0,14.29,10.31c10.37,2.9,19-2.78,20.29-3.68l.5-.34a30.59,30.59,0,0,0,10.73-14"/><line class="cls-2" x1="84.24" y1="29.7" x2="69.23" y2="71.18"/><line class="cls-2" x1="91.63" y1="101.48" x2="105.38" y2="97.78"/><ellipse class="cls-3" cx="96.42" cy="90.42" rx="0.44" ry="0.47" transform="translate(-21.33 30.37) rotate(-16.14)"/><ellipse class="cls-3" cx="94.03" cy="86.74" rx="0.47" ry="0.44" transform="translate(-6.76 165.53) rotate(-80.71)"/><ellipse class="cls-3" cx="87.16" cy="80.98" rx="0.47" ry="0.44" transform="translate(-6.83 153.93) rotate(-80.71)"/><ellipse class="cls-3" cx="83.09" cy="78.64" rx="0.47" ry="0.44" transform="translate(-7.93 147.94) rotate(-80.71)"/><ellipse class="cls-3" cx="78.14" cy="76.32" rx="0.47" ry="0.44" transform="translate(-9.79 141.12) rotate(-80.71)"/><ellipse class="cls-3" cx="73.98" cy="69.27" rx="0.47" ry="0.44" transform="matrix(0.18, -0.98, 0.98, 0.18, -7.56, 129.46)"/><ellipse class="cls-3" cx="74.23" cy="67.67" rx="0.47" ry="0.44" transform="translate(-5.78 128.39) rotate(-79.55)"/><ellipse class="cls-3" cx="62.74" cy="75.44" rx="0.47" ry="0.44" transform="matrix(0.33, -0.94, 0.94, 0.33, -29.3, 109.44)"/><ellipse class="cls-3" cx="49.77" cy="71.6" rx="0.47" ry="0.44" transform="translate(-36.71 82.75) rotate(-62.54)"/><ellipse class="cls-3" cx="49.1" cy="70" rx="0.47" ry="0.44" transform="translate(-35.65 81.3) rotate(-62.54)"/><ellipse class="cls-3" cx="95.77" cy="80.52" rx="0.47" ry="0.44" transform="translate(7.78 169.48) rotate(-85.37)"/><ellipse class="cls-3" cx="97.13" cy="79.37" rx="0.47" ry="0.44" transform="translate(10.17 169.77) rotate(-85.37)"/><line class="cls-2" x1="83.53" y1="90.79" x2="94.37" y2="81.85"/><line class="cls-2" x1="71.63" y1="85.05" x2="73.64" y2="70.85"/><line class="cls-2" x1="55.48" y1="86.64" x2="50.26" y2="73.06"/><line class="cls-2" x1="97.02" y1="94.38" x2="89.65" y2="97.82"/><line class="cls-2" x1="94.99" y1="91.37" x2="88.09" y2="95.65"/><line class="cls-2" x1="92.45" y1="88.16" x2="86.22" y2="93.31"/><line class="cls-2" x1="86.04" y1="82.71" x2="81.14" y2="89"/><line class="cls-2" x1="82.19" y1="80.4" x2="78.24" y2="87.26"/><line class="cls-2" x1="77.55" y1="78.43" x2="75.02" y2="85.89"/><ellipse class="cls-3" cx="67.87" cy="75.16" rx="0.47" ry="0.44" transform="translate(-21.53 122.73) rotate(-75.93)"/><line class="cls-2" x1="67.95" y1="76.82" x2="68.05" y2="84.69"/><line class="cls-2" x1="62.98" y1="76.99" x2="63.66" y2="84.85"/><ellipse class="cls-3" cx="57.18" cy="76.41" rx="0.47" ry="0.44" transform="translate(-35.36 99.75) rotate(-67.35)"/><line class="cls-2" x1="57.54" y1="77.86" x2="59.43" y2="85.56"/><ellipse class="cls-3" cx="98.28" cy="93.86" rx="0.47" ry="0.44" transform="translate(-10.21 175.71) rotate(-80.71)"/><ellipse class="cls-3" cx="107.17" cy="97.23" rx="0.44" ry="0.47" transform="translate(-19.74 27.71) rotate(-13.5)"/><ellipse class="cls-3" cx="108.8" cy="96.75" rx="0.44" ry="0.47" transform="translate(-19.58 28.08) rotate(-13.5)"/></g></g></svg>