<?xml version="1.0" encoding="utf-8"?>
<!-- Generator: Adobe Illustrator 24.0.3, SVG Export Plug-In . SVG Version: 6.00 Build 0)  -->
<svg version="1.1" id="Layer_1" xmlns="http://www.w3.org/2000/svg" xmlns:xlink="http://www.w3.org/1999/xlink" x="0px" y="0px"
	 viewBox="0 0 263.9 259.4" style="enable-background:new 0 0 263.9 259.4;" xml:space="preserve">
<style type="text/css">
	.st0{fill:#B5885E;}
	.st1{font-family:'LibreBaskerville-Regular';}
	.st2{font-size:31.6072px;}
	.st3{font-size:31.65px;}
	.st4{font-size:31.5628px;}
	.st5{font-size:31.5946px;}
	.st6{font-size:31.5359px;}
	.st7{font-size:31.6453px;}
	.st8{font-size:31.7779px;}
	.st9{font-size:31.4882px;}
	.st10{font-size:31.7921px;}
	.st11{font-size:31.7274px;}
	.st12{font-size:31.5311px;}
	.st13{fill:#C59E6E;}
	.st14{fill:none;stroke:#FFFFFF;stroke-width:1.44;stroke-miterlimit:10;}
	.st15{fill:none;stroke:#FFFFFF;stroke-width:1.29;stroke-miterlimit:10;}
	.st16{fill:#FFFFFF;stroke:#FFFFFF;stroke-width:0.59;stroke-miterlimit:10;}
	.st17{fill:none;stroke:#FFFFFF;stroke-width:0.52;stroke-miterlimit:10;}
	.st18{fill:#FFFFFF;}
	.st19{fill:none;stroke:#FFFFFF;stroke-width:0.59;stroke-miterlimit:10;}
</style>
<title>Asset 10</title>
<g id="text-circle">
	<text transform="matrix(0.5708 0.8211 -0.8211 0.5708 208.0006 70.959)" class="st0 st1 st2">s</text>
	<text transform="matrix(0.4586 0.8886 -0.8886 0.4586 215.7699 82.18)" class="st0 st1 st3">t</text>
	<text transform="matrix(0.3211 0.947 -0.947 0.3211 221.1397 92.0001)" class="st0 st1 st3">a</text>
	<text transform="matrix(0.1592 0.9872 -0.9872 0.1592 226.4502 107.74)" class="st0 st1 st3">r</text>
	<text transform="matrix(2.129143e-02 0.9998 -0.9998 2.129143e-02 228.6807 121.92)" class="st0 st1 st3">t</text>
	<text transform="matrix(-0.2927 0.9562 -0.9562 -0.2927 226.8896 150.17)" class="st0 st1 st3">s</text>
	<text transform="matrix(-0.4187 0.9081 -0.9081 -0.4187 222.8705 163.1902)" class="st0 st1 st3">t</text>
	<text transform="matrix(-0.5493 0.8356 -0.8356 -0.5493 218.4294 173.4402)" class="st0 st1 st3">a</text>
	<text transform="matrix(-0.6776 0.7354 -0.7354 -0.6776 209.2595 187.3396)" class="st0 st1 st3">r</text>
	<text transform="matrix(-0.7695 0.6386 -0.6386 -0.7695 199.4691 197.8704)" class="st0 st1 st3">t</text>
	<text transform="matrix(-0.9257 0.3782 -0.3782 -0.9257 176.2093 214.1403)" class="st0 st1 st3">s</text>
	<text transform="matrix(-0.9663 0.2575 -0.2575 -0.9663 163.5499 219.28)" class="st0 st1 st3">t</text>
	<text transform="matrix(-0.9927 0.1203 -0.1203 -0.9927 152.7902 222.3998)" class="st0 st1 st4">a</text>
	<text transform="matrix(-0.9993 -3.664381e-02 3.664381e-02 -0.9993 136.2098 224.3397)" class="st0 st1 st3">r</text>
	<text transform="matrix(-0.9866 -0.1632 0.1632 -0.9866 121.8302 223.7601)" class="st0 st1 st3">t</text>
	<text transform="matrix(-0.8936 -0.4489 0.4489 -0.8936 94.2597 216.8801)" class="st0 st1 st3">s</text>
	<text transform="matrix(-0.829 -0.5592 0.5592 -0.829 82.0399 210.7102)" class="st0 st1 st3">t</text>
	<text transform="matrix(-0.7413 -0.6712 0.6712 -0.7413 72.6196 204.66)" class="st0 st1 st5">a</text>
	<text transform="matrix(-0.6222 -0.7828 0.7828 -0.6222 60.3089 193.4495)" class="st0 st1 st6">r</text>
	<text transform="matrix(-0.5101 -0.8601 0.8601 -0.5101 51.3808 182.1992)" class="st0 st1 st7">t</text>
	<text transform="matrix(-0.2198 -0.9755 0.9755 -0.2198 38.93 156.7498)" class="st0 st1 st3">s</text>
	<text transform="matrix(-8.963770e-02 -0.996 0.996 -8.963770e-02 35.9591 143.4598)" class="st0 st1 st8">t</text>
	<text transform="matrix(7.637094e-02 -0.9971 0.9971 7.637094e-02 34.61 132.4205)" class="st0 st1 st3">a</text>
	<text transform="matrix(0.2267 -0.974 0.974 0.2267 35.7999 115.7599)" class="st0 st1 st3">r</text>
	<text transform="matrix(0.3592 -0.9333 0.9333 0.3592 39.1001 101.8001)" class="st0 st1 st3">t</text>
	<text transform="matrix(0.6332 -0.774 0.774 0.6332 51.5103 76.3396)" class="st0 st1 st9">s</text>
	<text transform="matrix(0.7267 -0.6869 0.6869 0.7267 60.1705 65.8)" class="st0 st1 st10">t</text>
	<text transform="matrix(0.8211 -0.5708 0.5708 0.8211 68.1493 57.9298)" class="st0 st1 st2">a</text>
	<text transform="matrix(0.8993 -0.4373 0.4373 0.8993 81.81 48.39)" class="st0 st1 st3">r</text>
	<text transform="matrix(0.9477 -0.3192 0.3192 0.9477 94.76 42.1502)" class="st0 st1 st11">t</text>
	<text transform="matrix(0.9971 7.550084e-02 -7.550084e-02 0.9971 130.9899 34.9099)" class="st0 st1 st3">s</text>
	<text transform="matrix(0.9817 0.1903 -0.1903 0.9817 144.6398 35.8993)" class="st0 st1 st5">t</text>
	<text transform="matrix(0.9457 0.3251 -0.3251 0.9457 155.68 37.76)" class="st0 st1 st3">a</text>
	<text transform="matrix(0.8829 0.4696 -0.4696 0.8829 171.4399 43.2099)" class="st0 st1 st3">r</text>
	<text transform="matrix(0.8131 0.5822 -0.5822 0.8131 184.1198 50.0196)" class="st0 st1 st12">t</text>
</g>
<g id="mainLogo">
	
		<image style="display:none;overflow:visible;opacity:0.17;enable-background:new    ;" width="811" height="819" xlink:href="AD58D0E10E4C7160.png"  transform="matrix(0.24 0 0 0.24 41.65 38.9)">
	</image>
	<ellipse class="st13" cx="132" cy="130.2" rx="82.2" ry="83.1"/>
	<line class="st14" x1="153.4" y1="71" x2="135.7" y2="129.9"/>
	<path class="st14" d="M177.3,119.2c1,3.2,6.4,22.1-4.6,40.8c-6,10.1-15.2,17.8-26.1,22"/>
	<path class="st14" d="M132.5,85.4c-9.2-1.2-18.5,0.4-26.8,4.6c-6.3,3.3-11.7,7.9-16,13.5c-0.4,0.6-1.1,1.5-1.9,2.6
		c-4.4,6.5-8.9,17.9-9,28.9c-0.3,23.4,19.5,39.8,21.1,41.1"/>
	<line class="st14" x1="102.2" y1="132" x2="113.5" y2="96.9"/>
	<line class="st14" x1="162.3" y1="87.9" x2="148.8" y2="133.7"/>
	<line class="st14" x1="169.4" y1="124.2" x2="159.9" y2="155.6"/>
	<path class="st15" d="M104.8,152.1c0,0,27.8-18.4,43.3,14.9C148.1,167,118.7,186.5,104.8,152.1z"/>
	
		<ellipse transform="matrix(0.2566 -0.9665 0.9665 0.2566 -60.4382 241.1973)" class="st15" cx="126.6" cy="159.9" rx="12" ry="11.9"/>
	<ellipse class="st16" cx="126.9" cy="159.8" rx="3.6" ry="3.6"/>
	<path class="st14" d="M99.1,141.9c-1.9,4.9-2.9,10.1-2.9,15.4c-0.1,5.4-0.2,13.5,5.3,21.1c6.5,9.1,16.4,11.1,18.2,11.5
		c12.8,2.8,22.9-4.8,24.5-6l0.6-0.5c5.7-4.6,9.9-10.8,12.1-17.8"/>
	<line class="st14" x1="135.9" y1="75.4" x2="120.6" y2="127.1"/>
	<line class="st17" x1="150.1" y1="162.4" x2="166.6" y2="156.9"/>
	
		<ellipse transform="matrix(0.9423 -0.3346 0.3346 0.9423 -40.7665 60.4693)" class="st18" cx="155.1" cy="148.5" rx="0.5" ry="0.6"/>
	
		<ellipse transform="matrix(0.1024 -0.9947 0.9947 0.1024 -7.1156 280.6041)" class="st18" cx="151.9" cy="144.2" rx="0.6" ry="0.5"/>
	
		<ellipse transform="matrix(0.1024 -0.9947 0.9947 0.1024 -8.5019 266.0193)" class="st18" cx="143.2" cy="137.7" rx="0.6" ry="0.5"/>
	
		<ellipse transform="matrix(0.1024 -0.9947 0.9947 0.1024 -10.5712 258.6053)" class="st18" cx="138" cy="135.2" rx="0.6" ry="0.5"/>
	
		<ellipse transform="matrix(0.1024 -0.9947 0.9947 0.1024 -13.6855 250.2246)" class="st18" cx="131.8" cy="132.7" rx="0.6" ry="0.5"/>
	
		<ellipse transform="matrix(0.1226 -0.9925 0.9925 0.1226 -12.6954 234.4149)" class="st18" cx="126.2" cy="124.4" rx="0.6" ry="0.5"/>
	
		<ellipse transform="matrix(0.1226 -0.9925 0.9925 0.1226 -10.5761 232.8718)" class="st18" cx="126.4" cy="122.4" rx="0.6" ry="0.5"/>
	<ellipse transform="matrix(0.2766 -0.961 0.961 0.2766 -45.8085 204.5811)" class="st18" cx="113" cy="132.7" rx="0.6" ry="0.5"/>
	<ellipse transform="matrix(0.4075 -0.9132 0.9132 0.4075 -60.3898 164.9183)" class="st18" cx="96.9" cy="129" rx="0.6" ry="0.5"/>
	<ellipse transform="matrix(0.4075 -0.9132 0.9132 0.4075 -59.2127 162.9425)" class="st18" cx="96" cy="127.1" rx="0.6" ry="0.5"/>
	
		<ellipse transform="matrix(2.129143e-02 -0.9998 0.9998 2.129143e-02 13.8485 287.1896)" class="st18" cx="153.6" cy="136.5" rx="0.6" ry="0.5"/>
	
		<ellipse transform="matrix(2.129143e-02 -0.9998 0.9998 2.129143e-02 16.8802 287.2834)" class="st18" cx="155.2" cy="135" rx="0.6" ry="0.5"/>
	<line class="st19" x1="139.4" y1="149.9" x2="152" y2="138.2"/>
	<line class="st17" x1="124.5" y1="143.8" x2="125.9" y2="126.3"/>
	<line class="st17" x1="104.9" y1="146.9" x2="97.6" y2="130.7"/>
	<line class="st17" x1="156.1" y1="153.3" x2="147.4" y2="158.1"/>
	<line class="st17" x1="153.4" y1="149.8" x2="145.4" y2="155.5"/>
	<line class="st17" x1="150.1" y1="146.1" x2="142.9" y2="152.8"/>
	<line class="st17" x1="141.9" y1="139.9" x2="136.4" y2="147.9"/>
	<line class="st17" x1="137.1" y1="137.4" x2="132.7" y2="146"/>
	<line class="st17" x1="131.2" y1="135.3" x2="128.7" y2="144.6"/>
	
		<ellipse transform="matrix(0.1848 -0.9828 0.9828 0.1848 -32.5504 224.7623)" class="st18" cx="119.2" cy="132" rx="0.6" ry="0.5"/>
	<line class="st19" x1="119.4" y1="134" x2="120.1" y2="143.6"/>
	<line class="st19" x1="113.4" y1="134.6" x2="114.8" y2="144.1"/>
	
		<ellipse transform="matrix(0.3295 -0.9441 0.9441 0.3295 -55.558 190.4004)" class="st18" cx="106.3" cy="134.3" rx="0.6" ry="0.5"/>
	<line class="st19" x1="106.8" y1="136.1" x2="109.7" y2="145.3"/>
	
		<ellipse transform="matrix(0.1024 -0.9947 0.9947 0.1024 -10.3032 293.7863)" class="st18" cx="157.6" cy="152.6" rx="0.6" ry="0.5"/>
	<ellipse transform="matrix(0.9567 -0.291 0.291 0.9567 -38.1084 55.856)" class="st18" cx="168.7" cy="156" rx="0.5" ry="0.6"/>
	<ellipse transform="matrix(0.9567 -0.291 0.291 0.9567 -37.8197 56.3965)" class="st18" cx="170.7" cy="155.3" rx="0.5" ry="0.6"/>
</g>
</svg>
