<?xml version="1.0" encoding="utf-8"?>
<!-- Generator: Adobe Illustrator 24.0.3, SVG Export Plug-In . SVG Version: 6.00 Build 0)  -->
<svg version="1.1" id="Layer_1" xmlns="http://www.w3.org/2000/svg" xmlns:xlink="http://www.w3.org/1999/xlink" x="0px" y="0px"
	 viewBox="0 0 1280 718.3" style="enable-background:new 0 0 1280 718.3;" xml:space="preserve">
<style type="text/css">
	.st0{opacity:0.33;fill:#EFCAA5;enable-background:new    ;}
	.st1{fill:none;stroke:#D38D30;stroke-width:4;stroke-miterlimit:10;enable-background:new    ;}
</style>
<title>overlay</title>
<g id="Layer_2_1_">
	<g id="Layer_1-2">
		<g id="Overlay">
			<path id="main_overlay" class="st0" d="M0,0v718.3h1280V0H0z M826.6,189.7l-11.3,36.5c-1.4,5.2-3.9,13.6-7.5,23.9
				c-5.3,15.3-8.9,22.8-15.6,40.7c-2.4,6.4-6,16-10,28.1l-17.1,73.1l-19.8,90.5c0,0-4,35.9-27.3,43.1c0,0-18.5,9.8-65.4,9.4
				c-21.7,0.6-43.3-3.1-63.3-10.9c-4.3-2.1-8.4-4.7-12.1-7.7c-10.3-8.3-14.5-17-23.2-32c-3.9-6.9-9.9-17.1-17.9-29.7
				c-5.1-5.8-9.9-11.8-14.2-18.1c-11-15.9-19.7-33-25.7-50.9c-2.2-7.2-4.7-14.7-7.6-22.4c-4.2-11.3-8.6-21.8-13.1-31.4
				c-4.7-6.8-9-13.9-12.9-21.1c-4.5-8.4-8.5-17-11.9-25.8c-1.7-7.5,1-15.4,7.2-20.6c6.3-5.2,15.7-5.9,22.9-1.9
				c3.3,2.1,6.5,4.5,9.5,7c9.9,8.4,17.8,18.5,23.4,29.6l32.2,52.8c0,0,6.9,9.5,7.6-3c0,0,5.6-100-7-154.4l-15.3-86.6
				c0,0-8.9-32.7,11.5-35.3c0,0,19.3-8.5,27.4,18.9l21.2,78.2l17,61.7c0.7,5,4.6,8.4,8,8.3c4.1-0.1,8.7-5.2,7.4-11.7
				c-0.1-5.4-0.2-13.6-0.4-23.5c-0.2-13-0.3-25.6-0.4-33.8c-0.2-14-0.4-35.3-0.2-67.7l1.3-39.4c-0.2-4.1,0.8-8.1,2.8-11.7
				c2.9-5.2,8.1-9.1,14.3-10.8c5.3-0.6,10.7,0.8,14.8,3.8c9.4,7.1,8.1,19.4,8,20c2.4,26.2,3.2,47.5,3.4,62c0.8,42.7,1.2,64,1,69.6
				c-0.8,23.7-2.8,44.8,5.4,48c1.9,0.6,4,0.5,5.8-0.4c12.2-4.5,14.9-23.8,23.1-60.3c0,0,4.1-18.3,12.4-51.4
				c4.7-18.6,9-33.6,11.7-43.2c0,0,4.3-16.4,22.6-13.3c0,0,16.4,2.8,15.8,27l-17.6,82.8l-13.9,58.6l-4.2,21.4c0,0-2,12.7,0.5,14.6
				c0,0,6.8,8.1,11.6-3.2l17.6-40.4l21.6-44.6l12.5-21.6c2-2.5,4.6-4.6,7.7-5.9c7.5-3.1,16.5-1.4,21.9,4.3
				C827.9,174.8,829.4,182.6,826.6,189.7z"/>
			<path id="main_x5F_hand" class="st1" d="M827.4,189.7L816,226.2c-1.4,5.2-3.9,13.6-7.5,23.9c-5.3,15.3-8.9,22.8-15.6,40.7
				c-2.4,6.4-6,16-10,28.1l-17.1,73.1l-19.8,90.5c0,0-4,35.9-27.3,43.1c0,0-18.5,9.8-65.4,9.4c-21.7,0.6-43.3-3.1-63.3-10.9
				c-4.3-2.1-8.4-4.7-12.1-7.7c-10.3-8.3-14.5-17-23.2-32c-3.9-6.9-9.9-17.1-17.9-29.7c-5.1-5.8-9.9-11.8-14.2-18.1
				c-11-15.9-19.7-33-25.7-50.9c-2.2-7.2-4.7-14.7-7.6-22.4c-4.2-11.3-8.6-21.8-13.1-31.4c-4.7-6.8-9-13.9-12.9-21.1
				c-4.5-8.4-8.5-17-11.9-25.8c-1.7-7.5,1-15.4,7.2-20.6c6.3-5.2,15.7-5.9,22.9-1.9c3.3,2.1,6.5,4.5,9.5,7
				c9.9,8.4,17.8,18.5,23.4,29.6l32.2,52.8c0,0,6.9,9.5,7.6-3c0,0,5.6-100-7-154.4l-15.3-86.6c0,0-8.9-32.7,11.5-35.3
				c0,0,19.3-8.5,27.4,18.9l21.2,78.2l17,61.7c0.7,5,4.6,8.4,8,8.3c4.1-0.1,8.7-5.2,7.4-11.7c-0.1-5.4-0.2-13.6-0.4-23.5
				c-0.2-13-0.3-25.6-0.4-33.8c-0.2-14-0.4-35.3-0.2-67.7l1.3-39.4c-0.2-4.1,0.8-8.1,2.8-11.7c2.9-5.2,8.1-9.1,14.3-10.8
				c5.3-0.6,10.7,0.8,14.8,3.8c9.4,7.1,8.1,19.4,8,20c2.4,26.2,3.2,47.5,3.4,62c0.8,42.7,1.2,64,1,69.6c-0.8,23.7-2.8,44.8,5.4,48
				c1.9,0.6,4,0.5,5.8-0.4c12.2-4.5,14.9-23.8,23.1-60.3c0,0,4.1-18.3,12.4-51.4c4.7-18.6,9-33.6,11.7-43.2c0,0,4.3-16.4,22.6-13.3
				c0,0,16.4,2.8,15.8,27l-17.6,82.8l-13.9,58.6l-4.2,21.4c0,0-2,12.7,0.5,14.6c0,0,6.8,8.1,11.6-3.2l17.6-40.4l21.6-44.6l12.5-21.6
				c2-2.5,4.6-4.6,7.7-5.9c7.5-3.1,16.5-1.4,21.9,4.3C828.7,174.8,830.2,182.6,827.4,189.7z"/>
		</g>
	</g>
</g>
</svg>
