<svg xmlns="http://www.w3.org/2000/svg" viewBox="0 0 153.02 98.5"><defs><style>.cls-1{fill:#c3996b;}.cls-2{fill:#fff;}.cls-3{font-size:26.75px;fill:#cd983f;font-family:LibreBaskerville-Bold, Libre Baskerville;font-weight:700;}.cls-4{letter-spacing:-0.01em;}.cls-5{letter-spacing:-0.03em;}</style></defs><title>shop_btn</title><g id="Layer_2" data-name="Layer 2"><g id="Layer_1-2" data-name="Layer 1"><polygon class="cls-1" points="76.5 49.01 76.54 49.49 0.09 52.02 0.05 51.53 76.5 49.01"/><path class="cls-1" d="M76.53,49l0,.48-5-.1,0-.48Zm-6.25-.13,0,.49-1,0,0-.49Zm-1.75,0,0,.48-5-.1,0-.48Zm-6.25-.13,0,.48-1,0,0-.48Zm-1.75,0,0,.49-5-.1,0-.49Zm-6.26-.12,0,.48-1,0,0-.48Zm-1.75,0,0,.48-5-.1,0-.48Zm-6.25-.13,0,.49-1,0,0-.49Zm-1.75,0,0,.48-5-.1,0-.48Zm-6.25-.13,0,.48-1,0,0-.48Zm-1.75,0,0,.49-5-.1,0-.49Zm-6.25-.12,0,.48-1,0,0-.48Zm-1.75,0,0,.48-5-.1,0-.48Zm-6.26-.13,0,.49-1,0,0-.49Zm-1.75,0,0,.48-5-.1,0-.48Zm-6.25-.13,0,.48-1,0,0-.48Zm-1.75,0,0,.49-5-.1,0-.49Zm-6.25-.12,0,.48-1,0,0-.48Zm-1.75,0,0,.48L0,47.93l0-.48Z"/><polygon class="cls-1" points="76.56 49.01 76.48 49.49 0.43 43.86 0.52 43.38 76.56 49.01"/><path class="cls-1" d="M76.59,49l-.14.47-4.91-.63.15-.48Zm-6.13-.79-.15.47-1-.13.15-.47ZM68.74,48l-.14.48-4.91-.63.15-.48Zm-6.13-.79-.15.48-1-.13.15-.47ZM60.89,47l-.15.48-4.9-.63.14-.48Zm-6.13-.79-.15.48-1-.13.15-.47ZM53,46l-.15.48L48,45.82l.14-.47Zm-6.13-.79-.15.48-1-.13.14-.47ZM45.19,45l-.15.48-4.91-.64.15-.47Zm-6.13-.79-.15.48-1-.13.14-.47ZM37.34,44l-.15.47-4.91-.63.15-.47Zm-6.14-.79-.14.47-1-.12.14-.48ZM29.49,43l-.15.47-4.91-.63.15-.47Zm-6.14-.79-.14.47-1-.12.15-.48Zm-1.72-.22-.14.47-4.91-.63.15-.47Zm-6.13-.79-.15.47-1-.12.15-.48Zm-1.72-.22-.14.47-4.91-.63.15-.48Zm-6.13-.79-.15.47-1-.13L6.67,40Zm-1.72-.22-.15.47-4.39-.57.14-.47Z"/><polygon class="cls-1" points="76.62 49.02 76.42 49.48 2.86 35.85 3.06 35.39 76.62 49.02"/><path class="cls-1" d="M76.65,49l-.26.45-4.68-1.15.27-.45ZM70.81,47.6l-.27.45-.94-.23.27-.45Zm-1.64-.4-.27.45L64.22,46.5l.27-.45Zm-5.85-1.43-.26.45L62.12,46l.27-.45Zm-1.64-.41-.26.46-4.68-1.15.27-.45Zm-5.84-1.43-.27.46-.93-.23.26-.46Zm-1.64-.4-.27.45-4.67-1.14.26-.45ZM48.35,42.1l-.26.45-.94-.22.27-.46Zm-1.63-.4-.27.45L41.77,41l.27-.45Zm-5.85-1.43-.27.45-.93-.23.26-.45Zm-1.64-.4-.27.45-4.67-1.14.26-.45Zm-5.85-1.43-.26.45-.94-.23.27-.45ZM31.75,38l-.27.45L26.8,37.35l.27-.45ZM25.9,36.61l-.27.45-.93-.23.26-.45Zm-1.64-.4-.26.45-4.68-1.14.26-.46Zm-5.84-1.43-.27.45L17.21,35l.27-.45Zm-1.64-.4-.27.45-4.68-1.15.27-.45ZM10.93,33l-.27.45-.93-.23.26-.45Zm-1.64-.4L9,33l-4.2-1,.27-.45Z"/><polygon class="cls-1" points="76.68 49.03 76.36 49.47 7.3 28.21 7.63 27.77 76.68 49.03"/><path class="cls-1" d="M76.71,49l-.38.42L72,47.84l.38-.42Zm-5.4-2-.38.42-.86-.33.38-.41Zm-1.51-.57-.38.42L65.1,45.23l.38-.41Zm-5.4-2-.38.42-.87-.33.38-.41Zm-1.52-.57-.37.42-4.32-1.63.37-.41Zm-5.4-2-.37.42-.87-.33.38-.42ZM56,41.24l-.38.42L51.27,40l.38-.42Zm-5.4-2-.38.42-.86-.33.38-.42Zm-1.51-.57-.38.42-4.32-1.63.38-.42Zm-5.4-2-.38.41-.86-.32.38-.42ZM42.15,36l-.38.42-4.32-1.63.38-.42Zm-5.4-2-.38.41-.87-.32.38-.42Zm-1.52-.57-.37.41-4.32-1.62.37-.42Zm-5.4-2-.37.41-.87-.32.38-.42Zm-1.51-.57-.38.41-4.32-1.62.38-.42Zm-5.4-2-.38.42-.86-.32.38-.42Zm-1.51-.57-.38.42L16.71,27l.38-.42Zm-5.4-2-.38.42-.86-.33.38-.41Zm-1.51-.57-.38.42-3.87-1.46.38-.41Z"/><polygon class="cls-1" points="76.74 49.05 76.31 49.45 13.64 21.15 14.08 20.75 76.74 49.05"/><path class="cls-1" d="M76.76,49.07l-.48.37-3.84-2.06.48-.38ZM72,46.49l-.49.37-.76-.41.48-.37Zm-1.35-.72-.48.37-3.85-2.06.49-.37ZM65.8,43.19l-.48.37-.77-.41.49-.37Zm-1.34-.72-.48.37-3.85-2.06.48-.37Zm-4.81-2.58-.48.37-.77-.41.48-.37Zm-1.34-.72-.48.37L54,37.48l.48-.37ZM53.5,36.59,53,37l-.77-.41.48-.37Zm-1.34-.72-.48.37-3.85-2.06.48-.37Zm-4.81-2.58-.48.37-.77-.41.48-.37ZM46,32.57l-.48.37-3.85-2.06.48-.37ZM41.2,30l-.48.37L40,30l.48-.37Zm-1.35-.72-.48.37-3.84-2.06.48-.37Zm-4.8-2.58-.48.37-.77-.41.48-.37ZM33.7,26l-.48.37-3.84-2.06.48-.37Zm-4.8-2.58-.48.37-.77-.41.48-.37Zm-1.35-.72-.48.37L23.23,21l.48-.37Zm-4.8-2.58-.48.37-.77-.41.48-.37Zm-1.35-.72-.48.37-3.44-1.85.48-.37Z"/><polygon class="cls-1" points="76.78 49.08 76.26 49.42 21.71 14.85 22.24 14.51 76.78 49.08"/><path class="cls-1" d="M76.81,49.1l-.57.31L73,47l.57-.32ZM72.73,46l-.57.32-.66-.49.57-.32Zm-1.15-.85L71,45.5l-3.26-2.44.57-.32Zm-4.07-3.06-.57.32L66.28,42l.57-.31Zm-1.15-.85-.57.31-3.26-2.44.57-.31Zm-4.08-3.05-.56.31-.66-.49.57-.31Zm-1.14-.86-.57.32-3.26-2.45.57-.31Zm-4.08-3-.57.31-.65-.48.57-.32Zm-1.14-.86-.57.32-3.26-2.44.57-.32Zm-4.08-3.05-.57.32-.65-.49.57-.32Zm-1.14-.85-.57.31-3.26-2.44.57-.32ZM46.62,26.5l-.57.32-.65-.49L46,26Zm-1.14-.85-.57.31-3.26-2.44.57-.31ZM41.4,22.59l-.57.32-.65-.49.57-.31Zm-1.14-.85-.57.32-3.26-2.45L37,19.3Zm-4.08-3-.57.31L35,18.51l.57-.31ZM35,17.83l-.57.32L31.21,15.7l.57-.31Zm-4.08-3-.57.31-.65-.48.57-.32Zm-1.14-.86-.57.32-2.93-2.19.57-.31Z"/><polygon class="cls-1" points="76.82 49.11 76.22 49.4 31.28 9.5 31.89 9.22 76.82 49.11"/><path class="cls-1" d="M37.19,7l2.32,2.47-.64.25L36.55,7.23ZM39.9,9.86l.52.55-.64.25-.52-.55Zm1.17,1.24,2.59,2.76-.64.25-2.59-2.76Zm3,3.17.52.55-.64.25-.52-.55Zm1.17,1.24,2.59,2.76-.64.25-2.6-2.76Zm3,3.17.52.55-.65.25-.51-.55Zm1.16,1.24L52,22.67l-.65.25-2.59-2.75Zm3,3.17.52.55-.64.25-.52-.55Zm1.17,1.24,2.59,2.75-.64.25-2.59-2.75Zm3,3.17.52.55-.64.25-.52-.55Zm1.17,1.24,2.59,2.75-.64.25L57,29Zm3,3.17.52.55-.64.25L60,32.16Zm1.17,1.24L64.4,35.9l-.64.25-2.6-2.75Zm3,3.16.52.56-.65.25-.51-.56ZM66,37.55l2.6,2.76-.65.25L65.31,37.8Zm3,3.17.51.55-.64.25L68.29,41ZM70.1,42l2.59,2.76-.64.25-2.59-2.76Zm3,3.17.52.55-.64.25-.52-.55Zm1.17,1.24,2.59,2.76-.64.25-2.59-2.76Z"/><polygon class="cls-1" points="42.76 5.03 76.86 49.15 76.18 49.36 42.09 5.24 42.76 5.03"/><path class="cls-1" d="M48.57,3.38l1.65,2.68-.69.18L47.87,3.56ZM50.5,6.51l.37.6-.7.18-.37-.6Zm.83,1.35,1.85,3-.69.18L50.64,8Zm2.13,3.44.37.6-.7.18-.37-.6Zm.83,1.35,1.86,3-.7.18-1.85-3Zm2.13,3.44.37.6-.69.18-.37-.6Zm.84,1.35,1.85,3-.7.18-1.85-3Zm2.12,3.44.37.6-.69.18-.37-.6Zm.84,1.35,1.85,3-.7.18-1.85-3Zm2.12,3.44.37.6-.69.17-.37-.59ZM63.18,27,65,30l-.7.18-1.85-3Zm2.12,3.45.37.6-.69.17-.37-.59Zm.84,1.34,1.85,3-.7.18-1.85-3Zm2.12,3.45.37.59-.69.18-.37-.6Zm.84,1.34,1.85,3-.7.17-1.85-3ZM71.23,40l.37.6-.7.18-.37-.6Zm.83,1.35,1.85,3-.7.18-1.85-3Zm2.13,3.44.37.6-.7.18-.37-.6ZM75,46.17l1.85,3-.7.18-1.85-3Z"/><polygon class="cls-1" points="54.56 2.05 76.88 49.18 76.16 49.32 53.84 2.19 54.56 2.05"/><path class="cls-1" d="M60.71,1l.95,2.82-.74.1L60,1.14Zm1.1,3.29L62,5l-.74.11-.21-.63Zm.48,1.42L63.35,8.9l-.74.1-1-3.15Zm1.22,3.62.21.63-.74.1-.21-.63ZM64,10.79,65,13.94l-.73.1-1.06-3.15Zm1.22,3.62.21.63-.73.1-.21-.63Zm.47,1.42L66.73,19l-.73.11-1.06-3.15Zm1.22,3.62.21.63-.73.1-.21-.63Zm.48,1.41L68.43,24l-.74.1L66.63,21Zm1.21,3.62.22.63-.74.11-.21-.63Zm.48,1.42,1.06,3.15-.74.1-1-3.15Zm1.22,3.62.21.63-.74.1-.21-.63Zm.47,1.42,1.06,3.15-.73.1L70,31ZM72,34.56l.21.63-.73.1-.21-.63ZM72.44,36l1.06,3.15-.73.1-1.06-3.15Zm1.22,3.62.21.63-.73.1-.21-.63ZM74.14,41l1,3.14-.73.11L73.4,41.12Zm1.21,3.62.21.63-.73.1-.21-.63Zm.48,1.41,1.06,3.15-.74.1L75.1,46.16Z"/><polygon class="cls-1" points="66.96 0.36 76.89 49.22 76.15 49.28 66.22 0.42 66.96 0.36"/><path class="cls-1" d="M73.28,0l.21,2.88-.75,0L72.53,0Zm.25,3.37,0,.64-.75,0,0-.64Zm.11,1.45.23,3.21-.75,0-.23-3.22Zm.27,3.7,0,.64-.75,0,0-.64ZM74,10l.24,3.22-.75,0L73.26,10Zm.28,3.7,0,.65-.75,0,0-.64Zm.1,1.45.24,3.22-.75,0-.24-3.21Zm.27,3.7,0,.65-.75,0,0-.64Zm.11,1.45L75,23.5l-.75,0L74,20.3ZM75,24l0,.65-.75,0,0-.65Zm.11,1.45.23,3.22-.75,0-.23-3.22Zm.27,3.7,0,.64-.75,0,0-.65Zm.11,1.45.23,3.22-.75,0-.23-3.22Zm.27,3.7,0,.64-.75,0,0-.64Zm.1,1.45.24,3.21-.75,0-.24-3.22Zm.28,3.7,0,.64-.75,0,0-.64Zm.1,1.45.24,3.21-.75,0-.24-3.22Zm.27,3.7,0,.64-.75,0,0-.64ZM76.66,46l.24,3.22-.75,0-.24-3.21Z"/><polygon class="cls-1" points="79.63 0.02 76.9 49.26 76.14 49.24 78.88 0 79.63 0.02"/><path class="cls-1" d="M86,.35l-.53,2.87-.75-.06L85.2.29ZM85.33,3.7l-.12.64-.75-.06.12-.64Zm-.27,1.44-.59,3.2-.75-.06.6-3.2Zm-.68,3.68-.12.64-.74-.06.12-.64Zm-.27,1.44-.59,3.19-.74,0,.59-3.2Zm-.68,3.67-.11.64-.75-.05.12-.64Zm-.26,1.44-.59,3.2-.75-.05.59-3.2Zm-.68,3.68-.12.64-.75-.05.12-.64Zm-.27,1.44-.59,3.2-.75-.06.59-3.2Zm-.68,3.68-.12.64-.74-.06.11-.64Zm-.27,1.44-.59,3.2-.74-.06.59-3.2Zm-.68,3.68-.12.64-.74-.06.12-.64Zm-.26,1.44-.6,3.2L79,33.87l.59-3.2Zm-.68,3.68-.12.64L78.78,35l.12-.64Zm-.27,1.44-.59,3.2L78,39l.59-3.2Zm-.68,3.67-.12.64-.75,0,.12-.64ZM78.43,41l-.59,3.2-.75,0,.6-3.2Zm-.68,3.68-.12.64-.74-.05.12-.64Zm-.26,1.44-.6,3.2-.74-.06L76.74,46Z"/><polygon class="cls-1" points="92.2 1.02 76.89 49.3 76.15 49.2 91.47 0.93 92.2 1.02"/><path class="cls-1" d="M98.35,2,97.09,4.79l-.72-.13,1.26-2.77ZM96.88,5.26l-.28.62-.72-.14.28-.62Zm-.63,1.39-1.4,3.09-.72-.13,1.4-3.1Zm-1.61,3.56-.28.61-.72-.13.28-.62ZM94,11.6,92.6,14.69l-.72-.14,1.41-3.09Zm-1.62,3.55-.28.62-.72-.13.28-.62Zm-.63,1.39-1.4,3.1-.72-.14L91,16.41ZM90.15,20.1l-.28.62-.73-.14.29-.62Zm-.64,1.39-1.4,3.09-.72-.13,1.4-3.09ZM87.9,25.05l-.28.62-.72-.14.28-.62Zm-.63,1.39-1.41,3.09-.72-.13,1.41-3.1ZM85.65,30l-.28.62-.72-.13.28-.62ZM85,31.39l-1.4,3.09-.72-.14,1.4-3.09Zm-1.61,3.55-.28.62-.72-.13.28-.62Zm-.63,1.39-1.41,3.1-.72-.14,1.41-3.09Zm-1.62,3.56-.28.62-.72-.14.28-.62Zm-.63,1.39-1.4,3.09-.72-.13,1.4-3.09Zm-1.61,3.56-.28.62-.73-.14.29-.62Zm-.64,1.39-1.4,3.09-.72-.13,1.4-3.1Z"/><polygon class="cls-1" points="104.35 3.35 76.87 49.34 76.17 49.17 103.65 3.17 104.35 3.35"/><path class="cls-1" d="M110.16,5l-2,2.6-.68-.21,2-2.6Zm-2.28,3-.43.58-.68-.21.44-.58Zm-1,1.31-2.17,2.9-.68-.21,2.18-2.9Zm-2.5,3.34-.44.58-.67-.21.43-.58Zm-1,1.3-2.18,2.9-.67-.21,2.17-2.9Zm-2.5,3.34-.44.58-.68-.21.44-.58Zm-1,1.3-2.18,2.9-.68-.21,2.18-2.9ZM97.43,22l-.43.58-.68-.21.44-.58Zm-1,1.3-2.17,2.9-.68-.21L95.78,23ZM94,26.59l-.44.58L92.84,27l.43-.58Zm-1,1.3-2.18,2.9-.67-.21,2.17-2.9Zm-2.5,3.34-.44.58-.68-.21.44-.58Zm-1,1.3-2.18,2.91-.68-.22,2.18-2.9ZM87,35.87l-.43.58-.68-.21.44-.58Zm-1,1.31-2.17,2.9-.68-.21L85.33,37Zm-2.5,3.33-.44.58-.67-.21.43-.58Zm-1,1.31-2.18,2.9-.67-.21,2.17-2.9ZM80,45.15l-.44.58-.68-.21.44-.58Zm-1,1.31-2.18,2.9-.68-.21,2.18-2.9Z"/><path class="cls-1" d="M121,9.17l-2.59,2.36-.61-.28,2.59-2.36Zm-3,2.75-.58.53-.61-.28.58-.53Zm-1.3,1.18-2.89,2.63-.61-.28,2.89-2.63Zm-3.32,3-.58.52-.62-.28.58-.52Zm-1.31,1.18-2.89,2.63-.61-.28L111.48,17Zm-3.32,3-.58.52-.61-.28.58-.52Zm-1.3,1.18-2.89,2.63-.61-.28,2.89-2.63Zm-3.33,3-.57.53-.62-.28.58-.53Zm-1.3,1.19L100,28.36l-.61-.28,2.89-2.63Zm-3.32,3-.58.53L98.33,29l.58-.53Zm-1.3,1.18-2.89,2.63-.62-.28,2.9-2.63Zm-3.33,3-.57.52-.62-.28.58-.52Zm-1.3,1.18L90.7,36.77l-.61-.28L93,33.86Zm-3.32,3-.58.53-.61-.28.58-.52ZM89,38.35,86.08,41l-.62-.28,2.9-2.63Zm-3.33,3-.57.53-.62-.28.58-.53Zm-1.3,1.19-2.89,2.63-.61-.28,2.89-2.63Zm-3.32,3-.58.53-.61-.28.58-.53Zm-1.3,1.18-2.89,2.63-.62-.28,2.89-2.63Z"/><polygon class="cls-1" points="126.05 11.68 76.81 49.41 76.23 49.1 125.47 11.37 126.05 11.68"/><path class="cls-1" d="M130.71,14.45l-3.16,2.05-.53-.34,3.16-2.05ZM127,16.84l-.7.46-.54-.34.71-.46Zm-1.59,1-3.52,2.29-.53-.34,3.52-2.29Zm-4.05,2.63-.7.46-.54-.34.71-.46Zm-1.59,1-3.52,2.28-.53-.34,3.52-2.28Zm-4.05,2.63-.7.45-.54-.34.71-.45Zm-1.59,1-3.52,2.28-.53-.34,3.52-2.28Zm-4.05,2.63-.71.45-.53-.34.71-.45Zm-1.59,1L105,31.13l-.53-.34L108,28.5Zm-4.05,2.63-.71.46-.53-.34.71-.46Zm-1.59,1-3.52,2.29-.53-.34,3.52-2.29Zm-4.05,2.63-.71.46-.53-.34.71-.46Zm-1.59,1-3.52,2.29-.53-.34,3.52-2.29Zm-4,2.63-.71.46-.53-.34.71-.46Zm-1.59,1-3.52,2.29-.54-.34,3.53-2.29Zm-4,2.63-.71.46-.53-.34.71-.46Zm-1.59,1-3.52,2.28-.54-.34,3.53-2.28Zm-4,2.63-.71.45-.53-.34.71-.45Zm-1.59,1-3.52,2.28-.54-.34,3.53-2.28Z"/><path class="cls-1" d="M135,17.46l-3.41,1.87L131.1,19l3.41-1.87Zm-4,2.18-.77.42-.48-.37.76-.41Zm-1.72.94-3.8,2.09-.49-.36,3.81-2.09ZM124.92,23l-.76.42-.48-.37.76-.42Zm-1.71.94L119.4,26l-.48-.37,3.8-2.09Zm-4.38,2.4-.76.42-.49-.37.77-.41Zm-1.71.94-3.81,2.1-.48-.37,3.8-2.09Zm-4.38,2.41-.76.42-.49-.37.76-.42Zm-1.71.94-3.81,2.09-.49-.37,3.81-2.09ZM106.65,33l-.76.42-.49-.37.76-.41Zm-1.71.94-3.81,2.1-.49-.37,3.81-2.09Zm-4.38,2.41-.76.42-.49-.37.76-.42Zm-1.71.94L95,39.4,94.55,39l3.81-2.09Zm-4.38,2.4-.76.42-.49-.36.76-.42Zm-1.72.95L89,42.75l-.49-.37,3.81-2.09Zm-4.37,2.4-.77.42-.48-.37.76-.42ZM86.66,44l-3.8,2.09-.49-.37,3.81-2.09Zm-4.38,2.4-.76.42L81,46.46,81.8,46Zm-1.71,1-3.81,2.09-.48-.37L80.08,47Z"/><path class="cls-1" d="M138.89,20.68l-3.64,1.69-.44-.4,3.64-1.68Zm-4.25,2-.82.38-.43-.4.81-.37Zm-1.83.85-4.06,1.88-.44-.4,4.06-1.88Zm-4.67,2.16-.82.37-.43-.39.81-.37Zm-1.83.84-4.07,1.89-.43-.4,4.06-1.88Zm-4.67,2.17-.82.37-.44-.39.82-.37Zm-1.83.84-4.07,1.88-.43-.39,4.06-1.88Zm-4.68,2.17-.81.37-.44-.39.82-.38Zm-1.82.84-4.07,1.88L108.8,34l4.07-1.88Zm-4.68,2.17-.81.37-.44-.39.82-.38Zm-1.82.84-4.07,1.88L102.3,37l4.07-1.88Zm-4.68,2.16-.81.38-.44-.39.81-.38Zm-1.83.85-4.06,1.88L95.8,40l4.07-1.88ZM95.63,40.7l-.81.38-.44-.39.81-.38Zm-1.83.85-4.06,1.88L89.3,43l4.07-1.88Zm-4.67,2.16-.81.38-.44-.39.81-.38Zm-1.83.85-4.06,1.88-.44-.39,4.07-1.88Zm-4.67,2.16-.81.38-.44-.39.81-.38Zm-1.83.85-4.06,1.88-.44-.39,4.06-1.88Z"/><path class="cls-1" d="M142,23.69l.39.41-3.85,1.49-.38-.42Zm-4.49,1.73.39.42-.86.33-.39-.42Zm-1.93.75.39.41-4.29,1.66-.39-.41Zm-4.93,1.91.38.41-.85.33-.39-.41Zm-1.93.74.38.42-4.29,1.65-.38-.41Zm-4.94,1.91.39.41-.86.33-.39-.41Zm-1.93.74.39.42-4.29,1.66-.39-.42Zm-4.93,1.91.38.41-.86.34-.38-.42Zm-1.93.75.38.41L111,36.2l-.39-.42ZM110,36l.39.42-.86.33-.39-.42Zm-1.93.75.39.41-4.29,1.66-.39-.41Zm-4.93,1.9.38.42-.86.33-.38-.41Zm-1.94.75.39.42L97.31,41.5l-.39-.41Zm-4.93,1.91.39.41-.86.33-.39-.41Zm-1.93.74.39.42-4.3,1.66-.38-.42ZM89.41,44l.39.41-.86.34-.38-.42Zm-1.93.75.39.41-4.29,1.66-.39-.42Zm-4.93,1.9.39.42-.86.33L81.69,47Zm-1.93.75.38.41-4.29,1.66-.38-.41Z"/><path class="cls-1" d="M145,27.26l.34.44-4,1.27-.33-.43Zm-4.69,1.49.33.44-.9.28-.33-.43Zm-2,.64.33.44-4.49,1.42-.33-.43ZM133.14,31l.34.43-.9.29-.33-.43Zm-2,.64.34.43L127,33.53l-.33-.44ZM126,33.31l.33.43-.89.29-.34-.44Zm-2,.64.33.43-4.49,1.43-.33-.44Zm-5.16,1.64.33.43-.9.28-.33-.43Zm-2,.64.33.43-4.49,1.42-.33-.43Zm-5.16,1.63.33.44-.9.28-.33-.43Zm-2,.64.33.44-4.49,1.42-.33-.43Zm-5.17,1.64.33.43-.89.29-.33-.44Zm-2,.64.33.43-4.48,1.43-.34-.44Zm-5.16,1.64.33.43-.9.29-.33-.44Zm-2,.64.33.43-4.49,1.42-.33-.43Zm-5.16,1.63.33.44-.9.28L89.15,45Zm-2,.65.33.43-4.49,1.42-.33-.43ZM82.86,47l.34.44-.9.28L82,47.26Zm-2,.64.34.44-4.49,1.42L76.35,49Z"/><path class="cls-1" d="M147.62,31l.27.45-4.17,1.06-.28-.45Zm-4.87,1.23.27.45-.93.24-.28-.45Zm-2.1.53.27.45-4.65,1.18-.28-.45Zm-5.36,1.36.28.45-.93.24-.28-.45Zm-2.09.53.27.45-4.65,1.18-.28-.45ZM127.84,36l.28.45-.93.23-.28-.45Zm-2.09.53L126,37l-4.66,1.18-.27-.45Zm-5.36,1.35.28.45-.94.24-.27-.45Zm-2.09.54.27.44L113.91,40l-.27-.45Zm-5.36,1.35.28.45-.94.24L112,40Zm-2.1.53.28.45-4.66,1.18-.27-.45Zm-5.35,1.36.27.45-.93.23-.27-.45Zm-2.1.53.28.45L99,43.82l-.27-.45ZM98,43.54l.27.45-.93.24-.27-.45Zm-2.1.54.28.44L91.56,45.7l-.27-.45Zm-5.35,1.35.27.45-.93.24-.27-.45Zm-2.1.53.28.45-4.66,1.18-.28-.45Zm-5.35,1.36.27.45-.93.23-.28-.45Zm-2.1.53.28.45-4.66,1.18L76.38,49Z"/><path class="cls-1" d="M149.72,34.84l.22.47-4.3.83-.21-.47Zm-5,1,.21.46-.95.19-.22-.46Zm-2.16.42.22.46-4.8.93-.21-.46ZM137,37.3l.22.46-1,.18-.22-.46Zm-2.16.41.22.47-4.79.92-.22-.46Zm-5.51,1.07.22.46-1,.19-.22-.47Zm-2.16.42.22.46-4.79.93-.22-.47Zm-5.51,1.06.22.46-1,.19-.22-.46Zm-2.15.42.21.46-4.79.93-.22-.46ZM114,41.74l.22.47-1,.18-.21-.46Zm-2.15.42.21.46-4.79.93-.21-.46Zm-5.51,1.07.21.46-1,.19-.21-.47Zm-2.16.41.22.47-4.8.92-.21-.46ZM98.7,44.71l.21.46-1,.19-.22-.46Zm-2.16.42.22.46L92,46.52l-.22-.46ZM91,46.19l.22.47-1,.18-.22-.46Zm-2.16.42.22.46L84.3,48l-.22-.46Zm-5.51,1.07.22.46-1,.19-.22-.47Zm-2.15.41.21.47-4.79.92L76.41,49Z"/><path class="cls-1" d="M151,39l.17.51-1.05.14-.17-.51Zm-2.35.32.16.51-5.23.7-.16-.5Zm-6,.81.17.51-1.05.14-.16-.51Zm-2.35.32.17.51-5.23.7L135,41.1Zm-6,.81.17.51-1,.14-.17-.51Zm-2.35.32.17.5-5.23.71-.17-.51Zm-6,.81.17.51L125,43l-.17-.51Zm-2.36.32.17.5-5.23.71-.17-.51Zm-6,.81.17.51-1.05.14-.17-.51Zm-2.35.32.17.5L110.1,45l-.17-.51Zm-6,.81.17.5-1,.15-.17-.51Zm-2.35.32.17.5-5.23.71-.17-.51Zm-6,.81.16.5-1,.15-.17-.51ZM98.42,46l.17.51-5.23.71-.17-.51Zm-6,.82.17.5-1,.14-.17-.5Zm-2.35.31.16.51L85,48.39l-.16-.51ZM84,48l.17.5-1,.14-.16-.5Zm-2.35.31.17.51-5.23.71L76.46,49Z"/><path class="cls-1" d="M152.41,42.82l.1.47-4.45.37-.1-.48Zm-5.19.42.09.48-1,.08-.09-.48Zm-2.24.18.1.48-5,.41-.09-.48Zm-5.7.47.09.48-1,.08-.1-.48Zm-2.24.18.1.48-5,.4-.09-.48Zm-5.71.47.1.48-1,.08-.09-.48Zm-2.23.18.09.48-5,.4-.1-.48Zm-5.71.46.09.48-1,.08-.09-.47Zm-2.24.19.1.48-5,.4-.09-.48Zm-5.7.46.09.48-1,.08-.1-.48Zm-2.24.18.1.48-5,.41-.09-.48Zm-5.71.47.1.48-1,.08-.09-.48Zm-2.23.18.09.48-5,.41-.1-.48Zm-5.71.47.09.48-1,.08-.09-.48Zm-2.24.18.1.48-5,.41-.09-.48Zm-5.7.47.09.48-1,.08-.1-.48ZM89.38,48l.1.48-5,.4-.09-.48Zm-5.71.47.1.48-1,.08-.09-.48Zm-2.23.18.09.48-5,.4-.1-.48Z"/><path class="cls-1" d="M153,46.88l0,.48-4.48.13,0-.48Zm-5.23.15,0,.48-1,0,0-.48Zm-2.25.06,0,.48-5,.14,0-.48Zm-5.75.16,0,.48-1,0,0-.48Zm-2.25.06,0,.49-5,.13,0-.48Zm-5.75.16,0,.49-1,0,0-.48Zm-2.25.07,0,.48-5,.14,0-.49Zm-5.75.16,0,.48-1,0,0-.49Zm-2.25.06,0,.48-5,.14,0-.48Zm-5.75.16,0,.48-1,0,0-.48ZM113.5,48l0,.48-5,.14,0-.48Zm-5.75.16,0,.48-1,0,0-.48Zm-2.25.06,0,.49-5,.14,0-.49Zm-5.75.16,0,.49-1,0,0-.48Zm-2.25.07,0,.48-5,.14,0-.48Zm-5.75.16,0,.48-1,0,0-.49Zm-2.25.06,0,.48-5,.14,0-.48Zm-5.75.16,0,.48-1,0,0-.48Zm-2.25.06,0,.48-5,.14,0-.48Z"/><path class="cls-1" d="M153,51l0,.49-4.48-.12,0-.48Zm-5.23-.13,0,.48-1,0,0-.48Zm-2.25-.06,0,.49-5-.13,0-.48Zm-5.75-.14,0,.48-1,0,0-.48Zm-2.25-.06,0,.48-5-.13,0-.48Zm-5.75-.15,0,.49-1,0,0-.48Zm-2.25-.05,0,.48-5-.13,0-.48Zm-5.75-.15,0,.48-1,0,0-.49Zm-2.25-.06,0,.48-5-.12,0-.49ZM115.79,50l0,.49-1,0,0-.48Zm-2.25,0,0,.48-5-.13,0-.48Zm-5.75-.15,0,.48-1,0,0-.49Zm-2.25-.06,0,.48-5-.12,0-.49Zm-5.75-.14,0,.48-1,0,0-.48Zm-2.25-.06,0,.48-5-.13,0-.48Zm-5.75-.15,0,.48-1,0,0-.48Zm-2.25-.06,0,.49-5-.13,0-.48Zm-5.75-.14,0,.48-1,0,0-.48Zm-2.25-.06,0,.48-5-.13,0-.48Z"/><polygon class="cls-1" points="152.54 55.04 152.45 55.52 76.47 49.49 76.57 49.01 152.54 55.04"/><path class="cls-1" d="M151.53,59.07l-.15.47L147,59l.15-.47Zm-5.12-.69-.15.47-1-.13.15-.47Zm-2.21-.3-.15.48-4.9-.66.16-.47Zm-5.63-.75-.15.47-1-.13.15-.47Zm-2.2-.3-.16.48-4.9-.66.16-.47Zm-5.64-.75-.15.47-1-.13.15-.47Zm-2.2-.3-.16.47-4.89-.65.15-.48Zm-5.64-.75-.15.47-1-.13.15-.48Zm-2.2-.3-.15.47-4.9-.65.15-.48Zm-5.63-.76-.16.48-1-.13.16-.48Zm-2.21-.29-.15.47-4.9-.66.15-.47Zm-5.63-.76-.16.48-1-.14.16-.47ZM105,52.83l-.15.47-4.9-.66.15-.47Zm-5.63-.76-.16.47-1-.13.16-.47Zm-2.21-.29-.15.47-4.9-.66.15-.47ZM91.54,51l-.15.47-1-.13.15-.47Zm-2.21-.3-.15.48-4.9-.66.16-.47ZM83.7,50l-.15.47-1-.13.15-.47Zm-2.2-.3-.16.48-4.9-.66L76.6,49Z"/><polygon class="cls-1" points="150.01 63.03 149.8 63.49 76.41 49.48 76.63 49.02 150.01 63.03"/><path class="cls-1" d="M148,66.9l-.27.45-4.18-1,.27-.45Zm-4.88-1.22-.27.45-.93-.24.27-.45Zm-2.1-.53-.27.45-4.66-1.17.27-.45Zm-5.36-1.34-.27.45-.94-.23.28-.45Zm-2.1-.53-.27.45-4.66-1.17.27-.45Zm-5.36-1.34-.27.45-.94-.23.28-.45Zm-2.1-.53-.27.45-4.67-1.16.28-.46Zm-5.36-1.34-.28.45-.93-.23.27-.45Zm-2.1-.53-.27.45-4.67-1.16.27-.45Zm-5.36-1.34-.28.45-.93-.23.27-.45Zm-2.1-.53-.28.45L106.23,57l.27-.45Zm-5.37-1.34-.27.45-.93-.23.27-.45Zm-2.1-.53-.27.46-4.66-1.17.27-.45Zm-5.36-1.34-.27.45-.93-.23.27-.45Zm-2.1-.52-.27.45-4.66-1.17.27-.45Zm-5.36-1.35-.27.45-.93-.23.27-.45Zm-2.1-.52-.27.45-4.66-1.17.27-.45Zm-5.36-1.35-.27.45-.94-.23.28-.45Zm-2.1-.52-.27.45-4.67-1.17.28-.45Z"/><polygon class="cls-1" points="145.47 70.65 145.15 71.08 76.36 49.47 76.69 49.04 145.47 70.65"/><path class="cls-1" d="M142.49,74.25l-.39.42-3.85-1.48.38-.42ZM138,72.53l-.39.41-.86-.33.39-.41Zm-1.94-.74-.38.41-4.3-1.65.38-.41Zm-4.94-1.9-.39.42-.86-.33.39-.42Zm-1.94-.74-.38.41-4.3-1.64.38-.42Zm-4.94-1.9-.39.42-.86-.33.39-.42Zm-1.94-.74-.38.42-4.3-1.65.38-.42Zm-4.94-1.89L117,65l-.86-.33.39-.41Zm-1.94-.74-.38.41-4.3-1.65.38-.41ZM110.47,62l-.39.42-.86-.33.39-.42Zm-1.94-.74-.38.41L103.85,60l.38-.42Zm-4.94-1.9-.39.42-.86-.33.39-.42Zm-1.94-.74-.38.42L97,57.37l.38-.42Zm-4.94-1.89-.39.41-.86-.33.39-.41ZM94.77,56l-.38.41-4.3-1.65.38-.41Zm-4.94-1.9-.39.42-.86-.33.39-.42Zm-1.94-.74-.38.41-4.3-1.64.38-.42ZM83,51.43l-.39.42-.86-.33.39-.42ZM81,50.69l-.38.42-4.3-1.65.38-.41Z"/><polygon class="cls-1" points="139.05 77.68 138.61 78.07 76.3 49.45 76.74 49.06 139.05 77.68"/><path class="cls-1" d="M135.17,80.91l-.48.37-3.42-1.86.48-.37Zm-4-2.17-.49.37-.76-.42.49-.37Zm-1.72-.94-.48.37-3.82-2.08.48-.37Zm-4.39-2.39-.49.36-.76-.41.49-.37Zm-1.72-.94-.48.37-3.82-2.08.48-.37ZM119,72.07l-.49.37-.76-.41.49-.37Zm-1.72-.93-.48.37-3.82-2.09.48-.36Zm-4.39-2.4-.49.37-.76-.41.49-.37Zm-1.72-.93-.48.37-3.82-2.09.48-.37Zm-4.39-2.4-.49.37-.76-.42L106,65ZM105,64.48l-.48.36-3.82-2.08.48-.37Zm-4.39-2.4-.48.37L99.38,62l.49-.37Zm-1.72-.94-.48.37-3.82-2.08.48-.37Zm-4.39-2.39-.49.37-.76-.42.49-.37Zm-1.72-.94-.48.37L88.5,56.1l.48-.37Zm-4.39-2.39-.48.37-.77-.42.49-.37Zm-1.72-.94-.48.37-3.82-2.08.48-.37ZM82.3,52.09l-.49.37L81.05,52l.49-.37Zm-1.72-.94-.48.37-3.82-2.08.48-.37Z"/><polygon class="cls-1" points="130.9 83.93 130.37 84.27 76.25 49.42 76.79 49.08 130.9 83.93"/><path class="cls-1" d="M126.26,86.71l-.58.31-2.9-2.2.58-.31Zm-3.39-2.57-.57.31-.65-.49.58-.31ZM121.42,83l-.57.31-3.24-2.45.58-.32ZM117.7,80.2l-.57.32-.65-.5.57-.31Zm-1.45-1.1-.58.31L112.44,77l.57-.31Zm-3.72-2.83-.57.31-.65-.49.57-.31Zm-1.46-1.11-.57.32L107.27,73l.57-.32Zm-3.71-2.83-.58.32-.64-.49.57-.32Zm-1.46-1.1-.57.31-3.23-2.46.57-.31Zm-3.72-2.83-.57.31-.65-.49.58-.31Zm-1.45-1.11-.57.32-3.24-2.46.58-.32ZM97,64.47l-.57.31-.65-.49.57-.32Zm-1.45-1.11-.58.31-3.23-2.46.57-.31Zm-3.72-2.83-.57.31-.65-.49.57-.31Zm-1.46-1.11-.57.32-3.23-2.46.57-.31ZM86.67,56.6l-.58.31-.64-.49.57-.31Zm-1.46-1.11-.57.31-3.23-2.46L82,53Zm-3.72-2.83-.57.31-.65-.49.58-.31ZM80,51.56l-.57.31-3.24-2.46.58-.31Z"/><polygon class="cls-1" points="121.27 89.23 120.66 89.51 76.22 49.39 76.83 49.11 121.27 89.23"/><path class="cls-1" d="M76.84,49.13,79.4,51.9l-.64.25L76.2,49.38ZM80,52.59l.51.55-.64.25-.51-.55Zm.9,1,2.55,2.77-.64.25-2.56-2.77ZM84.13,57l.52.55-.65.25-.51-.55Zm.9,1,2.56,2.77-.65.25-2.56-2.77Zm3.2,3.46.51.55-.65.25-.51-.55Zm.89,1,2.56,2.77-.65.25-2.55-2.77Zm3.2,3.46.51.55-.64.25-.52-.55Zm.89,1,2.56,2.77-.64.25L92.57,67.1Zm3.2,3.46.51.55-.64.25-.51-.55Zm.9,1,2.56,2.77-.65.25-2.56-2.77Zm3.2,3.46.51.55-.65.25L99.86,75Zm.89,1L104,78.48l-.65.25L100.76,76Zm3.2,3.46.51.55-.65.25-.51-.55Zm.89,1,2.56,2.77-.64.25-2.56-2.77Zm3.2,3.46.51.55-.64.25-.51-.55Zm.9,1,2.55,2.77-.64.25-2.56-2.77ZM112.78,88l.52.55-.65.25-.51-.55Zm.9,1L116,91.48l-.64.25L113,89.25Z"/><polygon class="cls-1" points="76.86 49.15 110.41 93.44 109.73 93.65 76.18 49.36 76.86 49.15"/><path class="cls-1" d="M76.87,49.17l1.81,3-.7.17-1.81-3Zm2.27,3.75.36.6-.7.17-.36-.6Zm.63,1,1.81,3-.69.18-1.82-3ZM82,57.72l.36.6-.7.18-.36-.6Zm.63,1.05,1.82,3-.7.17L82,59Zm2.27,3.76.36.6-.7.17-.36-.6Zm.63,1,1.82,3-.7.17-1.82-3Zm2.27,3.75.36.6-.7.18-.36-.6Zm.63,1,1.82,3-.7.18-1.81-3Zm2.27,3.75.36.61-.7.17-.36-.6Zm.64,1.06,1.81,3-.7.17-1.81-3Zm2.26,3.75.37.6-.7.17-.37-.6Zm.64,1,1.81,3-.7.18-1.81-3Zm2.26,3.75.37.6-.7.18-.37-.6Zm.64,1.05,1.81,3-.7.17-1.81-3Zm2.27,3.76.36.6-.7.17-.36-.6Zm.63,1,1.81,3-.7.18-1.81-3Zm2.27,3.75.36.6-.7.18-.36-.6ZM103,92.4l1.63,2.69-.7.18-1.63-2.69Z"/><polygon class="cls-1" points="76.88 49.18 98.61 96.43 97.89 96.57 76.16 49.32 76.88 49.18"/><path class="cls-1" d="M76.89,49.2l1,3.16-.74.1-1-3.16Zm1.27,3.95.21.63-.74.1-.2-.64Zm.36,1.1,1,3.15-.74.1-1-3.15Zm1.27,3.94.21.63-.74.1-.2-.63Zm.36,1.11,1,3.15-.74.1-1-3.16Zm1.27,3.94.21.63-.74.1-.2-.63Zm.36,1.1,1,3.16-.74.09-1-3.15Zm1.27,4,.21.63-.74.09-.2-.63Zm.36,1.1,1,3.15-.74.1-1-3.15Zm1.27,3.94.21.63-.74.1-.2-.63ZM85,74.44l1,3.15-.74.1-1-3.16Zm1.27,3.94.21.63-.74.1-.2-.63Zm.36,1.1,1,3.16-.74.09-1-3.15Zm1.27,3.94.21.63-.74.1-.2-.63Zm.36,1.11,1,3.15-.74.1-1-3.15Zm1.27,3.94.21.63-.74.1-.2-.63Zm.36,1.1,1,3.16-.74.1-1-3.16Zm1.27,4,.21.63-.74.1-.2-.64Zm.36,1.1.91,2.83-.73.1-.92-2.83Z"/><polygon class="cls-1" points="76.89 49.22 86.22 98.13 85.47 98.19 76.15 49.28 76.89 49.22"/><path class="cls-1" d="M76.9,49.24l.19,3.22-.75,0-.19-3.22Zm.24,4,0,.64-.75,0,0-.64Zm.07,1.12.2,3.22-.75,0-.2-3.22Zm.25,4,0,.64-.75,0,0-.64Zm.06,1.12.2,3.22-.75,0-.2-3.22Zm.25,4,0,.64-.75,0,0-.64Zm.07,1.12L78,67.91l-.75,0-.19-3.22Zm.24,4,0,.64-.75,0,0-.64Zm.07,1.12.2,3.22-.75,0-.2-3.22Zm.25,4,0,.64-.75,0,0-.64ZM78.47,75l.19,3.22-.75,0L77.72,75Zm.24,4,0,.64-.75,0L78,79Zm.07,1.13.2,3.21-.75,0L78,80.16Zm.25,4,0,.64-.75,0,0-.64Zm.06,1.13.2,3.21-.75,0-.2-3.22Zm.25,4,0,.64-.75,0,0-.64Zm.07,1.13.2,3.21-.76,0-.19-3.22Zm.24,4,0,.64-.75,0,0-.64Zm.07,1.13.18,2.88-.75,0L79,95.62Z"/><polygon class="cls-1" points="76.89 49.26 73.56 98.49 72.81 98.47 76.15 49.24 76.89 49.26"/><path class="cls-1" d="M76.89,49.28l-.63,3.2-.74-.06.63-3.2Zm-.79,4-.12.64-.75-.06.13-.64Zm-.22,1.12-.63,3.19-.74-.06.63-3.19Zm-.79,4L75,59,74.22,59l.13-.64Zm-.22,1.12-.63,3.2-.74-.07.63-3.19Zm-.79,4-.12.64-.75-.06.13-.64Zm-.22,1.12-.63,3.2-.74-.06.63-3.2Zm-.79,4-.12.64-.75-.06.13-.64Zm-.22,1.12-.63,3.19-.74-.06.63-3.2Zm-.79,4-.12.64-.75-.06.13-.64Zm-.22,1.12L71.21,78,70.47,78l.63-3.19Zm-.79,4-.12.64-.75-.06.13-.64ZM70.83,80l-.63,3.2-.75-.06.64-3.2ZM70,84l-.12.64-.75-.07.13-.63Zm-.22,1.11-.63,3.2-.75-.06.64-3.2Zm-.79,4-.13.64-.74-.06.13-.64Zm-.22,1.12-.63,3.19-.75-.06.64-3.19Zm-.79,4-.13.64-.74-.06.13-.64ZM67.8,95.3l-.57,2.86-.74-.06.57-2.86Z"/><polygon class="cls-1" points="76.89 49.3 60.98 97.5 60.24 97.4 76.15 49.2 76.89 49.3"/><path class="cls-1" d="M76.88,49.32l-1.44,3.09-.72-.14,1.44-3.09Zm-1.8,3.86-.29.62-.72-.14.29-.62Zm-.51,1.08-1.44,3.08-.72-.14,1.44-3.08Zm-1.8,3.85-.29.62-.72-.14.29-.62Zm-.5,1.08-1.45,3.09-.72-.14,1.45-3.09Zm-1.81,3.86-.29.62-.71-.14.28-.62ZM70,64.13l-1.44,3.08-.72-.14L69.24,64ZM68.16,68l-.29.61-.72-.14.29-.61Zm-.51,1.08-1.44,3.08L65.49,72l1.44-3.08Zm-1.8,3.85-.29.62-.72-.14.29-.62ZM65.34,74,63.9,77.09,63.18,77l1.45-3.09Zm-1.8,3.86-.29.61-.72-.14.29-.61ZM63,78.94,61.6,82l-.72-.14,1.44-3.08Zm-1.81,3.85-.28.62-.72-.14.29-.62Zm-.5,1.08L59.29,87l-.72-.14L60,83.73Zm-1.8,3.86-.29.62-.72-.14.29-.62Zm-.51,1.08L57,91.89l-.72-.14,1.44-3.08Zm-1.8,3.85-.29.62-.72-.14.29-.62Zm-.5,1.08-1.3,2.77-.72-.14,1.3-2.77Z"/><path class="cls-1" d="M76.87,49.34l-1.83,3-.7-.18,1.83-3Zm-2.29,3.75-.37.6-.7-.18.37-.6Zm-.64,1-1.84,3L71.4,57l1.84-3Zm-2.3,3.74-.36.6-.7-.17.37-.6Zm-.64,1-1.83,3-.7-.18,1.83-3Zm-2.29,3.75-.37.6-.7-.18.37-.6Zm-.64,1-1.84,3-.69-.18,1.83-3Zm-2.29,3.75-.37.59-.7-.17.37-.6Zm-.65,1-1.83,3-.7-.18,1.84-3Zm-2.29,3.75-.37.6-.69-.18.36-.6Zm-.64,1-1.83,3-.7-.18,1.83-3Zm-2.29,3.75-.37.6-.7-.18.37-.6Zm-.64,1.05-1.84,3-.7-.17,1.84-3ZM57,81.86l-.36.6-.7-.17.37-.6Zm-.64,1-1.83,3-.7-.18,1.83-3ZM54,86.66l-.37.6-.7-.18.37-.6Zm-.64,1-1.84,3-.69-.17,1.83-3Zm-2.29,3.74-.37.6-.7-.17.37-.6Zm-.65,1-1.64,2.69-.7-.18,1.65-2.68Z"/><path class="cls-1" d="M76.86,49.36l-2.22,2.89L74,52l2.21-2.89ZM74.09,53l-.44.58L73,53.34l.44-.58Zm-.77,1L71.1,56.87l-.67-.21,2.21-2.89Zm-2.77,3.61-.44.58L69.43,58l.45-.58Zm-.77,1-2.22,2.88-.67-.21,2.21-2.89ZM67,62.22l-.44.58-.68-.22.45-.58Zm-.77,1L64,66.12l-.67-.22L65.56,63Zm-2.77,3.61-.44.58-.68-.22.45-.57Zm-.78,1-2.21,2.89-.67-.21L62,67.64Zm-2.76,3.61-.44.58-.68-.21.45-.58Zm-.78,1-2.21,2.89-.67-.21,2.21-2.89Zm-2.76,3.62-.44.57-.68-.21.44-.58Zm-.78,1L53.4,80l-.67-.22,2.21-2.89Zm-2.76,3.61-.45.58-.67-.22.44-.57Zm-.78,1-2.21,2.89-.67-.21,2.21-2.89Zm-2.76,3.61-.45.58-.67-.21.44-.58Zm-.78,1-2.21,2.89L45.65,89l2.21-2.89ZM45.77,90l-.45.58-.67-.21.44-.58ZM45,91l-2,2.59-.68-.22,2-2.59Z"/><path class="cls-1" d="M76.87,49.4l-2.79,3-.69-.27,2.79-3Zm-3.49,3.71-.56.59-.69-.26.56-.6Zm-1,1-2.79,3-.69-.26,2.79-3Zm-3.49,3.7-.56.6-.69-.27.56-.59Zm-1,1-2.8,3-.69-.27,2.8-3ZM64.45,62.6l-.56.59-.69-.26.56-.6Zm-1,1-2.79,3L60,66.34l2.79-3ZM60,67.34l-.56.59-.69-.26.56-.59Zm-1,1-2.79,3-.69-.26,2.79-3Zm-3.49,3.71-.56.59-.69-.27.56-.59Zm-1,1-2.79,3-.69-.27,2.8-3Zm-3.48,3.71-.56.59-.69-.26.56-.59Zm-1,1-2.79,3-.69-.26,2.79-3Zm-3.49,3.7-.56.6-.69-.27.56-.59Zm-1,1-2.79,3-.69-.27,2.79-3Zm-3.49,3.71-.56.59-.69-.26.56-.6Zm-1,1-2.79,3-.69-.26,2.8-3Zm-3.48,3.7-.56.6-.69-.27L37,90.8Z"/><path class="cls-1" d="M76.83,49.39,73.9,52l-.61-.28,2.93-2.62Zm-3.66,3.27-.58.53L72,52.9l.58-.52Zm-1,.92-2.93,2.61-.6-.28,2.92-2.61Zm-3.66,3.27-.58.52-.61-.28.58-.53Zm-1,.91-2.92,2.62-.61-.29,2.92-2.61ZM63.82,61l-.59.52-.61-.28.59-.52Zm-1,.91-2.92,2.62-.61-.28,2.92-2.62Zm-3.65,3.27-.58.53L58,65.45l.58-.52Zm-1,.92-2.93,2.61-.61-.28,2.93-2.61ZM54.46,69.4l-.58.52-.61-.28.58-.53Zm-1,.91-2.92,2.62-.61-.29L52.83,70Zm-3.65,3.27-.59.52-.61-.28.59-.52Zm-1,.91-2.92,2.62-.61-.28,2.92-2.62Zm-3.65,3.27-.59.53L43.91,78l.59-.52Zm-1,.92-2.93,2.61L40.55,81l2.93-2.61ZM40.43,82l-.58.52-.61-.28.58-.53Zm-1,.91-2.93,2.62-.6-.29,2.92-2.61Zm-3.66,3.27-.58.52-.61-.28.58-.52Zm-1,.92-2.62,2.34-.61-.28,2.62-2.35Z"/><path class="cls-1" d="M76.81,49.41l-3.25,2.45L73,51.55l3.24-2.45Zm-4.07,3.06-.65.49-.57-.31.65-.49Zm-1.13.86-3.25,2.45-.57-.31L71,53Zm-4.06,3.06-.65.49-.58-.31.65-.49Zm-1.14.86L63.16,59.7l-.57-.31,3.25-2.45Zm-4.06,3.06-.65.49-.57-.31.64-.49Zm-1.14.86L58,63.62l-.57-.31,3.25-2.45Zm-4.06,3.06-.65.49-.57-.31.65-.49ZM56,65.09l-3.25,2.45-.57-.31,3.25-2.45ZM52,68.15l-.65.49-.57-.31.65-.49ZM50.81,69l-3.25,2.45L47,71.15l3.25-2.45Zm-4.06,3.06-.65.49-.57-.31.65-.49Zm-1.14.86-3.25,2.45-.57-.31L45,72.62ZM41.55,76l-.65.49-.57-.31.65-.49Zm-1.14.86L37.16,79.3,36.59,79l3.25-2.44Zm-4.06,3.06-.65.49-.57-.31.65-.49Zm-1.14.86L32,83.22l-.57-.32,3.25-2.45Zm-4.06,3.06-.65.49L29.93,84l.65-.49ZM30,84.69,27.1,86.88l-.57-.31,2.91-2.2Z"/><path class="cls-1" d="M76.78,49.42l-3.55,2.27-.53-.34,3.56-2.27Zm-4.44,2.84-.71.45-.53-.34.71-.45Zm-1.24.79-3.55,2.27L67,55l3.55-2.27Zm-4.44,2.84-.71.45L65.42,56l.71-.45Zm-1.25.79L61.86,59l-.53-.34,3.56-2.27ZM61,59.52l-.71.45-.53-.34.71-.45Zm-1.24.79-3.55,2.27-.53-.34L59.2,60Zm-4.44,2.84-.71.45-.53-.34.71-.46ZM54,63.94l-3.55,2.27L50,65.87l3.55-2.27ZM49.6,66.78l-.71.45-.53-.34.71-.46Zm-1.24.79L44.8,69.84l-.52-.34,3.55-2.27Zm-4.44,2.84-.71.45-.53-.34.71-.46Zm-1.25.79-3.55,2.27-.53-.34,3.55-2.27ZM38.23,74l-.71.45L37,74.15l.71-.46ZM37,74.83,33.43,77.1l-.52-.34,3.55-2.27Zm-4.44,2.84-.72.45-.52-.34.71-.46Zm-1.25.79-3.55,2.27-.53-.35,3.55-2.26Zm-4.44,2.83-.71.46-.53-.34.71-.46Zm-1.24.8-3.19,2-.53-.34,3.19-2Z"/><path class="cls-1" d="M76.76,49.44l-3.83,2.07-.48-.37,3.83-2.07ZM72,52l-.77.41-.48-.37.77-.41Zm-1.34.72L66.8,54.82l-.49-.37,3.84-2.07Zm-4.79,2.59-.77.41-.48-.37.77-.41Zm-1.34.73-3.84,2.07-.48-.37L64,55.7Zm-4.79,2.58-.77.42-.48-.37.76-.42Zm-1.35.73-3.83,2.07-.48-.37L57.88,59ZM53.57,62l-.76.41L52.32,62l.77-.41Zm-1.34.72L48.4,64.76l-.48-.37,3.83-2.07Zm-4.79,2.59-.77.42-.48-.37.77-.42ZM46.1,66l-3.83,2.07-.49-.37,3.84-2.07ZM41.31,68.6l-.77.41-.48-.37.77-.41ZM40,69.32l-3.84,2.07L35.65,71,39.48,69Zm-4.8,2.59-.76.41L33.93,72l.76-.41Zm-1.34.72L30,74.71l-.48-.37,3.83-2.08ZM29,75.22l-.76.42-.49-.37.77-.42ZM27.7,76,23.87,78l-.48-.37,3.83-2.07Zm-4.79,2.59-.77.41-.48-.37.77-.41Zm-1.34.72-3.44,1.86-.48-.37,3.44-1.86Z"/><path class="cls-1" d="M76.74,49.45l-4.09,1.86-.43-.39,4.08-1.86Zm-5.11,2.32-.82.38-.43-.4.82-.37Zm-1.43.66-4.09,1.86-.43-.4L69.77,52Zm-5.11,2.32-.82.37-.43-.39.82-.37Zm-1.43.65-4.08,1.86-.44-.39L63.23,55Zm-5.11,2.33-.81.37-.44-.4.82-.37Zm-1.43.65L53,60.24l-.44-.4L56.69,58ZM52,60.7l-.82.37-.43-.39.81-.37Zm-1.43.65L46.5,63.21l-.43-.39L50.15,61Zm-5.11,2.33-.82.37-.43-.4.82-.37Zm-1.43.65L40,66.19l-.43-.4,4.09-1.86Zm-5.11,2.32-.82.38-.43-.4.82-.37Zm-1.43.65-4.09,1.86L33,68.77l4.09-1.86ZM32.4,69.63l-.81.37-.44-.39.82-.38ZM31,70.28l-4.08,1.86-.44-.39,4.09-1.86Zm-5.1,2.32-.82.38-.44-.4.82-.37Zm-1.43.66-4.09,1.86-.43-.4L24,72.86Zm-5.11,2.32-.82.37-.43-.39.81-.37Zm-1.43.65L14.24,77.9l-.44-.4,3.66-1.66Z"/><path class="cls-1" d="M76.33,49l.38.42L72.4,51.1,72,50.68Zm-5.39,2.05.38.42-.86.32-.38-.41Zm-1.51.57.38.42L65.5,53.71l-.38-.41ZM64,53.71l.38.41-.86.33L63.18,54Zm-1.51.57.38.42L58.6,56.33l-.38-.42Zm-5.39,2,.39.42-.87.33-.38-.42Zm-1.5.58.38.41L51.71,59l-.39-.42Zm-5.39,2,.38.42-.86.32-.39-.41Zm-1.51.57.38.42-4.31,1.63-.38-.41Zm-5.39,2.05.38.41-.86.33-.38-.42Zm-1.51.57.38.42-4.31,1.63-.38-.41Zm-5.39,2,.38.42-.86.33-.38-.42Zm-1.51.58.38.41L31,66.8l-.38-.42Zm-5.39,2,.38.42-.86.32-.38-.41ZM28,67.36l.39.42-4.32,1.64L23.73,69Zm-5.39,2,.39.41-.87.33-.38-.41Zm-1.5.57.38.42L17.22,72l-.39-.41Zm-5.39,2,.38.41-.86.33-.39-.42Zm-1.51.57.38.41-3.86,1.47-.39-.42Z"/><path class="cls-1" d="M76.36,49l.32.43-4.5,1.4-.33-.43Zm-5.64,1.75.33.43-.9.28-.33-.43Zm-1.57.49.32.43L65,53.11l-.33-.43ZM63.51,53l.33.43-.9.28-.33-.43Zm-1.57.49.32.43-4.51,1.4-.32-.43ZM56.3,55.27l.33.43-.9.28-.33-.43Zm-1.58.49.33.43-4.51,1.4-.32-.43Zm-5.63,1.75.33.43-.9.28-.33-.43ZM47.51,58l.33.43-4.51,1.4L43,59.4Zm-5.63,1.75.33.43-.9.28L41,60Zm-1.58.49.33.43-4.51,1.4-.32-.43ZM34.67,62l.33.43-.91.28-.32-.43Zm-1.58.49.33.43-4.51,1.4-.32-.43Zm-5.63,1.75.32.43-.9.28-.32-.43Zm-1.58.49.33.43-4.51,1.4-.33-.43Zm-5.63,1.75.32.43-.9.28-.32-.43ZM18.67,67l.33.43-4.51,1.4-.33-.43ZM13,68.71l.32.43-.9.28L12.14,69Zm-1.58.49.33.43-4,1.26-.33-.44Z"/><path class="cls-1" d="M76.39,49l.27.45L72,50.63l-.27-.45Zm-5.84,1.44.27.45-.94.23-.27-.45Zm-1.64.41.27.45-4.67,1.15L64.24,52Zm-5.84,1.44.27.45-.93.23-.27-.45Zm-1.63.4.27.46L57,54.33l-.27-.45ZM55.6,54.17l.27.45-.94.23-.27-.45Zm-1.64.4.27.45-4.67,1.16-.27-.45ZM48.12,56l.27.45-.93.23-.27-.45Zm-1.63.4.27.45L42.09,58l-.27-.45Zm-5.84,1.45.27.45-.94.23-.26-.45Zm-1.64.4.27.45-4.67,1.16-.27-.46Zm-5.83,1.44.26.45-.93.24-.27-.46Zm-1.64.41.27.45-4.67,1.15-.27-.45ZM25.7,61.56,26,62l-.93.23-.27-.45ZM24.07,62l.27.45-4.68,1.15-.27-.45Zm-5.84,1.44.27.45-.94.23-.27-.45Zm-1.64.41.27.45-4.67,1.15L11.92,65Zm-5.84,1.44.27.45-.93.23-.27-.45Zm-1.63.4.27.45-4.19,1-.27-.45Z"/><path class="cls-1" d="M76.42,49l.21.46-4.81.91-.21-.47Zm-6,1.13.21.46-1,.18-.21-.46Zm-1.68.31.21.47-4.8.9-.22-.46Zm-6,1.13.21.47-1,.18-.21-.47ZM61,51.91l.21.46-4.8.9-.21-.46ZM55,53l.21.46-1,.18-.21-.46Zm-1.68.31.21.47-4.81.9-.21-.47Zm-6,1.13.21.46-1,.18-.21-.46Zm-1.68.32.21.46-4.8.9-.21-.46Zm-6,1.12.21.47-1,.18-.21-.47ZM38,56.24l.21.46-4.8.91-.21-.47Zm-6,1.13.21.46-1,.18L31,57.55Zm-1.68.31.21.47-4.81.9-.21-.46Zm-6,1.13.21.47-1,.18L23.33,59Zm-1.68.32.21.46-4.8.9L17.81,60Zm-6,1.13.21.46-1,.18-.22-.46Zm-1.69.31.21.47-4.8.9-.21-.47Zm-6,1.13.21.46-1,.18L8,61.88ZM7.24,62l.21.47-4.31.81-.21-.47Z"/><path class="cls-1" d="M76.41,49l.17.51-5.3.69-.16-.52Zm-6.62.86.17.51-1.06.14L68.73,50Zm-1.85.24.16.51-5.29.69-.17-.51ZM61.32,51l.17.51-1.06.14-.17-.51Zm-1.85.24.16.51-5.29.69-.17-.51Zm-6.62.86.16.51L52,52.7l-.16-.51ZM51,52.29l.16.51-5.3.69L45.7,53Zm-6.62.86.16.51-1.06.14-.16-.51Zm-1.86.24.17.51-5.3.69-.16-.51Zm-6.62.86.17.51L35,54.9l-.16-.51Zm-1.85.24.17.52-5.3.68-.16-.51Zm-6.62.86.17.52L26.54,56l-.17-.51Zm-1.85.24.16.52-5.29.68-.17-.51ZM19,56.45l.16.52-1.06.13-.16-.51Zm-1.85.25.16.51L12,57.9l-.17-.52Zm-6.62.86.16.51-1.06.14-.16-.52Zm-1.86.24.17.51L3.5,59l-.16-.51ZM2,58.66l.16.51-1.06.14L1,58.79Z"/><path class="cls-1" d="M76.48,49l.08.48-5,.38-.09-.48Zm-6.22.48.09.48-1,.07-.09-.48Zm-1.73.13.08.48-5,.38L63.56,50Zm-6.22.48.09.47-1,.08-.09-.48Zm-1.74.13.09.48-5,.38-.09-.48Zm-6.21.47.09.48-1,.08-.09-.48Zm-1.74.14.09.48-5,.38-.09-.48Zm-6.21.47.09.48-1,.08-.09-.48Zm-1.74.13.09.48-5,.38-.09-.48Zm-6.21.48.09.48-1,.07L37.47,52Zm-1.74.13.09.48-5,.38-.09-.48Zm-6.21.48.09.48-1,.07-.08-.48Zm-1.74.13.09.48-5,.38L23.8,53Zm-6.21.47.09.48-1,.08-.09-.48Zm-1.74.14.09.48-5,.38-.09-.48Zm-6.21.47.09.48-1,.08-.09-.48Zm-1.74.13.09.48-5,.38-.09-.48Zm-6.21.48.08.48-1,.07-.09-.48Zm-1.74.13L5,55,.55,55.3l-.09-.48Z"/><path class="cls-1" d="M115.52,6.58l-2,2.25-.64-.25,2-2.25Zm-2.35,2.63-.45.5-.65-.25.45-.5Zm-1,1.13-2.24,2.51-.65-.25,2.25-2.51Zm-2.58,2.89-.45.5-.64-.25.45-.5Zm-1,1.13-2.25,2.52-.64-.25,2.25-2.52ZM106,17.25l-.45.51-.64-.25.45-.51Zm-1,1.13-2.24,2.52-.65-.25,2.25-2.51Zm-2.58,2.9-.45.5-.64-.25.45-.5Zm-1,1.13-2.25,2.51-.64-.25,2.24-2.51ZM98.78,25.3l-.45.5-.64-.25.45-.5Zm-1,1.13-2.25,2.51-.64-.25,2.25-2.51Zm-2.58,2.89-.45.5-.65-.25.45-.5Zm-1,1.13L91.93,33l-.65-.25,2.25-2.52Zm-2.58,2.89-.45.51-.64-.25.45-.51Zm-1,1.13L88.33,37l-.64-.25,2.25-2.51ZM88,37.37l-.45.5-.64-.25.45-.5ZM87,38.5,84.73,41l-.64-.25,2.25-2.51ZM84.4,41.39l-.45.5-.64-.25.44-.5Zm-1,1.13L81.14,45l-.64-.24,2.24-2.52Z"/><ellipse class="cls-2" cx="77.13" cy="50" rx="67.19" ry="42.2"/><text class="cls-3" transform="translate(36.73 62.08)">S<tspan class="cls-4" x="17.73" y="0">HO</tspan><tspan class="cls-5" x="67.59" y="0">P</tspan></text></g></g></svg>