<?xml version="1.0" encoding="utf-8"?>
<!-- Generator: Adobe Illustrator 24.0.3, SVG Export Plug-In . SVG Version: 6.00 Build 0)  -->
<svg version="1.1" id="Layer_1" xmlns="http://www.w3.org/2000/svg" xmlns:xlink="http://www.w3.org/1999/xlink" x="0px" y="0px"
	 viewBox="0 0 38.1 46.8" style="enable-background:new 0 0 38.1 46.8;" xml:space="preserve">
<style type="text/css">
	.st000{fill:none;stroke:#CD983F;stroke-miterlimit:10;}
	.st111{fill:#CD983F;}
	.st222{font-family:'LibreBaskerville-Bold';}
	.st333{font-size:8.85px;}
</style>
<title>shop</title>
<g id="Layer_2_1_">
	<g id="หน้า4">
		<path class="st000" d="M12.8,17l0.1-11.4c0.4-3,3.1-5.2,6.1-5.1c1.7-0.1,3.3,0.6,4.5,1.7c1,1,1.6,2.3,1.8,3.7c0,3.7,0,7.5,0,11.2"/>
		<circle class="st000" cx="12.7" cy="17.8" r="0.9"/>
		<circle class="st000" cx="25.3" cy="17.8" r="0.9"/>
		<path class="st000" d="M0.5,44.6c1.6-10.7,3.1-21.3,4.7-32c0.1-0.2,0.2-0.5,0.4-0.6c0.4-0.4,1-0.5,1.6-0.5l24.1-0.1
			c0.9,0.1,1.6,0.8,1.7,1.7c1.5,10.4,3.1,20.8,4.6,31.2c0.1,0.4,0,0.8-0.2,1.2c-0.2,0.4-0.6,0.6-1,0.7L1.6,46.3
			c-0.3-0.1-0.6-0.4-0.8-0.7C0.6,45.3,0.5,44.9,0.5,44.6z"/>
		<text transform="matrix(1 0 0 1 7.8337 34.25)" class="st111 st222 st333">shop</text>
	</g>
</g>
</svg>
